G75*
%MOIN*%
%OFA0B0*%
%FSLAX24Y24*%
%IPPOS*%
%LPD*%
%AMOC8*
5,1,8,0,0,1.08239X$1,22.5*
%
%ADD10C,0.0000*%
%ADD11R,0.0237X0.0631*%
%ADD12R,0.0631X0.0237*%
%ADD13R,0.0197X0.0315*%
%ADD14R,0.0630X0.0157*%
%ADD15R,0.0473X0.0434*%
%ADD16R,0.0434X0.0827*%
%ADD17R,0.0827X0.0434*%
%ADD18OC8,0.0640*%
%ADD19C,0.0375*%
D10*
X009175Y003001D02*
X009177Y003026D01*
X009183Y003051D01*
X009192Y003075D01*
X009205Y003097D01*
X009222Y003117D01*
X009241Y003134D01*
X009262Y003148D01*
X009286Y003158D01*
X009310Y003165D01*
X009336Y003168D01*
X009361Y003167D01*
X009386Y003162D01*
X009410Y003153D01*
X009433Y003141D01*
X009453Y003126D01*
X009471Y003107D01*
X009486Y003086D01*
X009497Y003063D01*
X009505Y003039D01*
X009509Y003014D01*
X009509Y002988D01*
X009505Y002963D01*
X009497Y002939D01*
X009486Y002916D01*
X009471Y002895D01*
X009453Y002876D01*
X009433Y002861D01*
X009410Y002849D01*
X009386Y002840D01*
X009361Y002835D01*
X009336Y002834D01*
X009310Y002837D01*
X009286Y002844D01*
X009262Y002854D01*
X009241Y002868D01*
X009222Y002885D01*
X009205Y002905D01*
X009192Y002927D01*
X009183Y002951D01*
X009177Y002976D01*
X009175Y003001D01*
X010671Y003001D02*
X010673Y003026D01*
X010679Y003051D01*
X010688Y003075D01*
X010701Y003097D01*
X010718Y003117D01*
X010737Y003134D01*
X010758Y003148D01*
X010782Y003158D01*
X010806Y003165D01*
X010832Y003168D01*
X010857Y003167D01*
X010882Y003162D01*
X010906Y003153D01*
X010929Y003141D01*
X010949Y003126D01*
X010967Y003107D01*
X010982Y003086D01*
X010993Y003063D01*
X011001Y003039D01*
X011005Y003014D01*
X011005Y002988D01*
X011001Y002963D01*
X010993Y002939D01*
X010982Y002916D01*
X010967Y002895D01*
X010949Y002876D01*
X010929Y002861D01*
X010906Y002849D01*
X010882Y002840D01*
X010857Y002835D01*
X010832Y002834D01*
X010806Y002837D01*
X010782Y002844D01*
X010758Y002854D01*
X010737Y002868D01*
X010718Y002885D01*
X010701Y002905D01*
X010688Y002927D01*
X010679Y002951D01*
X010673Y002976D01*
X010671Y003001D01*
X000100Y010957D02*
X000103Y011195D01*
X000111Y011433D01*
X000126Y011670D01*
X000146Y011907D01*
X000172Y012143D01*
X000203Y012379D01*
X000240Y012614D01*
X000283Y012848D01*
X000332Y013081D01*
X000386Y013313D01*
X000446Y013543D01*
X000511Y013772D01*
X000582Y013999D01*
X000658Y014224D01*
X000740Y014447D01*
X000827Y014669D01*
X000919Y014888D01*
X001017Y015105D01*
X001119Y015319D01*
X001227Y015531D01*
X001341Y015741D01*
X001459Y015947D01*
X001582Y016151D01*
X001710Y016351D01*
X001842Y016548D01*
X001980Y016743D01*
X002122Y016933D01*
X002269Y017121D01*
X002420Y017304D01*
X002575Y017484D01*
X002735Y017660D01*
X002899Y017832D01*
X003068Y018001D01*
X003240Y018165D01*
X003416Y018325D01*
X003596Y018480D01*
X003779Y018631D01*
X003967Y018778D01*
X004157Y018920D01*
X004352Y019058D01*
X004549Y019190D01*
X004749Y019318D01*
X004953Y019441D01*
X005159Y019559D01*
X005369Y019673D01*
X005581Y019781D01*
X005795Y019883D01*
X006012Y019981D01*
X006231Y020073D01*
X006453Y020160D01*
X006676Y020242D01*
X006901Y020318D01*
X007128Y020389D01*
X007357Y020454D01*
X007587Y020514D01*
X007819Y020568D01*
X008052Y020617D01*
X008286Y020660D01*
X008521Y020697D01*
X008757Y020728D01*
X008993Y020754D01*
X009230Y020774D01*
X009467Y020789D01*
X009705Y020797D01*
X009943Y020800D01*
X010181Y020797D01*
X010419Y020789D01*
X010656Y020774D01*
X010893Y020754D01*
X011129Y020728D01*
X011365Y020697D01*
X011600Y020660D01*
X011834Y020617D01*
X012067Y020568D01*
X012299Y020514D01*
X012529Y020454D01*
X012758Y020389D01*
X012985Y020318D01*
X013210Y020242D01*
X013433Y020160D01*
X013655Y020073D01*
X013874Y019981D01*
X014091Y019883D01*
X014305Y019781D01*
X014517Y019673D01*
X014727Y019559D01*
X014933Y019441D01*
X015137Y019318D01*
X015337Y019190D01*
X015534Y019058D01*
X015729Y018920D01*
X015919Y018778D01*
X016107Y018631D01*
X016290Y018480D01*
X016470Y018325D01*
X016646Y018165D01*
X016818Y018001D01*
X016987Y017832D01*
X017151Y017660D01*
X017311Y017484D01*
X017466Y017304D01*
X017617Y017121D01*
X017764Y016933D01*
X017906Y016743D01*
X018044Y016548D01*
X018176Y016351D01*
X018304Y016151D01*
X018427Y015947D01*
X018545Y015741D01*
X018659Y015531D01*
X018767Y015319D01*
X018869Y015105D01*
X018967Y014888D01*
X019059Y014669D01*
X019146Y014447D01*
X019228Y014224D01*
X019304Y013999D01*
X019375Y013772D01*
X019440Y013543D01*
X019500Y013313D01*
X019554Y013081D01*
X019603Y012848D01*
X019646Y012614D01*
X019683Y012379D01*
X019714Y012143D01*
X019740Y011907D01*
X019760Y011670D01*
X019775Y011433D01*
X019783Y011195D01*
X019786Y010957D01*
X019783Y010719D01*
X019775Y010481D01*
X019760Y010244D01*
X019740Y010007D01*
X019714Y009771D01*
X019683Y009535D01*
X019646Y009300D01*
X019603Y009066D01*
X019554Y008833D01*
X019500Y008601D01*
X019440Y008371D01*
X019375Y008142D01*
X019304Y007915D01*
X019228Y007690D01*
X019146Y007467D01*
X019059Y007245D01*
X018967Y007026D01*
X018869Y006809D01*
X018767Y006595D01*
X018659Y006383D01*
X018545Y006173D01*
X018427Y005967D01*
X018304Y005763D01*
X018176Y005563D01*
X018044Y005366D01*
X017906Y005171D01*
X017764Y004981D01*
X017617Y004793D01*
X017466Y004610D01*
X017311Y004430D01*
X017151Y004254D01*
X016987Y004082D01*
X016818Y003913D01*
X016646Y003749D01*
X016470Y003589D01*
X016290Y003434D01*
X016107Y003283D01*
X015919Y003136D01*
X015729Y002994D01*
X015534Y002856D01*
X015337Y002724D01*
X015137Y002596D01*
X014933Y002473D01*
X014727Y002355D01*
X014517Y002241D01*
X014305Y002133D01*
X014091Y002031D01*
X013874Y001933D01*
X013655Y001841D01*
X013433Y001754D01*
X013210Y001672D01*
X012985Y001596D01*
X012758Y001525D01*
X012529Y001460D01*
X012299Y001400D01*
X012067Y001346D01*
X011834Y001297D01*
X011600Y001254D01*
X011365Y001217D01*
X011129Y001186D01*
X010893Y001160D01*
X010656Y001140D01*
X010419Y001125D01*
X010181Y001117D01*
X009943Y001114D01*
X009705Y001117D01*
X009467Y001125D01*
X009230Y001140D01*
X008993Y001160D01*
X008757Y001186D01*
X008521Y001217D01*
X008286Y001254D01*
X008052Y001297D01*
X007819Y001346D01*
X007587Y001400D01*
X007357Y001460D01*
X007128Y001525D01*
X006901Y001596D01*
X006676Y001672D01*
X006453Y001754D01*
X006231Y001841D01*
X006012Y001933D01*
X005795Y002031D01*
X005581Y002133D01*
X005369Y002241D01*
X005159Y002355D01*
X004953Y002473D01*
X004749Y002596D01*
X004549Y002724D01*
X004352Y002856D01*
X004157Y002994D01*
X003967Y003136D01*
X003779Y003283D01*
X003596Y003434D01*
X003416Y003589D01*
X003240Y003749D01*
X003068Y003913D01*
X002899Y004082D01*
X002735Y004254D01*
X002575Y004430D01*
X002420Y004610D01*
X002269Y004793D01*
X002122Y004981D01*
X001980Y005171D01*
X001842Y005366D01*
X001710Y005563D01*
X001582Y005763D01*
X001459Y005967D01*
X001341Y006173D01*
X001227Y006383D01*
X001119Y006595D01*
X001017Y006809D01*
X000919Y007026D01*
X000827Y007245D01*
X000740Y007467D01*
X000658Y007690D01*
X000582Y007915D01*
X000511Y008142D01*
X000446Y008371D01*
X000386Y008601D01*
X000332Y008833D01*
X000283Y009066D01*
X000240Y009300D01*
X000203Y009535D01*
X000172Y009771D01*
X000146Y010007D01*
X000126Y010244D01*
X000111Y010481D01*
X000103Y010719D01*
X000100Y010957D01*
D11*
X008125Y012658D03*
X008440Y012658D03*
X008755Y012658D03*
X009070Y012658D03*
X009385Y012658D03*
X009700Y012658D03*
X010015Y012658D03*
X010330Y012658D03*
X010645Y012658D03*
X010960Y012658D03*
X011275Y012658D03*
X011275Y008091D03*
X010960Y008091D03*
X010645Y008091D03*
X010330Y008091D03*
X010015Y008091D03*
X009700Y008091D03*
X009385Y008091D03*
X009070Y008091D03*
X008755Y008091D03*
X008440Y008091D03*
X008125Y008091D03*
D12*
X007417Y008800D03*
X007417Y009115D03*
X007417Y009430D03*
X007417Y009745D03*
X007417Y010060D03*
X007417Y010375D03*
X007417Y010690D03*
X007417Y011005D03*
X007417Y011320D03*
X007417Y011634D03*
X007417Y011949D03*
X011983Y011949D03*
X011983Y011634D03*
X011983Y011320D03*
X011983Y011005D03*
X011983Y010690D03*
X011983Y010375D03*
X011983Y010060D03*
X011983Y009745D03*
X011983Y009430D03*
X011983Y009115D03*
X011983Y008800D03*
D13*
X013427Y010474D03*
X013427Y011065D03*
X013427Y011655D03*
X014253Y011655D03*
X014253Y011065D03*
X014253Y010474D03*
D14*
X013840Y010474D03*
X013840Y011065D03*
X013840Y011655D03*
D15*
X015245Y011495D03*
X015915Y011495D03*
X015865Y012375D03*
X015195Y012375D03*
X015215Y010625D03*
X015885Y010625D03*
X015885Y009805D03*
X015215Y009805D03*
X014750Y016060D03*
X014750Y016729D03*
X013900Y016719D03*
X013900Y016050D03*
D16*
X012590Y017805D03*
X011590Y019104D03*
X010590Y017805D03*
X009590Y019104D03*
X008590Y017805D03*
X007590Y019104D03*
X007080Y004614D03*
X008080Y003315D03*
X009080Y004614D03*
X010080Y003315D03*
X011080Y004614D03*
X012080Y003315D03*
D17*
G36*
X005191Y004838D02*
X004608Y004255D01*
X004301Y004562D01*
X004884Y005145D01*
X005191Y004838D01*
G37*
G36*
X005403Y006464D02*
X004820Y005881D01*
X004513Y006188D01*
X005096Y006771D01*
X005403Y006464D01*
G37*
G36*
X003989Y007878D02*
X003406Y007295D01*
X003099Y007602D01*
X003682Y008185D01*
X003989Y007878D01*
G37*
G36*
X003777Y006252D02*
X003194Y005669D01*
X002887Y005976D01*
X003470Y006559D01*
X003777Y006252D01*
G37*
G36*
X002363Y007666D02*
X001780Y007083D01*
X001473Y007390D01*
X002056Y007973D01*
X002363Y007666D01*
G37*
G36*
X002574Y009292D02*
X001991Y008709D01*
X001684Y009016D01*
X002267Y009599D01*
X002574Y009292D01*
G37*
G36*
X014183Y005633D02*
X013600Y006216D01*
X013907Y006523D01*
X014490Y005940D01*
X014183Y005633D01*
G37*
G36*
X015809Y005422D02*
X015226Y006005D01*
X015533Y006312D01*
X016116Y005729D01*
X015809Y005422D01*
G37*
G36*
X017223Y006836D02*
X016640Y007419D01*
X016947Y007726D01*
X017530Y007143D01*
X017223Y006836D01*
G37*
G36*
X015597Y007048D02*
X015014Y007631D01*
X015321Y007938D01*
X015904Y007355D01*
X015597Y007048D01*
G37*
G36*
X017012Y008462D02*
X016429Y009045D01*
X016736Y009352D01*
X017319Y008769D01*
X017012Y008462D01*
G37*
G36*
X018637Y008250D02*
X018054Y008833D01*
X018361Y009140D01*
X018944Y008557D01*
X018637Y008250D01*
G37*
D18*
X018170Y010995D03*
D19*
X010838Y003001D03*
X009342Y003001D03*
M02*
