G75*
%MOIN*%
%OFA0B0*%
%FSLAX24Y24*%
%IPPOS*%
%LPD*%
%AMOC8*
5,1,8,0,0,1.08239X$1,22.5*
%
%ADD10C,0.0000*%
%ADD11C,0.0160*%
%ADD12C,0.0040*%
%ADD13R,0.0290X0.0010*%
%ADD14R,0.0050X0.0010*%
%ADD15R,0.0900X0.0010*%
%ADD16R,0.0410X0.0010*%
%ADD17R,0.1310X0.0010*%
%ADD18R,0.0060X0.0010*%
%ADD19R,0.0950X0.0010*%
%ADD20R,0.0500X0.0010*%
%ADD21R,0.1330X0.0010*%
%ADD22R,0.0070X0.0010*%
%ADD23R,0.0970X0.0010*%
%ADD24R,0.0570X0.0010*%
%ADD25R,0.1350X0.0010*%
%ADD26R,0.0980X0.0010*%
%ADD27R,0.0630X0.0010*%
%ADD28R,0.0330X0.0010*%
%ADD29R,0.0040X0.0010*%
%ADD30R,0.0990X0.0010*%
%ADD31R,0.0250X0.0010*%
%ADD32R,0.0230X0.0010*%
%ADD33R,0.0210X0.0010*%
%ADD34R,0.0200X0.0010*%
%ADD35R,0.0190X0.0010*%
%ADD36R,0.0170X0.0010*%
%ADD37R,0.0080X0.0010*%
%ADD38R,0.0160X0.0010*%
%ADD39R,0.0150X0.0010*%
%ADD40R,0.0140X0.0010*%
%ADD41R,0.0130X0.0010*%
%ADD42R,0.0120X0.0010*%
%ADD43R,0.0110X0.0010*%
%ADD44R,0.0100X0.0010*%
%ADD45R,0.0090X0.0010*%
%ADD46R,0.0020X0.0010*%
%ADD47R,0.0180X0.0010*%
%ADD48R,0.0280X0.0010*%
%ADD49R,0.0940X0.0010*%
%ADD50R,0.0340X0.0010*%
%ADD51R,0.0440X0.0010*%
%ADD52R,0.0530X0.0010*%
%ADD53R,0.0540X0.0010*%
%ADD54R,0.0930X0.0010*%
%ADD55R,0.0450X0.0010*%
%ADD56R,0.0220X0.0010*%
%ADD57R,0.0010X0.0010*%
%ADD58R,0.1150X0.0010*%
%ADD59R,0.1170X0.0010*%
%ADD60R,0.0650X0.0010*%
%ADD61R,0.0610X0.0010*%
%ADD62R,0.1180X0.0010*%
%ADD63R,0.0550X0.0010*%
%ADD64R,0.0480X0.0010*%
%ADD65R,0.0400X0.0010*%
%ADD66C,0.0120*%
%ADD67R,0.0157X0.0157*%
%ADD68R,0.0157X0.0157*%
%ADD69C,0.0050*%
D10*
X009175Y003001D02*
X009177Y003026D01*
X009183Y003051D01*
X009192Y003075D01*
X009205Y003097D01*
X009222Y003117D01*
X009241Y003134D01*
X009262Y003148D01*
X009286Y003158D01*
X009310Y003165D01*
X009336Y003168D01*
X009361Y003167D01*
X009386Y003162D01*
X009410Y003153D01*
X009433Y003141D01*
X009453Y003126D01*
X009471Y003107D01*
X009486Y003086D01*
X009497Y003063D01*
X009505Y003039D01*
X009509Y003014D01*
X009509Y002988D01*
X009505Y002963D01*
X009497Y002939D01*
X009486Y002916D01*
X009471Y002895D01*
X009453Y002876D01*
X009433Y002861D01*
X009410Y002849D01*
X009386Y002840D01*
X009361Y002835D01*
X009336Y002834D01*
X009310Y002837D01*
X009286Y002844D01*
X009262Y002854D01*
X009241Y002868D01*
X009222Y002885D01*
X009205Y002905D01*
X009192Y002927D01*
X009183Y002951D01*
X009177Y002976D01*
X009175Y003001D01*
X010671Y003001D02*
X010673Y003026D01*
X010679Y003051D01*
X010688Y003075D01*
X010701Y003097D01*
X010718Y003117D01*
X010737Y003134D01*
X010758Y003148D01*
X010782Y003158D01*
X010806Y003165D01*
X010832Y003168D01*
X010857Y003167D01*
X010882Y003162D01*
X010906Y003153D01*
X010929Y003141D01*
X010949Y003126D01*
X010967Y003107D01*
X010982Y003086D01*
X010993Y003063D01*
X011001Y003039D01*
X011005Y003014D01*
X011005Y002988D01*
X011001Y002963D01*
X010993Y002939D01*
X010982Y002916D01*
X010967Y002895D01*
X010949Y002876D01*
X010929Y002861D01*
X010906Y002849D01*
X010882Y002840D01*
X010857Y002835D01*
X010832Y002834D01*
X010806Y002837D01*
X010782Y002844D01*
X010758Y002854D01*
X010737Y002868D01*
X010718Y002885D01*
X010701Y002905D01*
X010688Y002927D01*
X010679Y002951D01*
X010673Y002976D01*
X010671Y003001D01*
X000100Y010957D02*
X000103Y011195D01*
X000111Y011433D01*
X000126Y011670D01*
X000146Y011907D01*
X000172Y012143D01*
X000203Y012379D01*
X000240Y012614D01*
X000283Y012848D01*
X000332Y013081D01*
X000386Y013313D01*
X000446Y013543D01*
X000511Y013772D01*
X000582Y013999D01*
X000658Y014224D01*
X000740Y014447D01*
X000827Y014669D01*
X000919Y014888D01*
X001017Y015105D01*
X001119Y015319D01*
X001227Y015531D01*
X001341Y015741D01*
X001459Y015947D01*
X001582Y016151D01*
X001710Y016351D01*
X001842Y016548D01*
X001980Y016743D01*
X002122Y016933D01*
X002269Y017121D01*
X002420Y017304D01*
X002575Y017484D01*
X002735Y017660D01*
X002899Y017832D01*
X003068Y018001D01*
X003240Y018165D01*
X003416Y018325D01*
X003596Y018480D01*
X003779Y018631D01*
X003967Y018778D01*
X004157Y018920D01*
X004352Y019058D01*
X004549Y019190D01*
X004749Y019318D01*
X004953Y019441D01*
X005159Y019559D01*
X005369Y019673D01*
X005581Y019781D01*
X005795Y019883D01*
X006012Y019981D01*
X006231Y020073D01*
X006453Y020160D01*
X006676Y020242D01*
X006901Y020318D01*
X007128Y020389D01*
X007357Y020454D01*
X007587Y020514D01*
X007819Y020568D01*
X008052Y020617D01*
X008286Y020660D01*
X008521Y020697D01*
X008757Y020728D01*
X008993Y020754D01*
X009230Y020774D01*
X009467Y020789D01*
X009705Y020797D01*
X009943Y020800D01*
X010181Y020797D01*
X010419Y020789D01*
X010656Y020774D01*
X010893Y020754D01*
X011129Y020728D01*
X011365Y020697D01*
X011600Y020660D01*
X011834Y020617D01*
X012067Y020568D01*
X012299Y020514D01*
X012529Y020454D01*
X012758Y020389D01*
X012985Y020318D01*
X013210Y020242D01*
X013433Y020160D01*
X013655Y020073D01*
X013874Y019981D01*
X014091Y019883D01*
X014305Y019781D01*
X014517Y019673D01*
X014727Y019559D01*
X014933Y019441D01*
X015137Y019318D01*
X015337Y019190D01*
X015534Y019058D01*
X015729Y018920D01*
X015919Y018778D01*
X016107Y018631D01*
X016290Y018480D01*
X016470Y018325D01*
X016646Y018165D01*
X016818Y018001D01*
X016987Y017832D01*
X017151Y017660D01*
X017311Y017484D01*
X017466Y017304D01*
X017617Y017121D01*
X017764Y016933D01*
X017906Y016743D01*
X018044Y016548D01*
X018176Y016351D01*
X018304Y016151D01*
X018427Y015947D01*
X018545Y015741D01*
X018659Y015531D01*
X018767Y015319D01*
X018869Y015105D01*
X018967Y014888D01*
X019059Y014669D01*
X019146Y014447D01*
X019228Y014224D01*
X019304Y013999D01*
X019375Y013772D01*
X019440Y013543D01*
X019500Y013313D01*
X019554Y013081D01*
X019603Y012848D01*
X019646Y012614D01*
X019683Y012379D01*
X019714Y012143D01*
X019740Y011907D01*
X019760Y011670D01*
X019775Y011433D01*
X019783Y011195D01*
X019786Y010957D01*
X019783Y010719D01*
X019775Y010481D01*
X019760Y010244D01*
X019740Y010007D01*
X019714Y009771D01*
X019683Y009535D01*
X019646Y009300D01*
X019603Y009066D01*
X019554Y008833D01*
X019500Y008601D01*
X019440Y008371D01*
X019375Y008142D01*
X019304Y007915D01*
X019228Y007690D01*
X019146Y007467D01*
X019059Y007245D01*
X018967Y007026D01*
X018869Y006809D01*
X018767Y006595D01*
X018659Y006383D01*
X018545Y006173D01*
X018427Y005967D01*
X018304Y005763D01*
X018176Y005563D01*
X018044Y005366D01*
X017906Y005171D01*
X017764Y004981D01*
X017617Y004793D01*
X017466Y004610D01*
X017311Y004430D01*
X017151Y004254D01*
X016987Y004082D01*
X016818Y003913D01*
X016646Y003749D01*
X016470Y003589D01*
X016290Y003434D01*
X016107Y003283D01*
X015919Y003136D01*
X015729Y002994D01*
X015534Y002856D01*
X015337Y002724D01*
X015137Y002596D01*
X014933Y002473D01*
X014727Y002355D01*
X014517Y002241D01*
X014305Y002133D01*
X014091Y002031D01*
X013874Y001933D01*
X013655Y001841D01*
X013433Y001754D01*
X013210Y001672D01*
X012985Y001596D01*
X012758Y001525D01*
X012529Y001460D01*
X012299Y001400D01*
X012067Y001346D01*
X011834Y001297D01*
X011600Y001254D01*
X011365Y001217D01*
X011129Y001186D01*
X010893Y001160D01*
X010656Y001140D01*
X010419Y001125D01*
X010181Y001117D01*
X009943Y001114D01*
X009705Y001117D01*
X009467Y001125D01*
X009230Y001140D01*
X008993Y001160D01*
X008757Y001186D01*
X008521Y001217D01*
X008286Y001254D01*
X008052Y001297D01*
X007819Y001346D01*
X007587Y001400D01*
X007357Y001460D01*
X007128Y001525D01*
X006901Y001596D01*
X006676Y001672D01*
X006453Y001754D01*
X006231Y001841D01*
X006012Y001933D01*
X005795Y002031D01*
X005581Y002133D01*
X005369Y002241D01*
X005159Y002355D01*
X004953Y002473D01*
X004749Y002596D01*
X004549Y002724D01*
X004352Y002856D01*
X004157Y002994D01*
X003967Y003136D01*
X003779Y003283D01*
X003596Y003434D01*
X003416Y003589D01*
X003240Y003749D01*
X003068Y003913D01*
X002899Y004082D01*
X002735Y004254D01*
X002575Y004430D01*
X002420Y004610D01*
X002269Y004793D01*
X002122Y004981D01*
X001980Y005171D01*
X001842Y005366D01*
X001710Y005563D01*
X001582Y005763D01*
X001459Y005967D01*
X001341Y006173D01*
X001227Y006383D01*
X001119Y006595D01*
X001017Y006809D01*
X000919Y007026D01*
X000827Y007245D01*
X000740Y007467D01*
X000658Y007690D01*
X000582Y007915D01*
X000511Y008142D01*
X000446Y008371D01*
X000386Y008601D01*
X000332Y008833D01*
X000283Y009066D01*
X000240Y009300D01*
X000203Y009535D01*
X000172Y009771D01*
X000146Y010007D01*
X000126Y010244D01*
X000111Y010481D01*
X000103Y010719D01*
X000100Y010957D01*
D11*
X000379Y011005D02*
X000382Y011241D01*
X000391Y011476D01*
X000405Y011711D01*
X000425Y011946D01*
X000451Y012180D01*
X000483Y012414D01*
X000520Y012646D01*
X000563Y012878D01*
X000612Y013109D01*
X000667Y013338D01*
X000727Y013566D01*
X000792Y013792D01*
X000864Y014017D01*
X000940Y014239D01*
X001022Y014460D01*
X001110Y014679D01*
X001203Y014896D01*
X001301Y015110D01*
X001404Y015322D01*
X001513Y015531D01*
X001626Y015737D01*
X001745Y015941D01*
X001869Y016142D01*
X001997Y016339D01*
X002130Y016533D01*
X002268Y016724D01*
X002411Y016912D01*
X002558Y017096D01*
X002710Y017276D01*
X002866Y017453D01*
X003027Y017625D01*
X003191Y017794D01*
X003360Y017958D01*
X003532Y018119D01*
X003709Y018275D01*
X003889Y018427D01*
X004073Y018574D01*
X004261Y018717D01*
X004452Y018855D01*
X004646Y018988D01*
X004843Y019116D01*
X005044Y019240D01*
X005248Y019359D01*
X005454Y019472D01*
X005663Y019581D01*
X005875Y019684D01*
X006089Y019782D01*
X006306Y019875D01*
X006525Y019963D01*
X006746Y020045D01*
X006968Y020121D01*
X007193Y020193D01*
X007419Y020258D01*
X007647Y020318D01*
X007876Y020373D01*
X008107Y020422D01*
X008339Y020465D01*
X008571Y020502D01*
X008805Y020534D01*
X009039Y020560D01*
X009274Y020580D01*
X009509Y020594D01*
X009744Y020603D01*
X009980Y020606D01*
X010216Y020603D01*
X010451Y020594D01*
X010686Y020580D01*
X010921Y020560D01*
X011155Y020534D01*
X011389Y020502D01*
X011621Y020465D01*
X011853Y020422D01*
X012084Y020373D01*
X012313Y020318D01*
X012541Y020258D01*
X012767Y020193D01*
X012992Y020121D01*
X013214Y020045D01*
X013435Y019963D01*
X013654Y019875D01*
X013871Y019782D01*
X014085Y019684D01*
X014297Y019581D01*
X014506Y019472D01*
X014712Y019359D01*
X014916Y019240D01*
X015117Y019116D01*
X015314Y018988D01*
X015508Y018855D01*
X015699Y018717D01*
X015887Y018574D01*
X016071Y018427D01*
X016251Y018275D01*
X016428Y018119D01*
X016600Y017958D01*
X016769Y017794D01*
X016933Y017625D01*
X017094Y017453D01*
X017250Y017276D01*
X017402Y017096D01*
X017549Y016912D01*
X017692Y016724D01*
X017830Y016533D01*
X017963Y016339D01*
X018091Y016142D01*
X018215Y015941D01*
X018334Y015737D01*
X018447Y015531D01*
X018556Y015322D01*
X018659Y015110D01*
X018757Y014896D01*
X018850Y014679D01*
X018938Y014460D01*
X019020Y014239D01*
X019096Y014017D01*
X019168Y013792D01*
X019233Y013566D01*
X019293Y013338D01*
X019348Y013109D01*
X019397Y012878D01*
X019440Y012646D01*
X019477Y012414D01*
X019509Y012180D01*
X019535Y011946D01*
X019555Y011711D01*
X019569Y011476D01*
X019578Y011241D01*
X019581Y011005D01*
X019578Y010769D01*
X019569Y010534D01*
X019555Y010299D01*
X019535Y010064D01*
X019509Y009830D01*
X019477Y009596D01*
X019440Y009364D01*
X019397Y009132D01*
X019348Y008901D01*
X019293Y008672D01*
X019233Y008444D01*
X019168Y008218D01*
X019096Y007993D01*
X019020Y007771D01*
X018938Y007550D01*
X018850Y007331D01*
X018757Y007114D01*
X018659Y006900D01*
X018556Y006688D01*
X018447Y006479D01*
X018334Y006273D01*
X018215Y006069D01*
X018091Y005868D01*
X017963Y005671D01*
X017830Y005477D01*
X017692Y005286D01*
X017549Y005098D01*
X017402Y004914D01*
X017250Y004734D01*
X017094Y004557D01*
X016933Y004385D01*
X016769Y004216D01*
X016600Y004052D01*
X016428Y003891D01*
X016251Y003735D01*
X016071Y003583D01*
X015887Y003436D01*
X015699Y003293D01*
X015508Y003155D01*
X015314Y003022D01*
X015117Y002894D01*
X014916Y002770D01*
X014712Y002651D01*
X014506Y002538D01*
X014297Y002429D01*
X014085Y002326D01*
X013871Y002228D01*
X013654Y002135D01*
X013435Y002047D01*
X013214Y001965D01*
X012992Y001889D01*
X012767Y001817D01*
X012541Y001752D01*
X012313Y001692D01*
X012084Y001637D01*
X011853Y001588D01*
X011621Y001545D01*
X011389Y001508D01*
X011155Y001476D01*
X010921Y001450D01*
X010686Y001430D01*
X010451Y001416D01*
X010216Y001407D01*
X009980Y001404D01*
X009744Y001407D01*
X009509Y001416D01*
X009274Y001430D01*
X009039Y001450D01*
X008805Y001476D01*
X008571Y001508D01*
X008339Y001545D01*
X008107Y001588D01*
X007876Y001637D01*
X007647Y001692D01*
X007419Y001752D01*
X007193Y001817D01*
X006968Y001889D01*
X006746Y001965D01*
X006525Y002047D01*
X006306Y002135D01*
X006089Y002228D01*
X005875Y002326D01*
X005663Y002429D01*
X005454Y002538D01*
X005248Y002651D01*
X005044Y002770D01*
X004843Y002894D01*
X004646Y003022D01*
X004452Y003155D01*
X004261Y003293D01*
X004073Y003436D01*
X003889Y003583D01*
X003709Y003735D01*
X003532Y003891D01*
X003360Y004052D01*
X003191Y004216D01*
X003027Y004385D01*
X002866Y004557D01*
X002710Y004734D01*
X002558Y004914D01*
X002411Y005098D01*
X002268Y005286D01*
X002130Y005477D01*
X001997Y005671D01*
X001869Y005868D01*
X001745Y006069D01*
X001626Y006273D01*
X001513Y006479D01*
X001404Y006688D01*
X001301Y006900D01*
X001203Y007114D01*
X001110Y007331D01*
X001022Y007550D01*
X000940Y007771D01*
X000864Y007993D01*
X000792Y008218D01*
X000727Y008444D01*
X000667Y008672D01*
X000612Y008901D01*
X000563Y009132D01*
X000520Y009364D01*
X000483Y009596D01*
X000451Y009830D01*
X000425Y010064D01*
X000405Y010299D01*
X000391Y010534D01*
X000382Y010769D01*
X000379Y011005D01*
D12*
X003336Y006356D02*
X003444Y006247D01*
X003553Y006247D01*
X003770Y006464D01*
X003770Y006573D01*
X003661Y006681D01*
X003553Y006681D01*
X003336Y006464D02*
X003336Y006356D01*
X002615Y007077D02*
X002832Y007294D01*
X002832Y007511D01*
X002615Y007511D01*
X002398Y007294D01*
X002560Y007457D02*
X002777Y007240D01*
X004328Y008899D02*
X004220Y009008D01*
X004220Y009116D01*
X004328Y008899D02*
X004437Y008899D01*
X004654Y009116D01*
X004654Y009225D01*
X004545Y009333D01*
X004437Y009333D01*
X005320Y008449D02*
X005429Y008449D01*
X005537Y008341D01*
X005537Y008232D01*
X005320Y008015D01*
X005212Y008015D01*
X005103Y008124D01*
X005103Y008232D01*
X003991Y012011D02*
X003906Y012011D01*
X003822Y012096D01*
X003822Y012181D01*
X004034Y012393D01*
X003858Y012399D02*
X003858Y012568D01*
X003604Y012314D01*
X003688Y012229D02*
X003519Y012399D01*
X003470Y012532D02*
X003470Y012871D01*
X003301Y012702D01*
X003301Y012617D01*
X003386Y012532D01*
X003470Y012532D01*
X003640Y012702D01*
X003640Y012786D01*
X003555Y012871D01*
X003470Y012871D01*
X003380Y012962D02*
X003380Y013047D01*
X003295Y013132D01*
X003210Y013132D01*
X003168Y013089D01*
X003168Y012750D01*
X002998Y012919D01*
X003313Y013562D02*
X004538Y012337D01*
X006347Y014147D01*
X005122Y015372D01*
X003313Y013562D01*
X004204Y012223D02*
X003991Y012011D01*
X006261Y014384D02*
X006263Y014406D01*
X006269Y014428D01*
X006278Y014448D01*
X006291Y014466D01*
X006307Y014482D01*
X006325Y014495D01*
X006345Y014504D01*
X006367Y014510D01*
X006389Y014512D01*
X006411Y014510D01*
X006433Y014504D01*
X006453Y014495D01*
X006471Y014482D01*
X006487Y014466D01*
X006500Y014448D01*
X006509Y014428D01*
X006515Y014406D01*
X006517Y014384D01*
X006515Y014362D01*
X006509Y014340D01*
X006500Y014320D01*
X006487Y014302D01*
X006471Y014286D01*
X006453Y014273D01*
X006433Y014264D01*
X006411Y014258D01*
X006389Y014256D01*
X006367Y014258D01*
X006345Y014264D01*
X006325Y014273D01*
X006307Y014286D01*
X006291Y014302D01*
X006278Y014320D01*
X006269Y014340D01*
X006263Y014362D01*
X006261Y014384D01*
X007475Y014887D02*
X007560Y014802D01*
X007645Y014802D01*
X007736Y014712D02*
X007736Y014627D01*
X007821Y014542D01*
X007906Y014542D01*
X007906Y014881D01*
X007736Y014712D01*
X007906Y014881D02*
X007990Y014881D01*
X008075Y014796D01*
X008075Y014712D01*
X007906Y014542D01*
X007954Y014409D02*
X008123Y014239D01*
X008039Y014324D02*
X008293Y014578D01*
X008293Y014409D01*
X008426Y014360D02*
X008341Y014276D01*
X008341Y014191D01*
X008469Y014063D01*
X008384Y013978D02*
X008639Y014233D01*
X008511Y014360D01*
X008426Y014360D01*
X008384Y014148D02*
X008214Y014148D01*
X007815Y014972D02*
X007815Y015057D01*
X007730Y015142D01*
X007645Y015142D01*
X007603Y015099D01*
X007603Y015014D01*
X007518Y015014D01*
X007475Y014972D01*
X007475Y014887D01*
X007603Y015014D02*
X007645Y014972D01*
X009463Y016435D02*
X009463Y016742D01*
X009617Y016895D01*
X009770Y016742D01*
X009770Y016435D01*
X009770Y016665D02*
X009463Y016665D01*
X010713Y016818D02*
X010790Y016895D01*
X010944Y016895D01*
X011020Y016818D01*
X011020Y016511D01*
X010944Y016435D01*
X010790Y016435D01*
X010713Y016511D01*
X010790Y018935D02*
X010713Y019011D01*
X010790Y018935D02*
X010944Y018935D01*
X011020Y019011D01*
X011020Y019318D01*
X010944Y019395D01*
X010790Y019395D01*
X010713Y019318D01*
X009770Y019318D02*
X009770Y019011D01*
X009694Y018935D01*
X009540Y018935D01*
X009463Y019011D01*
X009463Y019318D02*
X009540Y019395D01*
X009694Y019395D01*
X009770Y019318D01*
X015611Y009559D02*
X015611Y009342D01*
X015828Y009125D01*
X015665Y009288D02*
X015882Y009505D01*
X015828Y009559D02*
X015611Y009559D01*
X015828Y009559D02*
X016045Y009342D01*
X015107Y008512D02*
X015107Y008404D01*
X014998Y008295D01*
X014890Y008295D01*
X015107Y008512D02*
X014890Y008729D01*
X014781Y008729D01*
X014673Y008621D01*
X014673Y008512D01*
X016441Y006853D02*
X016549Y006962D01*
X016658Y006962D01*
X016875Y006745D01*
X016875Y006636D01*
X016766Y006528D01*
X016658Y006528D01*
X016441Y006745D02*
X016441Y006853D01*
X017324Y007629D02*
X017324Y007737D01*
X017433Y007846D01*
X017541Y007846D01*
X017758Y007629D01*
X017758Y007520D01*
X017650Y007412D01*
X017541Y007412D01*
X013070Y004716D02*
X012950Y004596D01*
X013010Y004468D02*
X012770Y004228D01*
X012710Y004288D01*
X012710Y004408D01*
X012770Y004468D01*
X013010Y004468D01*
X013070Y004408D01*
X013070Y004288D01*
X013010Y004228D01*
X012770Y004228D01*
X012710Y004100D02*
X012710Y003860D01*
X012710Y003980D02*
X013070Y003980D01*
X012950Y003860D01*
X013070Y003732D02*
X013070Y003491D01*
X012710Y003491D01*
X012890Y003491D02*
X012890Y003611D01*
X012710Y004596D02*
X012710Y004837D01*
X012710Y004716D02*
X013070Y004716D01*
X011240Y003995D02*
X011240Y003695D01*
X011180Y003635D01*
X011060Y003635D01*
X011000Y003695D01*
X011000Y003995D01*
X010872Y003935D02*
X010872Y003875D01*
X010812Y003815D01*
X010692Y003815D01*
X010631Y003755D01*
X010631Y003695D01*
X010692Y003635D01*
X010812Y003635D01*
X010872Y003695D01*
X010872Y003935D02*
X010812Y003995D01*
X010692Y003995D01*
X010631Y003935D01*
X010503Y003995D02*
X010503Y003635D01*
X010323Y003635D01*
X010263Y003695D01*
X010263Y003755D01*
X010323Y003815D01*
X010503Y003815D01*
X010323Y003815D02*
X010263Y003875D01*
X010263Y003935D01*
X010323Y003995D01*
X010503Y003995D01*
X010135Y003815D02*
X009895Y003815D01*
X009767Y003875D02*
X009767Y003695D01*
X009707Y003635D01*
X009527Y003635D01*
X009527Y003875D01*
X009398Y003815D02*
X009218Y003815D01*
X009158Y003755D01*
X009158Y003695D01*
X009218Y003635D01*
X009398Y003635D01*
X009398Y003995D01*
X009218Y003995D01*
X009158Y003935D01*
X009158Y003875D01*
X009218Y003815D01*
X009470Y005471D02*
X009470Y005652D01*
X009530Y005712D01*
X009650Y005712D01*
X009710Y005652D01*
X009710Y005471D01*
X009830Y005471D02*
X009470Y005471D01*
X009710Y005591D02*
X009830Y005712D01*
X009830Y005840D02*
X009830Y006080D01*
X009830Y005960D02*
X009470Y005960D01*
X009590Y005840D01*
X009530Y006208D02*
X009470Y006268D01*
X009470Y006388D01*
X009530Y006448D01*
X009770Y006208D01*
X009830Y006268D01*
X009830Y006388D01*
X009770Y006448D01*
X009530Y006448D01*
X009470Y006576D02*
X009650Y006576D01*
X009590Y006696D01*
X009590Y006756D01*
X009650Y006817D01*
X009770Y006817D01*
X009830Y006756D01*
X009830Y006636D01*
X009770Y006576D01*
X009470Y006576D02*
X009470Y006817D01*
X009530Y006208D02*
X009770Y006208D01*
X010260Y006298D02*
X010320Y006238D01*
X010560Y006238D01*
X010320Y006478D01*
X010560Y006478D01*
X010620Y006418D01*
X010620Y006298D01*
X010560Y006238D01*
X010620Y006110D02*
X010620Y005870D01*
X010620Y005990D02*
X010260Y005990D01*
X010380Y005870D01*
X010320Y005742D02*
X010440Y005742D01*
X010500Y005682D01*
X010500Y005501D01*
X010620Y005501D02*
X010260Y005501D01*
X010260Y005682D01*
X010320Y005742D01*
X010500Y005621D02*
X010620Y005742D01*
X010260Y006298D02*
X010260Y006418D01*
X010320Y006478D01*
X010440Y006606D02*
X010440Y006847D01*
X010620Y006786D02*
X010260Y006786D01*
X010440Y006606D01*
D13*
X008640Y010435D03*
X008450Y010485D03*
X008650Y011725D03*
D14*
X008140Y011445D03*
X009190Y010745D03*
X011160Y010445D03*
D15*
X009875Y010445D03*
D16*
X008640Y010445D03*
D17*
X007300Y010445D03*
D18*
X008105Y010835D03*
X008145Y011455D03*
X008145Y011465D03*
X007295Y011735D03*
X009185Y010735D03*
X010345Y011655D03*
X011155Y010455D03*
D19*
X009880Y010455D03*
X009910Y011065D03*
X009910Y011075D03*
X009910Y011085D03*
X009880Y011715D03*
D20*
X008705Y011105D03*
X008555Y011075D03*
X008645Y010455D03*
D21*
X007300Y010455D03*
X007300Y010495D03*
X007300Y010505D03*
D22*
X006810Y010765D03*
X007020Y011175D03*
X007380Y011555D03*
X007300Y011725D03*
X008150Y011485D03*
X008150Y011475D03*
X008160Y011495D03*
X008160Y011505D03*
X008170Y011525D03*
X008180Y011535D03*
X008650Y011735D03*
X009150Y011445D03*
X009150Y011435D03*
X009160Y011415D03*
X009160Y011405D03*
X009160Y011395D03*
X009160Y011385D03*
X009160Y011375D03*
X009160Y011365D03*
X009160Y011355D03*
X009160Y011345D03*
X009150Y011335D03*
X009150Y011325D03*
X009150Y011315D03*
X009150Y011305D03*
X009140Y011285D03*
X009190Y010725D03*
X009180Y010715D03*
X009180Y010705D03*
X009180Y010695D03*
X009170Y010685D03*
X008130Y010675D03*
X008120Y010695D03*
X008120Y010705D03*
X008110Y010725D03*
X008110Y010735D03*
X008110Y010745D03*
X008100Y010755D03*
X008100Y010765D03*
X008100Y010775D03*
X008100Y010785D03*
X008100Y010795D03*
X008100Y010805D03*
X008100Y010815D03*
X008100Y010825D03*
X008110Y010855D03*
X008110Y010865D03*
X008110Y010875D03*
X008120Y010895D03*
X010350Y010895D03*
X010350Y010905D03*
X010350Y010915D03*
X010350Y010925D03*
X010350Y010935D03*
X010350Y010945D03*
X010350Y010955D03*
X010350Y010965D03*
X010350Y010975D03*
X010350Y010985D03*
X010350Y010995D03*
X010350Y011005D03*
X010350Y011015D03*
X010350Y011025D03*
X010350Y011035D03*
X010350Y011045D03*
X010350Y011115D03*
X010350Y011125D03*
X010350Y011135D03*
X010350Y011145D03*
X010350Y011155D03*
X010350Y011165D03*
X010350Y011175D03*
X010350Y011185D03*
X010350Y011195D03*
X010350Y011205D03*
X010350Y011215D03*
X010350Y011225D03*
X010350Y011235D03*
X010350Y011245D03*
X010350Y011255D03*
X010350Y011265D03*
X010350Y011275D03*
X010350Y011285D03*
X010350Y011295D03*
X010350Y011305D03*
X010350Y011315D03*
X010350Y011325D03*
X010350Y011335D03*
X010350Y011345D03*
X010350Y011355D03*
X010350Y011365D03*
X010350Y011375D03*
X010350Y011385D03*
X010350Y011395D03*
X010350Y011405D03*
X010350Y011415D03*
X010350Y011425D03*
X010350Y011435D03*
X010350Y011445D03*
X010350Y011455D03*
X010350Y011465D03*
X010350Y011475D03*
X010350Y011485D03*
X010350Y011495D03*
X010350Y011505D03*
X010350Y011515D03*
X010350Y011525D03*
X010350Y011535D03*
X010350Y011545D03*
X010350Y011555D03*
X010350Y011565D03*
X010350Y011575D03*
X010350Y011585D03*
X010350Y011595D03*
X010350Y011605D03*
X010350Y011615D03*
X010350Y011625D03*
X010350Y011635D03*
X010350Y011645D03*
X010350Y010885D03*
X010350Y010875D03*
X010350Y010865D03*
X010350Y010855D03*
X010350Y010845D03*
X010350Y010835D03*
X010350Y010825D03*
X010350Y010815D03*
X010350Y010805D03*
X010350Y010795D03*
X010350Y010785D03*
X010350Y010775D03*
X010350Y010765D03*
X010350Y010755D03*
X010350Y010745D03*
X010350Y010735D03*
X010350Y010725D03*
X010350Y010715D03*
X010350Y010705D03*
X010350Y010695D03*
X010350Y010685D03*
X010350Y010675D03*
X010350Y010665D03*
X010350Y010655D03*
X010350Y010645D03*
X010350Y010635D03*
X010350Y010625D03*
X010350Y010615D03*
X010350Y010605D03*
X010350Y010595D03*
X010350Y010585D03*
X010350Y010575D03*
X010350Y010565D03*
X010350Y010555D03*
X010350Y010545D03*
X010350Y010535D03*
X010350Y010525D03*
X010350Y010515D03*
X011160Y010515D03*
X011160Y010525D03*
X011160Y010535D03*
X011160Y010545D03*
X011160Y010555D03*
X011160Y010565D03*
X011160Y010575D03*
X011160Y010585D03*
X011160Y010595D03*
X011160Y010605D03*
X011160Y010615D03*
X011160Y010625D03*
X011160Y010635D03*
X011160Y010645D03*
X011160Y010655D03*
X011160Y010665D03*
X011160Y010675D03*
X011160Y010685D03*
X011160Y010695D03*
X011160Y010705D03*
X011160Y010715D03*
X011160Y010725D03*
X011160Y010735D03*
X011160Y010745D03*
X011160Y010755D03*
X011160Y010765D03*
X011160Y010775D03*
X011160Y010785D03*
X011160Y010795D03*
X011160Y010805D03*
X011160Y010815D03*
X011160Y010825D03*
X011160Y010835D03*
X011160Y010845D03*
X011160Y010855D03*
X011160Y010865D03*
X011160Y010875D03*
X011160Y010885D03*
X011160Y010895D03*
X011160Y010905D03*
X011160Y010915D03*
X011160Y010925D03*
X011160Y010935D03*
X011160Y010945D03*
X011160Y010955D03*
X011160Y010965D03*
X011160Y010975D03*
X011160Y010985D03*
X011160Y010995D03*
X011160Y011005D03*
X011160Y011015D03*
X011160Y011025D03*
X011160Y011035D03*
X011160Y011045D03*
X011160Y011055D03*
X011160Y011065D03*
X011160Y011075D03*
X011160Y011085D03*
X011160Y011095D03*
X011160Y011105D03*
X011160Y011115D03*
X011160Y011125D03*
X011160Y011135D03*
X011160Y011145D03*
X011160Y011155D03*
X011160Y011165D03*
X011160Y011175D03*
X011160Y011185D03*
X011160Y011195D03*
X011160Y011205D03*
X011160Y011215D03*
X011160Y011225D03*
X011160Y011235D03*
X011160Y011245D03*
X011160Y011255D03*
X011160Y011265D03*
X011160Y011275D03*
X011160Y011285D03*
X011160Y011295D03*
X011160Y011305D03*
X011160Y011315D03*
X011160Y011325D03*
X011160Y011335D03*
X011160Y011345D03*
X011160Y011355D03*
X011160Y011365D03*
X011160Y011375D03*
X011160Y011385D03*
X011160Y011395D03*
X011160Y011405D03*
X011160Y011415D03*
X011160Y011425D03*
X011160Y011435D03*
X011160Y011445D03*
X011160Y011455D03*
X011160Y011465D03*
X011160Y011475D03*
X011160Y011485D03*
X011160Y011495D03*
X011160Y011505D03*
X011160Y011515D03*
X011160Y011525D03*
X011160Y011535D03*
X011160Y011545D03*
X011160Y011555D03*
X011160Y011565D03*
X011160Y011575D03*
X011160Y011585D03*
X011160Y011595D03*
X011160Y011605D03*
X011160Y011615D03*
X011160Y011625D03*
X011160Y011635D03*
X011160Y011645D03*
X011160Y011655D03*
X011160Y010505D03*
X011160Y010495D03*
X011160Y010485D03*
X011160Y010475D03*
X011160Y010465D03*
D23*
X009880Y010465D03*
X009880Y011705D03*
D24*
X008640Y010465D03*
D25*
X007300Y010465D03*
X007300Y010475D03*
X007300Y010485D03*
D26*
X009885Y010485D03*
X009885Y010475D03*
X009895Y010505D03*
X009895Y011665D03*
X009885Y011685D03*
X009885Y011695D03*
D27*
X008640Y010475D03*
D28*
X008820Y010485D03*
D29*
X008625Y010485D03*
X007295Y011745D03*
D30*
X009890Y011675D03*
X009890Y010495D03*
D31*
X008890Y010495D03*
D32*
X008390Y010495D03*
X008410Y011665D03*
X008880Y011665D03*
D33*
X008310Y011035D03*
X008930Y010505D03*
D34*
X008355Y010505D03*
X008915Y011655D03*
D35*
X008980Y011155D03*
X008960Y010515D03*
D36*
X008320Y010515D03*
X008940Y011645D03*
D37*
X009125Y011505D03*
X009125Y011495D03*
X009135Y011485D03*
X009135Y011475D03*
X009145Y011465D03*
X009145Y011455D03*
X009155Y011425D03*
X009145Y011295D03*
X009135Y011275D03*
X009125Y011255D03*
X009165Y010675D03*
X009165Y010665D03*
X009155Y010655D03*
X009145Y010645D03*
X008155Y010635D03*
X008145Y010645D03*
X008145Y010655D03*
X008135Y010665D03*
X008125Y010685D03*
X008115Y010715D03*
X008105Y010845D03*
X008115Y010885D03*
X008125Y010905D03*
X008125Y010915D03*
X008135Y010925D03*
X007795Y010755D03*
X007795Y010745D03*
X007805Y010735D03*
X007805Y010725D03*
X007815Y010715D03*
X007815Y010705D03*
X007825Y010695D03*
X007825Y010685D03*
X007835Y010675D03*
X007845Y010665D03*
X007845Y010655D03*
X007855Y010645D03*
X007855Y010635D03*
X007865Y010615D03*
X007875Y010605D03*
X007875Y010595D03*
X007885Y010585D03*
X007885Y010575D03*
X007895Y010565D03*
X007895Y010555D03*
X007905Y010545D03*
X007905Y010535D03*
X007915Y010525D03*
X007915Y010515D03*
X007785Y010765D03*
X007785Y010775D03*
X007775Y010785D03*
X007775Y010795D03*
X007765Y010805D03*
X007765Y010815D03*
X007755Y010825D03*
X007755Y010835D03*
X007745Y010845D03*
X007745Y010855D03*
X007735Y010865D03*
X007735Y010875D03*
X007725Y010885D03*
X007725Y010895D03*
X007715Y010905D03*
X007715Y010915D03*
X007705Y010925D03*
X007705Y010935D03*
X007695Y010945D03*
X007685Y010965D03*
X007675Y010985D03*
X007665Y011005D03*
X007655Y011015D03*
X007655Y011025D03*
X007645Y011035D03*
X007645Y011045D03*
X007635Y011055D03*
X007635Y011065D03*
X007625Y011075D03*
X007625Y011085D03*
X007615Y011095D03*
X007615Y011105D03*
X007605Y011115D03*
X007605Y011125D03*
X007595Y011135D03*
X007595Y011145D03*
X007585Y011155D03*
X007585Y011165D03*
X007575Y011175D03*
X007575Y011185D03*
X007565Y011195D03*
X007565Y011205D03*
X007555Y011215D03*
X007555Y011225D03*
X007545Y011235D03*
X007545Y011245D03*
X007535Y011255D03*
X007525Y011275D03*
X007515Y011295D03*
X007505Y011315D03*
X007495Y011325D03*
X007495Y011335D03*
X007485Y011345D03*
X007485Y011355D03*
X007475Y011365D03*
X007475Y011375D03*
X007465Y011385D03*
X007465Y011395D03*
X007455Y011405D03*
X007455Y011415D03*
X007445Y011425D03*
X007445Y011435D03*
X007435Y011445D03*
X007435Y011455D03*
X007425Y011465D03*
X007425Y011475D03*
X007415Y011485D03*
X007415Y011495D03*
X007405Y011505D03*
X007405Y011515D03*
X007395Y011525D03*
X007395Y011535D03*
X007385Y011545D03*
X007375Y011565D03*
X007365Y011585D03*
X007365Y011595D03*
X007355Y011605D03*
X007345Y011625D03*
X007255Y011625D03*
X007245Y011615D03*
X007245Y011605D03*
X007235Y011595D03*
X007235Y011585D03*
X007225Y011575D03*
X007225Y011565D03*
X007215Y011555D03*
X007215Y011545D03*
X007205Y011535D03*
X007205Y011525D03*
X007195Y011515D03*
X007195Y011505D03*
X007185Y011495D03*
X007175Y011485D03*
X007175Y011475D03*
X007165Y011455D03*
X007155Y011435D03*
X007145Y011425D03*
X007145Y011415D03*
X007135Y011405D03*
X007135Y011395D03*
X007125Y011385D03*
X007125Y011375D03*
X007115Y011365D03*
X007115Y011355D03*
X007105Y011345D03*
X007105Y011335D03*
X007095Y011325D03*
X007095Y011315D03*
X007085Y011305D03*
X007085Y011295D03*
X007075Y011285D03*
X007075Y011275D03*
X007065Y011265D03*
X007065Y011255D03*
X007055Y011245D03*
X007055Y011235D03*
X007045Y011225D03*
X007045Y011215D03*
X007035Y011205D03*
X007035Y011195D03*
X007025Y011185D03*
X007015Y011165D03*
X007015Y011155D03*
X007005Y011145D03*
X006995Y011125D03*
X006985Y011105D03*
X006975Y011095D03*
X006975Y011085D03*
X006965Y011075D03*
X006965Y011065D03*
X006955Y011055D03*
X006955Y011045D03*
X006945Y011035D03*
X006945Y011025D03*
X006935Y011015D03*
X006935Y011005D03*
X006925Y010995D03*
X006925Y010985D03*
X006915Y010975D03*
X006915Y010965D03*
X006905Y010955D03*
X006905Y010945D03*
X006895Y010935D03*
X006895Y010925D03*
X006885Y010915D03*
X006885Y010905D03*
X006875Y010895D03*
X006875Y010885D03*
X006865Y010875D03*
X006865Y010865D03*
X006855Y010855D03*
X006855Y010845D03*
X006845Y010835D03*
X006835Y010815D03*
X006825Y010795D03*
X006815Y010775D03*
X006805Y010755D03*
X006795Y010745D03*
X006795Y010735D03*
X006785Y010725D03*
X006785Y010715D03*
X006775Y010705D03*
X006775Y010695D03*
X006765Y010685D03*
X006765Y010675D03*
X006755Y010665D03*
X006755Y010655D03*
X006745Y010645D03*
X006745Y010635D03*
X006735Y010625D03*
X006735Y010615D03*
X006725Y010605D03*
X006725Y010595D03*
X006715Y010585D03*
X006715Y010575D03*
X006705Y010565D03*
X006705Y010555D03*
X006695Y010545D03*
X006695Y010535D03*
X006685Y010525D03*
X006685Y010515D03*
X007295Y011715D03*
X008165Y011515D03*
X008185Y011545D03*
X008195Y011555D03*
X008205Y011565D03*
D38*
X008335Y011645D03*
X008245Y011015D03*
X008985Y010525D03*
X008965Y011635D03*
X007295Y011635D03*
D39*
X007300Y011645D03*
X008300Y010525D03*
X009010Y010535D03*
X009010Y011165D03*
D40*
X009035Y011175D03*
X009005Y011615D03*
X008985Y011625D03*
X008305Y011635D03*
X008225Y011005D03*
X008275Y010535D03*
X009025Y010545D03*
X007295Y011655D03*
D41*
X007300Y011665D03*
X008260Y010545D03*
X009050Y010555D03*
X009050Y011185D03*
X009020Y011605D03*
D42*
X009035Y011595D03*
X009065Y011195D03*
X009075Y010575D03*
X009065Y010565D03*
X008245Y010555D03*
X008225Y010565D03*
X008205Y010995D03*
X008285Y011625D03*
X007295Y011675D03*
D43*
X007300Y011685D03*
X008270Y011615D03*
X008190Y010985D03*
X008180Y010975D03*
X008200Y010585D03*
X008210Y010575D03*
X009090Y010585D03*
X009080Y011205D03*
X009090Y011215D03*
X009050Y011585D03*
D44*
X009065Y011575D03*
X009075Y011565D03*
X009085Y011555D03*
X009095Y011545D03*
X008255Y011605D03*
X008235Y011595D03*
X008225Y011585D03*
X008165Y010965D03*
X009105Y010595D03*
X009115Y010605D03*
X007295Y011695D03*
D45*
X007300Y011705D03*
X007350Y011615D03*
X007370Y011575D03*
X007170Y011465D03*
X007160Y011445D03*
X007000Y011135D03*
X006990Y011115D03*
X006840Y010825D03*
X006830Y010805D03*
X006820Y010785D03*
X007530Y011265D03*
X007520Y011285D03*
X007510Y011305D03*
X007670Y010995D03*
X007680Y010975D03*
X007690Y010955D03*
X007860Y010625D03*
X008160Y010625D03*
X008170Y010615D03*
X008180Y010605D03*
X008190Y010595D03*
X008140Y010935D03*
X008150Y010945D03*
X008160Y010955D03*
X008210Y011575D03*
X009100Y011535D03*
X009110Y011525D03*
X009120Y011515D03*
X009130Y011265D03*
X009120Y011245D03*
X009110Y011235D03*
X009100Y011225D03*
X009140Y010635D03*
X009130Y010625D03*
X009120Y010615D03*
D46*
X009185Y010755D03*
D47*
X008365Y011655D03*
X008275Y011025D03*
D48*
X008355Y011045D03*
X008905Y011135D03*
D49*
X009915Y011095D03*
X009915Y011055D03*
D50*
X008845Y011125D03*
X008415Y011055D03*
D51*
X008495Y011065D03*
D52*
X008610Y011085D03*
D53*
X008655Y011095D03*
D54*
X009920Y011105D03*
D55*
X008770Y011115D03*
D56*
X008945Y011145D03*
D57*
X008700Y011735D03*
X008140Y011435D03*
D58*
X011160Y011665D03*
X011160Y011715D03*
D59*
X011160Y011705D03*
X011160Y011685D03*
X011160Y011675D03*
D60*
X008640Y011675D03*
D61*
X008640Y011685D03*
D62*
X011155Y011695D03*
D63*
X008640Y011695D03*
D64*
X008645Y011705D03*
D65*
X008645Y011715D03*
D66*
X005883Y007768D02*
X006198Y007453D01*
X008515Y003316D02*
X008909Y003316D01*
X008515Y003316D02*
X008515Y002922D01*
X008515Y001741D02*
X008515Y001347D01*
X011271Y003316D02*
X011665Y003316D01*
X011662Y003309D02*
X011662Y002922D01*
X011665Y002922D01*
X011665Y001741D02*
X011665Y001347D01*
X015494Y005716D02*
X015809Y006031D01*
X016513Y010209D02*
X016827Y010524D01*
X016513Y010524D02*
X016827Y010209D01*
X012182Y018831D02*
X011737Y018831D01*
X008245Y016863D02*
X007800Y016863D01*
X008023Y017086D02*
X008023Y016640D01*
X001867Y008555D02*
X001552Y008240D01*
X001867Y008240D02*
X001552Y008555D01*
D67*
X010080Y017915D03*
D68*
G36*
X016140Y008105D02*
X016250Y008215D01*
X016360Y008105D01*
X016250Y007995D01*
X016140Y008105D01*
G37*
G36*
X003880Y007795D02*
X003770Y007905D01*
X003880Y008015D01*
X003990Y007905D01*
X003880Y007795D01*
G37*
D69*
X013200Y004931D02*
X013200Y004655D01*
X014460Y004655D01*
X014460Y004931D01*
X013987Y004931D01*
X013985Y004908D01*
X013980Y004885D01*
X013971Y004863D01*
X013960Y004843D01*
X013945Y004824D01*
X013928Y004808D01*
X013909Y004795D01*
X013887Y004785D01*
X013865Y004778D01*
X013842Y004774D01*
X013818Y004774D01*
X013795Y004778D01*
X013773Y004785D01*
X013752Y004795D01*
X013732Y004808D01*
X013715Y004824D01*
X013700Y004843D01*
X013689Y004863D01*
X013680Y004885D01*
X013675Y004908D01*
X013673Y004931D01*
X013200Y004931D01*
X013200Y004655D02*
X013200Y003474D01*
X014460Y003474D01*
X014460Y004655D01*
X014460Y003474D02*
X014460Y003199D01*
X013987Y003199D01*
X013985Y003222D01*
X013980Y003245D01*
X013971Y003267D01*
X013960Y003287D01*
X013945Y003306D01*
X013928Y003322D01*
X013909Y003335D01*
X013887Y003345D01*
X013865Y003352D01*
X013842Y003356D01*
X013818Y003356D01*
X013795Y003352D01*
X013773Y003345D01*
X013752Y003335D01*
X013732Y003322D01*
X013715Y003306D01*
X013700Y003287D01*
X013689Y003267D01*
X013680Y003245D01*
X013675Y003222D01*
X013673Y003199D01*
X013200Y003199D01*
X013200Y003474D01*
M02*
