G75*
%MOIN*%
%OFA0B0*%
%FSLAX24Y24*%
%IPPOS*%
%LPD*%
%AMOC8*
5,1,8,0,0,1.08239X$1,22.5*
%
%ADD10C,0.0000*%
%ADD11R,0.0118X0.0610*%
%ADD12C,0.0050*%
%ADD13R,0.0276X0.0394*%
%ADD14R,0.0394X0.0433*%
%ADD15R,0.0157X0.0551*%
%ADD16R,0.0709X0.0591*%
%ADD17R,0.0591X0.0276*%
%ADD18R,0.0433X0.0394*%
%ADD19R,0.1299X0.0799*%
D10*
X000100Y001115D02*
X000100Y020800D01*
X019785Y020800D01*
X019785Y001115D01*
X000100Y001115D01*
X009175Y003001D02*
X009177Y003026D01*
X009183Y003051D01*
X009192Y003075D01*
X009205Y003097D01*
X009222Y003117D01*
X009241Y003134D01*
X009262Y003148D01*
X009286Y003158D01*
X009310Y003165D01*
X009336Y003168D01*
X009361Y003167D01*
X009386Y003162D01*
X009410Y003153D01*
X009433Y003141D01*
X009453Y003126D01*
X009471Y003107D01*
X009486Y003086D01*
X009497Y003063D01*
X009505Y003039D01*
X009509Y003014D01*
X009509Y002988D01*
X009505Y002963D01*
X009497Y002939D01*
X009486Y002916D01*
X009471Y002895D01*
X009453Y002876D01*
X009433Y002861D01*
X009410Y002849D01*
X009386Y002840D01*
X009361Y002835D01*
X009336Y002834D01*
X009310Y002837D01*
X009286Y002844D01*
X009262Y002854D01*
X009241Y002868D01*
X009222Y002885D01*
X009205Y002905D01*
X009192Y002927D01*
X009183Y002951D01*
X009177Y002976D01*
X009175Y003001D01*
X010671Y003001D02*
X010673Y003026D01*
X010679Y003051D01*
X010688Y003075D01*
X010701Y003097D01*
X010718Y003117D01*
X010737Y003134D01*
X010758Y003148D01*
X010782Y003158D01*
X010806Y003165D01*
X010832Y003168D01*
X010857Y003167D01*
X010882Y003162D01*
X010906Y003153D01*
X010929Y003141D01*
X010949Y003126D01*
X010967Y003107D01*
X010982Y003086D01*
X010993Y003063D01*
X011001Y003039D01*
X011005Y003014D01*
X011005Y002988D01*
X011001Y002963D01*
X010993Y002939D01*
X010982Y002916D01*
X010967Y002895D01*
X010949Y002876D01*
X010929Y002861D01*
X010906Y002849D01*
X010882Y002840D01*
X010857Y002835D01*
X010832Y002834D01*
X010806Y002837D01*
X010782Y002844D01*
X010758Y002854D01*
X010737Y002868D01*
X010718Y002885D01*
X010701Y002905D01*
X010688Y002927D01*
X010679Y002951D01*
X010673Y002976D01*
X010671Y003001D01*
D11*
G36*
X004538Y012434D02*
X004622Y012518D01*
X005052Y012088D01*
X004968Y012004D01*
X004538Y012434D01*
G37*
G36*
X004719Y012615D02*
X004803Y012699D01*
X005233Y012269D01*
X005149Y012185D01*
X004719Y012615D01*
G37*
G36*
X004900Y012796D02*
X004984Y012880D01*
X005414Y012450D01*
X005330Y012366D01*
X004900Y012796D01*
G37*
G36*
X005081Y012977D02*
X005165Y013061D01*
X005595Y012631D01*
X005511Y012547D01*
X005081Y012977D01*
G37*
G36*
X005262Y013158D02*
X005346Y013242D01*
X005776Y012812D01*
X005692Y012728D01*
X005262Y013158D01*
G37*
G36*
X005443Y013339D02*
X005527Y013423D01*
X005957Y012993D01*
X005873Y012909D01*
X005443Y013339D01*
G37*
G36*
X005624Y013520D02*
X005708Y013604D01*
X006138Y013174D01*
X006054Y013090D01*
X005624Y013520D01*
G37*
G36*
X005805Y013701D02*
X005889Y013785D01*
X006319Y013355D01*
X006235Y013271D01*
X005805Y013701D01*
G37*
G36*
X005986Y013881D02*
X006070Y013965D01*
X006500Y013535D01*
X006416Y013451D01*
X005986Y013881D01*
G37*
G36*
X006167Y014062D02*
X006251Y014146D01*
X006681Y013716D01*
X006597Y013632D01*
X006167Y014062D01*
G37*
G36*
X005122Y015275D02*
X005038Y015191D01*
X004608Y015621D01*
X004692Y015705D01*
X005122Y015275D01*
G37*
G36*
X004941Y015094D02*
X004857Y015010D01*
X004427Y015440D01*
X004511Y015524D01*
X004941Y015094D01*
G37*
G36*
X004760Y014914D02*
X004676Y014830D01*
X004246Y015260D01*
X004330Y015344D01*
X004760Y014914D01*
G37*
G36*
X004579Y014733D02*
X004495Y014649D01*
X004065Y015079D01*
X004149Y015163D01*
X004579Y014733D01*
G37*
G36*
X004398Y014552D02*
X004314Y014468D01*
X003884Y014898D01*
X003968Y014982D01*
X004398Y014552D01*
G37*
G36*
X004217Y014371D02*
X004133Y014287D01*
X003703Y014717D01*
X003787Y014801D01*
X004217Y014371D01*
G37*
G36*
X004036Y014190D02*
X003952Y014106D01*
X003522Y014536D01*
X003606Y014620D01*
X004036Y014190D01*
G37*
G36*
X003855Y014009D02*
X003771Y013925D01*
X003341Y014355D01*
X003425Y014439D01*
X003855Y014009D01*
G37*
G36*
X003674Y013828D02*
X003590Y013744D01*
X003160Y014174D01*
X003244Y014258D01*
X003674Y013828D01*
G37*
G36*
X003493Y013647D02*
X003409Y013563D01*
X002979Y013993D01*
X003063Y014077D01*
X003493Y013647D01*
G37*
D12*
X003984Y013771D02*
X004746Y013008D01*
X005676Y013938D01*
X004914Y014701D01*
X003984Y013771D01*
X003986Y013773D02*
X005511Y013773D01*
X005463Y013725D02*
X004030Y013725D01*
X004079Y013676D02*
X005414Y013676D01*
X005366Y013628D02*
X004127Y013628D01*
X004176Y013579D02*
X005317Y013579D01*
X005269Y013531D02*
X004224Y013531D01*
X004273Y013482D02*
X005220Y013482D01*
X005172Y013434D02*
X004321Y013434D01*
X004370Y013385D02*
X005123Y013385D01*
X005075Y013337D02*
X004418Y013337D01*
X004467Y013288D02*
X005026Y013288D01*
X004978Y013240D02*
X004515Y013240D01*
X004564Y013191D02*
X004929Y013191D01*
X004881Y013143D02*
X004612Y013143D01*
X004661Y013094D02*
X004832Y013094D01*
X004784Y013046D02*
X004709Y013046D01*
X004034Y013822D02*
X005560Y013822D01*
X005608Y013870D02*
X004083Y013870D01*
X004131Y013919D02*
X005657Y013919D01*
X005647Y013967D02*
X004180Y013967D01*
X004228Y014016D02*
X005599Y014016D01*
X005550Y014064D02*
X004277Y014064D01*
X004325Y014113D02*
X005502Y014113D01*
X005453Y014161D02*
X004374Y014161D01*
X004422Y014210D02*
X005405Y014210D01*
X005356Y014258D02*
X004471Y014258D01*
X004519Y014307D02*
X005308Y014307D01*
X005259Y014355D02*
X004568Y014355D01*
X004616Y014404D02*
X005211Y014404D01*
X005162Y014452D02*
X004665Y014452D01*
X004713Y014501D02*
X005114Y014501D01*
X005065Y014549D02*
X004762Y014549D01*
X004810Y014598D02*
X005017Y014598D01*
X004968Y014646D02*
X004859Y014646D01*
X004907Y014695D02*
X004920Y014695D01*
D13*
X009785Y017403D03*
X010375Y017403D03*
X010375Y018426D03*
X009785Y018426D03*
G36*
X015861Y008716D02*
X016056Y008911D01*
X016333Y008634D01*
X016138Y008439D01*
X015861Y008716D01*
G37*
G36*
X015443Y008299D02*
X015638Y008494D01*
X015915Y008217D01*
X015720Y008022D01*
X015443Y008299D01*
G37*
G36*
X016167Y007575D02*
X016362Y007770D01*
X016639Y007493D01*
X016444Y007298D01*
X016167Y007575D01*
G37*
G36*
X016585Y007993D02*
X016780Y008188D01*
X017057Y007911D01*
X016862Y007716D01*
X016585Y007993D01*
G37*
G36*
X004410Y007822D02*
X004215Y008017D01*
X004492Y008294D01*
X004687Y008099D01*
X004410Y007822D01*
G37*
G36*
X003992Y008239D02*
X003797Y008434D01*
X004074Y008711D01*
X004269Y008516D01*
X003992Y008239D01*
G37*
G36*
X003268Y007516D02*
X003073Y007711D01*
X003350Y007988D01*
X003545Y007793D01*
X003268Y007516D01*
G37*
G36*
X003686Y007098D02*
X003491Y007293D01*
X003768Y007570D01*
X003963Y007375D01*
X003686Y007098D01*
G37*
D14*
G36*
X007524Y013576D02*
X007245Y013855D01*
X007550Y014160D01*
X007829Y013881D01*
X007524Y013576D01*
G37*
G36*
X007050Y014049D02*
X006771Y014328D01*
X007076Y014633D01*
X007355Y014354D01*
X007050Y014049D01*
G37*
D15*
X009578Y003198D03*
X009834Y003198D03*
X010090Y003198D03*
X010346Y003198D03*
X010602Y003198D03*
D16*
X011540Y002135D03*
X008640Y002135D03*
D17*
X010090Y002135D03*
D18*
X009640Y004370D03*
X009640Y005039D03*
X010470Y005059D03*
X010470Y004390D03*
D19*
X013830Y004915D03*
X013830Y003214D03*
M02*
