G75*
%MOIN*%
%OFA0B0*%
%FSLAX24Y24*%
%IPPOS*%
%LPD*%
%AMOC8*
5,1,8,0,0,1.08239X$1,22.5*
%
%ADD10C,0.0000*%
%ADD11R,0.0197X0.0591*%
%ADD12R,0.0591X0.0197*%
%ADD13R,0.0433X0.0394*%
%ADD14R,0.0394X0.0787*%
%ADD15R,0.0787X0.0394*%
D10*
X000100Y001115D02*
X000100Y020800D01*
X019785Y020800D01*
X019785Y001115D01*
X000100Y001115D01*
X009175Y003001D02*
X009177Y003026D01*
X009183Y003051D01*
X009192Y003075D01*
X009205Y003097D01*
X009222Y003117D01*
X009241Y003134D01*
X009262Y003148D01*
X009286Y003158D01*
X009310Y003165D01*
X009336Y003168D01*
X009361Y003167D01*
X009386Y003162D01*
X009410Y003153D01*
X009433Y003141D01*
X009453Y003126D01*
X009471Y003107D01*
X009486Y003086D01*
X009497Y003063D01*
X009505Y003039D01*
X009509Y003014D01*
X009509Y002988D01*
X009505Y002963D01*
X009497Y002939D01*
X009486Y002916D01*
X009471Y002895D01*
X009453Y002876D01*
X009433Y002861D01*
X009410Y002849D01*
X009386Y002840D01*
X009361Y002835D01*
X009336Y002834D01*
X009310Y002837D01*
X009286Y002844D01*
X009262Y002854D01*
X009241Y002868D01*
X009222Y002885D01*
X009205Y002905D01*
X009192Y002927D01*
X009183Y002951D01*
X009177Y002976D01*
X009175Y003001D01*
X010671Y003001D02*
X010673Y003026D01*
X010679Y003051D01*
X010688Y003075D01*
X010701Y003097D01*
X010718Y003117D01*
X010737Y003134D01*
X010758Y003148D01*
X010782Y003158D01*
X010806Y003165D01*
X010832Y003168D01*
X010857Y003167D01*
X010882Y003162D01*
X010906Y003153D01*
X010929Y003141D01*
X010949Y003126D01*
X010967Y003107D01*
X010982Y003086D01*
X010993Y003063D01*
X011001Y003039D01*
X011005Y003014D01*
X011005Y002988D01*
X011001Y002963D01*
X010993Y002939D01*
X010982Y002916D01*
X010967Y002895D01*
X010949Y002876D01*
X010929Y002861D01*
X010906Y002849D01*
X010882Y002840D01*
X010857Y002835D01*
X010832Y002834D01*
X010806Y002837D01*
X010782Y002844D01*
X010758Y002854D01*
X010737Y002868D01*
X010718Y002885D01*
X010701Y002905D01*
X010688Y002927D01*
X010679Y002951D01*
X010673Y002976D01*
X010671Y003001D01*
D11*
X010645Y008091D03*
X010960Y008091D03*
X011275Y008091D03*
X010330Y008091D03*
X010015Y008091D03*
X009700Y008091D03*
X009385Y008091D03*
X009070Y008091D03*
X008755Y008091D03*
X008440Y008091D03*
X008125Y008091D03*
X008125Y012658D03*
X008440Y012658D03*
X008755Y012658D03*
X009070Y012658D03*
X009385Y012658D03*
X009700Y012658D03*
X010015Y012658D03*
X010330Y012658D03*
X010645Y012658D03*
X010960Y012658D03*
X011275Y012658D03*
D12*
X011983Y011949D03*
X011983Y011634D03*
X011983Y011320D03*
X011983Y011005D03*
X011983Y010690D03*
X011983Y010375D03*
X011983Y010060D03*
X011983Y009745D03*
X011983Y009430D03*
X011983Y009115D03*
X011983Y008800D03*
X007417Y008800D03*
X007417Y009115D03*
X007417Y009430D03*
X007417Y009745D03*
X007417Y010060D03*
X007417Y010375D03*
X007417Y010690D03*
X007417Y011005D03*
X007417Y011320D03*
X007417Y011634D03*
X007417Y011949D03*
D13*
X013900Y016050D03*
X013900Y016719D03*
X014750Y016729D03*
X014750Y016060D03*
X015195Y012375D03*
X015865Y012375D03*
X015915Y011495D03*
X015245Y011495D03*
X015215Y010625D03*
X015885Y010625D03*
X015885Y009805D03*
X015215Y009805D03*
D14*
X011080Y004614D03*
X010080Y003315D03*
X009080Y004614D03*
X008080Y003315D03*
X007080Y004614D03*
X012080Y003315D03*
X012590Y017805D03*
X011590Y019104D03*
X010590Y017805D03*
X009590Y019104D03*
X008590Y017805D03*
X007590Y019104D03*
D15*
G36*
X002546Y009292D02*
X001991Y008737D01*
X001712Y009016D01*
X002267Y009571D01*
X002546Y009292D01*
G37*
G36*
X003961Y007878D02*
X003406Y007323D01*
X003127Y007602D01*
X003682Y008157D01*
X003961Y007878D01*
G37*
G36*
X005375Y006464D02*
X004820Y005909D01*
X004541Y006188D01*
X005096Y006743D01*
X005375Y006464D01*
G37*
G36*
X005163Y004838D02*
X004608Y004283D01*
X004329Y004562D01*
X004884Y005117D01*
X005163Y004838D01*
G37*
G36*
X003749Y006252D02*
X003194Y005697D01*
X002915Y005976D01*
X003470Y006531D01*
X003749Y006252D01*
G37*
G36*
X002335Y007666D02*
X001780Y007111D01*
X001501Y007390D01*
X002056Y007945D01*
X002335Y007666D01*
G37*
G36*
X014183Y005661D02*
X013628Y006216D01*
X013907Y006495D01*
X014462Y005940D01*
X014183Y005661D01*
G37*
G36*
X015809Y005450D02*
X015254Y006005D01*
X015533Y006284D01*
X016088Y005729D01*
X015809Y005450D01*
G37*
G36*
X017223Y006864D02*
X016668Y007419D01*
X016947Y007698D01*
X017502Y007143D01*
X017223Y006864D01*
G37*
G36*
X015597Y007076D02*
X015042Y007631D01*
X015321Y007910D01*
X015876Y007355D01*
X015597Y007076D01*
G37*
G36*
X017012Y008490D02*
X016457Y009045D01*
X016736Y009324D01*
X017291Y008769D01*
X017012Y008490D01*
G37*
G36*
X018637Y008278D02*
X018082Y008833D01*
X018361Y009112D01*
X018916Y008557D01*
X018637Y008278D01*
G37*
M02*
