G75*
%MOIN*%
%OFA0B0*%
%FSLAX24Y24*%
%IPPOS*%
%LPD*%
%AMOC8*
5,1,8,0,0,1.08239X$1,22.5*
%
%ADD10C,0.0000*%
%ADD11C,0.0160*%
%ADD12C,0.0040*%
%ADD13R,0.0157X0.0157*%
%ADD14R,0.0157X0.0157*%
%ADD15C,0.0120*%
%ADD16C,0.0050*%
D10*
X000100Y001115D02*
X000100Y020800D01*
X019785Y020800D01*
X019785Y001115D01*
X000100Y001115D01*
X009175Y003001D02*
X009177Y003026D01*
X009183Y003051D01*
X009192Y003075D01*
X009205Y003097D01*
X009222Y003117D01*
X009241Y003134D01*
X009262Y003148D01*
X009286Y003158D01*
X009310Y003165D01*
X009336Y003168D01*
X009361Y003167D01*
X009386Y003162D01*
X009410Y003153D01*
X009433Y003141D01*
X009453Y003126D01*
X009471Y003107D01*
X009486Y003086D01*
X009497Y003063D01*
X009505Y003039D01*
X009509Y003014D01*
X009509Y002988D01*
X009505Y002963D01*
X009497Y002939D01*
X009486Y002916D01*
X009471Y002895D01*
X009453Y002876D01*
X009433Y002861D01*
X009410Y002849D01*
X009386Y002840D01*
X009361Y002835D01*
X009336Y002834D01*
X009310Y002837D01*
X009286Y002844D01*
X009262Y002854D01*
X009241Y002868D01*
X009222Y002885D01*
X009205Y002905D01*
X009192Y002927D01*
X009183Y002951D01*
X009177Y002976D01*
X009175Y003001D01*
X010671Y003001D02*
X010673Y003026D01*
X010679Y003051D01*
X010688Y003075D01*
X010701Y003097D01*
X010718Y003117D01*
X010737Y003134D01*
X010758Y003148D01*
X010782Y003158D01*
X010806Y003165D01*
X010832Y003168D01*
X010857Y003167D01*
X010882Y003162D01*
X010906Y003153D01*
X010929Y003141D01*
X010949Y003126D01*
X010967Y003107D01*
X010982Y003086D01*
X010993Y003063D01*
X011001Y003039D01*
X011005Y003014D01*
X011005Y002988D01*
X011001Y002963D01*
X010993Y002939D01*
X010982Y002916D01*
X010967Y002895D01*
X010949Y002876D01*
X010929Y002861D01*
X010906Y002849D01*
X010882Y002840D01*
X010857Y002835D01*
X010832Y002834D01*
X010806Y002837D01*
X010782Y002844D01*
X010758Y002854D01*
X010737Y002868D01*
X010718Y002885D01*
X010701Y002905D01*
X010688Y002927D01*
X010679Y002951D01*
X010673Y002976D01*
X010671Y003001D01*
D11*
X000379Y011005D02*
X000382Y011241D01*
X000391Y011476D01*
X000405Y011711D01*
X000425Y011946D01*
X000451Y012180D01*
X000483Y012414D01*
X000520Y012646D01*
X000563Y012878D01*
X000612Y013109D01*
X000667Y013338D01*
X000727Y013566D01*
X000792Y013792D01*
X000864Y014017D01*
X000940Y014239D01*
X001022Y014460D01*
X001110Y014679D01*
X001203Y014896D01*
X001301Y015110D01*
X001404Y015322D01*
X001513Y015531D01*
X001626Y015737D01*
X001745Y015941D01*
X001869Y016142D01*
X001997Y016339D01*
X002130Y016533D01*
X002268Y016724D01*
X002411Y016912D01*
X002558Y017096D01*
X002710Y017276D01*
X002866Y017453D01*
X003027Y017625D01*
X003191Y017794D01*
X003360Y017958D01*
X003532Y018119D01*
X003709Y018275D01*
X003889Y018427D01*
X004073Y018574D01*
X004261Y018717D01*
X004452Y018855D01*
X004646Y018988D01*
X004843Y019116D01*
X005044Y019240D01*
X005248Y019359D01*
X005454Y019472D01*
X005663Y019581D01*
X005875Y019684D01*
X006089Y019782D01*
X006306Y019875D01*
X006525Y019963D01*
X006746Y020045D01*
X006968Y020121D01*
X007193Y020193D01*
X007419Y020258D01*
X007647Y020318D01*
X007876Y020373D01*
X008107Y020422D01*
X008339Y020465D01*
X008571Y020502D01*
X008805Y020534D01*
X009039Y020560D01*
X009274Y020580D01*
X009509Y020594D01*
X009744Y020603D01*
X009980Y020606D01*
X010216Y020603D01*
X010451Y020594D01*
X010686Y020580D01*
X010921Y020560D01*
X011155Y020534D01*
X011389Y020502D01*
X011621Y020465D01*
X011853Y020422D01*
X012084Y020373D01*
X012313Y020318D01*
X012541Y020258D01*
X012767Y020193D01*
X012992Y020121D01*
X013214Y020045D01*
X013435Y019963D01*
X013654Y019875D01*
X013871Y019782D01*
X014085Y019684D01*
X014297Y019581D01*
X014506Y019472D01*
X014712Y019359D01*
X014916Y019240D01*
X015117Y019116D01*
X015314Y018988D01*
X015508Y018855D01*
X015699Y018717D01*
X015887Y018574D01*
X016071Y018427D01*
X016251Y018275D01*
X016428Y018119D01*
X016600Y017958D01*
X016769Y017794D01*
X016933Y017625D01*
X017094Y017453D01*
X017250Y017276D01*
X017402Y017096D01*
X017549Y016912D01*
X017692Y016724D01*
X017830Y016533D01*
X017963Y016339D01*
X018091Y016142D01*
X018215Y015941D01*
X018334Y015737D01*
X018447Y015531D01*
X018556Y015322D01*
X018659Y015110D01*
X018757Y014896D01*
X018850Y014679D01*
X018938Y014460D01*
X019020Y014239D01*
X019096Y014017D01*
X019168Y013792D01*
X019233Y013566D01*
X019293Y013338D01*
X019348Y013109D01*
X019397Y012878D01*
X019440Y012646D01*
X019477Y012414D01*
X019509Y012180D01*
X019535Y011946D01*
X019555Y011711D01*
X019569Y011476D01*
X019578Y011241D01*
X019581Y011005D01*
X019578Y010769D01*
X019569Y010534D01*
X019555Y010299D01*
X019535Y010064D01*
X019509Y009830D01*
X019477Y009596D01*
X019440Y009364D01*
X019397Y009132D01*
X019348Y008901D01*
X019293Y008672D01*
X019233Y008444D01*
X019168Y008218D01*
X019096Y007993D01*
X019020Y007771D01*
X018938Y007550D01*
X018850Y007331D01*
X018757Y007114D01*
X018659Y006900D01*
X018556Y006688D01*
X018447Y006479D01*
X018334Y006273D01*
X018215Y006069D01*
X018091Y005868D01*
X017963Y005671D01*
X017830Y005477D01*
X017692Y005286D01*
X017549Y005098D01*
X017402Y004914D01*
X017250Y004734D01*
X017094Y004557D01*
X016933Y004385D01*
X016769Y004216D01*
X016600Y004052D01*
X016428Y003891D01*
X016251Y003735D01*
X016071Y003583D01*
X015887Y003436D01*
X015699Y003293D01*
X015508Y003155D01*
X015314Y003022D01*
X015117Y002894D01*
X014916Y002770D01*
X014712Y002651D01*
X014506Y002538D01*
X014297Y002429D01*
X014085Y002326D01*
X013871Y002228D01*
X013654Y002135D01*
X013435Y002047D01*
X013214Y001965D01*
X012992Y001889D01*
X012767Y001817D01*
X012541Y001752D01*
X012313Y001692D01*
X012084Y001637D01*
X011853Y001588D01*
X011621Y001545D01*
X011389Y001508D01*
X011155Y001476D01*
X010921Y001450D01*
X010686Y001430D01*
X010451Y001416D01*
X010216Y001407D01*
X009980Y001404D01*
X009744Y001407D01*
X009509Y001416D01*
X009274Y001430D01*
X009039Y001450D01*
X008805Y001476D01*
X008571Y001508D01*
X008339Y001545D01*
X008107Y001588D01*
X007876Y001637D01*
X007647Y001692D01*
X007419Y001752D01*
X007193Y001817D01*
X006968Y001889D01*
X006746Y001965D01*
X006525Y002047D01*
X006306Y002135D01*
X006089Y002228D01*
X005875Y002326D01*
X005663Y002429D01*
X005454Y002538D01*
X005248Y002651D01*
X005044Y002770D01*
X004843Y002894D01*
X004646Y003022D01*
X004452Y003155D01*
X004261Y003293D01*
X004073Y003436D01*
X003889Y003583D01*
X003709Y003735D01*
X003532Y003891D01*
X003360Y004052D01*
X003191Y004216D01*
X003027Y004385D01*
X002866Y004557D01*
X002710Y004734D01*
X002558Y004914D01*
X002411Y005098D01*
X002268Y005286D01*
X002130Y005477D01*
X001997Y005671D01*
X001869Y005868D01*
X001745Y006069D01*
X001626Y006273D01*
X001513Y006479D01*
X001404Y006688D01*
X001301Y006900D01*
X001203Y007114D01*
X001110Y007331D01*
X001022Y007550D01*
X000940Y007771D01*
X000864Y007993D01*
X000792Y008218D01*
X000727Y008444D01*
X000667Y008672D01*
X000612Y008901D01*
X000563Y009132D01*
X000520Y009364D01*
X000483Y009596D01*
X000451Y009830D01*
X000425Y010064D01*
X000405Y010299D01*
X000391Y010534D01*
X000382Y010769D01*
X000379Y011005D01*
D12*
X002998Y012919D02*
X003168Y012750D01*
X003168Y013089D01*
X003210Y013132D01*
X003295Y013132D01*
X003380Y013047D01*
X003380Y012962D01*
X003470Y012871D02*
X003470Y012532D01*
X003386Y012532D01*
X003301Y012617D01*
X003301Y012702D01*
X003470Y012871D01*
X003555Y012871D01*
X003640Y012786D01*
X003640Y012702D01*
X003470Y012532D01*
X003519Y012399D02*
X003688Y012229D01*
X003604Y012314D02*
X003858Y012568D01*
X003858Y012399D01*
X004034Y012393D02*
X003822Y012181D01*
X003822Y012096D01*
X003906Y012011D01*
X003991Y012011D01*
X004204Y012223D01*
X004538Y012337D02*
X006347Y014147D01*
X005122Y015372D01*
X003313Y013562D01*
X004538Y012337D01*
X006261Y014384D02*
X006263Y014406D01*
X006269Y014428D01*
X006278Y014448D01*
X006291Y014466D01*
X006307Y014482D01*
X006325Y014495D01*
X006345Y014504D01*
X006367Y014510D01*
X006389Y014512D01*
X006411Y014510D01*
X006433Y014504D01*
X006453Y014495D01*
X006471Y014482D01*
X006487Y014466D01*
X006500Y014448D01*
X006509Y014428D01*
X006515Y014406D01*
X006517Y014384D01*
X006515Y014362D01*
X006509Y014340D01*
X006500Y014320D01*
X006487Y014302D01*
X006471Y014286D01*
X006453Y014273D01*
X006433Y014264D01*
X006411Y014258D01*
X006389Y014256D01*
X006367Y014258D01*
X006345Y014264D01*
X006325Y014273D01*
X006307Y014286D01*
X006291Y014302D01*
X006278Y014320D01*
X006269Y014340D01*
X006263Y014362D01*
X006261Y014384D01*
X007475Y014887D02*
X007560Y014802D01*
X007645Y014802D01*
X007736Y014712D02*
X007736Y014627D01*
X007821Y014542D01*
X007906Y014542D01*
X007906Y014881D01*
X007736Y014712D01*
X007906Y014881D02*
X007990Y014881D01*
X008075Y014796D01*
X008075Y014712D01*
X007906Y014542D01*
X007954Y014409D02*
X008123Y014239D01*
X008039Y014324D02*
X008293Y014578D01*
X008293Y014409D01*
X008426Y014360D02*
X008341Y014276D01*
X008341Y014191D01*
X008469Y014063D01*
X008384Y013978D02*
X008639Y014233D01*
X008511Y014360D01*
X008426Y014360D01*
X008384Y014148D02*
X008214Y014148D01*
X007815Y014972D02*
X007815Y015057D01*
X007730Y015142D01*
X007645Y015142D01*
X007603Y015099D01*
X007603Y015014D01*
X007518Y015014D01*
X007475Y014972D01*
X007475Y014887D01*
X007603Y015014D02*
X007645Y014972D01*
X009463Y016435D02*
X009463Y016742D01*
X009617Y016895D01*
X009770Y016742D01*
X009770Y016435D01*
X009770Y016665D02*
X009463Y016665D01*
X010713Y016818D02*
X010790Y016895D01*
X010944Y016895D01*
X011020Y016818D01*
X011020Y016511D01*
X010944Y016435D01*
X010790Y016435D01*
X010713Y016511D01*
X010790Y018935D02*
X010713Y019011D01*
X010790Y018935D02*
X010944Y018935D01*
X011020Y019011D01*
X011020Y019318D01*
X010944Y019395D01*
X010790Y019395D01*
X010713Y019318D01*
X009770Y019318D02*
X009770Y019011D01*
X009694Y018935D01*
X009540Y018935D01*
X009463Y019011D01*
X009463Y019318D02*
X009540Y019395D01*
X009694Y019395D01*
X009770Y019318D01*
X015611Y009559D02*
X015611Y009342D01*
X015828Y009125D01*
X015665Y009288D02*
X015882Y009505D01*
X015828Y009559D02*
X015611Y009559D01*
X015828Y009559D02*
X016045Y009342D01*
X015107Y008512D02*
X015107Y008404D01*
X014998Y008295D01*
X014890Y008295D01*
X015107Y008512D02*
X014890Y008729D01*
X014781Y008729D01*
X014673Y008621D01*
X014673Y008512D01*
X016441Y006853D02*
X016549Y006962D01*
X016658Y006962D01*
X016875Y006745D01*
X016875Y006636D01*
X016766Y006528D01*
X016658Y006528D01*
X016441Y006745D02*
X016441Y006853D01*
X017324Y007629D02*
X017324Y007737D01*
X017433Y007846D01*
X017541Y007846D01*
X017758Y007629D01*
X017758Y007520D01*
X017650Y007412D01*
X017541Y007412D01*
X013070Y004716D02*
X012950Y004596D01*
X013010Y004468D02*
X012770Y004228D01*
X012710Y004288D01*
X012710Y004408D01*
X012770Y004468D01*
X013010Y004468D01*
X013070Y004408D01*
X013070Y004288D01*
X013010Y004228D01*
X012770Y004228D01*
X012710Y004100D02*
X012710Y003860D01*
X012710Y003980D02*
X013070Y003980D01*
X012950Y003860D01*
X013070Y003732D02*
X013070Y003491D01*
X012710Y003491D01*
X012890Y003491D02*
X012890Y003611D01*
X012710Y004596D02*
X012710Y004837D01*
X012710Y004716D02*
X013070Y004716D01*
X011240Y003995D02*
X011240Y003695D01*
X011180Y003635D01*
X011060Y003635D01*
X011000Y003695D01*
X011000Y003995D01*
X010872Y003935D02*
X010872Y003875D01*
X010812Y003815D01*
X010692Y003815D01*
X010631Y003755D01*
X010631Y003695D01*
X010692Y003635D01*
X010812Y003635D01*
X010872Y003695D01*
X010872Y003935D02*
X010812Y003995D01*
X010692Y003995D01*
X010631Y003935D01*
X010503Y003995D02*
X010503Y003635D01*
X010323Y003635D01*
X010263Y003695D01*
X010263Y003755D01*
X010323Y003815D01*
X010503Y003815D01*
X010323Y003815D02*
X010263Y003875D01*
X010263Y003935D01*
X010323Y003995D01*
X010503Y003995D01*
X010135Y003815D02*
X009895Y003815D01*
X009767Y003875D02*
X009767Y003695D01*
X009707Y003635D01*
X009527Y003635D01*
X009527Y003875D01*
X009398Y003815D02*
X009218Y003815D01*
X009158Y003755D01*
X009158Y003695D01*
X009218Y003635D01*
X009398Y003635D01*
X009398Y003995D01*
X009218Y003995D01*
X009158Y003935D01*
X009158Y003875D01*
X009218Y003815D01*
X009470Y005471D02*
X009470Y005652D01*
X009530Y005712D01*
X009650Y005712D01*
X009710Y005652D01*
X009710Y005471D01*
X009830Y005471D02*
X009470Y005471D01*
X009710Y005591D02*
X009830Y005712D01*
X009830Y005840D02*
X009830Y006080D01*
X009830Y005960D02*
X009470Y005960D01*
X009590Y005840D01*
X009530Y006208D02*
X009470Y006268D01*
X009470Y006388D01*
X009530Y006448D01*
X009770Y006208D01*
X009830Y006268D01*
X009830Y006388D01*
X009770Y006448D01*
X009530Y006448D01*
X009470Y006576D02*
X009650Y006576D01*
X009590Y006696D01*
X009590Y006756D01*
X009650Y006817D01*
X009770Y006817D01*
X009830Y006756D01*
X009830Y006636D01*
X009770Y006576D01*
X009470Y006576D02*
X009470Y006817D01*
X009530Y006208D02*
X009770Y006208D01*
X010260Y006298D02*
X010320Y006238D01*
X010560Y006238D01*
X010320Y006478D01*
X010560Y006478D01*
X010620Y006418D01*
X010620Y006298D01*
X010560Y006238D01*
X010620Y006110D02*
X010620Y005870D01*
X010620Y005990D02*
X010260Y005990D01*
X010380Y005870D01*
X010320Y005742D02*
X010440Y005742D01*
X010500Y005682D01*
X010500Y005501D01*
X010620Y005501D02*
X010260Y005501D01*
X010260Y005682D01*
X010320Y005742D01*
X010500Y005621D02*
X010620Y005742D01*
X010260Y006298D02*
X010260Y006418D01*
X010320Y006478D01*
X010440Y006606D02*
X010440Y006847D01*
X010620Y006786D02*
X010260Y006786D01*
X010440Y006606D01*
X005537Y008232D02*
X005320Y008015D01*
X005212Y008015D01*
X005103Y008124D01*
X005103Y008232D01*
X005320Y008449D02*
X005429Y008449D01*
X005537Y008341D01*
X005537Y008232D01*
X004654Y009116D02*
X004437Y008899D01*
X004328Y008899D01*
X004220Y009008D01*
X004220Y009116D01*
X004437Y009333D02*
X004545Y009333D01*
X004654Y009225D01*
X004654Y009116D01*
X002832Y007511D02*
X002832Y007294D01*
X002615Y007077D01*
X002777Y007240D02*
X002560Y007457D01*
X002615Y007511D02*
X002398Y007294D01*
X002615Y007511D02*
X002832Y007511D01*
X003553Y006681D02*
X003661Y006681D01*
X003770Y006573D01*
X003770Y006464D01*
X003553Y006247D01*
X003444Y006247D01*
X003336Y006356D01*
X003336Y006464D01*
D13*
X010080Y017915D03*
D14*
G36*
X016140Y008105D02*
X016250Y008215D01*
X016360Y008105D01*
X016250Y007995D01*
X016140Y008105D01*
G37*
G36*
X003880Y007795D02*
X003770Y007905D01*
X003880Y008015D01*
X003990Y007905D01*
X003880Y007795D01*
G37*
D15*
X008515Y003316D02*
X008909Y003316D01*
X008515Y003316D02*
X008515Y002922D01*
X008515Y001741D02*
X008515Y001347D01*
X011271Y003316D02*
X011665Y003316D01*
X011662Y003309D02*
X011662Y002922D01*
X011665Y002922D01*
X011665Y001741D02*
X011665Y001347D01*
D16*
X013200Y003199D02*
X013673Y003199D01*
X013675Y003222D01*
X013680Y003245D01*
X013689Y003267D01*
X013700Y003287D01*
X013715Y003306D01*
X013732Y003322D01*
X013752Y003335D01*
X013773Y003345D01*
X013795Y003352D01*
X013818Y003356D01*
X013842Y003356D01*
X013865Y003352D01*
X013887Y003345D01*
X013909Y003335D01*
X013928Y003322D01*
X013945Y003306D01*
X013960Y003287D01*
X013971Y003267D01*
X013980Y003245D01*
X013985Y003222D01*
X013987Y003199D01*
X014460Y003199D01*
X014460Y003474D01*
X013200Y003474D01*
X013200Y003199D01*
X013200Y003474D02*
X013200Y004655D01*
X014460Y004655D01*
X014460Y004931D01*
X013987Y004931D01*
X013985Y004908D01*
X013980Y004885D01*
X013971Y004863D01*
X013960Y004843D01*
X013945Y004824D01*
X013928Y004808D01*
X013909Y004795D01*
X013887Y004785D01*
X013865Y004778D01*
X013842Y004774D01*
X013818Y004774D01*
X013795Y004778D01*
X013773Y004785D01*
X013752Y004795D01*
X013732Y004808D01*
X013715Y004824D01*
X013700Y004843D01*
X013689Y004863D01*
X013680Y004885D01*
X013675Y004908D01*
X013673Y004931D01*
X013200Y004931D01*
X013200Y004655D01*
X014460Y004655D02*
X014460Y003474D01*
M02*
