%
M48
M72
T01C0.0197
T02C0.0236
T03C0.0335
T04C0.0400
%
T01
X7790Y14935
X10390Y15465
X7570Y4015
X12120Y19135
X7360Y14875
X10770Y12095
X7170Y12405
X12570Y9285
X6650Y8355
X6960Y7685
X6420Y8785
X16150Y5475
X17400Y9275
X14760Y10995
X8650Y8785
X9550Y9355
X13230Y9185
X12570Y10835
X12780Y15505
X15600Y11075
X13540Y12405
X8740Y9435
X7990Y9425
X4790Y11815
X4860Y10445
X10500Y8835
X8530Y9995
X5180Y10835
X5180Y11785
X7570Y7615
X6900Y9125
X10010Y7235
X8760Y7525
X9080Y7165
T02
X8050Y19505
X6480Y12135
X13050Y8795
X2630Y14425
X12060Y19855
X8360Y19095
X9310Y15305
X9920Y15475
X4200Y16085
X6130Y11055
X12710Y8415
X3760Y15965
X5810Y10705
X12390Y8065
X3310Y15745
X5490Y10345
X12060Y7705
X3030Y9605
X2700Y10075
X2890Y10525
X11260Y17875
X13190Y17195
T03
X10838Y3001
X9342Y3001
T04
X18170Y10995
M30
