G75*
%MOIN*%
%OFA0B0*%
%FSLAX24Y24*%
%IPPOS*%
%LPD*%
%AMOC8*
5,1,8,0,0,1.08239X$1,22.5*
%
%ADD10C,0.0000*%
%ADD11R,0.0276X0.0394*%
D10*
X000100Y000100D02*
X000100Y031596D01*
X039470Y031596D01*
X039470Y000100D01*
X000100Y000100D01*
D11*
G36*
X012988Y011765D02*
X013183Y011570D01*
X012906Y011293D01*
X012711Y011488D01*
X012988Y011765D01*
G37*
G36*
X012570Y012183D02*
X012765Y011988D01*
X012488Y011711D01*
X012293Y011906D01*
X012570Y012183D01*
G37*
G36*
X013294Y012907D02*
X013489Y012712D01*
X013212Y012435D01*
X013017Y012630D01*
X013294Y012907D01*
G37*
G36*
X013712Y012489D02*
X013907Y012294D01*
X013630Y012017D01*
X013435Y012212D01*
X013712Y012489D01*
G37*
G36*
X023293Y012294D02*
X023488Y012489D01*
X023765Y012212D01*
X023570Y012017D01*
X023293Y012294D01*
G37*
G36*
X023711Y012712D02*
X023906Y012907D01*
X024183Y012630D01*
X023988Y012435D01*
X023711Y012712D01*
G37*
G36*
X024435Y011988D02*
X024630Y012183D01*
X024907Y011906D01*
X024712Y011711D01*
X024435Y011988D01*
G37*
G36*
X024017Y011570D02*
X024212Y011765D01*
X024489Y011488D01*
X024294Y011293D01*
X024017Y011570D01*
G37*
X018895Y021588D03*
X018305Y021588D03*
X018305Y022612D03*
X018895Y022612D03*
M02*
