G75*
%MOIN*%
%OFA0B0*%
%FSLAX24Y24*%
%IPPOS*%
%LPD*%
%AMOC8*
5,1,8,0,0,1.08239X$1,22.5*
%
%ADD10C,0.0000*%
%ADD11C,0.0640*%
%ADD12C,0.0128*%
%ADD13R,0.0315X0.0433*%
%ADD14OC8,0.0640*%
D10*
X000100Y000100D02*
X000100Y031596D01*
X039470Y031596D01*
X039470Y000100D01*
X000100Y000100D01*
D11*
X016269Y013087D02*
X016693Y013511D01*
X015986Y014219D02*
X015561Y013794D01*
X014854Y014501D02*
X015279Y014926D01*
X014571Y015633D02*
X014147Y015209D01*
X019210Y012434D02*
X019634Y012010D01*
X020341Y012717D02*
X019917Y013141D01*
X020624Y013849D02*
X021049Y013424D01*
X021756Y014131D02*
X021331Y014556D01*
X022039Y015263D02*
X022463Y014839D01*
X023170Y015546D02*
X022746Y015970D01*
D12*
X018829Y018368D02*
X018765Y018304D01*
X018765Y018516D01*
X018914Y018665D01*
X019126Y018665D01*
X019275Y018516D01*
X019275Y018304D01*
X019126Y018155D01*
X018914Y018155D01*
X018765Y018304D01*
X018861Y018344D01*
X018861Y018476D01*
X018954Y018569D01*
X019086Y018569D01*
X019179Y018476D01*
X019179Y018344D01*
X019086Y018251D01*
X018954Y018251D01*
X018861Y018344D01*
X018957Y018384D01*
X018957Y018436D01*
X018994Y018473D01*
X019046Y018473D01*
X019083Y018436D01*
X019083Y018384D01*
X019046Y018347D01*
X018994Y018347D01*
X018957Y018384D01*
D13*
X018895Y021588D03*
X018305Y021588D03*
X018305Y022612D03*
X018895Y022612D03*
G36*
X023684Y012712D02*
X023906Y012934D01*
X024210Y012630D01*
X023988Y012408D01*
X023684Y012712D01*
G37*
G36*
X023266Y012294D02*
X023488Y012516D01*
X023792Y012212D01*
X023570Y011990D01*
X023266Y012294D01*
G37*
G36*
X023990Y011570D02*
X024212Y011792D01*
X024516Y011488D01*
X024294Y011266D01*
X023990Y011570D01*
G37*
G36*
X024408Y011988D02*
X024630Y012210D01*
X024934Y011906D01*
X024712Y011684D01*
X024408Y011988D01*
G37*
G36*
X013712Y012516D02*
X013934Y012294D01*
X013630Y011990D01*
X013408Y012212D01*
X013712Y012516D01*
G37*
G36*
X013294Y012934D02*
X013516Y012712D01*
X013212Y012408D01*
X012990Y012630D01*
X013294Y012934D01*
G37*
G36*
X012570Y012210D02*
X012792Y011988D01*
X012488Y011684D01*
X012266Y011906D01*
X012570Y012210D01*
G37*
G36*
X012988Y011792D02*
X013210Y011570D01*
X012906Y011266D01*
X012684Y011488D01*
X012988Y011792D01*
G37*
D14*
X024140Y019520D03*
X015420Y021570D03*
M02*
