G75*
%MOIN*%
%OFA0B0*%
%FSLAX24Y24*%
%IPPOS*%
%LPD*%
%AMOC8*
5,1,8,0,0,1.08239X$1,22.5*
%
%ADD10C,0.0000*%
%ADD11C,0.0160*%
%ADD12C,0.0110*%
%ADD13C,0.0120*%
%ADD14C,0.0040*%
%ADD15R,0.0157X0.0157*%
%ADD16R,0.0157X0.0157*%
D10*
X000100Y000100D02*
X000100Y019785D01*
X019785Y019785D01*
X019785Y000100D01*
X000100Y000100D01*
D11*
X002919Y009091D02*
X002669Y010791D01*
X004309Y010501D01*
X004309Y010481D02*
X002919Y009091D01*
X000339Y009801D02*
X000342Y010037D01*
X000351Y010272D01*
X000365Y010507D01*
X000385Y010742D01*
X000411Y010976D01*
X000443Y011210D01*
X000480Y011442D01*
X000523Y011674D01*
X000572Y011904D01*
X000627Y012134D01*
X000687Y012361D01*
X000752Y012588D01*
X000824Y012812D01*
X000900Y013035D01*
X000982Y013256D01*
X001070Y013475D01*
X001163Y013691D01*
X001261Y013906D01*
X001364Y014117D01*
X001473Y014326D01*
X001586Y014533D01*
X001705Y014736D01*
X001828Y014937D01*
X001957Y015134D01*
X002090Y015329D01*
X002228Y015520D01*
X002371Y015707D01*
X002518Y015891D01*
X002670Y016071D01*
X002826Y016248D01*
X002986Y016421D01*
X003151Y016589D01*
X003319Y016754D01*
X003492Y016914D01*
X003669Y017070D01*
X003849Y017222D01*
X004033Y017369D01*
X004220Y017512D01*
X004411Y017650D01*
X004606Y017783D01*
X004803Y017912D01*
X005004Y018035D01*
X005207Y018154D01*
X005414Y018267D01*
X005623Y018376D01*
X005834Y018479D01*
X006049Y018577D01*
X006265Y018670D01*
X006484Y018758D01*
X006705Y018840D01*
X006928Y018916D01*
X007152Y018988D01*
X007379Y019053D01*
X007606Y019113D01*
X007836Y019168D01*
X008066Y019217D01*
X008298Y019260D01*
X008530Y019297D01*
X008764Y019329D01*
X008998Y019355D01*
X009233Y019375D01*
X009468Y019389D01*
X009703Y019398D01*
X009939Y019401D01*
X010175Y019398D01*
X010410Y019389D01*
X010645Y019375D01*
X010880Y019355D01*
X011114Y019329D01*
X011348Y019297D01*
X011580Y019260D01*
X011812Y019217D01*
X012042Y019168D01*
X012272Y019113D01*
X012499Y019053D01*
X012726Y018988D01*
X012950Y018916D01*
X013173Y018840D01*
X013394Y018758D01*
X013613Y018670D01*
X013829Y018577D01*
X014044Y018479D01*
X014255Y018376D01*
X014464Y018267D01*
X014671Y018154D01*
X014874Y018035D01*
X015075Y017912D01*
X015272Y017783D01*
X015467Y017650D01*
X015658Y017512D01*
X015845Y017369D01*
X016029Y017222D01*
X016209Y017070D01*
X016386Y016914D01*
X016559Y016754D01*
X016727Y016589D01*
X016892Y016421D01*
X017052Y016248D01*
X017208Y016071D01*
X017360Y015891D01*
X017507Y015707D01*
X017650Y015520D01*
X017788Y015329D01*
X017921Y015134D01*
X018050Y014937D01*
X018173Y014736D01*
X018292Y014533D01*
X018405Y014326D01*
X018514Y014117D01*
X018617Y013906D01*
X018715Y013691D01*
X018808Y013475D01*
X018896Y013256D01*
X018978Y013035D01*
X019054Y012812D01*
X019126Y012588D01*
X019191Y012361D01*
X019251Y012134D01*
X019306Y011904D01*
X019355Y011674D01*
X019398Y011442D01*
X019435Y011210D01*
X019467Y010976D01*
X019493Y010742D01*
X019513Y010507D01*
X019527Y010272D01*
X019536Y010037D01*
X019539Y009801D01*
X019536Y009565D01*
X019527Y009330D01*
X019513Y009095D01*
X019493Y008860D01*
X019467Y008626D01*
X019435Y008392D01*
X019398Y008160D01*
X019355Y007928D01*
X019306Y007698D01*
X019251Y007468D01*
X019191Y007241D01*
X019126Y007014D01*
X019054Y006790D01*
X018978Y006567D01*
X018896Y006346D01*
X018808Y006127D01*
X018715Y005911D01*
X018617Y005696D01*
X018514Y005485D01*
X018405Y005276D01*
X018292Y005069D01*
X018173Y004866D01*
X018050Y004665D01*
X017921Y004468D01*
X017788Y004273D01*
X017650Y004082D01*
X017507Y003895D01*
X017360Y003711D01*
X017208Y003531D01*
X017052Y003354D01*
X016892Y003181D01*
X016727Y003013D01*
X016559Y002848D01*
X016386Y002688D01*
X016209Y002532D01*
X016029Y002380D01*
X015845Y002233D01*
X015658Y002090D01*
X015467Y001952D01*
X015272Y001819D01*
X015075Y001690D01*
X014874Y001567D01*
X014671Y001448D01*
X014464Y001335D01*
X014255Y001226D01*
X014044Y001123D01*
X013829Y001025D01*
X013613Y000932D01*
X013394Y000844D01*
X013173Y000762D01*
X012950Y000686D01*
X012726Y000614D01*
X012499Y000549D01*
X012272Y000489D01*
X012042Y000434D01*
X011812Y000385D01*
X011580Y000342D01*
X011348Y000305D01*
X011114Y000273D01*
X010880Y000247D01*
X010645Y000227D01*
X010410Y000213D01*
X010175Y000204D01*
X009939Y000201D01*
X009703Y000204D01*
X009468Y000213D01*
X009233Y000227D01*
X008998Y000247D01*
X008764Y000273D01*
X008530Y000305D01*
X008298Y000342D01*
X008066Y000385D01*
X007836Y000434D01*
X007606Y000489D01*
X007379Y000549D01*
X007152Y000614D01*
X006928Y000686D01*
X006705Y000762D01*
X006484Y000844D01*
X006265Y000932D01*
X006049Y001025D01*
X005834Y001123D01*
X005623Y001226D01*
X005414Y001335D01*
X005207Y001448D01*
X005004Y001567D01*
X004803Y001690D01*
X004606Y001819D01*
X004411Y001952D01*
X004220Y002090D01*
X004033Y002233D01*
X003849Y002380D01*
X003669Y002532D01*
X003492Y002688D01*
X003319Y002848D01*
X003151Y003013D01*
X002986Y003181D01*
X002826Y003354D01*
X002670Y003531D01*
X002518Y003711D01*
X002371Y003895D01*
X002228Y004082D01*
X002090Y004273D01*
X001957Y004468D01*
X001828Y004665D01*
X001705Y004866D01*
X001586Y005069D01*
X001473Y005276D01*
X001364Y005485D01*
X001261Y005696D01*
X001163Y005911D01*
X001070Y006127D01*
X000982Y006346D01*
X000900Y006567D01*
X000824Y006790D01*
X000752Y007014D01*
X000687Y007241D01*
X000627Y007468D01*
X000572Y007698D01*
X000523Y007928D01*
X000480Y008160D01*
X000443Y008392D01*
X000411Y008626D01*
X000385Y008860D01*
X000365Y009095D01*
X000351Y009330D01*
X000342Y009565D01*
X000339Y009801D01*
D12*
X002034Y006270D02*
X002312Y005991D01*
X002034Y005991D02*
X002312Y006270D01*
X006490Y005325D02*
X006768Y005047D01*
X015206Y003289D02*
X015475Y003001D01*
X015485Y003279D02*
X015197Y003011D01*
X015814Y007851D02*
X016092Y008130D01*
X008354Y014941D02*
X007960Y014941D01*
X008157Y015138D02*
X008157Y014744D01*
X011610Y016741D02*
X012004Y016741D01*
D13*
X006828Y013025D02*
X005852Y014002D01*
X006177Y014327D02*
X005526Y013676D01*
X005200Y013351D02*
X006177Y012374D01*
X005526Y011723D01*
X005038Y011560D02*
X005038Y011235D01*
X004712Y010909D01*
X004387Y010909D01*
X004224Y011072D01*
X004224Y011398D01*
X004549Y011723D01*
X004549Y012049D01*
X004387Y012211D01*
X004061Y012211D01*
X003735Y011886D01*
X003735Y011560D01*
X004549Y012700D02*
X005200Y013351D01*
X005689Y012862D02*
X005363Y012537D01*
D14*
X009112Y014398D02*
X009188Y014321D01*
X009342Y014321D01*
X009419Y014398D01*
X009419Y014704D01*
X009342Y014781D01*
X009188Y014781D01*
X009112Y014704D01*
X010362Y014704D02*
X010438Y014781D01*
X010592Y014781D01*
X010669Y014704D01*
X010669Y014398D01*
X010592Y014321D01*
X010438Y014321D01*
X010362Y014398D01*
X010362Y016821D02*
X010362Y017128D01*
X010515Y017281D01*
X010669Y017128D01*
X010669Y016821D01*
X010669Y017051D02*
X010362Y017051D01*
X009419Y017204D02*
X009419Y016898D01*
X009342Y016821D01*
X009188Y016821D01*
X009112Y016898D01*
X009112Y017204D02*
X009188Y017281D01*
X009342Y017281D01*
X009419Y017204D01*
X004955Y007378D02*
X005063Y007270D01*
X005063Y007161D01*
X004846Y006944D01*
X004738Y006944D01*
X004629Y007053D01*
X004629Y007161D01*
X004846Y007378D02*
X004955Y007378D01*
X005676Y006440D02*
X005459Y006223D01*
X005622Y006386D02*
X005839Y006169D01*
X005893Y006223D02*
X005893Y006440D01*
X005676Y006440D01*
X005893Y006223D02*
X005676Y006006D01*
X004180Y004618D02*
X004180Y004509D01*
X003963Y004292D01*
X003854Y004292D01*
X003745Y004401D01*
X003745Y004509D01*
X003963Y004726D02*
X004071Y004726D01*
X004180Y004618D01*
X003296Y005393D02*
X003079Y005176D01*
X002970Y005176D01*
X002862Y005285D01*
X002862Y005393D01*
X003079Y005610D02*
X003187Y005610D01*
X003296Y005502D01*
X003296Y005393D01*
X013861Y006209D02*
X013861Y006317D01*
X013970Y006426D01*
X014078Y006426D01*
X014295Y006209D01*
X014295Y006100D01*
X014187Y005992D01*
X014078Y005992D01*
X015016Y006821D02*
X014799Y007038D01*
X014799Y007255D01*
X015016Y007255D01*
X015234Y007038D01*
X015071Y007201D02*
X014854Y006984D01*
X016513Y005433D02*
X016513Y005325D01*
X016513Y005433D02*
X016621Y005542D01*
X016730Y005542D01*
X016947Y005325D01*
X016947Y005216D01*
X016839Y005108D01*
X016730Y005108D01*
X016063Y004441D02*
X016063Y004332D01*
X015955Y004224D01*
X015846Y004224D01*
X015629Y004441D02*
X015629Y004549D01*
X015738Y004658D01*
X015846Y004658D01*
X016063Y004441D01*
D15*
X009939Y015801D03*
D16*
G36*
X015329Y005801D02*
X015439Y005911D01*
X015549Y005801D01*
X015439Y005691D01*
X015329Y005801D01*
G37*
G36*
X004439Y005911D02*
X004549Y005801D01*
X004439Y005691D01*
X004329Y005801D01*
X004439Y005911D01*
G37*
M02*
