G75*
%MOIN*%
%OFA0B0*%
%FSLAX24Y24*%
%IPPOS*%
%LPD*%
%AMOC8*
5,1,8,0,0,1.08239X$1,22.5*
%
%ADD10C,0.0000*%
%ADD11R,0.0260X0.0800*%
%ADD12R,0.0433X0.0394*%
%ADD13R,0.0394X0.0433*%
D10*
X000100Y000100D02*
X000100Y019785D01*
X019785Y019785D01*
X019785Y000100D01*
X000100Y000100D01*
D11*
G36*
X009648Y007465D02*
X009464Y007281D01*
X008900Y007845D01*
X009084Y008029D01*
X009648Y007465D01*
G37*
G36*
X010001Y007818D02*
X009817Y007634D01*
X009253Y008198D01*
X009437Y008382D01*
X010001Y007818D01*
G37*
G36*
X010355Y008172D02*
X010171Y007988D01*
X009607Y008552D01*
X009791Y008736D01*
X010355Y008172D01*
G37*
G36*
X010708Y008525D02*
X010524Y008341D01*
X009960Y008905D01*
X010144Y009089D01*
X010708Y008525D01*
G37*
G36*
X011062Y008879D02*
X010878Y008695D01*
X010314Y009259D01*
X010498Y009443D01*
X011062Y008879D01*
G37*
G36*
X011415Y009232D02*
X011231Y009048D01*
X010667Y009612D01*
X010851Y009796D01*
X011415Y009232D01*
G37*
G36*
X011769Y009586D02*
X011585Y009402D01*
X011021Y009966D01*
X011205Y010150D01*
X011769Y009586D01*
G37*
G36*
X010058Y011297D02*
X009874Y011113D01*
X009310Y011677D01*
X009494Y011861D01*
X010058Y011297D01*
G37*
G36*
X009704Y010943D02*
X009520Y010759D01*
X008956Y011323D01*
X009140Y011507D01*
X009704Y010943D01*
G37*
G36*
X009351Y010590D02*
X009167Y010406D01*
X008603Y010970D01*
X008787Y011154D01*
X009351Y010590D01*
G37*
G36*
X008997Y010236D02*
X008813Y010052D01*
X008249Y010616D01*
X008433Y010800D01*
X008997Y010236D01*
G37*
G36*
X008643Y009883D02*
X008459Y009699D01*
X007895Y010263D01*
X008079Y010447D01*
X008643Y009883D01*
G37*
G36*
X008290Y009529D02*
X008106Y009345D01*
X007542Y009909D01*
X007726Y010093D01*
X008290Y009529D01*
G37*
G36*
X007936Y009176D02*
X007752Y008992D01*
X007188Y009556D01*
X007372Y009740D01*
X007936Y009176D01*
G37*
D12*
G36*
X008784Y005650D02*
X008486Y005961D01*
X008770Y006234D01*
X009068Y005923D01*
X008784Y005650D01*
G37*
G36*
X009247Y005167D02*
X008949Y005478D01*
X009233Y005751D01*
X009531Y005440D01*
X009247Y005167D01*
G37*
D13*
G36*
X004738Y011106D02*
X005017Y010827D01*
X004712Y010522D01*
X004433Y010801D01*
X004738Y011106D01*
G37*
G36*
X004265Y011579D02*
X004544Y011300D01*
X004239Y010995D01*
X003960Y011274D01*
X004265Y011579D01*
G37*
G36*
X005425Y012589D02*
X005704Y012310D01*
X005399Y012005D01*
X005120Y012284D01*
X005425Y012589D01*
G37*
G36*
X005898Y012116D02*
X006177Y011837D01*
X005872Y011532D01*
X005593Y011811D01*
X005898Y012116D01*
G37*
G36*
X007088Y013226D02*
X007367Y012947D01*
X007062Y012642D01*
X006783Y012921D01*
X007088Y013226D01*
G37*
G36*
X006615Y013699D02*
X006894Y013420D01*
X006589Y013115D01*
X006310Y013394D01*
X006615Y013699D01*
G37*
G36*
X007655Y014669D02*
X007934Y014390D01*
X007629Y014085D01*
X007350Y014364D01*
X007655Y014669D01*
G37*
G36*
X008128Y014196D02*
X008407Y013917D01*
X008102Y013612D01*
X007823Y013891D01*
X008128Y014196D01*
G37*
G36*
X012849Y011515D02*
X012570Y011794D01*
X012875Y012099D01*
X013154Y011820D01*
X012849Y011515D01*
G37*
G36*
X013322Y011042D02*
X013043Y011321D01*
X013348Y011626D01*
X013627Y011347D01*
X013322Y011042D01*
G37*
M02*
