G75*
%MOIN*%
%OFA0B0*%
%FSLAX24Y24*%
%IPPOS*%
%LPD*%
%AMOC8*
5,1,8,0,0,1.08239X$1,22.5*
%
%ADD10C,0.0000*%
%ADD11C,0.0160*%
%ADD12C,0.0100*%
%ADD13C,0.0080*%
%ADD14C,0.0040*%
%ADD15C,0.0060*%
D10*
X000100Y000100D02*
X000100Y019785D01*
X019785Y019785D01*
X019785Y000100D01*
X000100Y000100D01*
D11*
X000339Y009801D02*
X000342Y010037D01*
X000351Y010272D01*
X000365Y010507D01*
X000385Y010742D01*
X000411Y010976D01*
X000443Y011210D01*
X000480Y011442D01*
X000523Y011674D01*
X000572Y011904D01*
X000627Y012134D01*
X000687Y012361D01*
X000752Y012588D01*
X000824Y012812D01*
X000900Y013035D01*
X000982Y013256D01*
X001070Y013475D01*
X001163Y013691D01*
X001261Y013906D01*
X001364Y014117D01*
X001473Y014326D01*
X001586Y014533D01*
X001705Y014736D01*
X001828Y014937D01*
X001957Y015134D01*
X002090Y015329D01*
X002228Y015520D01*
X002371Y015707D01*
X002518Y015891D01*
X002670Y016071D01*
X002826Y016248D01*
X002986Y016421D01*
X003151Y016589D01*
X003319Y016754D01*
X003492Y016914D01*
X003669Y017070D01*
X003849Y017222D01*
X004033Y017369D01*
X004220Y017512D01*
X004411Y017650D01*
X004606Y017783D01*
X004803Y017912D01*
X005004Y018035D01*
X005207Y018154D01*
X005414Y018267D01*
X005623Y018376D01*
X005834Y018479D01*
X006049Y018577D01*
X006265Y018670D01*
X006484Y018758D01*
X006705Y018840D01*
X006928Y018916D01*
X007152Y018988D01*
X007379Y019053D01*
X007606Y019113D01*
X007836Y019168D01*
X008066Y019217D01*
X008298Y019260D01*
X008530Y019297D01*
X008764Y019329D01*
X008998Y019355D01*
X009233Y019375D01*
X009468Y019389D01*
X009703Y019398D01*
X009939Y019401D01*
X010175Y019398D01*
X010410Y019389D01*
X010645Y019375D01*
X010880Y019355D01*
X011114Y019329D01*
X011348Y019297D01*
X011580Y019260D01*
X011812Y019217D01*
X012042Y019168D01*
X012272Y019113D01*
X012499Y019053D01*
X012726Y018988D01*
X012950Y018916D01*
X013173Y018840D01*
X013394Y018758D01*
X013613Y018670D01*
X013829Y018577D01*
X014044Y018479D01*
X014255Y018376D01*
X014464Y018267D01*
X014671Y018154D01*
X014874Y018035D01*
X015075Y017912D01*
X015272Y017783D01*
X015467Y017650D01*
X015658Y017512D01*
X015845Y017369D01*
X016029Y017222D01*
X016209Y017070D01*
X016386Y016914D01*
X016559Y016754D01*
X016727Y016589D01*
X016892Y016421D01*
X017052Y016248D01*
X017208Y016071D01*
X017360Y015891D01*
X017507Y015707D01*
X017650Y015520D01*
X017788Y015329D01*
X017921Y015134D01*
X018050Y014937D01*
X018173Y014736D01*
X018292Y014533D01*
X018405Y014326D01*
X018514Y014117D01*
X018617Y013906D01*
X018715Y013691D01*
X018808Y013475D01*
X018896Y013256D01*
X018978Y013035D01*
X019054Y012812D01*
X019126Y012588D01*
X019191Y012361D01*
X019251Y012134D01*
X019306Y011904D01*
X019355Y011674D01*
X019398Y011442D01*
X019435Y011210D01*
X019467Y010976D01*
X019493Y010742D01*
X019513Y010507D01*
X019527Y010272D01*
X019536Y010037D01*
X019539Y009801D01*
X019536Y009565D01*
X019527Y009330D01*
X019513Y009095D01*
X019493Y008860D01*
X019467Y008626D01*
X019435Y008392D01*
X019398Y008160D01*
X019355Y007928D01*
X019306Y007698D01*
X019251Y007468D01*
X019191Y007241D01*
X019126Y007014D01*
X019054Y006790D01*
X018978Y006567D01*
X018896Y006346D01*
X018808Y006127D01*
X018715Y005911D01*
X018617Y005696D01*
X018514Y005485D01*
X018405Y005276D01*
X018292Y005069D01*
X018173Y004866D01*
X018050Y004665D01*
X017921Y004468D01*
X017788Y004273D01*
X017650Y004082D01*
X017507Y003895D01*
X017360Y003711D01*
X017208Y003531D01*
X017052Y003354D01*
X016892Y003181D01*
X016727Y003013D01*
X016559Y002848D01*
X016386Y002688D01*
X016209Y002532D01*
X016029Y002380D01*
X015845Y002233D01*
X015658Y002090D01*
X015467Y001952D01*
X015272Y001819D01*
X015075Y001690D01*
X014874Y001567D01*
X014671Y001448D01*
X014464Y001335D01*
X014255Y001226D01*
X014044Y001123D01*
X013829Y001025D01*
X013613Y000932D01*
X013394Y000844D01*
X013173Y000762D01*
X012950Y000686D01*
X012726Y000614D01*
X012499Y000549D01*
X012272Y000489D01*
X012042Y000434D01*
X011812Y000385D01*
X011580Y000342D01*
X011348Y000305D01*
X011114Y000273D01*
X010880Y000247D01*
X010645Y000227D01*
X010410Y000213D01*
X010175Y000204D01*
X009939Y000201D01*
X009703Y000204D01*
X009468Y000213D01*
X009233Y000227D01*
X008998Y000247D01*
X008764Y000273D01*
X008530Y000305D01*
X008298Y000342D01*
X008066Y000385D01*
X007836Y000434D01*
X007606Y000489D01*
X007379Y000549D01*
X007152Y000614D01*
X006928Y000686D01*
X006705Y000762D01*
X006484Y000844D01*
X006265Y000932D01*
X006049Y001025D01*
X005834Y001123D01*
X005623Y001226D01*
X005414Y001335D01*
X005207Y001448D01*
X005004Y001567D01*
X004803Y001690D01*
X004606Y001819D01*
X004411Y001952D01*
X004220Y002090D01*
X004033Y002233D01*
X003849Y002380D01*
X003669Y002532D01*
X003492Y002688D01*
X003319Y002848D01*
X003151Y003013D01*
X002986Y003181D01*
X002826Y003354D01*
X002670Y003531D01*
X002518Y003711D01*
X002371Y003895D01*
X002228Y004082D01*
X002090Y004273D01*
X001957Y004468D01*
X001828Y004665D01*
X001705Y004866D01*
X001586Y005069D01*
X001473Y005276D01*
X001364Y005485D01*
X001261Y005696D01*
X001163Y005911D01*
X001070Y006127D01*
X000982Y006346D01*
X000900Y006567D01*
X000824Y006790D01*
X000752Y007014D01*
X000687Y007241D01*
X000627Y007468D01*
X000572Y007698D01*
X000523Y007928D01*
X000480Y008160D01*
X000443Y008392D01*
X000411Y008626D01*
X000385Y008860D01*
X000365Y009095D01*
X000351Y009330D01*
X000342Y009565D01*
X000339Y009801D01*
D12*
X005715Y015901D02*
X005715Y016401D01*
X005549Y016401D02*
X005882Y016401D01*
X006101Y016318D02*
X006101Y015984D01*
X006184Y015901D01*
X006351Y015901D01*
X006435Y015984D01*
X006435Y016318D01*
X006351Y016401D01*
X006184Y016401D01*
X006101Y016318D01*
X006654Y016401D02*
X006654Y015984D01*
X006737Y015901D01*
X006904Y015901D01*
X006987Y015984D01*
X006987Y016401D01*
X007206Y016318D02*
X007206Y015984D01*
X007289Y015901D01*
X007456Y015901D01*
X007540Y015984D01*
X007758Y015901D02*
X007758Y016401D01*
X007758Y016151D02*
X008092Y016151D01*
X008092Y016401D02*
X008092Y015901D01*
X007540Y016318D02*
X007456Y016401D01*
X007289Y016401D01*
X007206Y016318D01*
X009595Y013281D02*
X009762Y013114D01*
X009762Y012781D01*
X009981Y012864D02*
X010064Y012781D01*
X010231Y012781D01*
X010315Y012864D01*
X010534Y012864D02*
X010617Y012781D01*
X010784Y012781D01*
X010867Y012864D01*
X011086Y012781D02*
X011420Y012781D01*
X011638Y012781D02*
X011972Y012781D01*
X011638Y012781D02*
X011638Y013281D01*
X011420Y013281D02*
X011086Y013281D01*
X011086Y012781D01*
X011086Y013031D02*
X011253Y013031D01*
X010867Y013198D02*
X010784Y013281D01*
X010617Y013281D01*
X010534Y013198D01*
X010534Y012864D01*
X010315Y013198D02*
X010231Y013281D01*
X010064Y013281D01*
X009981Y013198D01*
X009981Y012864D01*
X009762Y013031D02*
X009429Y013031D01*
X009429Y013114D02*
X009595Y013281D01*
X009429Y013114D02*
X009429Y012781D01*
X006763Y009625D02*
X006940Y009448D01*
X006940Y009330D01*
X006822Y009212D01*
X006704Y009212D01*
X006527Y009389D01*
X006409Y009271D02*
X006763Y009625D01*
X007095Y009175D02*
X006859Y008939D01*
X006859Y008821D01*
X006977Y008703D01*
X007095Y008703D01*
X007331Y008939D01*
X007331Y009057D01*
X007213Y009175D01*
X007095Y009175D01*
X007544Y008843D02*
X007191Y008489D01*
X007427Y008489D01*
X007427Y008254D01*
X007780Y008607D01*
X007935Y008453D02*
X007581Y008099D01*
X007817Y007863D01*
X007972Y007708D02*
X008326Y008062D01*
X008503Y007885D01*
X008503Y007767D01*
X008385Y007649D01*
X008267Y007649D01*
X008090Y007826D01*
X008208Y007708D02*
X008208Y007472D01*
X008171Y008217D02*
X007935Y008453D01*
X007758Y008276D02*
X007876Y008158D01*
X010626Y007418D02*
X010862Y007418D01*
X010862Y007654D01*
X011216Y007300D01*
X011370Y007455D02*
X011488Y007573D01*
X011429Y007514D02*
X011076Y007868D01*
X011017Y007809D02*
X011135Y007927D01*
X011336Y008010D02*
X011572Y007774D01*
X011690Y007774D01*
X011808Y007892D01*
X011808Y008010D01*
X012022Y008106D02*
X011668Y008460D01*
X011845Y008637D01*
X011963Y008637D01*
X012081Y008519D01*
X012081Y008401D01*
X011904Y008224D01*
X012022Y008342D02*
X012257Y008342D01*
X012353Y008556D02*
X012471Y008556D01*
X012589Y008673D01*
X012589Y008791D01*
X012353Y009027D01*
X012235Y009027D01*
X012117Y008909D01*
X012117Y008791D01*
X012353Y008556D01*
X011572Y008246D02*
X011454Y008246D01*
X011336Y008128D01*
X011336Y008010D01*
X010626Y007418D02*
X010980Y007064D01*
X014222Y013881D02*
X014389Y013881D01*
X014472Y013964D01*
X014691Y013881D02*
X014691Y014381D01*
X014472Y014298D02*
X014389Y014381D01*
X014222Y014381D01*
X014139Y014298D01*
X014139Y013964D01*
X014222Y013881D01*
X014691Y014131D02*
X015025Y014131D01*
X015244Y014131D02*
X015577Y014131D01*
X015577Y014214D02*
X015577Y013881D01*
X015796Y013881D02*
X015796Y014381D01*
X016130Y013881D01*
X016130Y014381D01*
X016348Y014298D02*
X016348Y013964D01*
X016432Y013881D01*
X016599Y013881D01*
X016682Y013964D01*
X016682Y014131D01*
X016515Y014131D01*
X016348Y014298D02*
X016432Y014381D01*
X016599Y014381D01*
X016682Y014298D01*
X016901Y014381D02*
X016901Y013881D01*
X017235Y013881D01*
X017068Y014131D02*
X016901Y014131D01*
X016901Y014381D02*
X017235Y014381D01*
X015577Y014214D02*
X015410Y014381D01*
X015244Y014214D01*
X015244Y013881D01*
X015025Y013881D02*
X015025Y014381D01*
D13*
X009567Y007191D02*
X009569Y007218D01*
X009575Y007245D01*
X009584Y007271D01*
X009597Y007295D01*
X009614Y007317D01*
X009633Y007336D01*
X009655Y007353D01*
X009679Y007366D01*
X009705Y007375D01*
X009732Y007381D01*
X009759Y007383D01*
X009786Y007381D01*
X009813Y007375D01*
X009839Y007366D01*
X009863Y007353D01*
X009885Y007336D01*
X009904Y007317D01*
X009921Y007295D01*
X009934Y007271D01*
X009943Y007245D01*
X009949Y007218D01*
X009951Y007191D01*
X009949Y007164D01*
X009943Y007137D01*
X009934Y007111D01*
X009921Y007087D01*
X009904Y007065D01*
X009885Y007046D01*
X009863Y007029D01*
X009839Y007016D01*
X009813Y007007D01*
X009786Y007001D01*
X009759Y006999D01*
X009732Y007001D01*
X009705Y007007D01*
X009679Y007016D01*
X009655Y007029D01*
X009633Y007046D01*
X009614Y007065D01*
X009597Y007087D01*
X009584Y007111D01*
X009575Y007137D01*
X009569Y007164D01*
X009567Y007191D01*
X010599Y006461D02*
X010789Y006651D01*
X011449Y005941D01*
X011469Y005921D02*
X010789Y005231D01*
X010069Y005931D01*
X010769Y006651D01*
X006439Y009121D02*
X005679Y008421D01*
X004949Y009171D01*
X005659Y009851D01*
X005679Y009851D02*
X006439Y009121D01*
D14*
X005493Y011049D02*
X005324Y011218D01*
X005663Y011218D01*
X005706Y011261D01*
X005706Y011346D01*
X005621Y011431D01*
X005536Y011431D01*
X005445Y011521D02*
X005106Y011521D01*
X005106Y011436D01*
X005191Y011351D01*
X005275Y011351D01*
X005445Y011521D01*
X005445Y011606D01*
X005360Y011691D01*
X005275Y011691D01*
X005106Y011521D01*
X005015Y011612D02*
X004930Y011612D01*
X004845Y011697D01*
X004845Y011782D01*
X004712Y011830D02*
X004712Y012000D01*
X004755Y011957D02*
X004627Y012085D01*
X004542Y012000D02*
X004797Y012254D01*
X004924Y012127D01*
X004924Y012042D01*
X004840Y011957D01*
X004755Y011957D01*
X005015Y011952D02*
X005100Y011952D01*
X005185Y011867D01*
X005185Y011782D01*
X005142Y011739D01*
X005057Y011739D01*
X005057Y011654D01*
X005015Y011612D01*
X005057Y011739D02*
X005015Y011782D01*
X006075Y012717D02*
X006075Y012802D01*
X006075Y012717D02*
X006160Y012632D01*
X006245Y012632D01*
X006287Y012674D01*
X006287Y012759D01*
X006245Y012802D01*
X006287Y012759D02*
X006372Y012759D01*
X006415Y012802D01*
X006415Y012887D01*
X006330Y012972D01*
X006245Y012972D01*
X006154Y013062D02*
X006154Y013147D01*
X006027Y013274D01*
X005772Y013020D01*
X005857Y013105D02*
X005985Y012977D01*
X006070Y012977D01*
X006154Y013062D01*
X005942Y013020D02*
X005942Y012850D01*
X006336Y012541D02*
X006336Y012456D01*
X006421Y012371D01*
X006505Y012371D01*
X006675Y012541D01*
X006336Y012541D01*
X006505Y012711D01*
X006590Y012711D01*
X006675Y012626D01*
X006675Y012541D01*
X006766Y012451D02*
X006851Y012451D01*
X006936Y012366D01*
X006936Y012281D01*
X006893Y012238D01*
X006808Y012238D01*
X006808Y012153D01*
X006766Y012111D01*
X006681Y012111D01*
X006596Y012196D01*
X006596Y012281D01*
X006766Y012281D02*
X006808Y012238D01*
X007731Y013141D02*
X007986Y013396D01*
X007731Y013396D01*
X007901Y013226D01*
X007725Y013571D02*
X007386Y013571D01*
X007386Y013486D01*
X007471Y013401D01*
X007555Y013401D01*
X007725Y013571D01*
X007725Y013656D01*
X007640Y013741D01*
X007555Y013741D01*
X007386Y013571D01*
X007295Y013662D02*
X007210Y013662D01*
X007125Y013747D01*
X007125Y013832D01*
X006992Y013880D02*
X006992Y014050D01*
X007035Y014007D02*
X006907Y014135D01*
X006822Y014050D02*
X007077Y014304D01*
X007204Y014177D01*
X007204Y014092D01*
X007120Y014007D01*
X007035Y014007D01*
X007295Y014002D02*
X007380Y014002D01*
X007465Y013917D01*
X007465Y013832D01*
X007422Y013789D01*
X007337Y013789D01*
X007337Y013704D01*
X007295Y013662D01*
X007337Y013789D02*
X007295Y013832D01*
X010429Y011343D02*
X010429Y011258D01*
X010514Y011173D01*
X010599Y011173D01*
X010811Y011386D01*
X010860Y011253D02*
X010945Y011253D01*
X011029Y011168D01*
X011029Y011083D01*
X010987Y011040D01*
X010902Y011040D01*
X010902Y010955D01*
X010860Y010913D01*
X010775Y010913D01*
X010690Y010998D01*
X010690Y011083D01*
X010860Y011083D02*
X010902Y011040D01*
X010950Y010822D02*
X011290Y010822D01*
X011120Y010653D01*
X011035Y010653D01*
X010950Y010737D01*
X010950Y010822D01*
X011120Y010992D01*
X011205Y010992D01*
X011290Y010907D01*
X011290Y010822D01*
X011338Y010689D02*
X011508Y010689D01*
X011253Y010435D01*
X011168Y010519D02*
X011338Y010350D01*
X010429Y011343D02*
X010642Y011556D01*
X012932Y012410D02*
X013187Y012664D01*
X013314Y012537D01*
X013314Y012452D01*
X013230Y012367D01*
X013145Y012367D01*
X013017Y012495D01*
X013102Y012410D02*
X013102Y012240D01*
X013235Y012192D02*
X013235Y012107D01*
X013320Y012022D01*
X013405Y012022D01*
X013447Y012064D01*
X013447Y012149D01*
X013405Y012192D01*
X013447Y012149D02*
X013532Y012149D01*
X013575Y012192D01*
X013575Y012277D01*
X013490Y012362D01*
X013405Y012362D01*
X013665Y012101D02*
X013496Y011931D01*
X013835Y011931D01*
X013665Y011761D01*
X013581Y011761D01*
X013496Y011846D01*
X013496Y011931D01*
X013665Y012101D02*
X013750Y012101D01*
X013835Y012016D01*
X013835Y011931D01*
X013968Y011883D02*
X013841Y011756D01*
X013968Y011713D01*
X014011Y011671D01*
X014011Y011586D01*
X013926Y011501D01*
X013841Y011501D01*
X013756Y011586D01*
X013756Y011671D01*
X013968Y011883D02*
X014138Y011713D01*
X008200Y005812D02*
X008284Y005727D01*
X008284Y005642D01*
X008375Y005552D02*
X008460Y005552D01*
X008545Y005467D01*
X008545Y005382D01*
X008502Y005339D01*
X008417Y005339D01*
X008417Y005254D01*
X008375Y005212D01*
X008290Y005212D01*
X008205Y005297D01*
X008205Y005382D01*
X008115Y005472D02*
X008030Y005472D01*
X007945Y005557D01*
X007945Y005642D01*
X008115Y005812D01*
X008200Y005812D01*
X008375Y005382D02*
X008417Y005339D01*
X008466Y005121D02*
X008805Y005121D01*
X008635Y004951D01*
X008551Y004951D01*
X008466Y005036D01*
X008466Y005121D01*
X008635Y005291D01*
X008720Y005291D01*
X008805Y005206D01*
X008805Y005121D01*
X008853Y004988D02*
X009023Y004988D01*
X008769Y004733D01*
X008853Y004649D02*
X008684Y004818D01*
X004313Y009919D02*
X004144Y010088D01*
X004229Y010003D02*
X004483Y010258D01*
X004313Y010258D01*
X004265Y010391D02*
X003926Y010391D01*
X003926Y010306D01*
X004011Y010221D01*
X004095Y010221D01*
X004265Y010391D01*
X004265Y010476D01*
X004180Y010561D01*
X004095Y010561D01*
X003926Y010391D01*
X003835Y010482D02*
X003750Y010482D01*
X003665Y010567D01*
X003665Y010652D01*
X003532Y010700D02*
X003532Y010870D01*
X003575Y010827D02*
X003447Y010955D01*
X003362Y010870D02*
X003617Y011124D01*
X003744Y010997D01*
X003744Y010912D01*
X003660Y010827D01*
X003575Y010827D01*
X003835Y010822D02*
X003920Y010822D01*
X004005Y010737D01*
X004005Y010652D01*
X003962Y010609D01*
X003877Y010609D01*
X003877Y010524D01*
X003835Y010482D01*
X003877Y010609D02*
X003835Y010652D01*
D15*
X005168Y009298D02*
X005168Y008945D01*
X005521Y008591D01*
X005875Y008591D01*
X005875Y008238D01*
X006228Y007884D01*
X006582Y007884D01*
X006935Y008238D01*
X006935Y008591D01*
X006582Y008945D01*
X006228Y008945D01*
X005875Y008591D01*
X006228Y008945D02*
X006228Y009298D01*
X005875Y009652D01*
X005521Y009652D01*
X005168Y009298D01*
X006582Y007884D02*
X006582Y007530D01*
X006935Y007177D01*
X007289Y007177D01*
X007289Y006823D01*
X007642Y006470D01*
X007996Y006470D01*
X008350Y006823D01*
X008350Y007177D01*
X007996Y007530D01*
X007642Y007530D01*
X007289Y007177D01*
X007642Y007530D02*
X007642Y007884D01*
X007289Y008238D01*
X006935Y008238D01*
X007803Y008772D02*
X008100Y008475D01*
X008383Y008192D01*
X008680Y007895D01*
X008687Y007888D02*
X011161Y010363D01*
X011154Y010370D02*
X010278Y011247D01*
X010260Y011262D01*
X010240Y011275D01*
X010218Y011284D01*
X010195Y011289D01*
X010172Y011291D01*
X010149Y011289D01*
X010126Y011284D01*
X010104Y011275D01*
X010084Y011262D01*
X010066Y011247D01*
X010065Y011247D02*
X007803Y008984D01*
X007788Y008966D01*
X007775Y008946D01*
X007766Y008924D01*
X007761Y008901D01*
X007759Y008878D01*
X007761Y008855D01*
X007766Y008832D01*
X007775Y008810D01*
X007788Y008790D01*
X007803Y008772D01*
X008100Y008474D02*
X008120Y008492D01*
X008143Y008507D01*
X008168Y008519D01*
X008194Y008527D01*
X008221Y008532D01*
X008248Y008533D01*
X008275Y008530D01*
X008302Y008524D01*
X008327Y008514D01*
X008351Y008500D01*
X008372Y008484D01*
X008392Y008464D01*
X008408Y008443D01*
X008422Y008419D01*
X008432Y008394D01*
X008438Y008367D01*
X008441Y008340D01*
X008440Y008313D01*
X008435Y008286D01*
X008427Y008260D01*
X008415Y008235D01*
X008400Y008212D01*
X008382Y008192D01*
X008680Y007895D02*
X008698Y007880D01*
X008718Y007867D01*
X008740Y007858D01*
X008763Y007853D01*
X008786Y007851D01*
X008809Y007853D01*
X008832Y007858D01*
X008854Y007867D01*
X008874Y007880D01*
X008892Y007895D01*
X011154Y010158D01*
X011169Y010176D01*
X011182Y010196D01*
X011191Y010218D01*
X011196Y010241D01*
X011198Y010264D01*
X011196Y010287D01*
X011191Y010310D01*
X011182Y010332D01*
X011169Y010352D01*
X011154Y010370D01*
X010535Y011580D02*
X010182Y011580D01*
X009828Y011934D01*
X009828Y012288D01*
X010182Y012641D01*
X010535Y012641D01*
X010889Y012288D01*
X010889Y011934D01*
X010535Y011580D01*
X013059Y008928D02*
X013412Y009282D01*
X013766Y009282D01*
X013766Y009635D01*
X014120Y009989D01*
X014473Y009989D01*
X014827Y009635D01*
X014827Y009282D01*
X014473Y008928D01*
X014120Y008928D01*
X014120Y008575D01*
X013766Y008221D01*
X013412Y008221D01*
X013412Y007868D01*
X013059Y007514D01*
X012705Y007514D01*
X012705Y007160D01*
X012352Y006807D01*
X011998Y006807D01*
X011998Y006453D01*
X011645Y006100D01*
X011291Y006100D01*
X011291Y005746D01*
X010938Y005393D01*
X010584Y005393D01*
X010230Y005746D01*
X010230Y006100D01*
X010584Y006453D01*
X010938Y006453D01*
X010938Y006807D01*
X011291Y007160D01*
X011645Y007160D01*
X011998Y006807D01*
X011645Y007160D02*
X011645Y007514D01*
X011998Y007868D01*
X012352Y007868D01*
X012352Y008221D01*
X012705Y008575D01*
X013059Y008575D01*
X013059Y008928D01*
X013059Y008575D02*
X013412Y008221D01*
X012705Y007514D02*
X012352Y007868D01*
X013766Y009282D02*
X014120Y008928D01*
X011291Y006100D02*
X010938Y006453D01*
X015229Y012721D02*
X015729Y012721D01*
X015979Y012971D01*
X015979Y013471D01*
X015729Y013721D01*
X015229Y013721D01*
X014979Y013471D01*
X014979Y012971D01*
X015229Y012721D01*
X007259Y015021D02*
X007009Y014771D01*
X006509Y014771D01*
X006259Y015021D01*
X006259Y015521D01*
X006509Y015771D01*
X007009Y015771D01*
X007259Y015521D01*
X007259Y015021D01*
M02*
