G75*
%MOIN*%
%OFA0B0*%
%FSLAX24Y24*%
%IPPOS*%
%LPD*%
%AMOC8*
5,1,8,0,0,1.08239X$1,22.5*
%
%ADD10C,0.0000*%
%ADD11R,0.0300X0.0840*%
%ADD12R,0.0473X0.0434*%
%ADD13R,0.0434X0.0473*%
%ADD14C,0.0640*%
%ADD15C,0.0128*%
%ADD16OC8,0.0640*%
D10*
X000100Y000100D02*
X000100Y019785D01*
X019785Y019785D01*
X019785Y000100D01*
X000100Y000100D01*
D11*
G36*
X009677Y007465D02*
X009464Y007252D01*
X008871Y007845D01*
X009084Y008058D01*
X009677Y007465D01*
G37*
G36*
X010030Y007818D02*
X009817Y007605D01*
X009224Y008198D01*
X009437Y008411D01*
X010030Y007818D01*
G37*
G36*
X010384Y008172D02*
X010171Y007959D01*
X009578Y008552D01*
X009791Y008765D01*
X010384Y008172D01*
G37*
G36*
X010737Y008525D02*
X010524Y008312D01*
X009931Y008905D01*
X010144Y009118D01*
X010737Y008525D01*
G37*
G36*
X011091Y008879D02*
X010878Y008666D01*
X010285Y009259D01*
X010498Y009472D01*
X011091Y008879D01*
G37*
G36*
X011444Y009232D02*
X011231Y009019D01*
X010638Y009612D01*
X010851Y009825D01*
X011444Y009232D01*
G37*
G36*
X011798Y009586D02*
X011585Y009373D01*
X010992Y009966D01*
X011205Y010179D01*
X011798Y009586D01*
G37*
G36*
X010087Y011297D02*
X009874Y011084D01*
X009281Y011677D01*
X009494Y011890D01*
X010087Y011297D01*
G37*
G36*
X009733Y010943D02*
X009520Y010730D01*
X008927Y011323D01*
X009140Y011536D01*
X009733Y010943D01*
G37*
G36*
X009380Y010590D02*
X009167Y010377D01*
X008574Y010970D01*
X008787Y011183D01*
X009380Y010590D01*
G37*
G36*
X009026Y010236D02*
X008813Y010023D01*
X008220Y010616D01*
X008433Y010829D01*
X009026Y010236D01*
G37*
G36*
X008672Y009883D02*
X008459Y009670D01*
X007866Y010263D01*
X008079Y010476D01*
X008672Y009883D01*
G37*
G36*
X008319Y009529D02*
X008106Y009316D01*
X007513Y009909D01*
X007726Y010122D01*
X008319Y009529D01*
G37*
G36*
X007965Y009176D02*
X007752Y008963D01*
X007159Y009556D01*
X007372Y009769D01*
X007965Y009176D01*
G37*
D12*
G36*
X008783Y005622D02*
X008458Y005962D01*
X008771Y006262D01*
X009096Y005922D01*
X008783Y005622D01*
G37*
G36*
X009246Y005139D02*
X008921Y005479D01*
X009234Y005779D01*
X009559Y005439D01*
X009246Y005139D01*
G37*
D13*
G36*
X004738Y011134D02*
X005045Y010827D01*
X004712Y010494D01*
X004405Y010801D01*
X004738Y011134D01*
G37*
G36*
X004265Y011607D02*
X004572Y011300D01*
X004239Y010967D01*
X003932Y011274D01*
X004265Y011607D01*
G37*
G36*
X005425Y012617D02*
X005732Y012310D01*
X005399Y011977D01*
X005092Y012284D01*
X005425Y012617D01*
G37*
G36*
X005898Y012144D02*
X006205Y011837D01*
X005872Y011504D01*
X005565Y011811D01*
X005898Y012144D01*
G37*
G36*
X007088Y013254D02*
X007395Y012947D01*
X007062Y012614D01*
X006755Y012921D01*
X007088Y013254D01*
G37*
G36*
X006615Y013727D02*
X006922Y013420D01*
X006589Y013087D01*
X006282Y013394D01*
X006615Y013727D01*
G37*
G36*
X007655Y014697D02*
X007962Y014390D01*
X007629Y014057D01*
X007322Y014364D01*
X007655Y014697D01*
G37*
G36*
X008128Y014224D02*
X008435Y013917D01*
X008102Y013584D01*
X007795Y013891D01*
X008128Y014224D01*
G37*
G36*
X012849Y011487D02*
X012542Y011794D01*
X012875Y012127D01*
X013182Y011820D01*
X012849Y011487D01*
G37*
G36*
X013322Y011014D02*
X013015Y011321D01*
X013348Y011654D01*
X013655Y011347D01*
X013322Y011014D01*
G37*
D14*
X014084Y009671D02*
X014508Y009246D01*
X013801Y008539D02*
X013377Y008964D01*
X012670Y008256D02*
X013094Y007832D01*
X012387Y007125D02*
X011963Y007549D01*
X011256Y006842D02*
X011680Y006418D01*
X010973Y005711D02*
X010549Y006135D01*
X008031Y007212D02*
X007607Y006788D01*
X006900Y007495D02*
X007324Y007919D01*
X006617Y008626D02*
X006193Y008202D01*
X005486Y008909D02*
X005910Y009334D01*
D15*
X010168Y012069D02*
X010104Y012005D01*
X010104Y012217D01*
X010253Y012366D01*
X010465Y012366D01*
X010614Y012217D01*
X010614Y012005D01*
X010465Y011856D01*
X010253Y011856D01*
X010104Y012005D01*
X010200Y012045D01*
X010200Y012177D01*
X010293Y012270D01*
X010425Y012270D01*
X010518Y012177D01*
X010518Y012045D01*
X010425Y011952D01*
X010293Y011952D01*
X010200Y012045D01*
X010296Y012085D01*
X010296Y012137D01*
X010333Y012174D01*
X010385Y012174D01*
X010422Y012137D01*
X010422Y012085D01*
X010385Y012048D01*
X010333Y012048D01*
X010296Y012085D01*
D16*
X006759Y015271D03*
X015479Y013221D03*
M02*
