G75*
%MOIN*%
%OFA0B0*%
%FSLAX24Y24*%
%IPPOS*%
%LPD*%
%AMOC8*
5,1,8,0,0,1.08239X$1,22.5*
%
%ADD10C,0.0000*%
%ADD11C,0.0600*%
%ADD12C,0.0120*%
%ADD13R,0.1299X0.1890*%
%ADD14OC8,0.0600*%
%ADD15C,0.0160*%
%ADD16C,0.0317*%
%ADD17C,0.0080*%
%ADD18C,0.0356*%
D10*
X000100Y000100D02*
X000100Y019785D01*
X019785Y019785D01*
X019785Y000100D01*
X000100Y000100D01*
D11*
X006900Y007495D02*
X007324Y007919D01*
X008031Y007212D02*
X007607Y006788D01*
X006193Y008202D02*
X006617Y008626D01*
X005910Y009334D02*
X005486Y008909D01*
X010549Y006135D02*
X010973Y005711D01*
X011680Y006418D02*
X011256Y006842D01*
X011963Y007549D02*
X012387Y007125D01*
X013094Y007832D02*
X012670Y008256D01*
X013377Y008964D02*
X013801Y008539D01*
X014508Y009246D02*
X014084Y009671D01*
D12*
X010180Y012072D02*
X010120Y012012D01*
X010120Y012210D01*
X010260Y012350D01*
X010458Y012350D01*
X010598Y012210D01*
X010598Y012012D01*
X010458Y011872D01*
X010260Y011872D01*
X010120Y012012D01*
X010210Y012049D01*
X010210Y012173D01*
X010297Y012260D01*
X010421Y012260D01*
X010508Y012173D01*
X010508Y012049D01*
X010421Y011962D01*
X010297Y011962D01*
X010210Y012049D01*
X010300Y012086D01*
X010300Y012136D01*
X010334Y012170D01*
X010384Y012170D01*
X010418Y012136D01*
X010418Y012086D01*
X010384Y012052D01*
X010334Y012052D01*
X010300Y012086D01*
D13*
X010726Y014561D03*
X009151Y014561D03*
X009151Y017041D03*
X010726Y017041D03*
G36*
X013991Y007443D02*
X014909Y008361D01*
X016245Y007025D01*
X015327Y006107D01*
X013991Y007443D01*
G37*
G36*
X012878Y006330D02*
X013796Y007248D01*
X015132Y005912D01*
X014214Y004994D01*
X012878Y006330D01*
G37*
G36*
X014632Y004576D02*
X015550Y005494D01*
X016886Y004158D01*
X015968Y003240D01*
X014632Y004576D01*
G37*
G36*
X015745Y005690D02*
X016663Y006608D01*
X017999Y005272D01*
X017081Y004354D01*
X015745Y005690D01*
G37*
G36*
X006081Y007248D02*
X006999Y006330D01*
X005663Y004994D01*
X004745Y005912D01*
X006081Y007248D01*
G37*
G36*
X004968Y008361D02*
X005886Y007443D01*
X004550Y006107D01*
X003632Y007025D01*
X004968Y008361D01*
G37*
G36*
X003214Y006608D02*
X004132Y005690D01*
X002796Y004354D01*
X001878Y005272D01*
X003214Y006608D01*
G37*
G36*
X004327Y005494D02*
X005245Y004576D01*
X003909Y003240D01*
X002991Y004158D01*
X004327Y005494D01*
G37*
D14*
X006759Y015271D03*
X015479Y013221D03*
D15*
X014069Y013698D02*
X014069Y010381D01*
X012882Y009194D01*
X012882Y008044D01*
X014296Y008057D02*
X014296Y009459D01*
X014296Y008057D02*
X015118Y007234D01*
X015759Y004367D02*
X009242Y004367D01*
X006099Y007511D01*
X006099Y007661D01*
X005229Y008531D01*
X004879Y008531D01*
X003005Y006657D01*
X003005Y005481D01*
X005872Y006121D02*
X007018Y006121D01*
X009079Y004061D01*
X014129Y004061D01*
X014569Y003621D01*
X006405Y008414D02*
X006405Y011814D01*
X009151Y014561D01*
X010726Y017041D02*
X014069Y013698D01*
X006405Y008414D02*
X006099Y008108D01*
X006099Y007661D01*
D16*
X009639Y006731D03*
X011249Y007791D03*
X011629Y008841D03*
X012499Y010611D03*
X008679Y012671D03*
D17*
X009799Y012671D01*
X010359Y012111D01*
X012499Y010611D02*
X012499Y009041D01*
X011249Y007791D01*
X010499Y007041D01*
X009919Y007041D01*
X009639Y006761D01*
X009639Y006731D01*
X009169Y006361D02*
X010369Y005161D01*
X011659Y005161D01*
X012499Y006001D01*
X012499Y007014D01*
X012175Y007337D01*
X011629Y008841D02*
X010209Y008671D01*
X009169Y007631D01*
X009169Y006361D01*
D18*
X014569Y003621D03*
M02*
