G75*
%MOIN*%
%OFA0B0*%
%FSLAX24Y24*%
%IPPOS*%
%LPD*%
%AMOC8*
5,1,8,0,0,1.08239X$1,22.5*
%
%ADD10C,0.0000*%
%ADD11C,0.0640*%
%ADD12C,0.0128*%
%ADD13R,0.0315X0.0433*%
%ADD14OC8,0.0640*%
D10*
X000100Y000100D02*
X000100Y019785D01*
X019785Y019785D01*
X019785Y000100D01*
X000100Y000100D01*
D11*
X006900Y007495D02*
X007324Y007919D01*
X008031Y007212D02*
X007607Y006788D01*
X006193Y008202D02*
X006617Y008626D01*
X005910Y009334D02*
X005486Y008909D01*
X010549Y006135D02*
X010973Y005711D01*
X011680Y006418D02*
X011256Y006842D01*
X011963Y007549D02*
X012387Y007125D01*
X013094Y007832D02*
X012670Y008256D01*
X013377Y008964D02*
X013801Y008539D01*
X014508Y009246D02*
X014084Y009671D01*
D12*
X010168Y012069D02*
X010104Y012005D01*
X010104Y012217D01*
X010253Y012366D01*
X010465Y012366D01*
X010614Y012217D01*
X010614Y012005D01*
X010465Y011856D01*
X010253Y011856D01*
X010104Y012005D01*
X010200Y012045D01*
X010200Y012177D01*
X010293Y012270D01*
X010425Y012270D01*
X010518Y012177D01*
X010518Y012045D01*
X010425Y011952D01*
X010293Y011952D01*
X010200Y012045D01*
X010296Y012085D01*
X010296Y012137D01*
X010333Y012174D01*
X010385Y012174D01*
X010422Y012137D01*
X010422Y012085D01*
X010385Y012048D01*
X010333Y012048D01*
X010296Y012085D01*
D13*
X010234Y015289D03*
X009643Y015289D03*
X009643Y016313D03*
X010234Y016313D03*
G36*
X015022Y006412D02*
X015244Y006634D01*
X015548Y006330D01*
X015326Y006108D01*
X015022Y006412D01*
G37*
G36*
X014605Y005995D02*
X014827Y006217D01*
X015131Y005913D01*
X014909Y005691D01*
X014605Y005995D01*
G37*
G36*
X015329Y005271D02*
X015551Y005493D01*
X015855Y005189D01*
X015633Y004967D01*
X015329Y005271D01*
G37*
G36*
X015746Y005689D02*
X015968Y005911D01*
X016272Y005607D01*
X016050Y005385D01*
X015746Y005689D01*
G37*
G36*
X005050Y006217D02*
X005272Y005995D01*
X004968Y005691D01*
X004746Y005913D01*
X005050Y006217D01*
G37*
G36*
X004633Y006634D02*
X004855Y006412D01*
X004551Y006108D01*
X004329Y006330D01*
X004633Y006634D01*
G37*
G36*
X003909Y005911D02*
X004131Y005689D01*
X003827Y005385D01*
X003605Y005607D01*
X003909Y005911D01*
G37*
G36*
X004326Y005493D02*
X004548Y005271D01*
X004244Y004967D01*
X004022Y005189D01*
X004326Y005493D01*
G37*
D14*
X006759Y015271D03*
X015479Y013221D03*
M02*
