G75*
%MOIN*%
%OFA0B0*%
%FSLAX24Y24*%
%IPPOS*%
%LPD*%
%AMOC8*
5,1,8,0,0,1.08239X$1,22.5*
%
%ADD10C,0.0000*%
%ADD11R,0.0276X0.0394*%
D10*
X000100Y000100D02*
X000100Y019785D01*
X019785Y019785D01*
X019785Y000100D01*
X000100Y000100D01*
D11*
G36*
X004326Y005466D02*
X004521Y005271D01*
X004244Y004994D01*
X004049Y005189D01*
X004326Y005466D01*
G37*
G36*
X003909Y005884D02*
X004104Y005689D01*
X003827Y005412D01*
X003632Y005607D01*
X003909Y005884D01*
G37*
G36*
X004633Y006607D02*
X004828Y006412D01*
X004551Y006135D01*
X004356Y006330D01*
X004633Y006607D01*
G37*
G36*
X005050Y006190D02*
X005245Y005995D01*
X004968Y005718D01*
X004773Y005913D01*
X005050Y006190D01*
G37*
X009643Y015289D03*
X010234Y015289D03*
X010234Y016313D03*
X009643Y016313D03*
G36*
X015049Y006412D02*
X015244Y006607D01*
X015521Y006330D01*
X015326Y006135D01*
X015049Y006412D01*
G37*
G36*
X014632Y005995D02*
X014827Y006190D01*
X015104Y005913D01*
X014909Y005718D01*
X014632Y005995D01*
G37*
G36*
X015356Y005271D02*
X015551Y005466D01*
X015828Y005189D01*
X015633Y004994D01*
X015356Y005271D01*
G37*
G36*
X015773Y005689D02*
X015968Y005884D01*
X016245Y005607D01*
X016050Y005412D01*
X015773Y005689D01*
G37*
M02*
