G75*
%MOIN*%
%OFA0B0*%
%FSLAX24Y24*%
%IPPOS*%
%LPD*%
%AMOC8*
5,1,8,0,0,1.08239X$1,22.5*
%
%ADD10C,0.0000*%
%ADD11R,0.0197X0.0591*%
%ADD12R,0.0591X0.0197*%
%ADD13R,0.1024X0.0315*%
%ADD14R,0.0433X0.0394*%
%ADD15R,0.0394X0.0787*%
%ADD16R,0.0787X0.0394*%
%ADD17OC8,0.0600*%
%ADD18C,0.0080*%
%ADD19C,0.0317*%
%ADD20C,0.0356*%
%ADD21C,0.0160*%
D10*
X000100Y001115D02*
X000100Y020800D01*
X019785Y020800D01*
X019785Y001115D01*
X000100Y001115D01*
X009175Y003001D02*
X009177Y003026D01*
X009183Y003051D01*
X009192Y003075D01*
X009205Y003097D01*
X009222Y003117D01*
X009241Y003134D01*
X009262Y003148D01*
X009286Y003158D01*
X009310Y003165D01*
X009336Y003168D01*
X009361Y003167D01*
X009386Y003162D01*
X009410Y003153D01*
X009433Y003141D01*
X009453Y003126D01*
X009471Y003107D01*
X009486Y003086D01*
X009497Y003063D01*
X009505Y003039D01*
X009509Y003014D01*
X009509Y002988D01*
X009505Y002963D01*
X009497Y002939D01*
X009486Y002916D01*
X009471Y002895D01*
X009453Y002876D01*
X009433Y002861D01*
X009410Y002849D01*
X009386Y002840D01*
X009361Y002835D01*
X009336Y002834D01*
X009310Y002837D01*
X009286Y002844D01*
X009262Y002854D01*
X009241Y002868D01*
X009222Y002885D01*
X009205Y002905D01*
X009192Y002927D01*
X009183Y002951D01*
X009177Y002976D01*
X009175Y003001D01*
X010671Y003001D02*
X010673Y003026D01*
X010679Y003051D01*
X010688Y003075D01*
X010701Y003097D01*
X010718Y003117D01*
X010737Y003134D01*
X010758Y003148D01*
X010782Y003158D01*
X010806Y003165D01*
X010832Y003168D01*
X010857Y003167D01*
X010882Y003162D01*
X010906Y003153D01*
X010929Y003141D01*
X010949Y003126D01*
X010967Y003107D01*
X010982Y003086D01*
X010993Y003063D01*
X011001Y003039D01*
X011005Y003014D01*
X011005Y002988D01*
X011001Y002963D01*
X010993Y002939D01*
X010982Y002916D01*
X010967Y002895D01*
X010949Y002876D01*
X010929Y002861D01*
X010906Y002849D01*
X010882Y002840D01*
X010857Y002835D01*
X010832Y002834D01*
X010806Y002837D01*
X010782Y002844D01*
X010758Y002854D01*
X010737Y002868D01*
X010718Y002885D01*
X010701Y002905D01*
X010688Y002927D01*
X010679Y002951D01*
X010673Y002976D01*
X010671Y003001D01*
D11*
X010645Y008091D03*
X010960Y008091D03*
X011275Y008091D03*
X010330Y008091D03*
X010015Y008091D03*
X009700Y008091D03*
X009385Y008091D03*
X009070Y008091D03*
X008755Y008091D03*
X008440Y008091D03*
X008125Y008091D03*
X008125Y012658D03*
X008440Y012658D03*
X008755Y012658D03*
X009070Y012658D03*
X009385Y012658D03*
X009700Y012658D03*
X010015Y012658D03*
X010330Y012658D03*
X010645Y012658D03*
X010960Y012658D03*
X011275Y012658D03*
D12*
X011983Y011949D03*
X011983Y011634D03*
X011983Y011320D03*
X011983Y011005D03*
X011983Y010690D03*
X011983Y010375D03*
X011983Y010060D03*
X011983Y009745D03*
X011983Y009430D03*
X011983Y009115D03*
X011983Y008800D03*
X007417Y008800D03*
X007417Y009115D03*
X007417Y009430D03*
X007417Y009745D03*
X007417Y010060D03*
X007417Y010375D03*
X007417Y010690D03*
X007417Y011005D03*
X007417Y011320D03*
X007417Y011634D03*
X007417Y011949D03*
D13*
X013840Y011655D03*
X013840Y011065D03*
X013840Y010474D03*
D14*
X015215Y010625D03*
X015885Y010625D03*
X015885Y009805D03*
X015215Y009805D03*
X015245Y011495D03*
X015915Y011495D03*
X015865Y012375D03*
X015195Y012375D03*
X014750Y016060D03*
X014750Y016729D03*
X013900Y016719D03*
X013900Y016050D03*
D15*
X012590Y017805D03*
X011590Y019104D03*
X010590Y017805D03*
X009590Y019104D03*
X008590Y017805D03*
X007590Y019104D03*
X007080Y004614D03*
X008080Y003315D03*
X009080Y004614D03*
X010080Y003315D03*
X011080Y004614D03*
X012080Y003315D03*
D16*
G36*
X014183Y005661D02*
X013628Y006216D01*
X013907Y006495D01*
X014462Y005940D01*
X014183Y005661D01*
G37*
G36*
X015809Y005450D02*
X015254Y006005D01*
X015533Y006284D01*
X016088Y005729D01*
X015809Y005450D01*
G37*
G36*
X017223Y006864D02*
X016668Y007419D01*
X016947Y007698D01*
X017502Y007143D01*
X017223Y006864D01*
G37*
G36*
X015597Y007076D02*
X015042Y007631D01*
X015321Y007910D01*
X015876Y007355D01*
X015597Y007076D01*
G37*
G36*
X017012Y008490D02*
X016457Y009045D01*
X016736Y009324D01*
X017291Y008769D01*
X017012Y008490D01*
G37*
G36*
X018637Y008278D02*
X018082Y008833D01*
X018361Y009112D01*
X018916Y008557D01*
X018637Y008278D01*
G37*
G36*
X005375Y006464D02*
X004820Y005909D01*
X004541Y006188D01*
X005096Y006743D01*
X005375Y006464D01*
G37*
G36*
X005163Y004838D02*
X004608Y004283D01*
X004329Y004562D01*
X004884Y005117D01*
X005163Y004838D01*
G37*
G36*
X003749Y006252D02*
X003194Y005697D01*
X002915Y005976D01*
X003470Y006531D01*
X003749Y006252D01*
G37*
G36*
X003961Y007878D02*
X003406Y007323D01*
X003127Y007602D01*
X003682Y008157D01*
X003961Y007878D01*
G37*
G36*
X002546Y009292D02*
X001991Y008737D01*
X001712Y009016D01*
X002267Y009571D01*
X002546Y009292D01*
G37*
G36*
X002335Y007666D02*
X001780Y007111D01*
X001501Y007390D01*
X002056Y007945D01*
X002335Y007666D01*
G37*
D17*
X018170Y010995D03*
D18*
X018499Y010705D01*
X018499Y008695D01*
X017810Y009585D02*
X015915Y011480D01*
X015915Y011495D01*
X015855Y011555D01*
X015865Y012375D01*
X015855Y015625D01*
X014750Y016729D01*
X013910Y016729D01*
X013900Y016719D01*
X011676Y016719D01*
X010590Y017805D01*
X010590Y019105D01*
X010010Y019635D01*
X008150Y019645D01*
X008050Y019505D01*
X011590Y019104D02*
X011620Y019135D01*
X012120Y019135D01*
X012755Y016050D02*
X013900Y016050D01*
X014195Y015505D02*
X014750Y016060D01*
X014195Y015505D02*
X012780Y015505D01*
X012390Y015685D02*
X012390Y015235D01*
X014620Y013005D01*
X014620Y012335D01*
X014330Y012045D01*
X013310Y012045D01*
X012370Y011005D01*
X011983Y011005D01*
X011983Y011005D01*
X011350Y011005D01*
X009700Y009355D01*
X009550Y009355D01*
X009940Y009095D02*
X010790Y009095D01*
X011440Y009745D01*
X011983Y009745D01*
X011994Y009735D01*
X014900Y009735D01*
X014970Y009805D01*
X015215Y009805D01*
X015215Y010625D01*
X015215Y011465D01*
X015245Y011495D01*
X015185Y011555D01*
X015195Y012375D01*
X014540Y011835D02*
X014330Y012045D01*
X014540Y011835D02*
X014540Y011225D01*
X014760Y010995D01*
X014660Y010625D02*
X014230Y011055D01*
X013850Y011055D01*
X013840Y011065D01*
X013840Y010474D02*
X012879Y010474D01*
X012490Y010085D01*
X012008Y010085D01*
X011983Y010060D01*
X011983Y010375D02*
X012013Y010405D01*
X012540Y010395D01*
X012900Y010775D01*
X012900Y011225D01*
X013271Y011655D01*
X013840Y011655D01*
X013540Y012405D02*
X011720Y012405D01*
X008740Y009435D01*
X008850Y009105D02*
X008480Y009105D01*
X008260Y009325D01*
X008260Y009315D01*
X008040Y009095D01*
X007437Y009095D01*
X007417Y009115D01*
X007402Y008815D02*
X007417Y008800D01*
X007402Y008815D02*
X006770Y008815D01*
X006770Y008455D01*
X006650Y008355D01*
X007040Y008095D02*
X007330Y008385D01*
X007680Y008385D01*
X008070Y008775D01*
X008640Y008775D01*
X008650Y008785D01*
X008850Y009105D02*
X009385Y008570D01*
X009385Y008539D01*
X009940Y009095D01*
X009860Y008535D02*
X009710Y008385D01*
X009710Y008101D01*
X009700Y008091D01*
X009385Y008091D02*
X009385Y008539D01*
X009385Y008091D02*
X009370Y008076D01*
X009370Y006735D01*
X007250Y004614D01*
X007080Y004614D01*
X007570Y004124D01*
X007570Y004015D01*
X008080Y004565D02*
X010700Y007185D01*
X010700Y007395D01*
X010390Y007705D01*
X010390Y008031D01*
X010330Y008091D01*
X010015Y008091D02*
X010010Y008086D01*
X010010Y007235D01*
X010660Y007655D02*
X010660Y008076D01*
X010645Y008091D01*
X010960Y008091D02*
X011000Y008051D01*
X011000Y007725D01*
X011730Y006935D01*
X011740Y004405D01*
X011090Y003755D01*
X010800Y003755D01*
X009790Y004614D01*
X009080Y004614D01*
X008080Y004565D02*
X008080Y003315D01*
X007610Y002685D02*
X011010Y002675D01*
X011660Y003325D01*
X011660Y003715D01*
X013060Y005115D01*
X016170Y005115D01*
X017085Y006030D01*
X017085Y007281D01*
X015182Y009185D01*
X013230Y009185D01*
X013080Y009465D02*
X012320Y008535D01*
X009860Y008535D01*
X010500Y008835D02*
X011949Y008835D01*
X011983Y008800D01*
X011983Y009115D02*
X011983Y009430D01*
X011999Y009415D01*
X012340Y009415D01*
X012470Y009285D01*
X012570Y009285D01*
X013080Y009465D02*
X015545Y009465D01*
X015885Y009805D01*
X015885Y010625D02*
X015885Y010790D01*
X015600Y011075D01*
X015215Y010625D02*
X014660Y010625D01*
X012570Y010835D02*
X012435Y010690D01*
X011983Y010690D01*
X010770Y012095D02*
X010960Y012284D01*
X010960Y012658D01*
X011275Y012658D02*
X011275Y013560D01*
X009880Y014955D01*
X010390Y015465D01*
X009880Y014955D02*
X009860Y014935D01*
X007790Y014935D01*
X007790Y012245D01*
X007950Y012085D01*
X007950Y011865D01*
X007720Y011635D01*
X007940Y011635D01*
X008260Y011315D01*
X008260Y009325D01*
X007990Y009425D02*
X007432Y009415D01*
X007417Y009430D01*
X007417Y009745D02*
X007407Y009755D01*
X007160Y009755D01*
X006900Y009485D01*
X006900Y009125D01*
X006630Y008965D02*
X006770Y008825D01*
X006770Y008815D01*
X006630Y008965D02*
X006630Y009475D01*
X006920Y009765D01*
X006920Y011805D01*
X007065Y011949D01*
X007417Y011949D01*
X007180Y012116D01*
X007170Y012405D01*
X007417Y011949D02*
X007417Y014818D01*
X007360Y014875D01*
X009070Y012658D02*
X009070Y012155D01*
X008510Y011585D01*
X008530Y009995D01*
X007720Y011635D02*
X007417Y011635D01*
X007417Y011634D01*
X005180Y011785D02*
X005180Y010835D01*
X004860Y010445D02*
X004860Y011745D01*
X004790Y011815D01*
X003050Y010905D02*
X005860Y008095D01*
X007040Y008095D01*
X007410Y007905D02*
X007190Y007685D01*
X006960Y007685D01*
X007410Y007905D02*
X007660Y007905D01*
X008000Y007565D01*
X008230Y007565D01*
X008440Y007775D01*
X008440Y008091D01*
X008440Y008091D01*
X008755Y008091D02*
X008760Y008086D01*
X008760Y007525D01*
X009080Y007165D02*
X009080Y008081D01*
X009070Y008091D01*
X007570Y007615D02*
X004726Y004698D01*
X004746Y004700D01*
X005030Y003555D02*
X006740Y003555D01*
X007610Y002685D01*
X010080Y003315D02*
X010950Y003325D01*
X012160Y004525D01*
X012170Y007196D01*
X011275Y008091D01*
X010660Y007655D02*
X011080Y007235D01*
X011080Y004614D01*
X012080Y003315D02*
X012850Y004085D01*
X014750Y004085D01*
X015290Y004625D01*
X015930Y004625D01*
X017810Y006495D01*
X017810Y009585D01*
X017400Y009275D02*
X017032Y008907D01*
X016874Y008907D01*
X012390Y015685D02*
X012755Y016050D01*
X003050Y010905D02*
X002680Y010905D01*
X002129Y010354D01*
X002129Y009154D01*
X001918Y007528D02*
X001918Y006667D01*
X005030Y003555D01*
D19*
X007570Y004015D03*
X009080Y007165D03*
X008760Y007525D03*
X007570Y007615D03*
X006960Y007685D03*
X006650Y008355D03*
X006420Y008785D03*
X006900Y009125D03*
X007990Y009425D03*
X008530Y009995D03*
X008740Y009435D03*
X008650Y008785D03*
X009550Y009355D03*
X010500Y008835D03*
X010010Y007235D03*
X012570Y009285D03*
X013230Y009185D03*
X012570Y010835D03*
X013540Y012405D03*
X014760Y010995D03*
X015600Y011075D03*
X017400Y009275D03*
X016150Y005475D03*
X010770Y012095D03*
X007790Y014935D03*
X007360Y014875D03*
X007170Y012405D03*
X005180Y011785D03*
X004790Y011815D03*
X005180Y010835D03*
X004860Y010445D03*
X010390Y015465D03*
X012780Y015505D03*
X012120Y019135D03*
D20*
X012060Y019855D03*
X011260Y017875D03*
X013190Y017195D03*
X009920Y015475D03*
X009310Y015305D03*
X006480Y012135D03*
X006130Y011055D03*
X005810Y010705D03*
X005490Y010345D03*
X003030Y009605D03*
X002700Y010075D03*
X002890Y010525D03*
X002630Y014425D03*
X003310Y015745D03*
X003760Y015965D03*
X004200Y016085D03*
X008050Y019505D03*
X008360Y019095D03*
X013050Y008795D03*
X012710Y008415D03*
X012390Y008065D03*
X012060Y007705D03*
D21*
X012419Y007705D01*
X014045Y006078D01*
X015459Y007493D02*
X014537Y008415D01*
X012710Y008415D01*
X012390Y008065D02*
X013473Y008065D01*
X015671Y005867D01*
X016150Y005475D02*
X016440Y005765D01*
X016500Y007105D01*
X014810Y008795D01*
X013050Y008795D01*
X009310Y015305D02*
X009310Y017275D01*
X008780Y017805D01*
X008590Y017805D01*
X008360Y019095D02*
X008240Y019104D01*
X007590Y019104D01*
X007120Y019515D02*
X007470Y019865D01*
X007700Y019865D01*
X007710Y019865D01*
X012050Y019865D01*
X012060Y019855D01*
X012590Y017805D02*
X011330Y017805D01*
X011260Y017875D01*
X012590Y017805D02*
X012590Y017795D01*
X013190Y017195D01*
X009920Y015475D02*
X009590Y015805D01*
X009590Y019104D01*
X007120Y019515D02*
X007120Y018255D01*
X005490Y016625D01*
X004090Y016625D01*
X003810Y016345D01*
X003300Y016345D01*
X002630Y015675D01*
X002630Y014425D01*
X003310Y015745D02*
X005470Y013615D01*
X005490Y010345D01*
X005810Y010705D02*
X005760Y013945D01*
X003760Y015965D01*
X004200Y016085D02*
X006090Y014115D01*
X006130Y011055D01*
X006480Y012135D02*
X006420Y008785D01*
X004958Y008457D02*
X004958Y006326D01*
X003544Y007740D02*
X003544Y009091D01*
X003030Y009605D01*
X002710Y009805D02*
X002710Y006655D01*
X003251Y006114D01*
X003332Y006114D01*
X004958Y008457D02*
X002890Y010525D01*
X002700Y010075D02*
X002710Y009805D01*
M02*
