G75*
%MOIN*%
%OFA0B0*%
%FSLAX24Y24*%
%IPPOS*%
%LPD*%
%AMOC8*
5,1,8,0,0,1.08239X$1,22.5*
%
%ADD10C,0.0000*%
%ADD11C,0.0160*%
%ADD12C,0.0040*%
%ADD13C,0.0060*%
%ADD14C,0.0080*%
%ADD15C,0.0100*%
%ADD16C,0.0050*%
D10*
X000100Y001115D02*
X000100Y020800D01*
X019785Y020800D01*
X019785Y001115D01*
X000100Y001115D01*
X009175Y003001D02*
X009177Y003026D01*
X009183Y003051D01*
X009192Y003075D01*
X009205Y003097D01*
X009222Y003117D01*
X009241Y003134D01*
X009262Y003148D01*
X009286Y003158D01*
X009310Y003165D01*
X009336Y003168D01*
X009361Y003167D01*
X009386Y003162D01*
X009410Y003153D01*
X009433Y003141D01*
X009453Y003126D01*
X009471Y003107D01*
X009486Y003086D01*
X009497Y003063D01*
X009505Y003039D01*
X009509Y003014D01*
X009509Y002988D01*
X009505Y002963D01*
X009497Y002939D01*
X009486Y002916D01*
X009471Y002895D01*
X009453Y002876D01*
X009433Y002861D01*
X009410Y002849D01*
X009386Y002840D01*
X009361Y002835D01*
X009336Y002834D01*
X009310Y002837D01*
X009286Y002844D01*
X009262Y002854D01*
X009241Y002868D01*
X009222Y002885D01*
X009205Y002905D01*
X009192Y002927D01*
X009183Y002951D01*
X009177Y002976D01*
X009175Y003001D01*
X010671Y003001D02*
X010673Y003026D01*
X010679Y003051D01*
X010688Y003075D01*
X010701Y003097D01*
X010718Y003117D01*
X010737Y003134D01*
X010758Y003148D01*
X010782Y003158D01*
X010806Y003165D01*
X010832Y003168D01*
X010857Y003167D01*
X010882Y003162D01*
X010906Y003153D01*
X010929Y003141D01*
X010949Y003126D01*
X010967Y003107D01*
X010982Y003086D01*
X010993Y003063D01*
X011001Y003039D01*
X011005Y003014D01*
X011005Y002988D01*
X011001Y002963D01*
X010993Y002939D01*
X010982Y002916D01*
X010967Y002895D01*
X010949Y002876D01*
X010929Y002861D01*
X010906Y002849D01*
X010882Y002840D01*
X010857Y002835D01*
X010832Y002834D01*
X010806Y002837D01*
X010782Y002844D01*
X010758Y002854D01*
X010737Y002868D01*
X010718Y002885D01*
X010701Y002905D01*
X010688Y002927D01*
X010679Y002951D01*
X010673Y002976D01*
X010671Y003001D01*
D11*
X007117Y008175D02*
X007119Y008205D01*
X007125Y008235D01*
X007135Y008264D01*
X007148Y008291D01*
X007165Y008317D01*
X007185Y008340D01*
X007208Y008360D01*
X007233Y008377D01*
X007261Y008390D01*
X007290Y008400D01*
X007320Y008406D01*
X007350Y008408D01*
X007380Y008406D01*
X007410Y008400D01*
X007439Y008390D01*
X007466Y008377D01*
X007492Y008360D01*
X007515Y008340D01*
X007535Y008317D01*
X007552Y008292D01*
X007565Y008264D01*
X007575Y008235D01*
X007581Y008205D01*
X007583Y008175D01*
X007581Y008145D01*
X007575Y008115D01*
X007565Y008086D01*
X007552Y008059D01*
X007535Y008033D01*
X007515Y008010D01*
X007492Y007990D01*
X007467Y007973D01*
X007439Y007960D01*
X007410Y007950D01*
X007380Y007944D01*
X007350Y007942D01*
X007320Y007944D01*
X007290Y007950D01*
X007261Y007960D01*
X007234Y007973D01*
X007208Y007990D01*
X007185Y008010D01*
X007165Y008033D01*
X007148Y008058D01*
X007135Y008086D01*
X007125Y008115D01*
X007119Y008145D01*
X007117Y008175D01*
X000359Y011005D02*
X000362Y011241D01*
X000371Y011476D01*
X000385Y011711D01*
X000405Y011946D01*
X000431Y012180D01*
X000463Y012414D01*
X000500Y012646D01*
X000543Y012878D01*
X000592Y013109D01*
X000647Y013338D01*
X000707Y013566D01*
X000772Y013792D01*
X000844Y014017D01*
X000920Y014239D01*
X001002Y014460D01*
X001090Y014679D01*
X001183Y014896D01*
X001281Y015110D01*
X001384Y015322D01*
X001493Y015531D01*
X001606Y015737D01*
X001725Y015941D01*
X001849Y016142D01*
X001977Y016339D01*
X002110Y016533D01*
X002248Y016724D01*
X002391Y016912D01*
X002538Y017096D01*
X002690Y017276D01*
X002846Y017453D01*
X003007Y017625D01*
X003171Y017794D01*
X003340Y017958D01*
X003512Y018119D01*
X003689Y018275D01*
X003869Y018427D01*
X004053Y018574D01*
X004241Y018717D01*
X004432Y018855D01*
X004626Y018988D01*
X004823Y019116D01*
X005024Y019240D01*
X005228Y019359D01*
X005434Y019472D01*
X005643Y019581D01*
X005855Y019684D01*
X006069Y019782D01*
X006286Y019875D01*
X006505Y019963D01*
X006726Y020045D01*
X006948Y020121D01*
X007173Y020193D01*
X007399Y020258D01*
X007627Y020318D01*
X007856Y020373D01*
X008087Y020422D01*
X008319Y020465D01*
X008551Y020502D01*
X008785Y020534D01*
X009019Y020560D01*
X009254Y020580D01*
X009489Y020594D01*
X009724Y020603D01*
X009960Y020606D01*
X010196Y020603D01*
X010431Y020594D01*
X010666Y020580D01*
X010901Y020560D01*
X011135Y020534D01*
X011369Y020502D01*
X011601Y020465D01*
X011833Y020422D01*
X012064Y020373D01*
X012293Y020318D01*
X012521Y020258D01*
X012747Y020193D01*
X012972Y020121D01*
X013194Y020045D01*
X013415Y019963D01*
X013634Y019875D01*
X013851Y019782D01*
X014065Y019684D01*
X014277Y019581D01*
X014486Y019472D01*
X014692Y019359D01*
X014896Y019240D01*
X015097Y019116D01*
X015294Y018988D01*
X015488Y018855D01*
X015679Y018717D01*
X015867Y018574D01*
X016051Y018427D01*
X016231Y018275D01*
X016408Y018119D01*
X016580Y017958D01*
X016749Y017794D01*
X016913Y017625D01*
X017074Y017453D01*
X017230Y017276D01*
X017382Y017096D01*
X017529Y016912D01*
X017672Y016724D01*
X017810Y016533D01*
X017943Y016339D01*
X018071Y016142D01*
X018195Y015941D01*
X018314Y015737D01*
X018427Y015531D01*
X018536Y015322D01*
X018639Y015110D01*
X018737Y014896D01*
X018830Y014679D01*
X018918Y014460D01*
X019000Y014239D01*
X019076Y014017D01*
X019148Y013792D01*
X019213Y013566D01*
X019273Y013338D01*
X019328Y013109D01*
X019377Y012878D01*
X019420Y012646D01*
X019457Y012414D01*
X019489Y012180D01*
X019515Y011946D01*
X019535Y011711D01*
X019549Y011476D01*
X019558Y011241D01*
X019561Y011005D01*
X019558Y010769D01*
X019549Y010534D01*
X019535Y010299D01*
X019515Y010064D01*
X019489Y009830D01*
X019457Y009596D01*
X019420Y009364D01*
X019377Y009132D01*
X019328Y008901D01*
X019273Y008672D01*
X019213Y008444D01*
X019148Y008218D01*
X019076Y007993D01*
X019000Y007771D01*
X018918Y007550D01*
X018830Y007331D01*
X018737Y007114D01*
X018639Y006900D01*
X018536Y006688D01*
X018427Y006479D01*
X018314Y006273D01*
X018195Y006069D01*
X018071Y005868D01*
X017943Y005671D01*
X017810Y005477D01*
X017672Y005286D01*
X017529Y005098D01*
X017382Y004914D01*
X017230Y004734D01*
X017074Y004557D01*
X016913Y004385D01*
X016749Y004216D01*
X016580Y004052D01*
X016408Y003891D01*
X016231Y003735D01*
X016051Y003583D01*
X015867Y003436D01*
X015679Y003293D01*
X015488Y003155D01*
X015294Y003022D01*
X015097Y002894D01*
X014896Y002770D01*
X014692Y002651D01*
X014486Y002538D01*
X014277Y002429D01*
X014065Y002326D01*
X013851Y002228D01*
X013634Y002135D01*
X013415Y002047D01*
X013194Y001965D01*
X012972Y001889D01*
X012747Y001817D01*
X012521Y001752D01*
X012293Y001692D01*
X012064Y001637D01*
X011833Y001588D01*
X011601Y001545D01*
X011369Y001508D01*
X011135Y001476D01*
X010901Y001450D01*
X010666Y001430D01*
X010431Y001416D01*
X010196Y001407D01*
X009960Y001404D01*
X009724Y001407D01*
X009489Y001416D01*
X009254Y001430D01*
X009019Y001450D01*
X008785Y001476D01*
X008551Y001508D01*
X008319Y001545D01*
X008087Y001588D01*
X007856Y001637D01*
X007627Y001692D01*
X007399Y001752D01*
X007173Y001817D01*
X006948Y001889D01*
X006726Y001965D01*
X006505Y002047D01*
X006286Y002135D01*
X006069Y002228D01*
X005855Y002326D01*
X005643Y002429D01*
X005434Y002538D01*
X005228Y002651D01*
X005024Y002770D01*
X004823Y002894D01*
X004626Y003022D01*
X004432Y003155D01*
X004241Y003293D01*
X004053Y003436D01*
X003869Y003583D01*
X003689Y003735D01*
X003512Y003891D01*
X003340Y004052D01*
X003171Y004216D01*
X003007Y004385D01*
X002846Y004557D01*
X002690Y004734D01*
X002538Y004914D01*
X002391Y005098D01*
X002248Y005286D01*
X002110Y005477D01*
X001977Y005671D01*
X001849Y005868D01*
X001725Y006069D01*
X001606Y006273D01*
X001493Y006479D01*
X001384Y006688D01*
X001281Y006900D01*
X001183Y007114D01*
X001090Y007331D01*
X001002Y007550D01*
X000920Y007771D01*
X000844Y007993D01*
X000772Y008218D01*
X000707Y008444D01*
X000647Y008672D01*
X000592Y008901D01*
X000543Y009132D01*
X000500Y009364D01*
X000463Y009596D01*
X000431Y009830D01*
X000405Y010064D01*
X000385Y010299D01*
X000371Y010534D01*
X000362Y010769D01*
X000359Y011005D01*
D12*
X009030Y007325D02*
X009030Y007025D01*
X009090Y006965D01*
X009210Y006965D01*
X009270Y007025D01*
X009270Y007325D01*
X009398Y007205D02*
X009518Y007325D01*
X009518Y006965D01*
X009398Y006965D02*
X009639Y006965D01*
X009767Y007025D02*
X009767Y007265D01*
X009827Y007325D01*
X009947Y007325D01*
X010007Y007265D01*
X009767Y007025D01*
X009827Y006965D01*
X009947Y006965D01*
X010007Y007025D01*
X010007Y007265D01*
X010135Y007205D02*
X010255Y007325D01*
X010255Y006965D01*
X010135Y006965D02*
X010375Y006965D01*
X013466Y010199D02*
X014214Y010199D01*
X014214Y011931D02*
X013466Y011931D01*
X013570Y012225D02*
X013930Y012465D01*
X013930Y012593D02*
X013930Y012833D01*
X013930Y012713D02*
X013570Y012713D01*
X013690Y012593D01*
X013570Y012465D02*
X013930Y012225D01*
X013870Y012961D02*
X013630Y012961D01*
X013570Y013021D01*
X013570Y013141D01*
X013630Y013201D01*
X013870Y012961D01*
X013930Y013021D01*
X013930Y013141D01*
X013870Y013201D01*
X013630Y013201D01*
X013690Y013330D02*
X013570Y013450D01*
X013930Y013450D01*
X013930Y013330D02*
X013930Y013570D01*
X016250Y012515D02*
X016250Y012275D01*
X016310Y012215D01*
X016430Y012215D01*
X016490Y012275D01*
X016618Y012215D02*
X016859Y012215D01*
X016738Y012215D02*
X016738Y012575D01*
X016618Y012455D01*
X016490Y012515D02*
X016430Y012575D01*
X016310Y012575D01*
X016250Y012515D01*
X016987Y012515D02*
X016987Y012275D01*
X017227Y012515D01*
X017227Y012275D01*
X017167Y012215D01*
X017047Y012215D01*
X016987Y012275D01*
X016987Y012515D02*
X017047Y012575D01*
X017167Y012575D01*
X017227Y012515D01*
X017355Y012515D02*
X017415Y012575D01*
X017535Y012575D01*
X017595Y012515D01*
X017595Y012455D01*
X017535Y012395D01*
X017595Y012335D01*
X017595Y012275D01*
X017535Y012215D01*
X017415Y012215D01*
X017355Y012275D01*
X017475Y012395D02*
X017535Y012395D01*
X017492Y011685D02*
X017492Y011325D01*
X017372Y011325D02*
X017612Y011325D01*
X017372Y011565D02*
X017492Y011685D01*
X017244Y011625D02*
X017244Y011385D01*
X017184Y011325D01*
X017063Y011325D01*
X017003Y011385D01*
X017244Y011625D01*
X017184Y011685D01*
X017063Y011685D01*
X017003Y011625D01*
X017003Y011385D01*
X016875Y011325D02*
X016635Y011325D01*
X016755Y011325D02*
X016755Y011685D01*
X016635Y011565D01*
X016507Y011625D02*
X016447Y011685D01*
X016327Y011685D01*
X016267Y011625D01*
X016267Y011385D01*
X016327Y011325D01*
X016447Y011325D01*
X016507Y011385D01*
X016420Y010805D02*
X016300Y010805D01*
X016240Y010745D01*
X016240Y010505D01*
X016300Y010445D01*
X016420Y010445D01*
X016480Y010505D01*
X016608Y010445D02*
X016849Y010445D01*
X016728Y010445D02*
X016728Y010805D01*
X016608Y010685D01*
X016480Y010745D02*
X016420Y010805D01*
X016977Y010745D02*
X016977Y010505D01*
X017217Y010745D01*
X017217Y010505D01*
X017157Y010445D01*
X017037Y010445D01*
X016977Y010505D01*
X016977Y010745D02*
X017037Y010805D01*
X017157Y010805D01*
X017217Y010745D01*
X017345Y010625D02*
X017585Y010625D01*
X017525Y010445D02*
X017525Y010805D01*
X017345Y010625D01*
X017425Y009985D02*
X017365Y009925D01*
X017425Y009985D02*
X017545Y009985D01*
X017605Y009925D01*
X017605Y009865D01*
X017365Y009625D01*
X017605Y009625D01*
X017237Y009685D02*
X017177Y009625D01*
X017057Y009625D01*
X016997Y009685D01*
X017237Y009925D01*
X017237Y009685D01*
X017237Y009925D02*
X017177Y009985D01*
X017057Y009985D01*
X016997Y009925D01*
X016997Y009685D01*
X016869Y009625D02*
X016628Y009625D01*
X016748Y009625D02*
X016748Y009985D01*
X016628Y009865D01*
X016500Y009925D02*
X016440Y009985D01*
X016320Y009985D01*
X016260Y009925D01*
X016260Y009685D01*
X016320Y009625D01*
X016440Y009625D01*
X016500Y009685D01*
X014890Y017195D02*
X014530Y017195D01*
X014530Y017375D01*
X014590Y017435D01*
X014710Y017435D01*
X014770Y017375D01*
X014770Y017195D01*
X014770Y017315D02*
X014890Y017435D01*
X014890Y017563D02*
X014890Y017803D01*
X014890Y017683D02*
X014530Y017683D01*
X014650Y017563D01*
X014590Y017931D02*
X014530Y017991D01*
X014530Y018111D01*
X014590Y018171D01*
X014830Y017931D01*
X014890Y017991D01*
X014890Y018111D01*
X014830Y018171D01*
X014590Y018171D01*
X014590Y018300D02*
X014530Y018360D01*
X014530Y018480D01*
X014590Y018540D01*
X014650Y018540D01*
X014890Y018300D01*
X014890Y018540D01*
X014830Y017931D02*
X014590Y017931D01*
X014030Y018011D02*
X013970Y017951D01*
X013730Y018191D01*
X013970Y018191D01*
X014030Y018131D01*
X014030Y018011D01*
X013970Y017951D02*
X013730Y017951D01*
X013670Y018011D01*
X013670Y018131D01*
X013730Y018191D01*
X013790Y018320D02*
X013670Y018440D01*
X014030Y018440D01*
X014030Y018320D02*
X014030Y018560D01*
X014030Y017823D02*
X014030Y017583D01*
X014030Y017703D02*
X013670Y017703D01*
X013790Y017583D01*
X013850Y017455D02*
X013910Y017395D01*
X013910Y017215D01*
X013910Y017335D02*
X014030Y017455D01*
X013850Y017455D02*
X013730Y017455D01*
X013670Y017395D01*
X013670Y017215D01*
X014030Y017215D01*
D13*
X017920Y011495D02*
X017670Y011245D01*
X017670Y010745D01*
X017920Y010495D01*
X018420Y010495D01*
X018670Y010745D01*
X018670Y011245D01*
X018420Y011495D01*
X017920Y011495D01*
X011613Y002235D02*
X011342Y002235D01*
X011342Y001695D01*
X011613Y001695D01*
X011703Y001785D01*
X011703Y001875D01*
X011613Y001965D01*
X011342Y001965D01*
X011150Y002055D02*
X011150Y001695D01*
X010880Y001695D01*
X010790Y001785D01*
X010790Y002055D01*
X010598Y001965D02*
X010237Y001965D01*
X010045Y002055D02*
X010045Y002145D01*
X009955Y002235D01*
X009685Y002235D01*
X009685Y001695D01*
X009955Y001695D01*
X010045Y001785D01*
X010045Y001875D01*
X009955Y001965D01*
X009685Y001965D01*
X009493Y001875D02*
X009493Y001785D01*
X009403Y001695D01*
X009223Y001695D01*
X009132Y001785D01*
X008940Y001785D02*
X008940Y002235D01*
X009132Y002145D02*
X009132Y002055D01*
X009223Y001965D01*
X009403Y001965D01*
X009493Y001875D01*
X009493Y002145D02*
X009403Y002235D01*
X009223Y002235D01*
X009132Y002145D01*
X008940Y001785D02*
X008850Y001695D01*
X008670Y001695D01*
X008580Y001785D01*
X008580Y002235D01*
X009955Y001965D02*
X010045Y002055D01*
X011613Y001965D02*
X011703Y002055D01*
X011703Y002145D01*
X011613Y002235D01*
D14*
X011432Y008485D02*
X007968Y008485D01*
X007810Y008642D01*
X007810Y012107D01*
X007968Y012264D01*
X011432Y012264D01*
X011590Y012107D01*
X011590Y008642D01*
X011432Y008485D01*
D15*
X013514Y007403D02*
X013750Y007639D01*
X013632Y007521D02*
X013986Y007167D01*
X014199Y007499D02*
X014317Y007499D01*
X014435Y007617D01*
X014435Y007735D01*
X014199Y007971D01*
X014081Y007971D01*
X013964Y007853D01*
X013964Y007735D01*
X014199Y007499D01*
X014590Y007890D02*
X014708Y007890D01*
X014826Y008008D01*
X014826Y008126D01*
X014531Y008421D01*
X014745Y008516D02*
X014745Y008634D01*
X014863Y008752D01*
X014981Y008752D01*
X015077Y008966D02*
X015430Y008612D01*
X015217Y008516D02*
X015217Y008398D01*
X015099Y008280D01*
X014981Y008280D01*
X014745Y008516D01*
X015253Y008789D02*
X015489Y009025D01*
X015312Y009202D02*
X015666Y008848D01*
X014590Y007890D02*
X014295Y008185D01*
X010682Y005935D02*
X010515Y005935D01*
X010598Y005935D02*
X010598Y005435D01*
X010515Y005435D02*
X010682Y005435D01*
X010296Y005685D02*
X010213Y005601D01*
X009962Y005601D01*
X009962Y005435D02*
X009962Y005935D01*
X010213Y005935D01*
X010296Y005852D01*
X010296Y005685D01*
X009744Y005601D02*
X009744Y005518D01*
X009660Y005435D01*
X009493Y005435D01*
X009410Y005518D01*
X009493Y005685D02*
X009660Y005685D01*
X009744Y005601D01*
X009744Y005852D02*
X009660Y005935D01*
X009493Y005935D01*
X009410Y005852D01*
X009410Y005768D01*
X009493Y005685D01*
X008014Y008800D02*
X008016Y008820D01*
X008021Y008840D01*
X008031Y008858D01*
X008043Y008875D01*
X008058Y008889D01*
X008076Y008899D01*
X008095Y008907D01*
X008115Y008911D01*
X008135Y008911D01*
X008155Y008907D01*
X008174Y008899D01*
X008192Y008889D01*
X008207Y008875D01*
X008219Y008858D01*
X008229Y008840D01*
X008234Y008820D01*
X008236Y008800D01*
X008234Y008780D01*
X008229Y008760D01*
X008219Y008742D01*
X008207Y008725D01*
X008192Y008711D01*
X008174Y008701D01*
X008155Y008693D01*
X008135Y008689D01*
X008115Y008689D01*
X008095Y008693D01*
X008076Y008701D01*
X008058Y008711D01*
X008043Y008725D01*
X008031Y008742D01*
X008021Y008760D01*
X008016Y008780D01*
X008014Y008800D01*
X005366Y007933D02*
X005012Y007579D01*
X005248Y007343D01*
X004857Y007734D02*
X004621Y007969D01*
X004975Y008323D01*
X005211Y008087D01*
X004916Y008028D02*
X004798Y008146D01*
X004525Y008183D02*
X004407Y008183D01*
X004289Y008301D01*
X004289Y008419D01*
X004525Y008655D01*
X004643Y008655D01*
X004761Y008537D01*
X004761Y008419D01*
X004371Y008810D02*
X004371Y008928D01*
X004253Y009046D01*
X004135Y009046D01*
X003899Y008810D01*
X003899Y008692D01*
X004017Y008574D01*
X004135Y008574D01*
X003685Y008905D02*
X003921Y009141D01*
X003921Y009377D01*
X003685Y009377D01*
X003449Y009141D01*
X003626Y009318D02*
X003862Y009082D01*
X008850Y016545D02*
X008850Y017045D01*
X009100Y017045D01*
X009184Y016962D01*
X009184Y016795D01*
X009100Y016711D01*
X008850Y016711D01*
X009402Y016628D02*
X009486Y016545D01*
X009653Y016545D01*
X009736Y016628D01*
X009736Y016962D01*
X009653Y017045D01*
X009486Y017045D01*
X009402Y016962D01*
X009402Y016628D01*
X009955Y016545D02*
X010122Y016711D01*
X010289Y016545D01*
X010289Y017045D01*
X010507Y017045D02*
X010507Y016545D01*
X010841Y016545D01*
X011060Y016545D02*
X011060Y017045D01*
X011310Y017045D01*
X011394Y016962D01*
X011394Y016795D01*
X011310Y016711D01*
X011060Y016711D01*
X011227Y016711D02*
X011394Y016545D01*
X010841Y017045D02*
X010507Y017045D01*
X010507Y016795D02*
X010674Y016795D01*
X009955Y017045D02*
X009955Y016545D01*
X018480Y012777D02*
X018480Y012527D01*
X018980Y012527D01*
X018980Y012777D01*
X018897Y012861D01*
X018563Y012861D01*
X018480Y012777D01*
X018646Y012308D02*
X018480Y012141D01*
X018646Y011975D01*
X018980Y011975D01*
X018730Y011975D02*
X018730Y012308D01*
X018646Y012308D02*
X018980Y012308D01*
X018730Y011756D02*
X018563Y011756D01*
X018480Y011672D01*
X018480Y011422D01*
X018980Y011422D01*
X018813Y011422D02*
X018813Y011672D01*
X018730Y011756D01*
X019063Y011203D02*
X019063Y010870D01*
X018897Y010651D02*
X018563Y010651D01*
X018480Y010567D01*
X018480Y010401D01*
X018563Y010317D01*
X018897Y010317D01*
X018980Y010401D01*
X018980Y010567D01*
X018897Y010651D01*
X018480Y010098D02*
X018480Y009765D01*
X018480Y009931D02*
X018980Y009931D01*
D16*
X018769Y009188D02*
X018625Y009043D01*
X018769Y009188D02*
X018073Y009884D01*
X017186Y008997D01*
X016789Y008600D02*
X015766Y007577D01*
X015375Y007186D02*
X014352Y006163D01*
X013920Y005730D02*
X013775Y005586D01*
X014471Y004890D01*
X015358Y005777D01*
X015779Y006198D02*
X016754Y007173D01*
X017193Y007612D02*
X018168Y008587D01*
X012619Y004457D02*
X012619Y003473D01*
X012415Y003473D01*
X011769Y003473D02*
X010391Y003473D01*
X009769Y003473D02*
X008391Y003473D01*
X007795Y003473D02*
X006541Y003473D01*
X006541Y004457D01*
X006745Y004457D01*
X007357Y004457D02*
X008803Y004457D01*
X009357Y004457D02*
X010803Y004457D01*
X011365Y004457D02*
X012619Y004457D01*
X005935Y005126D02*
X005048Y006013D01*
X004627Y006434D02*
X003652Y007409D01*
X003213Y007848D02*
X002238Y008823D01*
X001781Y009279D02*
X001637Y009424D01*
X000941Y008728D01*
X001828Y007841D01*
X002225Y007444D02*
X003248Y006421D01*
X003639Y006030D02*
X004662Y005007D01*
X005094Y004574D02*
X005239Y004430D01*
X005935Y005126D01*
X007051Y017963D02*
X008305Y017963D01*
X008901Y017963D02*
X010279Y017963D01*
X010901Y017963D02*
X012279Y017963D01*
X012925Y017963D02*
X013129Y017963D01*
X013129Y018947D01*
X011875Y018947D01*
X011313Y018947D02*
X009867Y018947D01*
X009313Y018947D02*
X007867Y018947D01*
X007255Y018947D02*
X007051Y018947D01*
X007051Y017963D01*
M02*
