G75*
%MOIN*%
%OFA0B0*%
%FSLAX24Y24*%
%IPPOS*%
%LPD*%
%AMOC8*
5,1,8,0,0,1.08239X$1,22.5*
%
%ADD10C,0.0000*%
%ADD11R,0.0118X0.0610*%
%ADD12R,0.2559X0.1339*%
%ADD13R,0.1299X0.1890*%
%ADD14R,0.0394X0.0433*%
%ADD15OC8,0.0600*%
%ADD16R,0.0709X0.0591*%
%ADD17R,0.0984X0.0591*%
%ADD18R,0.0157X0.0551*%
%ADD19R,0.0433X0.0394*%
%ADD20R,0.1299X0.0799*%
%ADD21C,0.0080*%
%ADD22C,0.0317*%
%ADD23C,0.0356*%
%ADD24C,0.0160*%
D10*
X000100Y001115D02*
X000100Y020800D01*
X019785Y020800D01*
X019785Y001115D01*
X000100Y001115D01*
X009175Y003001D02*
X009177Y003026D01*
X009183Y003051D01*
X009192Y003075D01*
X009205Y003097D01*
X009222Y003117D01*
X009241Y003134D01*
X009262Y003148D01*
X009286Y003158D01*
X009310Y003165D01*
X009336Y003168D01*
X009361Y003167D01*
X009386Y003162D01*
X009410Y003153D01*
X009433Y003141D01*
X009453Y003126D01*
X009471Y003107D01*
X009486Y003086D01*
X009497Y003063D01*
X009505Y003039D01*
X009509Y003014D01*
X009509Y002988D01*
X009505Y002963D01*
X009497Y002939D01*
X009486Y002916D01*
X009471Y002895D01*
X009453Y002876D01*
X009433Y002861D01*
X009410Y002849D01*
X009386Y002840D01*
X009361Y002835D01*
X009336Y002834D01*
X009310Y002837D01*
X009286Y002844D01*
X009262Y002854D01*
X009241Y002868D01*
X009222Y002885D01*
X009205Y002905D01*
X009192Y002927D01*
X009183Y002951D01*
X009177Y002976D01*
X009175Y003001D01*
X010671Y003001D02*
X010673Y003026D01*
X010679Y003051D01*
X010688Y003075D01*
X010701Y003097D01*
X010718Y003117D01*
X010737Y003134D01*
X010758Y003148D01*
X010782Y003158D01*
X010806Y003165D01*
X010832Y003168D01*
X010857Y003167D01*
X010882Y003162D01*
X010906Y003153D01*
X010929Y003141D01*
X010949Y003126D01*
X010967Y003107D01*
X010982Y003086D01*
X010993Y003063D01*
X011001Y003039D01*
X011005Y003014D01*
X011005Y002988D01*
X011001Y002963D01*
X010993Y002939D01*
X010982Y002916D01*
X010967Y002895D01*
X010949Y002876D01*
X010929Y002861D01*
X010906Y002849D01*
X010882Y002840D01*
X010857Y002835D01*
X010832Y002834D01*
X010806Y002837D01*
X010782Y002844D01*
X010758Y002854D01*
X010737Y002868D01*
X010718Y002885D01*
X010701Y002905D01*
X010688Y002927D01*
X010679Y002951D01*
X010673Y002976D01*
X010671Y003001D01*
D11*
G36*
X004538Y012434D02*
X004622Y012518D01*
X005052Y012088D01*
X004968Y012004D01*
X004538Y012434D01*
G37*
G36*
X004719Y012615D02*
X004803Y012699D01*
X005233Y012269D01*
X005149Y012185D01*
X004719Y012615D01*
G37*
G36*
X004900Y012796D02*
X004984Y012880D01*
X005414Y012450D01*
X005330Y012366D01*
X004900Y012796D01*
G37*
G36*
X005081Y012977D02*
X005165Y013061D01*
X005595Y012631D01*
X005511Y012547D01*
X005081Y012977D01*
G37*
G36*
X005262Y013158D02*
X005346Y013242D01*
X005776Y012812D01*
X005692Y012728D01*
X005262Y013158D01*
G37*
G36*
X005443Y013339D02*
X005527Y013423D01*
X005957Y012993D01*
X005873Y012909D01*
X005443Y013339D01*
G37*
G36*
X005624Y013520D02*
X005708Y013604D01*
X006138Y013174D01*
X006054Y013090D01*
X005624Y013520D01*
G37*
G36*
X005805Y013701D02*
X005889Y013785D01*
X006319Y013355D01*
X006235Y013271D01*
X005805Y013701D01*
G37*
G36*
X005986Y013881D02*
X006070Y013965D01*
X006500Y013535D01*
X006416Y013451D01*
X005986Y013881D01*
G37*
G36*
X006167Y014062D02*
X006251Y014146D01*
X006681Y013716D01*
X006597Y013632D01*
X006167Y014062D01*
G37*
G36*
X005122Y015275D02*
X005038Y015191D01*
X004608Y015621D01*
X004692Y015705D01*
X005122Y015275D01*
G37*
G36*
X004941Y015094D02*
X004857Y015010D01*
X004427Y015440D01*
X004511Y015524D01*
X004941Y015094D01*
G37*
G36*
X004760Y014914D02*
X004676Y014830D01*
X004246Y015260D01*
X004330Y015344D01*
X004760Y014914D01*
G37*
G36*
X004579Y014733D02*
X004495Y014649D01*
X004065Y015079D01*
X004149Y015163D01*
X004579Y014733D01*
G37*
G36*
X004398Y014552D02*
X004314Y014468D01*
X003884Y014898D01*
X003968Y014982D01*
X004398Y014552D01*
G37*
G36*
X004217Y014371D02*
X004133Y014287D01*
X003703Y014717D01*
X003787Y014801D01*
X004217Y014371D01*
G37*
G36*
X004036Y014190D02*
X003952Y014106D01*
X003522Y014536D01*
X003606Y014620D01*
X004036Y014190D01*
G37*
G36*
X003855Y014009D02*
X003771Y013925D01*
X003341Y014355D01*
X003425Y014439D01*
X003855Y014009D01*
G37*
G36*
X003674Y013828D02*
X003590Y013744D01*
X003160Y014174D01*
X003244Y014258D01*
X003674Y013828D01*
G37*
G36*
X003493Y013647D02*
X003409Y013563D01*
X002979Y013993D01*
X003063Y014077D01*
X003493Y013647D01*
G37*
D12*
G36*
X003453Y013424D02*
X005261Y015232D01*
X006207Y014286D01*
X004399Y012478D01*
X003453Y013424D01*
G37*
D13*
G36*
X003991Y008211D02*
X003073Y009129D01*
X004409Y010465D01*
X005327Y009547D01*
X003991Y008211D01*
G37*
G36*
X005105Y007098D02*
X004187Y008016D01*
X005523Y009352D01*
X006441Y008434D01*
X005105Y007098D01*
G37*
G36*
X003351Y005344D02*
X002433Y006262D01*
X003769Y007598D01*
X004687Y006680D01*
X003351Y005344D01*
G37*
G36*
X002237Y006457D02*
X001319Y007375D01*
X002655Y008711D01*
X003573Y007793D01*
X002237Y006457D01*
G37*
X009293Y016674D03*
X010867Y016674D03*
X010867Y019155D03*
X009293Y019155D03*
G36*
X014803Y009747D02*
X015721Y010665D01*
X017057Y009329D01*
X016139Y008411D01*
X014803Y009747D01*
G37*
G36*
X013689Y008634D02*
X014607Y009552D01*
X015943Y008216D01*
X015025Y007298D01*
X013689Y008634D01*
G37*
G36*
X015443Y006880D02*
X016361Y007798D01*
X017697Y006462D01*
X016779Y005544D01*
X015443Y006880D01*
G37*
G36*
X016557Y007993D02*
X017475Y008911D01*
X018811Y007575D01*
X017893Y006657D01*
X016557Y007993D01*
G37*
D14*
G36*
X007524Y013576D02*
X007245Y013855D01*
X007550Y014160D01*
X007829Y013881D01*
X007524Y013576D01*
G37*
G36*
X007050Y014049D02*
X006771Y014328D01*
X007076Y014633D01*
X007355Y014354D01*
X007050Y014049D01*
G37*
D15*
X018170Y010995D03*
D16*
X011540Y002135D03*
X008640Y002135D03*
D17*
X010090Y002135D03*
D18*
X010090Y003198D03*
X009834Y003198D03*
X009578Y003198D03*
X010346Y003198D03*
X010602Y003198D03*
D19*
X009640Y004370D03*
X009640Y005039D03*
X010470Y005059D03*
X010470Y004390D03*
D20*
X013830Y004915D03*
X013830Y003214D03*
D21*
X013790Y003255D01*
X013230Y003255D01*
X012920Y003565D01*
X010830Y003565D01*
X010602Y003336D01*
X010602Y003198D01*
X010346Y003198D02*
X010346Y004266D01*
X010470Y004390D01*
X010090Y003920D02*
X009640Y004370D01*
X010090Y003920D02*
X010090Y003198D01*
X009578Y003198D02*
X009578Y003366D01*
X009110Y003835D01*
X007750Y003835D01*
X007570Y004015D01*
X009640Y005039D02*
X009640Y006605D01*
X009080Y007165D01*
X009300Y007525D02*
X008760Y007525D01*
X009300Y007525D02*
X010470Y006355D01*
X010470Y005059D01*
X012300Y004935D02*
X010010Y007235D01*
X010500Y008835D02*
X009610Y009725D01*
X005440Y009725D01*
X004860Y010305D01*
X004860Y010445D01*
X005190Y010235D02*
X005180Y010835D01*
X005190Y010235D02*
X005420Y009965D01*
X008530Y009955D01*
X008530Y009995D01*
X008740Y009435D02*
X007990Y009425D01*
X008650Y008785D02*
X008980Y008785D01*
X009550Y009355D01*
X010770Y011115D02*
X012570Y009285D01*
X012560Y009885D02*
X012570Y010835D01*
X012780Y011045D01*
X012780Y015505D01*
X011840Y015835D02*
X011840Y018855D01*
X012120Y019135D01*
X011840Y015835D02*
X011470Y015465D01*
X010390Y015465D01*
X007980Y014745D02*
X007980Y014335D01*
X007537Y013891D01*
X007537Y013868D01*
X007537Y013821D01*
X007200Y013485D01*
X006467Y013485D01*
X006243Y013708D01*
X006424Y013889D02*
X006876Y014341D01*
X007063Y014341D01*
X006580Y014485D02*
X006210Y014485D01*
X005320Y015365D01*
X004899Y015405D01*
X004865Y015448D01*
X008050Y018544D01*
X008050Y019505D01*
X004865Y015448D02*
X004684Y015267D01*
X006580Y014485D02*
X006970Y014875D01*
X007360Y014875D01*
X007790Y014935D02*
X007980Y014745D01*
X007170Y012405D02*
X007480Y012085D01*
X010770Y012095D01*
X010770Y011115D01*
X012560Y009885D02*
X013230Y009185D01*
X014760Y010995D02*
X015220Y010995D01*
X015400Y010815D01*
X015860Y010815D01*
X017400Y009275D01*
X015600Y011075D02*
X015400Y011075D01*
X014050Y012425D01*
X013560Y012425D01*
X013540Y012405D01*
X007570Y007615D02*
X006920Y008265D01*
X006900Y009125D01*
X006650Y008355D02*
X006650Y007965D01*
X006960Y007685D01*
X005180Y011785D02*
X005180Y012265D01*
X005003Y012442D01*
X004976Y012442D01*
X004795Y012261D02*
X004790Y012256D01*
X004790Y011815D01*
X012300Y004935D02*
X013830Y004915D01*
D22*
X016150Y005475D03*
X013230Y009185D03*
X012570Y009285D03*
X012570Y010835D03*
X013540Y012405D03*
X014760Y010995D03*
X015600Y011075D03*
X017400Y009275D03*
X012780Y015505D03*
X010390Y015465D03*
X007790Y014935D03*
X007360Y014875D03*
X007170Y012405D03*
X005180Y011785D03*
X004790Y011815D03*
X005180Y010835D03*
X004860Y010445D03*
X006420Y008785D03*
X006900Y009125D03*
X006650Y008355D03*
X006960Y007685D03*
X007570Y007615D03*
X008760Y007525D03*
X009080Y007165D03*
X010010Y007235D03*
X010500Y008835D03*
X009550Y009355D03*
X008740Y009435D03*
X008530Y009995D03*
X007990Y009425D03*
X008650Y008785D03*
X010770Y012095D03*
X012120Y019135D03*
X007570Y004015D03*
D23*
X012060Y007705D03*
X012390Y008065D03*
X012710Y008415D03*
X013050Y008795D03*
X009310Y015305D03*
X009920Y015475D03*
X011260Y017875D03*
X013190Y017195D03*
X012060Y019855D03*
X008360Y019095D03*
X008050Y019505D03*
X004200Y016085D03*
X003760Y015965D03*
X003310Y015745D03*
X002630Y014425D03*
X006130Y011055D03*
X005810Y010705D03*
X005490Y010345D03*
X006480Y012135D03*
X003030Y009605D03*
X002700Y010075D03*
X002890Y010525D03*
D24*
X002160Y011255D01*
X002160Y014685D01*
X002380Y014905D01*
X002870Y014905D01*
X003593Y014182D01*
X003598Y014182D01*
X003779Y014363D02*
X003779Y014386D01*
X002960Y015205D01*
X002270Y015205D01*
X001880Y014815D01*
X001870Y010885D01*
X001900Y010875D01*
X002700Y010075D01*
X002490Y009595D02*
X003030Y009605D01*
X002490Y009595D02*
X001590Y010495D01*
X001590Y014905D01*
X002160Y015475D01*
X003029Y015475D01*
X003960Y014544D01*
X004141Y014725D02*
X003310Y015556D01*
X003310Y015745D01*
X003760Y015965D02*
X003760Y015468D01*
X004322Y014906D01*
X004503Y015087D02*
X004200Y015389D01*
X004200Y016085D01*
X002630Y014425D02*
X002630Y013345D01*
X004630Y011345D01*
X005280Y011345D01*
X005580Y011645D01*
X005580Y012200D01*
X005157Y012623D01*
X005338Y012804D02*
X006727Y011325D01*
X009790Y011325D01*
X012320Y008795D01*
X013050Y008795D01*
X012710Y008415D02*
X012290Y008415D01*
X009660Y011055D01*
X006130Y011055D01*
X005810Y010705D02*
X009570Y010675D01*
X012210Y008065D01*
X012390Y008065D01*
X012060Y007705D02*
X009430Y010335D01*
X005490Y010345D01*
X005870Y008795D02*
X005690Y008615D01*
X005680Y008591D01*
X005314Y008225D01*
X005870Y008795D02*
X006420Y008785D01*
X007330Y006935D02*
X004790Y006935D01*
X003810Y007915D01*
X002776Y007915D01*
X002446Y007584D01*
X006429Y012155D02*
X006480Y012135D01*
X006429Y012155D02*
X005519Y012985D01*
X005700Y013166D02*
X006131Y012735D01*
X007860Y012735D01*
X009920Y014795D01*
X009920Y015475D01*
X009310Y015305D02*
X009310Y014575D01*
X007710Y012975D01*
X006253Y012975D01*
X005881Y013347D01*
X006062Y013528D02*
X006345Y013245D01*
X007620Y013245D01*
X008360Y013985D01*
X008360Y019095D01*
X009480Y017875D02*
X009330Y017725D01*
X009330Y016712D01*
X009293Y016674D01*
X009480Y017875D02*
X011260Y017875D01*
X010867Y019155D02*
X011567Y019855D01*
X012060Y019855D01*
X013190Y017195D02*
X013190Y011255D01*
X014250Y010205D01*
X014315Y010204D01*
X014315Y009510D01*
X011960Y007155D01*
X011090Y007155D01*
X010310Y007935D01*
X008330Y007935D01*
X007330Y006935D01*
X014315Y010204D02*
X015274Y010195D01*
X015930Y009538D01*
X016570Y006671D02*
X016190Y006291D01*
X016150Y005475D01*
M02*
