G75*
%MOIN*%
%OFA0B0*%
%FSLAX24Y24*%
%IPPOS*%
%LPD*%
%AMOC8*
5,1,8,0,0,1.08239X$1,22.5*
%
%ADD10C,0.0000*%
%ADD11R,0.0158X0.0650*%
%ADD12C,0.0050*%
%ADD13R,0.0315X0.0433*%
%ADD14R,0.0434X0.0473*%
%ADD15OC8,0.0640*%
%ADD16R,0.0197X0.0591*%
%ADD17C,0.0375*%
%ADD18R,0.0787X0.0669*%
%ADD19R,0.1063X0.0669*%
%ADD20R,0.0473X0.0434*%
%ADD21R,0.1339X0.0839*%
D10*
X000100Y001115D02*
X000100Y020800D01*
X019785Y020800D01*
X019785Y001115D01*
X000100Y001115D01*
X009175Y003001D02*
X009177Y003026D01*
X009183Y003051D01*
X009192Y003075D01*
X009205Y003097D01*
X009222Y003117D01*
X009241Y003134D01*
X009262Y003148D01*
X009286Y003158D01*
X009310Y003165D01*
X009336Y003168D01*
X009361Y003167D01*
X009386Y003162D01*
X009410Y003153D01*
X009433Y003141D01*
X009453Y003126D01*
X009471Y003107D01*
X009486Y003086D01*
X009497Y003063D01*
X009505Y003039D01*
X009509Y003014D01*
X009509Y002988D01*
X009505Y002963D01*
X009497Y002939D01*
X009486Y002916D01*
X009471Y002895D01*
X009453Y002876D01*
X009433Y002861D01*
X009410Y002849D01*
X009386Y002840D01*
X009361Y002835D01*
X009336Y002834D01*
X009310Y002837D01*
X009286Y002844D01*
X009262Y002854D01*
X009241Y002868D01*
X009222Y002885D01*
X009205Y002905D01*
X009192Y002927D01*
X009183Y002951D01*
X009177Y002976D01*
X009175Y003001D01*
X010671Y003001D02*
X010673Y003026D01*
X010679Y003051D01*
X010688Y003075D01*
X010701Y003097D01*
X010718Y003117D01*
X010737Y003134D01*
X010758Y003148D01*
X010782Y003158D01*
X010806Y003165D01*
X010832Y003168D01*
X010857Y003167D01*
X010882Y003162D01*
X010906Y003153D01*
X010929Y003141D01*
X010949Y003126D01*
X010967Y003107D01*
X010982Y003086D01*
X010993Y003063D01*
X011001Y003039D01*
X011005Y003014D01*
X011005Y002988D01*
X011001Y002963D01*
X010993Y002939D01*
X010982Y002916D01*
X010967Y002895D01*
X010949Y002876D01*
X010929Y002861D01*
X010906Y002849D01*
X010882Y002840D01*
X010857Y002835D01*
X010832Y002834D01*
X010806Y002837D01*
X010782Y002844D01*
X010758Y002854D01*
X010737Y002868D01*
X010718Y002885D01*
X010701Y002905D01*
X010688Y002927D01*
X010679Y002951D01*
X010673Y002976D01*
X010671Y003001D01*
D11*
G36*
X004510Y012434D02*
X004622Y012546D01*
X005080Y012088D01*
X004968Y011976D01*
X004510Y012434D01*
G37*
G36*
X004691Y012615D02*
X004803Y012727D01*
X005261Y012269D01*
X005149Y012157D01*
X004691Y012615D01*
G37*
G36*
X004872Y012796D02*
X004984Y012908D01*
X005442Y012450D01*
X005330Y012338D01*
X004872Y012796D01*
G37*
G36*
X005053Y012977D02*
X005165Y013089D01*
X005623Y012631D01*
X005511Y012519D01*
X005053Y012977D01*
G37*
G36*
X005234Y013158D02*
X005346Y013270D01*
X005804Y012812D01*
X005692Y012700D01*
X005234Y013158D01*
G37*
G36*
X005415Y013339D02*
X005527Y013451D01*
X005985Y012993D01*
X005873Y012881D01*
X005415Y013339D01*
G37*
G36*
X005596Y013520D02*
X005708Y013632D01*
X006166Y013174D01*
X006054Y013062D01*
X005596Y013520D01*
G37*
G36*
X005777Y013701D02*
X005889Y013813D01*
X006347Y013355D01*
X006235Y013243D01*
X005777Y013701D01*
G37*
G36*
X005958Y013881D02*
X006070Y013993D01*
X006528Y013535D01*
X006416Y013423D01*
X005958Y013881D01*
G37*
G36*
X006139Y014062D02*
X006251Y014174D01*
X006709Y013716D01*
X006597Y013604D01*
X006139Y014062D01*
G37*
G36*
X005150Y015275D02*
X005038Y015163D01*
X004580Y015621D01*
X004692Y015733D01*
X005150Y015275D01*
G37*
G36*
X004969Y015094D02*
X004857Y014982D01*
X004399Y015440D01*
X004511Y015552D01*
X004969Y015094D01*
G37*
G36*
X004788Y014914D02*
X004676Y014802D01*
X004218Y015260D01*
X004330Y015372D01*
X004788Y014914D01*
G37*
G36*
X004607Y014733D02*
X004495Y014621D01*
X004037Y015079D01*
X004149Y015191D01*
X004607Y014733D01*
G37*
G36*
X004426Y014552D02*
X004314Y014440D01*
X003856Y014898D01*
X003968Y015010D01*
X004426Y014552D01*
G37*
G36*
X004245Y014371D02*
X004133Y014259D01*
X003675Y014717D01*
X003787Y014829D01*
X004245Y014371D01*
G37*
G36*
X004064Y014190D02*
X003952Y014078D01*
X003494Y014536D01*
X003606Y014648D01*
X004064Y014190D01*
G37*
G36*
X003883Y014009D02*
X003771Y013897D01*
X003313Y014355D01*
X003425Y014467D01*
X003883Y014009D01*
G37*
G36*
X003702Y013828D02*
X003590Y013716D01*
X003132Y014174D01*
X003244Y014286D01*
X003702Y013828D01*
G37*
G36*
X003521Y013647D02*
X003409Y013535D01*
X002951Y013993D01*
X003063Y014105D01*
X003521Y013647D01*
G37*
D12*
X003970Y013760D02*
X004735Y012994D01*
X005690Y013949D01*
X004925Y014715D01*
X003970Y013760D01*
X003983Y013773D02*
X005514Y013773D01*
X005466Y013725D02*
X004005Y013725D01*
X004054Y013676D02*
X005417Y013676D01*
X005369Y013628D02*
X004102Y013628D01*
X004151Y013579D02*
X005320Y013579D01*
X005272Y013531D02*
X004199Y013531D01*
X004248Y013482D02*
X005223Y013482D01*
X005175Y013434D02*
X004296Y013434D01*
X004345Y013385D02*
X005126Y013385D01*
X005078Y013337D02*
X004393Y013337D01*
X004442Y013288D02*
X005029Y013288D01*
X004981Y013240D02*
X004490Y013240D01*
X004539Y013191D02*
X004932Y013191D01*
X004884Y013143D02*
X004587Y013143D01*
X004636Y013094D02*
X004835Y013094D01*
X004787Y013046D02*
X004684Y013046D01*
X004733Y012997D02*
X004738Y012997D01*
X004031Y013822D02*
X005563Y013822D01*
X005611Y013870D02*
X004080Y013870D01*
X004128Y013919D02*
X005660Y013919D01*
X005672Y013967D02*
X004177Y013967D01*
X004225Y014016D02*
X005624Y014016D01*
X005575Y014064D02*
X004274Y014064D01*
X004322Y014113D02*
X005527Y014113D01*
X005478Y014161D02*
X004371Y014161D01*
X004419Y014210D02*
X005430Y014210D01*
X005381Y014258D02*
X004468Y014258D01*
X004516Y014307D02*
X005333Y014307D01*
X005284Y014355D02*
X004565Y014355D01*
X004614Y014404D02*
X005236Y014404D01*
X005187Y014452D02*
X004662Y014452D01*
X004711Y014501D02*
X005139Y014501D01*
X005090Y014549D02*
X004759Y014549D01*
X004808Y014598D02*
X005042Y014598D01*
X004993Y014646D02*
X004856Y014646D01*
X004905Y014695D02*
X004945Y014695D01*
D13*
X009785Y017403D03*
X010375Y017403D03*
X010375Y018426D03*
X009785Y018426D03*
G36*
X015834Y008716D02*
X016056Y008938D01*
X016360Y008634D01*
X016138Y008412D01*
X015834Y008716D01*
G37*
G36*
X015416Y008299D02*
X015638Y008521D01*
X015942Y008217D01*
X015720Y007995D01*
X015416Y008299D01*
G37*
G36*
X016140Y007575D02*
X016362Y007797D01*
X016666Y007493D01*
X016444Y007271D01*
X016140Y007575D01*
G37*
G36*
X016558Y007993D02*
X016780Y008215D01*
X017084Y007911D01*
X016862Y007689D01*
X016558Y007993D01*
G37*
G36*
X004410Y007795D02*
X004188Y008017D01*
X004492Y008321D01*
X004714Y008099D01*
X004410Y007795D01*
G37*
G36*
X003992Y008212D02*
X003770Y008434D01*
X004074Y008738D01*
X004296Y008516D01*
X003992Y008212D01*
G37*
G36*
X003268Y007489D02*
X003046Y007711D01*
X003350Y008015D01*
X003572Y007793D01*
X003268Y007489D01*
G37*
G36*
X003686Y007071D02*
X003464Y007293D01*
X003768Y007597D01*
X003990Y007375D01*
X003686Y007071D01*
G37*
D14*
G36*
X007524Y013548D02*
X007217Y013855D01*
X007550Y014188D01*
X007857Y013881D01*
X007524Y013548D01*
G37*
G36*
X007050Y014021D02*
X006743Y014328D01*
X007076Y014661D01*
X007383Y014354D01*
X007050Y014021D01*
G37*
D15*
X018170Y010995D03*
D16*
X010602Y003198D03*
X010346Y003198D03*
X010090Y003198D03*
X009834Y003198D03*
X009578Y003198D03*
D17*
X009342Y003001D03*
X010838Y003001D03*
D18*
X011540Y002135D03*
X008640Y002135D03*
D19*
X010090Y002135D03*
D20*
X009640Y004370D03*
X009640Y005039D03*
X010470Y005059D03*
X010470Y004390D03*
D21*
X013830Y004915D03*
X013830Y003214D03*
M02*
