G75*
%MOIN*%
%OFA0B0*%
%FSLAX24Y24*%
%IPPOS*%
%LPD*%
%AMOC8*
5,1,8,0,0,1.08239X$1,22.5*
%
%ADD10C,0.0000*%
%ADD11R,0.0276X0.0394*%
D10*
X000112Y000100D02*
X000100Y019777D01*
X019899Y019789D01*
X019797Y000100D01*
X000112Y000100D01*
D11*
G36*
X004200Y005665D02*
X004395Y005470D01*
X004118Y005193D01*
X003923Y005388D01*
X004200Y005665D01*
G37*
G36*
X003782Y006083D02*
X003977Y005888D01*
X003700Y005611D01*
X003505Y005806D01*
X003782Y006083D01*
G37*
G36*
X004506Y006807D02*
X004701Y006612D01*
X004424Y006335D01*
X004229Y006530D01*
X004506Y006807D01*
G37*
G36*
X004924Y006389D02*
X005119Y006194D01*
X004842Y005917D01*
X004647Y006112D01*
X004924Y006389D01*
G37*
G36*
X014605Y005994D02*
X014800Y006189D01*
X015077Y005912D01*
X014882Y005717D01*
X014605Y005994D01*
G37*
G36*
X015023Y006412D02*
X015218Y006607D01*
X015495Y006330D01*
X015300Y006135D01*
X015023Y006412D01*
G37*
G36*
X015747Y005688D02*
X015942Y005883D01*
X016219Y005606D01*
X016024Y005411D01*
X015747Y005688D01*
G37*
G36*
X015329Y005270D02*
X015524Y005465D01*
X015801Y005188D01*
X015606Y004993D01*
X015329Y005270D01*
G37*
X010207Y016488D03*
X009617Y016488D03*
X009617Y017512D03*
X010207Y017512D03*
M02*
