G75*
%MOIN*%
%OFA0B0*%
%FSLAX24Y24*%
%IPPOS*%
%LPD*%
%AMOC8*
5,1,8,0,0,1.08239X$1,22.5*
%
%ADD10C,0.0000*%
%ADD11R,0.0315X0.0118*%
%ADD12R,0.0118X0.0315*%
%ADD13R,0.0394X0.0433*%
%ADD14C,0.0600*%
%ADD15OC8,0.0600*%
%ADD16C,0.0080*%
%ADD17C,0.0317*%
%ADD18C,0.0160*%
%ADD19C,0.0100*%
D10*
X000112Y000100D02*
X000100Y019777D01*
X019899Y019789D01*
X019797Y000100D01*
X000112Y000100D01*
D11*
X009310Y010203D03*
X009310Y010400D03*
X009310Y010597D03*
X010314Y010597D03*
X010314Y010400D03*
X010314Y010203D03*
D12*
X010206Y009898D03*
X010009Y009898D03*
X009812Y009898D03*
X009615Y009898D03*
X009418Y009898D03*
X009418Y010902D03*
X009615Y010902D03*
X009812Y010902D03*
X010009Y010902D03*
X010206Y010902D03*
D13*
X009912Y011665D03*
X009912Y012335D03*
X008812Y012335D03*
X008812Y011665D03*
X011012Y011665D03*
X011012Y012335D03*
D14*
X013907Y008819D02*
X014331Y008395D01*
X013624Y007688D02*
X013200Y008112D01*
X012493Y007405D02*
X012917Y006981D01*
X010212Y007850D02*
X010212Y008450D01*
X009212Y008450D02*
X009212Y007850D01*
X008038Y006998D02*
X007614Y006574D01*
X006907Y007281D02*
X007331Y007705D01*
X006624Y008412D02*
X006200Y007988D01*
X005493Y008695D02*
X005917Y009119D01*
X005210Y009826D02*
X004785Y009402D01*
D15*
X008322Y014230D03*
X011312Y014240D03*
D16*
X011012Y012335D02*
X009912Y012335D01*
X008436Y012335D01*
X008262Y012160D01*
X008262Y011410D01*
X008462Y011210D01*
X008462Y010890D01*
X008522Y010830D01*
X008722Y010590D02*
X009303Y010590D01*
X009310Y010597D01*
X009418Y010902D02*
X009110Y011210D01*
X008462Y011210D01*
X008812Y011665D02*
X008896Y011750D01*
X009062Y011750D01*
X009232Y011580D01*
X009232Y011410D01*
X009372Y011270D01*
X009872Y011270D01*
X010009Y011133D01*
X010009Y010902D01*
X010206Y010902D02*
X010570Y010902D01*
X010652Y010820D01*
X010652Y010350D01*
X010512Y010210D01*
X010321Y010210D01*
X010314Y010203D01*
X010009Y010123D02*
X009922Y010210D01*
X009682Y010210D01*
X009632Y010160D01*
X009632Y009915D01*
X009632Y009070D01*
X009932Y009460D02*
X009822Y009540D01*
X009822Y009888D01*
X010002Y009891D02*
X010002Y009700D01*
X010072Y009630D01*
X010352Y009630D01*
X011182Y008800D01*
X012502Y008800D01*
X013402Y007900D01*
X013412Y007900D01*
X014070Y008607D02*
X011012Y011665D01*
X009912Y011665D01*
X010206Y011372D01*
X010206Y010902D01*
X009802Y010490D02*
X009615Y010677D01*
X009615Y010902D01*
X010009Y010123D02*
X010009Y009898D01*
X010002Y009891D01*
X009632Y009915D02*
X009615Y009898D01*
X009418Y009898D02*
X009212Y009672D01*
X009212Y008150D01*
X008452Y007410D02*
X008452Y010320D01*
X008722Y010590D01*
X009932Y009460D02*
X010072Y009460D01*
X010212Y009340D01*
X010212Y008150D01*
X008452Y007410D02*
X007828Y006786D01*
X007826Y006786D01*
X007119Y007493D02*
X008162Y008536D01*
X008162Y009200D01*
X008812Y012335D02*
X009912Y012335D01*
X014070Y008607D02*
X014119Y008607D01*
D17*
X009922Y006770D03*
X009242Y006080D03*
X009632Y009070D03*
X009802Y010490D03*
X008522Y010830D03*
X008162Y009200D03*
D18*
X009922Y006770D02*
X009242Y006090D01*
X009242Y006080D01*
D19*
X009822Y009888D02*
X009812Y009898D01*
M02*
