G75*
%MOIN*%
%OFA0B0*%
%FSLAX24Y24*%
%IPPOS*%
%LPD*%
%AMOC8*
5,1,8,0,0,1.08239X$1,22.5*
%
%ADD10C,0.0000*%
%ADD11C,0.0160*%
%ADD12C,0.0040*%
%ADD13R,0.0157X0.0157*%
%ADD14R,0.0157X0.0157*%
D10*
X000112Y000100D02*
X000100Y019777D01*
X019899Y019789D01*
X019797Y000100D01*
X000112Y000100D01*
D11*
X000411Y010000D02*
X000414Y010236D01*
X000423Y010471D01*
X000437Y010706D01*
X000457Y010941D01*
X000483Y011175D01*
X000515Y011409D01*
X000552Y011641D01*
X000595Y011873D01*
X000644Y012104D01*
X000699Y012333D01*
X000759Y012561D01*
X000824Y012787D01*
X000896Y013012D01*
X000972Y013234D01*
X001054Y013455D01*
X001142Y013674D01*
X001235Y013891D01*
X001333Y014105D01*
X001436Y014317D01*
X001545Y014526D01*
X001658Y014732D01*
X001777Y014936D01*
X001901Y015137D01*
X002029Y015334D01*
X002162Y015528D01*
X002300Y015719D01*
X002443Y015907D01*
X002590Y016091D01*
X002742Y016271D01*
X002898Y016448D01*
X003059Y016620D01*
X003223Y016789D01*
X003392Y016953D01*
X003564Y017114D01*
X003741Y017270D01*
X003921Y017422D01*
X004105Y017569D01*
X004293Y017712D01*
X004484Y017850D01*
X004678Y017983D01*
X004875Y018111D01*
X005076Y018235D01*
X005280Y018354D01*
X005486Y018467D01*
X005695Y018576D01*
X005907Y018679D01*
X006121Y018777D01*
X006338Y018870D01*
X006557Y018958D01*
X006778Y019040D01*
X007000Y019116D01*
X007225Y019188D01*
X007451Y019253D01*
X007679Y019313D01*
X007908Y019368D01*
X008139Y019417D01*
X008371Y019460D01*
X008603Y019497D01*
X008837Y019529D01*
X009071Y019555D01*
X009306Y019575D01*
X009541Y019589D01*
X009776Y019598D01*
X010012Y019601D01*
X010248Y019598D01*
X010483Y019589D01*
X010718Y019575D01*
X010953Y019555D01*
X011187Y019529D01*
X011421Y019497D01*
X011653Y019460D01*
X011885Y019417D01*
X012116Y019368D01*
X012345Y019313D01*
X012573Y019253D01*
X012799Y019188D01*
X013024Y019116D01*
X013246Y019040D01*
X013467Y018958D01*
X013686Y018870D01*
X013903Y018777D01*
X014117Y018679D01*
X014329Y018576D01*
X014538Y018467D01*
X014744Y018354D01*
X014948Y018235D01*
X015149Y018111D01*
X015346Y017983D01*
X015540Y017850D01*
X015731Y017712D01*
X015919Y017569D01*
X016103Y017422D01*
X016283Y017270D01*
X016460Y017114D01*
X016632Y016953D01*
X016801Y016789D01*
X016965Y016620D01*
X017126Y016448D01*
X017282Y016271D01*
X017434Y016091D01*
X017581Y015907D01*
X017724Y015719D01*
X017862Y015528D01*
X017995Y015334D01*
X018123Y015137D01*
X018247Y014936D01*
X018366Y014732D01*
X018479Y014526D01*
X018588Y014317D01*
X018691Y014105D01*
X018789Y013891D01*
X018882Y013674D01*
X018970Y013455D01*
X019052Y013234D01*
X019128Y013012D01*
X019200Y012787D01*
X019265Y012561D01*
X019325Y012333D01*
X019380Y012104D01*
X019429Y011873D01*
X019472Y011641D01*
X019509Y011409D01*
X019541Y011175D01*
X019567Y010941D01*
X019587Y010706D01*
X019601Y010471D01*
X019610Y010236D01*
X019613Y010000D01*
X019610Y009764D01*
X019601Y009529D01*
X019587Y009294D01*
X019567Y009059D01*
X019541Y008825D01*
X019509Y008591D01*
X019472Y008359D01*
X019429Y008127D01*
X019380Y007896D01*
X019325Y007667D01*
X019265Y007439D01*
X019200Y007213D01*
X019128Y006988D01*
X019052Y006766D01*
X018970Y006545D01*
X018882Y006326D01*
X018789Y006109D01*
X018691Y005895D01*
X018588Y005683D01*
X018479Y005474D01*
X018366Y005268D01*
X018247Y005064D01*
X018123Y004863D01*
X017995Y004666D01*
X017862Y004472D01*
X017724Y004281D01*
X017581Y004093D01*
X017434Y003909D01*
X017282Y003729D01*
X017126Y003552D01*
X016965Y003380D01*
X016801Y003211D01*
X016632Y003047D01*
X016460Y002886D01*
X016283Y002730D01*
X016103Y002578D01*
X015919Y002431D01*
X015731Y002288D01*
X015540Y002150D01*
X015346Y002017D01*
X015149Y001889D01*
X014948Y001765D01*
X014744Y001646D01*
X014538Y001533D01*
X014329Y001424D01*
X014117Y001321D01*
X013903Y001223D01*
X013686Y001130D01*
X013467Y001042D01*
X013246Y000960D01*
X013024Y000884D01*
X012799Y000812D01*
X012573Y000747D01*
X012345Y000687D01*
X012116Y000632D01*
X011885Y000583D01*
X011653Y000540D01*
X011421Y000503D01*
X011187Y000471D01*
X010953Y000445D01*
X010718Y000425D01*
X010483Y000411D01*
X010248Y000402D01*
X010012Y000399D01*
X009776Y000402D01*
X009541Y000411D01*
X009306Y000425D01*
X009071Y000445D01*
X008837Y000471D01*
X008603Y000503D01*
X008371Y000540D01*
X008139Y000583D01*
X007908Y000632D01*
X007679Y000687D01*
X007451Y000747D01*
X007225Y000812D01*
X007000Y000884D01*
X006778Y000960D01*
X006557Y001042D01*
X006338Y001130D01*
X006121Y001223D01*
X005907Y001321D01*
X005695Y001424D01*
X005486Y001533D01*
X005280Y001646D01*
X005076Y001765D01*
X004875Y001889D01*
X004678Y002017D01*
X004484Y002150D01*
X004293Y002288D01*
X004105Y002431D01*
X003921Y002578D01*
X003741Y002730D01*
X003564Y002886D01*
X003392Y003047D01*
X003223Y003211D01*
X003059Y003380D01*
X002898Y003552D01*
X002742Y003729D01*
X002590Y003909D01*
X002443Y004093D01*
X002300Y004281D01*
X002162Y004472D01*
X002029Y004666D01*
X001901Y004863D01*
X001777Y005064D01*
X001658Y005268D01*
X001545Y005474D01*
X001436Y005683D01*
X001333Y005895D01*
X001235Y006109D01*
X001142Y006326D01*
X001054Y006545D01*
X000972Y006766D01*
X000896Y006988D01*
X000824Y007213D01*
X000759Y007439D01*
X000699Y007667D01*
X000644Y007896D01*
X000595Y008127D01*
X000552Y008359D01*
X000515Y008591D01*
X000483Y008825D01*
X000457Y009059D01*
X000437Y009294D01*
X000423Y009529D01*
X000414Y009764D01*
X000411Y010000D01*
D12*
X004503Y007360D02*
X004503Y007252D01*
X004611Y007143D01*
X004720Y007143D01*
X004937Y007360D01*
X004937Y007469D01*
X004828Y007577D01*
X004720Y007577D01*
X005549Y006639D02*
X005332Y006422D01*
X005495Y006585D02*
X005712Y006368D01*
X005766Y006422D02*
X005766Y006639D01*
X005549Y006639D01*
X005766Y006422D02*
X005549Y006205D01*
X004053Y004817D02*
X004053Y004709D01*
X003836Y004492D01*
X003727Y004492D01*
X003619Y004600D01*
X003619Y004709D01*
X003836Y004926D02*
X003944Y004926D01*
X004053Y004817D01*
X003169Y005592D02*
X002952Y005375D01*
X002843Y005375D01*
X002735Y005484D01*
X002735Y005592D01*
X002952Y005809D02*
X003060Y005809D01*
X003169Y005701D01*
X003169Y005592D01*
X009162Y015520D02*
X009085Y015597D01*
X009162Y015520D02*
X009315Y015520D01*
X009392Y015597D01*
X009392Y015904D01*
X009315Y015980D01*
X009162Y015980D01*
X009085Y015904D01*
X010335Y015904D02*
X010412Y015980D01*
X010565Y015980D01*
X010642Y015904D01*
X010642Y015597D01*
X010565Y015520D01*
X010412Y015520D01*
X010335Y015597D01*
X010335Y018020D02*
X010335Y018327D01*
X010488Y018480D01*
X010642Y018327D01*
X010642Y018020D01*
X010642Y018250D02*
X010335Y018250D01*
X009392Y018097D02*
X009315Y018020D01*
X009162Y018020D01*
X009085Y018097D01*
X009392Y018097D02*
X009392Y018404D01*
X009315Y018480D01*
X009162Y018480D01*
X009085Y018404D01*
X014773Y007254D02*
X014773Y007037D01*
X014990Y006820D01*
X014827Y006983D02*
X015044Y007200D01*
X014990Y007254D02*
X015207Y007037D01*
X014990Y007254D02*
X014773Y007254D01*
X014052Y006425D02*
X013943Y006425D01*
X013835Y006316D01*
X013835Y006208D01*
X014052Y006425D02*
X014269Y006208D01*
X014269Y006099D01*
X014160Y005991D01*
X014052Y005991D01*
X015602Y004549D02*
X015711Y004657D01*
X015819Y004657D01*
X016036Y004440D01*
X016036Y004332D01*
X015928Y004223D01*
X015819Y004223D01*
X015602Y004440D02*
X015602Y004549D01*
X016486Y005324D02*
X016486Y005432D01*
X016595Y005541D01*
X016703Y005541D01*
X016920Y005324D01*
X016920Y005215D01*
X016812Y005107D01*
X016703Y005107D01*
D13*
G36*
X015302Y005800D02*
X015412Y005910D01*
X015522Y005800D01*
X015412Y005690D01*
X015302Y005800D01*
G37*
G36*
X004312Y006110D02*
X004422Y006000D01*
X004312Y005890D01*
X004202Y006000D01*
X004312Y006110D01*
G37*
D14*
X009912Y017000D03*
M02*
