G75*
%MOIN*%
%OFA0B0*%
%FSLAX24Y24*%
%IPPOS*%
%LPD*%
%AMOC8*
5,1,8,0,0,1.08239X$1,22.5*
%
%ADD10C,0.0000*%
%ADD11C,0.0160*%
%ADD12C,0.0100*%
%ADD13C,0.0080*%
%ADD14C,0.0040*%
%ADD15C,0.0060*%
D10*
X009172Y000100D02*
X010109Y000100D01*
X009172Y000100D02*
X008944Y000112D01*
X008716Y000130D01*
X008488Y000153D01*
X008261Y000182D01*
X008035Y000216D01*
X007810Y000255D01*
X007586Y000300D01*
X007363Y000351D01*
X007141Y000407D01*
X006921Y000468D01*
X006702Y000534D01*
X006485Y000606D01*
X006270Y000683D01*
X006056Y000765D01*
X005845Y000852D01*
X005636Y000945D01*
X005429Y001042D01*
X005225Y001144D01*
X005023Y001252D01*
X004823Y001364D01*
X004627Y001480D01*
X004433Y001602D01*
X004243Y001728D01*
X004055Y001859D01*
X003871Y001994D01*
X003690Y002134D01*
X003512Y002278D01*
X003338Y002426D01*
X003168Y002579D01*
X003001Y002735D01*
X002838Y002896D01*
X002679Y003060D01*
X002525Y003228D01*
X002374Y003400D01*
X002227Y003576D01*
X002085Y003755D01*
X001947Y003937D01*
X001814Y004123D01*
X001685Y004312D01*
X001560Y004503D01*
X001441Y004698D01*
X001326Y004896D01*
X001216Y005096D01*
X001110Y005299D01*
X001010Y005505D01*
X000915Y005712D01*
X000824Y005922D01*
X000739Y006135D01*
X000659Y006349D01*
X000584Y006565D01*
X000515Y006783D01*
X000450Y007002D01*
X000391Y007223D01*
X000338Y007445D01*
X000290Y007669D01*
X000247Y007893D01*
X000209Y008119D01*
X000177Y008345D01*
X000151Y008572D01*
X000130Y008800D01*
X000115Y009028D01*
X000105Y009256D01*
X000100Y009485D01*
X000101Y009714D01*
X000108Y009942D01*
X010110Y000100D02*
X010348Y000103D01*
X010585Y000112D01*
X010822Y000127D01*
X011059Y000148D01*
X011295Y000174D01*
X011530Y000206D01*
X011765Y000244D01*
X011998Y000288D01*
X012231Y000337D01*
X012462Y000392D01*
X012692Y000453D01*
X012920Y000519D01*
X013146Y000591D01*
X013371Y000669D01*
X013594Y000752D01*
X013814Y000840D01*
X014033Y000934D01*
X014249Y001033D01*
X014462Y001137D01*
X014673Y001247D01*
X014881Y001361D01*
X015086Y001481D01*
X015288Y001606D01*
X015488Y001735D01*
X015683Y001870D01*
X015876Y002009D01*
X016065Y002153D01*
X016251Y002302D01*
X016432Y002455D01*
X016610Y002612D01*
X016784Y002774D01*
X016954Y002940D01*
X017120Y003110D01*
X017282Y003284D01*
X017440Y003462D01*
X017593Y003644D01*
X017741Y003829D01*
X017885Y004018D01*
X018024Y004211D01*
X018159Y004407D01*
X018288Y004606D01*
X018413Y004808D01*
X018533Y005013D01*
X018647Y005221D01*
X018757Y005432D01*
X018861Y005646D01*
X018960Y005862D01*
X019054Y006080D01*
X019142Y006301D01*
X019225Y006523D01*
X019303Y006748D01*
X019375Y006974D01*
X019441Y007202D01*
X019502Y007432D01*
X019557Y007663D01*
X019606Y007896D01*
X019650Y008129D01*
X019688Y008364D01*
X019720Y008599D01*
X019746Y008835D01*
X019767Y009072D01*
X019782Y009309D01*
X019791Y009547D01*
X019794Y009784D01*
X019793Y009784D02*
X019793Y010184D01*
X019790Y010420D01*
X019781Y010655D01*
X019767Y010890D01*
X019747Y011125D01*
X019721Y011359D01*
X019689Y011593D01*
X019652Y011825D01*
X019609Y012057D01*
X019560Y012288D01*
X019505Y012517D01*
X019445Y012745D01*
X019380Y012971D01*
X019308Y013196D01*
X019232Y013418D01*
X019150Y013639D01*
X019062Y013858D01*
X018969Y014075D01*
X018871Y014289D01*
X018768Y014501D01*
X018659Y014710D01*
X018546Y014916D01*
X018427Y015120D01*
X018303Y015321D01*
X018175Y015518D01*
X018042Y015712D01*
X017904Y015903D01*
X017761Y016091D01*
X017614Y016275D01*
X017462Y016455D01*
X017306Y016632D01*
X017145Y016804D01*
X016981Y016973D01*
X016812Y017137D01*
X016640Y017298D01*
X016463Y017454D01*
X016283Y017606D01*
X016099Y017753D01*
X015911Y017896D01*
X015720Y018034D01*
X015526Y018167D01*
X015329Y018295D01*
X015128Y018419D01*
X014924Y018538D01*
X014718Y018651D01*
X014509Y018760D01*
X014297Y018863D01*
X014083Y018961D01*
X013866Y019054D01*
X013647Y019142D01*
X013426Y019224D01*
X013204Y019300D01*
X012979Y019372D01*
X012753Y019437D01*
X012525Y019497D01*
X012296Y019552D01*
X012065Y019601D01*
X011833Y019644D01*
X011601Y019681D01*
X011367Y019713D01*
X011133Y019739D01*
X010898Y019759D01*
X010663Y019773D01*
X010428Y019782D01*
X010192Y019785D01*
X010191Y019785D02*
X009948Y019782D01*
X009704Y019773D01*
X009461Y019759D01*
X009218Y019738D01*
X008976Y019712D01*
X008734Y019679D01*
X008493Y019641D01*
X008254Y019597D01*
X008015Y019548D01*
X007778Y019492D01*
X007542Y019431D01*
X007307Y019364D01*
X007074Y019292D01*
X006844Y019214D01*
X006615Y019130D01*
X006388Y019041D01*
X006163Y018946D01*
X005941Y018846D01*
X005721Y018741D01*
X005504Y018630D01*
X005289Y018514D01*
X005078Y018393D01*
X004869Y018267D01*
X004664Y018136D01*
X004461Y018000D01*
X004262Y017859D01*
X004067Y017713D01*
X003875Y017563D01*
X003687Y017408D01*
X003503Y017249D01*
X003322Y017085D01*
X003146Y016917D01*
X002973Y016745D01*
X002805Y016568D01*
X002641Y016388D01*
X002482Y016203D01*
X002327Y016015D01*
X002177Y015823D01*
X002031Y015628D01*
X001890Y015429D01*
X001754Y015226D01*
X001623Y015021D01*
X001497Y014812D01*
X001376Y014601D01*
X001260Y014386D01*
X001149Y014169D01*
X001044Y013949D01*
X000944Y013727D01*
X000849Y013502D01*
X000760Y013276D01*
X000676Y013047D01*
X000598Y012816D01*
X000526Y012583D01*
X000459Y012349D01*
X000398Y012113D01*
X000342Y011875D01*
X000293Y011637D01*
X000249Y011397D01*
X000211Y011156D01*
X000178Y010914D01*
X000152Y010672D01*
X000131Y010429D01*
X000117Y010186D01*
X000108Y009942D01*
D11*
X000347Y009801D02*
X000350Y010037D01*
X000359Y010272D01*
X000373Y010507D01*
X000393Y010742D01*
X000419Y010976D01*
X000451Y011210D01*
X000488Y011442D01*
X000531Y011674D01*
X000580Y011904D01*
X000635Y012134D01*
X000695Y012361D01*
X000760Y012588D01*
X000832Y012812D01*
X000908Y013035D01*
X000990Y013256D01*
X001078Y013475D01*
X001171Y013691D01*
X001269Y013906D01*
X001372Y014117D01*
X001481Y014326D01*
X001594Y014533D01*
X001713Y014736D01*
X001836Y014937D01*
X001965Y015134D01*
X002098Y015329D01*
X002236Y015520D01*
X002379Y015707D01*
X002526Y015891D01*
X002678Y016071D01*
X002834Y016248D01*
X002994Y016421D01*
X003159Y016589D01*
X003327Y016754D01*
X003500Y016914D01*
X003677Y017070D01*
X003857Y017222D01*
X004041Y017369D01*
X004228Y017512D01*
X004419Y017650D01*
X004614Y017783D01*
X004811Y017912D01*
X005012Y018035D01*
X005215Y018154D01*
X005422Y018267D01*
X005631Y018376D01*
X005842Y018479D01*
X006057Y018577D01*
X006273Y018670D01*
X006492Y018758D01*
X006713Y018840D01*
X006936Y018916D01*
X007160Y018988D01*
X007387Y019053D01*
X007614Y019113D01*
X007844Y019168D01*
X008074Y019217D01*
X008306Y019260D01*
X008538Y019297D01*
X008772Y019329D01*
X009006Y019355D01*
X009241Y019375D01*
X009476Y019389D01*
X009711Y019398D01*
X009947Y019401D01*
X010183Y019398D01*
X010418Y019389D01*
X010653Y019375D01*
X010888Y019355D01*
X011122Y019329D01*
X011356Y019297D01*
X011588Y019260D01*
X011820Y019217D01*
X012050Y019168D01*
X012280Y019113D01*
X012507Y019053D01*
X012734Y018988D01*
X012958Y018916D01*
X013181Y018840D01*
X013402Y018758D01*
X013621Y018670D01*
X013837Y018577D01*
X014052Y018479D01*
X014263Y018376D01*
X014472Y018267D01*
X014679Y018154D01*
X014882Y018035D01*
X015083Y017912D01*
X015280Y017783D01*
X015475Y017650D01*
X015666Y017512D01*
X015853Y017369D01*
X016037Y017222D01*
X016217Y017070D01*
X016394Y016914D01*
X016567Y016754D01*
X016735Y016589D01*
X016900Y016421D01*
X017060Y016248D01*
X017216Y016071D01*
X017368Y015891D01*
X017515Y015707D01*
X017658Y015520D01*
X017796Y015329D01*
X017929Y015134D01*
X018058Y014937D01*
X018181Y014736D01*
X018300Y014533D01*
X018413Y014326D01*
X018522Y014117D01*
X018625Y013906D01*
X018723Y013691D01*
X018816Y013475D01*
X018904Y013256D01*
X018986Y013035D01*
X019062Y012812D01*
X019134Y012588D01*
X019199Y012361D01*
X019259Y012134D01*
X019314Y011904D01*
X019363Y011674D01*
X019406Y011442D01*
X019443Y011210D01*
X019475Y010976D01*
X019501Y010742D01*
X019521Y010507D01*
X019535Y010272D01*
X019544Y010037D01*
X019547Y009801D01*
X019544Y009565D01*
X019535Y009330D01*
X019521Y009095D01*
X019501Y008860D01*
X019475Y008626D01*
X019443Y008392D01*
X019406Y008160D01*
X019363Y007928D01*
X019314Y007698D01*
X019259Y007468D01*
X019199Y007241D01*
X019134Y007014D01*
X019062Y006790D01*
X018986Y006567D01*
X018904Y006346D01*
X018816Y006127D01*
X018723Y005911D01*
X018625Y005696D01*
X018522Y005485D01*
X018413Y005276D01*
X018300Y005069D01*
X018181Y004866D01*
X018058Y004665D01*
X017929Y004468D01*
X017796Y004273D01*
X017658Y004082D01*
X017515Y003895D01*
X017368Y003711D01*
X017216Y003531D01*
X017060Y003354D01*
X016900Y003181D01*
X016735Y003013D01*
X016567Y002848D01*
X016394Y002688D01*
X016217Y002532D01*
X016037Y002380D01*
X015853Y002233D01*
X015666Y002090D01*
X015475Y001952D01*
X015280Y001819D01*
X015083Y001690D01*
X014882Y001567D01*
X014679Y001448D01*
X014472Y001335D01*
X014263Y001226D01*
X014052Y001123D01*
X013837Y001025D01*
X013621Y000932D01*
X013402Y000844D01*
X013181Y000762D01*
X012958Y000686D01*
X012734Y000614D01*
X012507Y000549D01*
X012280Y000489D01*
X012050Y000434D01*
X011820Y000385D01*
X011588Y000342D01*
X011356Y000305D01*
X011122Y000273D01*
X010888Y000247D01*
X010653Y000227D01*
X010418Y000213D01*
X010183Y000204D01*
X009947Y000201D01*
X009711Y000204D01*
X009476Y000213D01*
X009241Y000227D01*
X009006Y000247D01*
X008772Y000273D01*
X008538Y000305D01*
X008306Y000342D01*
X008074Y000385D01*
X007844Y000434D01*
X007614Y000489D01*
X007387Y000549D01*
X007160Y000614D01*
X006936Y000686D01*
X006713Y000762D01*
X006492Y000844D01*
X006273Y000932D01*
X006057Y001025D01*
X005842Y001123D01*
X005631Y001226D01*
X005422Y001335D01*
X005215Y001448D01*
X005012Y001567D01*
X004811Y001690D01*
X004614Y001819D01*
X004419Y001952D01*
X004228Y002090D01*
X004041Y002233D01*
X003857Y002380D01*
X003677Y002532D01*
X003500Y002688D01*
X003327Y002848D01*
X003159Y003013D01*
X002994Y003181D01*
X002834Y003354D01*
X002678Y003531D01*
X002526Y003711D01*
X002379Y003895D01*
X002236Y004082D01*
X002098Y004273D01*
X001965Y004468D01*
X001836Y004665D01*
X001713Y004866D01*
X001594Y005069D01*
X001481Y005276D01*
X001372Y005485D01*
X001269Y005696D01*
X001171Y005911D01*
X001078Y006127D01*
X000990Y006346D01*
X000908Y006567D01*
X000832Y006790D01*
X000760Y007014D01*
X000695Y007241D01*
X000635Y007468D01*
X000580Y007698D01*
X000531Y007928D01*
X000488Y008160D01*
X000451Y008392D01*
X000419Y008626D01*
X000393Y008860D01*
X000373Y009095D01*
X000359Y009330D01*
X000350Y009565D01*
X000347Y009801D01*
D12*
X005723Y015901D02*
X005723Y016401D01*
X005557Y016401D02*
X005890Y016401D01*
X006109Y016318D02*
X006109Y015984D01*
X006192Y015901D01*
X006359Y015901D01*
X006443Y015984D01*
X006443Y016318D01*
X006359Y016401D01*
X006192Y016401D01*
X006109Y016318D01*
X006662Y016401D02*
X006662Y015984D01*
X006745Y015901D01*
X006912Y015901D01*
X006995Y015984D01*
X006995Y016401D01*
X007214Y016318D02*
X007214Y015984D01*
X007297Y015901D01*
X007464Y015901D01*
X007548Y015984D01*
X007766Y015901D02*
X007766Y016401D01*
X007766Y016151D02*
X008100Y016151D01*
X008100Y016401D02*
X008100Y015901D01*
X007548Y016318D02*
X007464Y016401D01*
X007297Y016401D01*
X007214Y016318D01*
X009603Y013281D02*
X009770Y013115D01*
X009770Y012781D01*
X009989Y012864D02*
X010072Y012781D01*
X010239Y012781D01*
X010323Y012864D01*
X010542Y012864D02*
X010625Y012781D01*
X010792Y012781D01*
X010875Y012864D01*
X011094Y012781D02*
X011428Y012781D01*
X011646Y012781D02*
X011980Y012781D01*
X011646Y012781D02*
X011646Y013281D01*
X011428Y013281D02*
X011094Y013281D01*
X011094Y012781D01*
X011094Y013031D02*
X011261Y013031D01*
X010875Y013198D02*
X010792Y013281D01*
X010625Y013281D01*
X010542Y013198D01*
X010542Y012864D01*
X010323Y013198D02*
X010239Y013281D01*
X010072Y013281D01*
X009989Y013198D01*
X009989Y012864D01*
X009770Y013031D02*
X009437Y013031D01*
X009437Y013115D02*
X009603Y013281D01*
X009437Y013115D02*
X009437Y012781D01*
X006771Y009625D02*
X006948Y009448D01*
X006948Y009330D01*
X006830Y009212D01*
X006712Y009212D01*
X006535Y009389D01*
X006417Y009271D02*
X006771Y009625D01*
X007103Y009175D02*
X006867Y008939D01*
X006867Y008821D01*
X006985Y008703D01*
X007103Y008703D01*
X007339Y008939D01*
X007339Y009057D01*
X007221Y009175D01*
X007103Y009175D01*
X007552Y008844D02*
X007199Y008490D01*
X007435Y008490D01*
X007435Y008254D01*
X007788Y008608D01*
X007943Y008453D02*
X007589Y008099D01*
X007825Y007863D01*
X007980Y007708D02*
X008334Y008062D01*
X008511Y007885D01*
X008511Y007767D01*
X008393Y007649D01*
X008275Y007649D01*
X008098Y007826D01*
X008216Y007708D02*
X008216Y007472D01*
X008179Y008217D02*
X007943Y008453D01*
X007766Y008276D02*
X007884Y008158D01*
X010634Y007418D02*
X010870Y007418D01*
X010870Y007654D01*
X011224Y007300D01*
X011378Y007455D02*
X011496Y007573D01*
X011437Y007514D02*
X011084Y007868D01*
X011025Y007809D02*
X011143Y007927D01*
X011344Y008010D02*
X011580Y007774D01*
X011698Y007774D01*
X011816Y007892D01*
X011816Y008010D01*
X012030Y008106D02*
X011676Y008460D01*
X011853Y008637D01*
X011971Y008637D01*
X012089Y008519D01*
X012089Y008401D01*
X011912Y008224D01*
X012030Y008342D02*
X012265Y008342D01*
X012361Y008556D02*
X012479Y008556D01*
X012597Y008674D01*
X012597Y008792D01*
X012361Y009028D01*
X012243Y009028D01*
X012125Y008910D01*
X012125Y008792D01*
X012361Y008556D01*
X011580Y008246D02*
X011462Y008246D01*
X011344Y008128D01*
X011344Y008010D01*
X010634Y007418D02*
X010988Y007064D01*
X014230Y013881D02*
X014397Y013881D01*
X014480Y013964D01*
X014699Y013881D02*
X014699Y014381D01*
X014480Y014298D02*
X014397Y014381D01*
X014230Y014381D01*
X014147Y014298D01*
X014147Y013964D01*
X014230Y013881D01*
X014699Y014131D02*
X015033Y014131D01*
X015252Y014131D02*
X015585Y014131D01*
X015585Y014215D02*
X015585Y013881D01*
X015804Y013881D02*
X015804Y014381D01*
X016138Y013881D01*
X016138Y014381D01*
X016356Y014298D02*
X016356Y013964D01*
X016440Y013881D01*
X016607Y013881D01*
X016690Y013964D01*
X016690Y014131D01*
X016523Y014131D01*
X016356Y014298D02*
X016440Y014381D01*
X016607Y014381D01*
X016690Y014298D01*
X016909Y014381D02*
X016909Y013881D01*
X017243Y013881D01*
X017076Y014131D02*
X016909Y014131D01*
X016909Y014381D02*
X017243Y014381D01*
X015585Y014215D02*
X015418Y014381D01*
X015252Y014215D01*
X015252Y013881D01*
X015033Y013881D02*
X015033Y014381D01*
D13*
X009575Y007191D02*
X009577Y007218D01*
X009583Y007245D01*
X009592Y007271D01*
X009605Y007295D01*
X009622Y007317D01*
X009641Y007336D01*
X009663Y007353D01*
X009687Y007366D01*
X009713Y007375D01*
X009740Y007381D01*
X009767Y007383D01*
X009794Y007381D01*
X009821Y007375D01*
X009847Y007366D01*
X009871Y007353D01*
X009893Y007336D01*
X009912Y007317D01*
X009929Y007295D01*
X009942Y007271D01*
X009951Y007245D01*
X009957Y007218D01*
X009959Y007191D01*
X009957Y007164D01*
X009951Y007137D01*
X009942Y007111D01*
X009929Y007087D01*
X009912Y007065D01*
X009893Y007046D01*
X009871Y007029D01*
X009847Y007016D01*
X009821Y007007D01*
X009794Y007001D01*
X009767Y006999D01*
X009740Y007001D01*
X009713Y007007D01*
X009687Y007016D01*
X009663Y007029D01*
X009641Y007046D01*
X009622Y007065D01*
X009605Y007087D01*
X009592Y007111D01*
X009583Y007137D01*
X009577Y007164D01*
X009575Y007191D01*
X010607Y006461D02*
X010797Y006651D01*
X011457Y005941D01*
X011477Y005921D02*
X010797Y005231D01*
X010077Y005931D01*
X010777Y006651D01*
X006447Y009121D02*
X005687Y008421D01*
X004957Y009171D01*
X005667Y009851D01*
X005687Y009851D02*
X006447Y009121D01*
D14*
X005501Y011049D02*
X005332Y011219D01*
X005671Y011219D01*
X005714Y011261D01*
X005714Y011346D01*
X005629Y011431D01*
X005544Y011431D01*
X005453Y011521D02*
X005114Y011521D01*
X005114Y011437D01*
X005199Y011352D01*
X005283Y011352D01*
X005453Y011521D01*
X005453Y011606D01*
X005368Y011691D01*
X005283Y011691D01*
X005114Y011521D01*
X005023Y011612D02*
X004938Y011612D01*
X004853Y011697D01*
X004853Y011782D01*
X004720Y011830D02*
X004720Y012000D01*
X004763Y011957D02*
X004635Y012085D01*
X004550Y012000D02*
X004805Y012255D01*
X004932Y012127D01*
X004932Y012042D01*
X004848Y011957D01*
X004763Y011957D01*
X005023Y011952D02*
X005108Y011952D01*
X005193Y011867D01*
X005193Y011782D01*
X005150Y011739D01*
X005065Y011739D01*
X005065Y011655D01*
X005023Y011612D01*
X005065Y011739D02*
X005023Y011782D01*
X006083Y012717D02*
X006083Y012802D01*
X006083Y012717D02*
X006168Y012632D01*
X006253Y012632D01*
X006295Y012675D01*
X006295Y012759D01*
X006253Y012802D01*
X006295Y012759D02*
X006380Y012759D01*
X006423Y012802D01*
X006423Y012887D01*
X006338Y012972D01*
X006253Y012972D01*
X006162Y013062D02*
X006162Y013147D01*
X006035Y013275D01*
X005780Y013020D01*
X005865Y013105D02*
X005993Y012977D01*
X006078Y012977D01*
X006162Y013062D01*
X005950Y013020D02*
X005950Y012850D01*
X006344Y012541D02*
X006344Y012457D01*
X006429Y012372D01*
X006513Y012372D01*
X006683Y012541D01*
X006344Y012541D01*
X006513Y012711D01*
X006598Y012711D01*
X006683Y012626D01*
X006683Y012541D01*
X006774Y012451D02*
X006859Y012451D01*
X006944Y012366D01*
X006944Y012281D01*
X006901Y012239D01*
X006816Y012239D01*
X006816Y012154D01*
X006774Y012111D01*
X006689Y012111D01*
X006604Y012196D01*
X006604Y012281D01*
X006774Y012281D02*
X006816Y012239D01*
X007739Y013141D02*
X007994Y013396D01*
X007739Y013396D01*
X007909Y013226D01*
X007733Y013571D02*
X007563Y013402D01*
X007479Y013402D01*
X007394Y013487D01*
X007394Y013571D01*
X007733Y013571D01*
X007733Y013656D01*
X007648Y013741D01*
X007563Y013741D01*
X007394Y013571D01*
X007303Y013662D02*
X007218Y013662D01*
X007133Y013747D01*
X007133Y013832D01*
X007000Y013880D02*
X007000Y014050D01*
X007043Y014007D02*
X006915Y014135D01*
X006830Y014050D02*
X007085Y014305D01*
X007212Y014177D01*
X007212Y014092D01*
X007128Y014007D01*
X007043Y014007D01*
X007303Y014002D02*
X007388Y014002D01*
X007473Y013917D01*
X007473Y013832D01*
X007430Y013789D01*
X007345Y013789D01*
X007345Y013705D01*
X007303Y013662D01*
X007345Y013789D02*
X007303Y013832D01*
X010437Y011343D02*
X010437Y011259D01*
X010522Y011174D01*
X010607Y011174D01*
X010820Y011386D01*
X010868Y011253D02*
X010953Y011253D01*
X011037Y011168D01*
X011037Y011083D01*
X010995Y011041D01*
X010910Y011041D01*
X010910Y010956D01*
X010868Y010913D01*
X010783Y010913D01*
X010698Y010998D01*
X010698Y011083D01*
X010868Y011083D02*
X010910Y011041D01*
X010958Y010823D02*
X011128Y010992D01*
X011213Y010992D01*
X011298Y010908D01*
X011298Y010823D01*
X010958Y010823D01*
X010958Y010738D01*
X011043Y010653D01*
X011128Y010653D01*
X011298Y010823D01*
X011346Y010690D02*
X011516Y010690D01*
X011261Y010435D01*
X011176Y010520D02*
X011346Y010350D01*
X010437Y011343D02*
X010650Y011556D01*
X012940Y012410D02*
X013195Y012665D01*
X013322Y012537D01*
X013322Y012452D01*
X013238Y012367D01*
X013153Y012367D01*
X013025Y012495D01*
X013110Y012410D02*
X013110Y012240D01*
X013243Y012192D02*
X013243Y012107D01*
X013328Y012022D01*
X013413Y012022D01*
X013455Y012065D01*
X013455Y012149D01*
X013413Y012192D01*
X013455Y012149D02*
X013540Y012149D01*
X013583Y012192D01*
X013583Y012277D01*
X013498Y012362D01*
X013413Y012362D01*
X013673Y012101D02*
X013504Y011931D01*
X013504Y011847D01*
X013589Y011762D01*
X013673Y011762D01*
X013843Y011931D01*
X013504Y011931D01*
X013673Y012101D02*
X013758Y012101D01*
X013843Y012016D01*
X013843Y011931D01*
X013976Y011883D02*
X013849Y011756D01*
X013976Y011714D01*
X014019Y011671D01*
X014019Y011586D01*
X013934Y011501D01*
X013849Y011501D01*
X013764Y011586D01*
X013764Y011671D01*
X013976Y011883D02*
X014146Y011714D01*
X008208Y005812D02*
X008292Y005727D01*
X008292Y005642D01*
X008383Y005552D02*
X008468Y005552D01*
X008553Y005467D01*
X008553Y005382D01*
X008510Y005339D01*
X008425Y005339D01*
X008425Y005255D01*
X008383Y005212D01*
X008298Y005212D01*
X008213Y005297D01*
X008213Y005382D01*
X008123Y005473D02*
X008038Y005473D01*
X007953Y005557D01*
X007953Y005642D01*
X008123Y005812D01*
X008208Y005812D01*
X008383Y005382D02*
X008425Y005339D01*
X008474Y005121D02*
X008813Y005121D01*
X008643Y004952D01*
X008559Y004952D01*
X008474Y005037D01*
X008474Y005121D01*
X008643Y005291D01*
X008728Y005291D01*
X008813Y005206D01*
X008813Y005121D01*
X008861Y004988D02*
X009031Y004988D01*
X008777Y004734D01*
X008861Y004649D02*
X008692Y004819D01*
X004321Y009919D02*
X004152Y010089D01*
X004237Y010004D02*
X004491Y010258D01*
X004321Y010258D01*
X004273Y010391D02*
X003934Y010391D01*
X003934Y010307D01*
X004019Y010222D01*
X004103Y010222D01*
X004273Y010391D01*
X004273Y010476D01*
X004188Y010561D01*
X004103Y010561D01*
X003934Y010391D01*
X003843Y010482D02*
X003758Y010482D01*
X003673Y010567D01*
X003673Y010652D01*
X003540Y010700D02*
X003540Y010870D01*
X003583Y010827D02*
X003455Y010955D01*
X003370Y010870D02*
X003625Y011125D01*
X003752Y010997D01*
X003752Y010912D01*
X003668Y010827D01*
X003583Y010827D01*
X003843Y010822D02*
X003928Y010822D01*
X004013Y010737D01*
X004013Y010652D01*
X003970Y010609D01*
X003885Y010609D01*
X003885Y010525D01*
X003843Y010482D01*
X003885Y010609D02*
X003843Y010652D01*
D15*
X006590Y007531D02*
X006943Y007177D01*
X007297Y007177D01*
X007297Y006824D01*
X007650Y006470D01*
X008004Y006470D01*
X008358Y006824D01*
X008358Y007177D01*
X008004Y007531D01*
X007650Y007531D01*
X007297Y007177D01*
X007650Y007531D02*
X007650Y007884D01*
X007297Y008238D01*
X006943Y008238D01*
X006590Y007884D01*
X006236Y007884D01*
X005883Y008238D01*
X005883Y008591D01*
X005529Y008591D01*
X005176Y008945D01*
X005176Y009298D01*
X005529Y009652D01*
X005883Y009652D01*
X006236Y009298D01*
X006236Y008945D01*
X006590Y008945D01*
X006943Y008591D01*
X006943Y008238D01*
X006590Y007884D02*
X006590Y007531D01*
X005883Y008591D02*
X006236Y008945D01*
X007811Y008984D02*
X010073Y011247D01*
X010074Y011247D02*
X010092Y011262D01*
X010112Y011275D01*
X010134Y011284D01*
X010157Y011289D01*
X010180Y011291D01*
X010203Y011289D01*
X010226Y011284D01*
X010248Y011275D01*
X010268Y011262D01*
X010286Y011247D01*
X011162Y010370D01*
X011170Y010363D02*
X008695Y007888D01*
X008688Y007895D02*
X008391Y008192D01*
X008108Y008475D01*
X007811Y008772D01*
X007796Y008790D01*
X007783Y008810D01*
X007774Y008832D01*
X007769Y008855D01*
X007767Y008878D01*
X007769Y008901D01*
X007774Y008924D01*
X007783Y008946D01*
X007796Y008966D01*
X007811Y008984D01*
X008108Y008475D02*
X008128Y008493D01*
X008151Y008508D01*
X008176Y008520D01*
X008202Y008528D01*
X008229Y008533D01*
X008256Y008534D01*
X008283Y008531D01*
X008310Y008525D01*
X008335Y008515D01*
X008359Y008501D01*
X008380Y008485D01*
X008400Y008465D01*
X008416Y008444D01*
X008430Y008420D01*
X008440Y008395D01*
X008446Y008368D01*
X008449Y008341D01*
X008448Y008314D01*
X008443Y008287D01*
X008435Y008261D01*
X008423Y008236D01*
X008408Y008213D01*
X008390Y008193D01*
X008688Y007895D02*
X008706Y007880D01*
X008726Y007867D01*
X008748Y007858D01*
X008771Y007853D01*
X008794Y007851D01*
X008817Y007853D01*
X008840Y007858D01*
X008862Y007867D01*
X008882Y007880D01*
X008900Y007895D01*
X011162Y010158D01*
X011177Y010176D01*
X011190Y010196D01*
X011199Y010218D01*
X011204Y010241D01*
X011206Y010264D01*
X011204Y010287D01*
X011199Y010310D01*
X011190Y010332D01*
X011177Y010352D01*
X011162Y010370D01*
X011687Y010358D02*
X011900Y009931D01*
X012114Y010358D01*
X012331Y010465D02*
X012438Y010572D01*
X012651Y010572D01*
X012758Y010465D01*
X012331Y010038D01*
X012438Y009931D01*
X012651Y009931D01*
X012758Y010038D01*
X012758Y010465D01*
X012976Y010038D02*
X013082Y010038D01*
X013082Y009931D01*
X012976Y009931D01*
X012976Y010038D01*
X013298Y009931D02*
X013725Y009931D01*
X013511Y009931D02*
X013511Y010572D01*
X013298Y010358D01*
X013774Y009636D02*
X013774Y009282D01*
X014128Y008928D01*
X014481Y008928D01*
X014835Y009282D01*
X014835Y009636D01*
X014481Y009989D01*
X014128Y009989D01*
X013774Y009636D01*
X013774Y009282D02*
X013420Y009282D01*
X013067Y008928D01*
X013067Y008575D01*
X013420Y008221D01*
X013774Y008221D01*
X014128Y008575D01*
X014128Y008928D01*
X013420Y008221D02*
X013420Y007868D01*
X013067Y007514D01*
X012713Y007514D01*
X012713Y007161D01*
X012360Y006807D01*
X012006Y006807D01*
X012006Y006454D01*
X011653Y006100D01*
X011299Y006100D01*
X011299Y005746D01*
X010946Y005393D01*
X010592Y005393D01*
X010238Y005746D01*
X010238Y006100D01*
X010592Y006454D01*
X010946Y006454D01*
X010946Y006807D01*
X011299Y007161D01*
X011653Y007161D01*
X012006Y006807D01*
X011653Y007161D02*
X011653Y007514D01*
X012006Y007868D01*
X012360Y007868D01*
X012360Y008221D01*
X012713Y008575D01*
X013067Y008575D01*
X012360Y007868D02*
X012713Y007514D01*
X011299Y006100D02*
X010946Y006454D01*
X012331Y010038D02*
X012331Y010465D01*
X010897Y011934D02*
X010897Y012288D01*
X010543Y012641D01*
X010190Y012641D01*
X009836Y012288D01*
X009836Y011934D01*
X010190Y011581D01*
X010543Y011581D01*
X010897Y011934D01*
X007267Y015021D02*
X007267Y015521D01*
X007017Y015771D01*
X006517Y015771D01*
X006267Y015521D01*
X006267Y015021D01*
X006517Y014771D01*
X007017Y014771D01*
X007267Y015021D01*
X014987Y013471D02*
X014987Y012971D01*
X015237Y012721D01*
X015737Y012721D01*
X015987Y012971D01*
X015987Y013471D01*
X015737Y013721D01*
X015237Y013721D01*
X014987Y013471D01*
M02*
