G75*
%MOIN*%
%OFA0B0*%
%FSLAX24Y24*%
%IPPOS*%
%LPD*%
%AMOC8*
5,1,8,0,0,1.08239X$1,22.5*
%
%ADD10C,0.0000*%
%ADD11R,0.0290X0.0010*%
%ADD12R,0.0050X0.0010*%
%ADD13R,0.0900X0.0010*%
%ADD14R,0.0410X0.0010*%
%ADD15R,0.1310X0.0010*%
%ADD16R,0.0060X0.0010*%
%ADD17R,0.0950X0.0010*%
%ADD18R,0.0500X0.0010*%
%ADD19R,0.1330X0.0010*%
%ADD20R,0.0070X0.0010*%
%ADD21R,0.0970X0.0010*%
%ADD22R,0.0570X0.0010*%
%ADD23R,0.1350X0.0010*%
%ADD24R,0.0980X0.0010*%
%ADD25R,0.0630X0.0010*%
%ADD26R,0.0330X0.0010*%
%ADD27R,0.0040X0.0010*%
%ADD28R,0.0990X0.0010*%
%ADD29R,0.0250X0.0010*%
%ADD30R,0.0230X0.0010*%
%ADD31R,0.0210X0.0010*%
%ADD32R,0.0200X0.0010*%
%ADD33R,0.0190X0.0010*%
%ADD34R,0.0170X0.0010*%
%ADD35R,0.0080X0.0010*%
%ADD36R,0.0160X0.0010*%
%ADD37R,0.0150X0.0010*%
%ADD38R,0.0140X0.0010*%
%ADD39R,0.0130X0.0010*%
%ADD40R,0.0120X0.0010*%
%ADD41R,0.0110X0.0010*%
%ADD42R,0.0100X0.0010*%
%ADD43R,0.0090X0.0010*%
%ADD44R,0.0020X0.0010*%
%ADD45R,0.0180X0.0010*%
%ADD46R,0.0280X0.0010*%
%ADD47R,0.0940X0.0010*%
%ADD48R,0.0340X0.0010*%
%ADD49R,0.0440X0.0010*%
%ADD50R,0.0530X0.0010*%
%ADD51R,0.0540X0.0010*%
%ADD52R,0.0930X0.0010*%
%ADD53R,0.0450X0.0010*%
%ADD54R,0.0220X0.0010*%
%ADD55R,0.0010X0.0010*%
%ADD56R,0.1150X0.0010*%
%ADD57R,0.1170X0.0010*%
%ADD58R,0.0650X0.0010*%
%ADD59R,0.0610X0.0010*%
%ADD60R,0.1180X0.0010*%
%ADD61R,0.0550X0.0010*%
%ADD62R,0.0480X0.0010*%
%ADD63R,0.0400X0.0010*%
%ADD64C,0.0640*%
%ADD65C,0.0128*%
%ADD66R,0.0315X0.0433*%
%ADD67OC8,0.0640*%
D10*
X009172Y000100D02*
X010109Y000100D01*
X009172Y000100D02*
X008944Y000112D01*
X008716Y000130D01*
X008488Y000153D01*
X008261Y000182D01*
X008035Y000216D01*
X007810Y000255D01*
X007586Y000300D01*
X007363Y000351D01*
X007141Y000407D01*
X006921Y000468D01*
X006702Y000534D01*
X006485Y000606D01*
X006270Y000683D01*
X006056Y000765D01*
X005845Y000852D01*
X005636Y000945D01*
X005429Y001042D01*
X005225Y001144D01*
X005023Y001252D01*
X004823Y001364D01*
X004627Y001480D01*
X004433Y001602D01*
X004243Y001728D01*
X004055Y001859D01*
X003871Y001994D01*
X003690Y002134D01*
X003512Y002278D01*
X003338Y002426D01*
X003168Y002579D01*
X003001Y002735D01*
X002838Y002896D01*
X002679Y003060D01*
X002525Y003228D01*
X002374Y003400D01*
X002227Y003576D01*
X002085Y003755D01*
X001947Y003937D01*
X001814Y004123D01*
X001685Y004312D01*
X001560Y004503D01*
X001441Y004698D01*
X001326Y004896D01*
X001216Y005096D01*
X001110Y005299D01*
X001010Y005505D01*
X000915Y005712D01*
X000824Y005922D01*
X000739Y006135D01*
X000659Y006349D01*
X000584Y006565D01*
X000515Y006783D01*
X000450Y007002D01*
X000391Y007223D01*
X000338Y007445D01*
X000290Y007669D01*
X000247Y007893D01*
X000209Y008119D01*
X000177Y008345D01*
X000151Y008572D01*
X000130Y008800D01*
X000115Y009028D01*
X000105Y009256D01*
X000100Y009485D01*
X000101Y009714D01*
X000108Y009942D01*
X010110Y000100D02*
X010348Y000103D01*
X010585Y000112D01*
X010822Y000127D01*
X011059Y000148D01*
X011295Y000174D01*
X011530Y000206D01*
X011765Y000244D01*
X011998Y000288D01*
X012231Y000337D01*
X012462Y000392D01*
X012692Y000453D01*
X012920Y000519D01*
X013146Y000591D01*
X013371Y000669D01*
X013594Y000752D01*
X013814Y000840D01*
X014033Y000934D01*
X014249Y001033D01*
X014462Y001137D01*
X014673Y001247D01*
X014881Y001361D01*
X015086Y001481D01*
X015288Y001606D01*
X015488Y001735D01*
X015683Y001870D01*
X015876Y002009D01*
X016065Y002153D01*
X016251Y002302D01*
X016432Y002455D01*
X016610Y002612D01*
X016784Y002774D01*
X016954Y002940D01*
X017120Y003110D01*
X017282Y003284D01*
X017440Y003462D01*
X017593Y003644D01*
X017741Y003829D01*
X017885Y004018D01*
X018024Y004211D01*
X018159Y004407D01*
X018288Y004606D01*
X018413Y004808D01*
X018533Y005013D01*
X018647Y005221D01*
X018757Y005432D01*
X018861Y005646D01*
X018960Y005862D01*
X019054Y006080D01*
X019142Y006301D01*
X019225Y006523D01*
X019303Y006748D01*
X019375Y006974D01*
X019441Y007202D01*
X019502Y007432D01*
X019557Y007663D01*
X019606Y007896D01*
X019650Y008129D01*
X019688Y008364D01*
X019720Y008599D01*
X019746Y008835D01*
X019767Y009072D01*
X019782Y009309D01*
X019791Y009547D01*
X019794Y009784D01*
X019793Y009784D02*
X019793Y010184D01*
X019790Y010420D01*
X019781Y010655D01*
X019767Y010890D01*
X019747Y011125D01*
X019721Y011359D01*
X019689Y011593D01*
X019652Y011825D01*
X019609Y012057D01*
X019560Y012288D01*
X019505Y012517D01*
X019445Y012745D01*
X019380Y012971D01*
X019308Y013196D01*
X019232Y013418D01*
X019150Y013639D01*
X019062Y013858D01*
X018969Y014075D01*
X018871Y014289D01*
X018768Y014501D01*
X018659Y014710D01*
X018546Y014916D01*
X018427Y015120D01*
X018303Y015321D01*
X018175Y015518D01*
X018042Y015712D01*
X017904Y015903D01*
X017761Y016091D01*
X017614Y016275D01*
X017462Y016455D01*
X017306Y016632D01*
X017145Y016804D01*
X016981Y016973D01*
X016812Y017137D01*
X016640Y017298D01*
X016463Y017454D01*
X016283Y017606D01*
X016099Y017753D01*
X015911Y017896D01*
X015720Y018034D01*
X015526Y018167D01*
X015329Y018295D01*
X015128Y018419D01*
X014924Y018538D01*
X014718Y018651D01*
X014509Y018760D01*
X014297Y018863D01*
X014083Y018961D01*
X013866Y019054D01*
X013647Y019142D01*
X013426Y019224D01*
X013204Y019300D01*
X012979Y019372D01*
X012753Y019437D01*
X012525Y019497D01*
X012296Y019552D01*
X012065Y019601D01*
X011833Y019644D01*
X011601Y019681D01*
X011367Y019713D01*
X011133Y019739D01*
X010898Y019759D01*
X010663Y019773D01*
X010428Y019782D01*
X010192Y019785D01*
X010191Y019785D02*
X009948Y019782D01*
X009704Y019773D01*
X009461Y019759D01*
X009218Y019738D01*
X008976Y019712D01*
X008734Y019679D01*
X008493Y019641D01*
X008254Y019597D01*
X008015Y019548D01*
X007778Y019492D01*
X007542Y019431D01*
X007307Y019364D01*
X007074Y019292D01*
X006844Y019214D01*
X006615Y019130D01*
X006388Y019041D01*
X006163Y018946D01*
X005941Y018846D01*
X005721Y018741D01*
X005504Y018630D01*
X005289Y018514D01*
X005078Y018393D01*
X004869Y018267D01*
X004664Y018136D01*
X004461Y018000D01*
X004262Y017859D01*
X004067Y017713D01*
X003875Y017563D01*
X003687Y017408D01*
X003503Y017249D01*
X003322Y017085D01*
X003146Y016917D01*
X002973Y016745D01*
X002805Y016568D01*
X002641Y016388D01*
X002482Y016203D01*
X002327Y016015D01*
X002177Y015823D01*
X002031Y015628D01*
X001890Y015429D01*
X001754Y015226D01*
X001623Y015021D01*
X001497Y014812D01*
X001376Y014601D01*
X001260Y014386D01*
X001149Y014169D01*
X001044Y013949D01*
X000944Y013727D01*
X000849Y013502D01*
X000760Y013276D01*
X000676Y013047D01*
X000598Y012816D01*
X000526Y012583D01*
X000459Y012349D01*
X000398Y012113D01*
X000342Y011875D01*
X000293Y011637D01*
X000249Y011397D01*
X000211Y011156D01*
X000178Y010914D01*
X000152Y010672D01*
X000131Y010429D01*
X000117Y010186D01*
X000108Y009942D01*
D11*
G36*
X008662Y010892D02*
X008866Y010688D01*
X008858Y010680D01*
X008654Y010884D01*
X008662Y010892D01*
G37*
G36*
X008761Y010722D02*
X008965Y010518D01*
X008957Y010510D01*
X008753Y010714D01*
X008761Y010722D01*
G37*
G36*
X009680Y011627D02*
X009884Y011423D01*
X009876Y011415D01*
X009672Y011619D01*
X009680Y011627D01*
G37*
D12*
G36*
X009205Y011705D02*
X009240Y011670D01*
X009233Y011663D01*
X009198Y011698D01*
X009205Y011705D01*
G37*
G36*
X009453Y010468D02*
X009488Y010433D01*
X009481Y010426D01*
X009446Y010461D01*
X009453Y010468D01*
G37*
G36*
X010662Y008820D02*
X010627Y008855D01*
X010634Y008862D01*
X010669Y008827D01*
X010662Y008820D01*
G37*
D13*
G36*
X009425Y010071D02*
X010060Y009436D01*
X010053Y009429D01*
X009418Y010064D01*
X009425Y010071D01*
G37*
D14*
G36*
X008725Y010771D02*
X009014Y010482D01*
X009007Y010475D01*
X008718Y010764D01*
X008725Y010771D01*
G37*
D15*
G36*
X007459Y012037D02*
X008384Y011112D01*
X008377Y011105D01*
X007452Y012030D01*
X007459Y012037D01*
G37*
D16*
G36*
X008810Y012511D02*
X008851Y012470D01*
X008844Y012463D01*
X008803Y012504D01*
X008810Y012511D01*
G37*
G36*
X009220Y011719D02*
X009261Y011678D01*
X009254Y011671D01*
X009213Y011712D01*
X009220Y011719D01*
G37*
G36*
X009213Y011711D02*
X009254Y011670D01*
X009247Y011663D01*
X009206Y011704D01*
X009213Y011711D01*
G37*
G36*
X008746Y011301D02*
X008787Y011260D01*
X008780Y011253D01*
X008739Y011294D01*
X008746Y011301D01*
G37*
G36*
X009439Y010467D02*
X009480Y010426D01*
X009473Y010419D01*
X009432Y010460D01*
X009439Y010467D01*
G37*
G36*
X010910Y010297D02*
X010951Y010256D01*
X010944Y010249D01*
X010903Y010290D01*
X010910Y010297D01*
G37*
G36*
X010634Y008876D02*
X010675Y008835D01*
X010668Y008828D01*
X010627Y008869D01*
X010634Y008876D01*
G37*
D17*
G36*
X009418Y010093D02*
X010089Y009422D01*
X010082Y009415D01*
X009411Y010086D01*
X009418Y010093D01*
G37*
G36*
X009870Y010503D02*
X010541Y009832D01*
X010534Y009825D01*
X009863Y010496D01*
X009870Y010503D01*
G37*
G36*
X009877Y010510D02*
X010548Y009839D01*
X010541Y009832D01*
X009870Y010503D01*
X009877Y010510D01*
G37*
G36*
X009884Y010517D02*
X010555Y009846D01*
X010548Y009839D01*
X009877Y010510D01*
X009884Y010517D01*
G37*
G36*
X010309Y010984D02*
X010980Y010313D01*
X010973Y010306D01*
X010302Y010977D01*
X010309Y010984D01*
G37*
D18*
G36*
X009205Y011224D02*
X009558Y010871D01*
X009551Y010864D01*
X009198Y011217D01*
X009205Y011224D01*
G37*
G36*
X009078Y011309D02*
X009431Y010956D01*
X009424Y010949D01*
X009071Y011302D01*
X009078Y011309D01*
G37*
G36*
X008703Y010807D02*
X009056Y010454D01*
X009049Y010447D01*
X008696Y010800D01*
X008703Y010807D01*
G37*
D19*
G36*
X007459Y012051D02*
X008398Y011112D01*
X008391Y011105D01*
X007452Y012044D01*
X007459Y012051D01*
G37*
G36*
X007488Y012079D02*
X008427Y011140D01*
X008420Y011133D01*
X007481Y012072D01*
X007488Y012079D01*
G37*
G36*
X007495Y012086D02*
X008434Y011147D01*
X008427Y011140D01*
X007488Y012079D01*
X007495Y012086D01*
G37*
D20*
G36*
X007777Y012172D02*
X007826Y012123D01*
X007819Y012116D01*
X007770Y012165D01*
X007777Y012172D01*
G37*
G36*
X008215Y012313D02*
X008264Y012264D01*
X008257Y012257D01*
X008208Y012306D01*
X008215Y012313D01*
G37*
G36*
X008739Y012327D02*
X008788Y012278D01*
X008781Y012271D01*
X008732Y012320D01*
X008739Y012327D01*
G37*
G36*
X008802Y012504D02*
X008851Y012455D01*
X008844Y012448D01*
X008795Y012497D01*
X008802Y012504D01*
G37*
G36*
X009234Y011733D02*
X009283Y011684D01*
X009276Y011677D01*
X009227Y011726D01*
X009234Y011733D01*
G37*
G36*
X009227Y011726D02*
X009276Y011677D01*
X009269Y011670D01*
X009220Y011719D01*
X009227Y011726D01*
G37*
G36*
X009248Y011733D02*
X009297Y011684D01*
X009290Y011677D01*
X009241Y011726D01*
X009248Y011733D01*
G37*
G36*
X009255Y011740D02*
X009304Y011691D01*
X009297Y011684D01*
X009248Y011733D01*
X009255Y011740D01*
G37*
G36*
X009276Y011747D02*
X009325Y011698D01*
X009318Y011691D01*
X009269Y011740D01*
X009276Y011747D01*
G37*
G36*
X009290Y011747D02*
X009339Y011698D01*
X009332Y011691D01*
X009283Y011740D01*
X009290Y011747D01*
G37*
G36*
X009764Y011556D02*
X009813Y011507D01*
X009806Y011500D01*
X009757Y011549D01*
X009764Y011556D01*
G37*
G36*
X009912Y010998D02*
X009961Y010949D01*
X009954Y010942D01*
X009905Y010991D01*
X009912Y010998D01*
G37*
G36*
X009905Y010991D02*
X009954Y010942D01*
X009947Y010935D01*
X009898Y010984D01*
X009905Y010991D01*
G37*
G36*
X009898Y010969D02*
X009947Y010920D01*
X009940Y010913D01*
X009891Y010962D01*
X009898Y010969D01*
G37*
G36*
X009891Y010962D02*
X009940Y010913D01*
X009933Y010906D01*
X009884Y010955D01*
X009891Y010962D01*
G37*
G36*
X009884Y010955D02*
X009933Y010906D01*
X009926Y010899D01*
X009877Y010948D01*
X009884Y010955D01*
G37*
G36*
X009877Y010948D02*
X009926Y010899D01*
X009919Y010892D01*
X009870Y010941D01*
X009877Y010948D01*
G37*
G36*
X009870Y010941D02*
X009919Y010892D01*
X009912Y010885D01*
X009863Y010934D01*
X009870Y010941D01*
G37*
G36*
X009863Y010934D02*
X009912Y010885D01*
X009905Y010878D01*
X009856Y010927D01*
X009863Y010934D01*
G37*
G36*
X009856Y010927D02*
X009905Y010878D01*
X009898Y010871D01*
X009849Y010920D01*
X009856Y010927D01*
G37*
G36*
X009835Y010920D02*
X009884Y010871D01*
X009877Y010864D01*
X009828Y010913D01*
X009835Y010920D01*
G37*
G36*
X009828Y010913D02*
X009877Y010864D01*
X009870Y010857D01*
X009821Y010906D01*
X009828Y010913D01*
G37*
G36*
X009821Y010906D02*
X009870Y010857D01*
X009863Y010850D01*
X009814Y010899D01*
X009821Y010906D01*
G37*
G36*
X009813Y010899D02*
X009862Y010850D01*
X009855Y010843D01*
X009806Y010892D01*
X009813Y010899D01*
G37*
G36*
X009792Y010892D02*
X009841Y010843D01*
X009834Y010836D01*
X009785Y010885D01*
X009792Y010892D01*
G37*
G36*
X009849Y010920D02*
X009898Y010871D01*
X009891Y010864D01*
X009842Y010913D01*
X009849Y010920D01*
G37*
G36*
X009432Y010460D02*
X009481Y010411D01*
X009474Y010404D01*
X009425Y010453D01*
X009432Y010460D01*
G37*
G36*
X009417Y010460D02*
X009466Y010411D01*
X009459Y010404D01*
X009410Y010453D01*
X009417Y010460D01*
G37*
G36*
X009410Y010453D02*
X009459Y010404D01*
X009452Y010397D01*
X009403Y010446D01*
X009410Y010453D01*
G37*
G36*
X009389Y010446D02*
X009438Y010397D01*
X009431Y010390D01*
X009382Y010439D01*
X009389Y010446D01*
G37*
G36*
X009403Y010446D02*
X009452Y010397D01*
X009445Y010390D01*
X009396Y010439D01*
X009403Y010446D01*
G37*
G36*
X008647Y011175D02*
X008696Y011126D01*
X008689Y011119D01*
X008640Y011168D01*
X008647Y011175D01*
G37*
G36*
X008654Y011196D02*
X008703Y011147D01*
X008696Y011140D01*
X008647Y011189D01*
X008654Y011196D01*
G37*
G36*
X008668Y011224D02*
X008717Y011175D01*
X008710Y011168D01*
X008661Y011217D01*
X008668Y011224D01*
G37*
G36*
X008675Y011231D02*
X008724Y011182D01*
X008717Y011175D01*
X008668Y011224D01*
X008675Y011231D01*
G37*
G36*
X008682Y011252D02*
X008731Y011203D01*
X008724Y011196D01*
X008675Y011245D01*
X008682Y011252D01*
G37*
G36*
X008689Y011259D02*
X008738Y011210D01*
X008731Y011203D01*
X008682Y011252D01*
X008689Y011259D01*
G37*
G36*
X008696Y011266D02*
X008745Y011217D01*
X008738Y011210D01*
X008689Y011259D01*
X008696Y011266D01*
G37*
G36*
X008703Y011274D02*
X008752Y011225D01*
X008745Y011218D01*
X008696Y011267D01*
X008703Y011274D01*
G37*
G36*
X008710Y011281D02*
X008759Y011232D01*
X008752Y011225D01*
X008703Y011274D01*
X008710Y011281D01*
G37*
G36*
X008717Y011288D02*
X008766Y011239D01*
X008759Y011232D01*
X008710Y011281D01*
X008717Y011288D01*
G37*
G36*
X008725Y011295D02*
X008774Y011246D01*
X008767Y011239D01*
X008718Y011288D01*
X008725Y011295D01*
G37*
G36*
X008732Y011302D02*
X008781Y011253D01*
X008774Y011246D01*
X008725Y011295D01*
X008732Y011302D01*
G37*
G36*
X008760Y011316D02*
X008809Y011267D01*
X008802Y011260D01*
X008753Y011309D01*
X008760Y011316D01*
G37*
G36*
X008767Y011323D02*
X008816Y011274D01*
X008809Y011267D01*
X008760Y011316D01*
X008767Y011323D01*
G37*
G36*
X008774Y011330D02*
X008823Y011281D01*
X008816Y011274D01*
X008767Y011323D01*
X008774Y011330D01*
G37*
G36*
X008795Y011337D02*
X008844Y011288D01*
X008837Y011281D01*
X008788Y011330D01*
X008795Y011337D01*
G37*
G36*
X008682Y011238D02*
X008731Y011189D01*
X008724Y011182D01*
X008675Y011231D01*
X008682Y011238D01*
G37*
G36*
X008661Y011203D02*
X008710Y011154D01*
X008703Y011147D01*
X008654Y011196D01*
X008661Y011203D01*
G37*
G36*
X010245Y009633D02*
X010294Y009584D01*
X010287Y009577D01*
X010238Y009626D01*
X010245Y009633D01*
G37*
G36*
X010252Y009640D02*
X010301Y009591D01*
X010294Y009584D01*
X010245Y009633D01*
X010252Y009640D01*
G37*
G36*
X010259Y009647D02*
X010308Y009598D01*
X010301Y009591D01*
X010252Y009640D01*
X010259Y009647D01*
G37*
G36*
X010266Y009654D02*
X010315Y009605D01*
X010308Y009598D01*
X010259Y009647D01*
X010266Y009654D01*
G37*
G36*
X010273Y009661D02*
X010322Y009612D01*
X010315Y009605D01*
X010266Y009654D01*
X010273Y009661D01*
G37*
G36*
X010280Y009668D02*
X010329Y009619D01*
X010322Y009612D01*
X010273Y009661D01*
X010280Y009668D01*
G37*
G36*
X010287Y009675D02*
X010336Y009626D01*
X010329Y009619D01*
X010280Y009668D01*
X010287Y009675D01*
G37*
G36*
X010294Y009683D02*
X010343Y009634D01*
X010336Y009627D01*
X010287Y009676D01*
X010294Y009683D01*
G37*
G36*
X010301Y009690D02*
X010350Y009641D01*
X010343Y009634D01*
X010294Y009683D01*
X010301Y009690D01*
G37*
G36*
X010308Y009697D02*
X010357Y009648D01*
X010350Y009641D01*
X010301Y009690D01*
X010308Y009697D01*
G37*
G36*
X010316Y009704D02*
X010365Y009655D01*
X010358Y009648D01*
X010309Y009697D01*
X010316Y009704D01*
G37*
G36*
X010323Y009711D02*
X010372Y009662D01*
X010365Y009655D01*
X010316Y009704D01*
X010323Y009711D01*
G37*
G36*
X010330Y009718D02*
X010379Y009669D01*
X010372Y009662D01*
X010323Y009711D01*
X010330Y009718D01*
G37*
G36*
X010337Y009725D02*
X010386Y009676D01*
X010379Y009669D01*
X010330Y009718D01*
X010337Y009725D01*
G37*
G36*
X010344Y009732D02*
X010393Y009683D01*
X010386Y009676D01*
X010337Y009725D01*
X010344Y009732D01*
G37*
G36*
X010351Y009739D02*
X010400Y009690D01*
X010393Y009683D01*
X010344Y009732D01*
X010351Y009739D01*
G37*
G36*
X010358Y009746D02*
X010407Y009697D01*
X010400Y009690D01*
X010351Y009739D01*
X010358Y009746D01*
G37*
G36*
X010365Y009753D02*
X010414Y009704D01*
X010407Y009697D01*
X010358Y009746D01*
X010365Y009753D01*
G37*
G36*
X010372Y009760D02*
X010421Y009711D01*
X010414Y009704D01*
X010365Y009753D01*
X010372Y009760D01*
G37*
G36*
X010379Y009767D02*
X010428Y009718D01*
X010421Y009711D01*
X010372Y009760D01*
X010379Y009767D01*
G37*
G36*
X010386Y009774D02*
X010435Y009725D01*
X010428Y009718D01*
X010379Y009767D01*
X010386Y009774D01*
G37*
G36*
X010393Y009782D02*
X010442Y009733D01*
X010435Y009726D01*
X010386Y009775D01*
X010393Y009782D01*
G37*
G36*
X010400Y009789D02*
X010449Y009740D01*
X010442Y009733D01*
X010393Y009782D01*
X010400Y009789D01*
G37*
G36*
X010407Y009796D02*
X010456Y009747D01*
X010449Y009740D01*
X010400Y009789D01*
X010407Y009796D01*
G37*
G36*
X010415Y009803D02*
X010464Y009754D01*
X010457Y009747D01*
X010408Y009796D01*
X010415Y009803D01*
G37*
G36*
X010422Y009810D02*
X010471Y009761D01*
X010464Y009754D01*
X010415Y009803D01*
X010422Y009810D01*
G37*
G36*
X010429Y009817D02*
X010478Y009768D01*
X010471Y009761D01*
X010422Y009810D01*
X010429Y009817D01*
G37*
G36*
X010436Y009824D02*
X010485Y009775D01*
X010478Y009768D01*
X010429Y009817D01*
X010436Y009824D01*
G37*
G36*
X010443Y009831D02*
X010492Y009782D01*
X010485Y009775D01*
X010436Y009824D01*
X010443Y009831D01*
G37*
G36*
X010450Y009838D02*
X010499Y009789D01*
X010492Y009782D01*
X010443Y009831D01*
X010450Y009838D01*
G37*
G36*
X010457Y009845D02*
X010506Y009796D01*
X010499Y009789D01*
X010450Y009838D01*
X010457Y009845D01*
G37*
G36*
X010464Y009852D02*
X010513Y009803D01*
X010506Y009796D01*
X010457Y009845D01*
X010464Y009852D01*
G37*
G36*
X010471Y009859D02*
X010520Y009810D01*
X010513Y009803D01*
X010464Y009852D01*
X010471Y009859D01*
G37*
G36*
X010478Y009866D02*
X010527Y009817D01*
X010520Y009810D01*
X010471Y009859D01*
X010478Y009866D01*
G37*
G36*
X010528Y009916D02*
X010577Y009867D01*
X010570Y009860D01*
X010521Y009909D01*
X010528Y009916D01*
G37*
G36*
X010535Y009923D02*
X010584Y009874D01*
X010577Y009867D01*
X010528Y009916D01*
X010535Y009923D01*
G37*
G36*
X010542Y009930D02*
X010591Y009881D01*
X010584Y009874D01*
X010535Y009923D01*
X010542Y009930D01*
G37*
G36*
X010549Y009937D02*
X010598Y009888D01*
X010591Y009881D01*
X010542Y009930D01*
X010549Y009937D01*
G37*
G36*
X010556Y009944D02*
X010605Y009895D01*
X010598Y009888D01*
X010549Y009937D01*
X010556Y009944D01*
G37*
G36*
X010563Y009951D02*
X010612Y009902D01*
X010605Y009895D01*
X010556Y009944D01*
X010563Y009951D01*
G37*
G36*
X010570Y009958D02*
X010619Y009909D01*
X010612Y009902D01*
X010563Y009951D01*
X010570Y009958D01*
G37*
G36*
X010577Y009965D02*
X010626Y009916D01*
X010619Y009909D01*
X010570Y009958D01*
X010577Y009965D01*
G37*
G36*
X010584Y009972D02*
X010633Y009923D01*
X010626Y009916D01*
X010577Y009965D01*
X010584Y009972D01*
G37*
G36*
X010591Y009980D02*
X010640Y009931D01*
X010633Y009924D01*
X010584Y009973D01*
X010591Y009980D01*
G37*
G36*
X010598Y009987D02*
X010647Y009938D01*
X010640Y009931D01*
X010591Y009980D01*
X010598Y009987D01*
G37*
G36*
X010605Y009994D02*
X010654Y009945D01*
X010647Y009938D01*
X010598Y009987D01*
X010605Y009994D01*
G37*
G36*
X010612Y010001D02*
X010661Y009952D01*
X010654Y009945D01*
X010605Y009994D01*
X010612Y010001D01*
G37*
G36*
X010620Y010008D02*
X010669Y009959D01*
X010662Y009952D01*
X010613Y010001D01*
X010620Y010008D01*
G37*
G36*
X010627Y010015D02*
X010676Y009966D01*
X010669Y009959D01*
X010620Y010008D01*
X010627Y010015D01*
G37*
G36*
X010634Y010022D02*
X010683Y009973D01*
X010676Y009966D01*
X010627Y010015D01*
X010634Y010022D01*
G37*
G36*
X010641Y010029D02*
X010690Y009980D01*
X010683Y009973D01*
X010634Y010022D01*
X010641Y010029D01*
G37*
G36*
X010648Y010036D02*
X010697Y009987D01*
X010690Y009980D01*
X010641Y010029D01*
X010648Y010036D01*
G37*
G36*
X010655Y010043D02*
X010704Y009994D01*
X010697Y009987D01*
X010648Y010036D01*
X010655Y010043D01*
G37*
G36*
X010662Y010050D02*
X010711Y010001D01*
X010704Y009994D01*
X010655Y010043D01*
X010662Y010050D01*
G37*
G36*
X010669Y010057D02*
X010718Y010008D01*
X010711Y010001D01*
X010662Y010050D01*
X010669Y010057D01*
G37*
G36*
X010676Y010064D02*
X010725Y010015D01*
X010718Y010008D01*
X010669Y010057D01*
X010676Y010064D01*
G37*
G36*
X010683Y010071D02*
X010732Y010022D01*
X010725Y010015D01*
X010676Y010064D01*
X010683Y010071D01*
G37*
G36*
X010690Y010079D02*
X010739Y010030D01*
X010732Y010023D01*
X010683Y010072D01*
X010690Y010079D01*
G37*
G36*
X010697Y010086D02*
X010746Y010037D01*
X010739Y010030D01*
X010690Y010079D01*
X010697Y010086D01*
G37*
G36*
X010704Y010093D02*
X010753Y010044D01*
X010746Y010037D01*
X010697Y010086D01*
X010704Y010093D01*
G37*
G36*
X010711Y010100D02*
X010760Y010051D01*
X010753Y010044D01*
X010704Y010093D01*
X010711Y010100D01*
G37*
G36*
X010719Y010107D02*
X010768Y010058D01*
X010761Y010051D01*
X010712Y010100D01*
X010719Y010107D01*
G37*
G36*
X010726Y010114D02*
X010775Y010065D01*
X010768Y010058D01*
X010719Y010107D01*
X010726Y010114D01*
G37*
G36*
X010733Y010121D02*
X010782Y010072D01*
X010775Y010065D01*
X010726Y010114D01*
X010733Y010121D01*
G37*
G36*
X010740Y010128D02*
X010789Y010079D01*
X010782Y010072D01*
X010733Y010121D01*
X010740Y010128D01*
G37*
G36*
X010747Y010135D02*
X010796Y010086D01*
X010789Y010079D01*
X010740Y010128D01*
X010747Y010135D01*
G37*
G36*
X010754Y010142D02*
X010803Y010093D01*
X010796Y010086D01*
X010747Y010135D01*
X010754Y010142D01*
G37*
G36*
X010761Y010149D02*
X010810Y010100D01*
X010803Y010093D01*
X010754Y010142D01*
X010761Y010149D01*
G37*
G36*
X010768Y010156D02*
X010817Y010107D01*
X010810Y010100D01*
X010761Y010149D01*
X010768Y010156D01*
G37*
G36*
X010775Y010163D02*
X010824Y010114D01*
X010817Y010107D01*
X010768Y010156D01*
X010775Y010163D01*
G37*
G36*
X010782Y010170D02*
X010831Y010121D01*
X010824Y010114D01*
X010775Y010163D01*
X010782Y010170D01*
G37*
G36*
X010789Y010178D02*
X010838Y010129D01*
X010831Y010122D01*
X010782Y010171D01*
X010789Y010178D01*
G37*
G36*
X010796Y010185D02*
X010845Y010136D01*
X010838Y010129D01*
X010789Y010178D01*
X010796Y010185D01*
G37*
G36*
X010803Y010192D02*
X010852Y010143D01*
X010845Y010136D01*
X010796Y010185D01*
X010803Y010192D01*
G37*
G36*
X010810Y010199D02*
X010859Y010150D01*
X010852Y010143D01*
X010803Y010192D01*
X010810Y010199D01*
G37*
G36*
X010818Y010206D02*
X010867Y010157D01*
X010860Y010150D01*
X010811Y010199D01*
X010818Y010206D01*
G37*
G36*
X010825Y010213D02*
X010874Y010164D01*
X010867Y010157D01*
X010818Y010206D01*
X010825Y010213D01*
G37*
G36*
X010832Y010220D02*
X010881Y010171D01*
X010874Y010164D01*
X010825Y010213D01*
X010832Y010220D01*
G37*
G36*
X010839Y010227D02*
X010888Y010178D01*
X010881Y010171D01*
X010832Y010220D01*
X010839Y010227D01*
G37*
G36*
X010846Y010234D02*
X010895Y010185D01*
X010888Y010178D01*
X010839Y010227D01*
X010846Y010234D01*
G37*
G36*
X010853Y010241D02*
X010902Y010192D01*
X010895Y010185D01*
X010846Y010234D01*
X010853Y010241D01*
G37*
G36*
X010860Y010248D02*
X010909Y010199D01*
X010902Y010192D01*
X010853Y010241D01*
X010860Y010248D01*
G37*
G36*
X010867Y010255D02*
X010916Y010206D01*
X010909Y010199D01*
X010860Y010248D01*
X010867Y010255D01*
G37*
G36*
X010874Y010262D02*
X010923Y010213D01*
X010916Y010206D01*
X010867Y010255D01*
X010874Y010262D01*
G37*
G36*
X010881Y010269D02*
X010930Y010220D01*
X010923Y010213D01*
X010874Y010262D01*
X010881Y010269D01*
G37*
G36*
X010888Y010277D02*
X010937Y010228D01*
X010930Y010221D01*
X010881Y010270D01*
X010888Y010277D01*
G37*
G36*
X010895Y010284D02*
X010944Y010235D01*
X010937Y010228D01*
X010888Y010277D01*
X010895Y010284D01*
G37*
G36*
X010902Y010291D02*
X010951Y010242D01*
X010944Y010235D01*
X010895Y010284D01*
X010902Y010291D01*
G37*
G36*
X011482Y009725D02*
X011531Y009676D01*
X011524Y009669D01*
X011475Y009718D01*
X011482Y009725D01*
G37*
G36*
X011475Y009718D02*
X011524Y009669D01*
X011517Y009662D01*
X011468Y009711D01*
X011475Y009718D01*
G37*
G36*
X011468Y009711D02*
X011517Y009662D01*
X011510Y009655D01*
X011461Y009704D01*
X011468Y009711D01*
G37*
G36*
X011461Y009704D02*
X011510Y009655D01*
X011503Y009648D01*
X011454Y009697D01*
X011461Y009704D01*
G37*
G36*
X011454Y009697D02*
X011503Y009648D01*
X011496Y009641D01*
X011447Y009690D01*
X011454Y009697D01*
G37*
G36*
X011447Y009690D02*
X011496Y009641D01*
X011489Y009634D01*
X011440Y009683D01*
X011447Y009690D01*
G37*
G36*
X011440Y009683D02*
X011489Y009634D01*
X011482Y009627D01*
X011433Y009676D01*
X011440Y009683D01*
G37*
G36*
X011433Y009675D02*
X011482Y009626D01*
X011475Y009619D01*
X011426Y009668D01*
X011433Y009675D01*
G37*
G36*
X011426Y009668D02*
X011475Y009619D01*
X011468Y009612D01*
X011419Y009661D01*
X011426Y009668D01*
G37*
G36*
X011419Y009661D02*
X011468Y009612D01*
X011461Y009605D01*
X011412Y009654D01*
X011419Y009661D01*
G37*
G36*
X011412Y009654D02*
X011461Y009605D01*
X011454Y009598D01*
X011405Y009647D01*
X011412Y009654D01*
G37*
G36*
X011404Y009647D02*
X011453Y009598D01*
X011446Y009591D01*
X011397Y009640D01*
X011404Y009647D01*
G37*
G36*
X011397Y009640D02*
X011446Y009591D01*
X011439Y009584D01*
X011390Y009633D01*
X011397Y009640D01*
G37*
G36*
X011390Y009633D02*
X011439Y009584D01*
X011432Y009577D01*
X011383Y009626D01*
X011390Y009633D01*
G37*
G36*
X011383Y009626D02*
X011432Y009577D01*
X011425Y009570D01*
X011376Y009619D01*
X011383Y009626D01*
G37*
G36*
X011376Y009619D02*
X011425Y009570D01*
X011418Y009563D01*
X011369Y009612D01*
X011376Y009619D01*
G37*
G36*
X011369Y009612D02*
X011418Y009563D01*
X011411Y009556D01*
X011362Y009605D01*
X011369Y009612D01*
G37*
G36*
X011362Y009605D02*
X011411Y009556D01*
X011404Y009549D01*
X011355Y009598D01*
X011362Y009605D01*
G37*
G36*
X011355Y009598D02*
X011404Y009549D01*
X011397Y009542D01*
X011348Y009591D01*
X011355Y009598D01*
G37*
G36*
X011348Y009591D02*
X011397Y009542D01*
X011390Y009535D01*
X011341Y009584D01*
X011348Y009591D01*
G37*
G36*
X011341Y009584D02*
X011390Y009535D01*
X011383Y009528D01*
X011334Y009577D01*
X011341Y009584D01*
G37*
G36*
X011334Y009576D02*
X011383Y009527D01*
X011376Y009520D01*
X011327Y009569D01*
X011334Y009576D01*
G37*
G36*
X011327Y009569D02*
X011376Y009520D01*
X011369Y009513D01*
X011320Y009562D01*
X011327Y009569D01*
G37*
G36*
X011320Y009562D02*
X011369Y009513D01*
X011362Y009506D01*
X011313Y009555D01*
X011320Y009562D01*
G37*
G36*
X011313Y009555D02*
X011362Y009506D01*
X011355Y009499D01*
X011306Y009548D01*
X011313Y009555D01*
G37*
G36*
X011305Y009548D02*
X011354Y009499D01*
X011347Y009492D01*
X011298Y009541D01*
X011305Y009548D01*
G37*
G36*
X011298Y009541D02*
X011347Y009492D01*
X011340Y009485D01*
X011291Y009534D01*
X011298Y009541D01*
G37*
G36*
X011291Y009534D02*
X011340Y009485D01*
X011333Y009478D01*
X011284Y009527D01*
X011291Y009534D01*
G37*
G36*
X011284Y009527D02*
X011333Y009478D01*
X011326Y009471D01*
X011277Y009520D01*
X011284Y009527D01*
G37*
G36*
X011277Y009520D02*
X011326Y009471D01*
X011319Y009464D01*
X011270Y009513D01*
X011277Y009520D01*
G37*
G36*
X011270Y009513D02*
X011319Y009464D01*
X011312Y009457D01*
X011263Y009506D01*
X011270Y009513D01*
G37*
G36*
X011263Y009506D02*
X011312Y009457D01*
X011305Y009450D01*
X011256Y009499D01*
X011263Y009506D01*
G37*
G36*
X011256Y009499D02*
X011305Y009450D01*
X011298Y009443D01*
X011249Y009492D01*
X011256Y009499D01*
G37*
G36*
X011249Y009492D02*
X011298Y009443D01*
X011291Y009436D01*
X011242Y009485D01*
X011249Y009492D01*
G37*
G36*
X011242Y009485D02*
X011291Y009436D01*
X011284Y009429D01*
X011235Y009478D01*
X011242Y009485D01*
G37*
G36*
X011235Y009477D02*
X011284Y009428D01*
X011277Y009421D01*
X011228Y009470D01*
X011235Y009477D01*
G37*
G36*
X011228Y009470D02*
X011277Y009421D01*
X011270Y009414D01*
X011221Y009463D01*
X011228Y009470D01*
G37*
G36*
X011221Y009463D02*
X011270Y009414D01*
X011263Y009407D01*
X011214Y009456D01*
X011221Y009463D01*
G37*
G36*
X011214Y009456D02*
X011263Y009407D01*
X011256Y009400D01*
X011207Y009449D01*
X011214Y009456D01*
G37*
G36*
X011206Y009449D02*
X011255Y009400D01*
X011248Y009393D01*
X011199Y009442D01*
X011206Y009449D01*
G37*
G36*
X011199Y009442D02*
X011248Y009393D01*
X011241Y009386D01*
X011192Y009435D01*
X011199Y009442D01*
G37*
G36*
X011192Y009435D02*
X011241Y009386D01*
X011234Y009379D01*
X011185Y009428D01*
X011192Y009435D01*
G37*
G36*
X011185Y009428D02*
X011234Y009379D01*
X011227Y009372D01*
X011178Y009421D01*
X011185Y009428D01*
G37*
G36*
X011178Y009421D02*
X011227Y009372D01*
X011220Y009365D01*
X011171Y009414D01*
X011178Y009421D01*
G37*
G36*
X011171Y009414D02*
X011220Y009365D01*
X011213Y009358D01*
X011164Y009407D01*
X011171Y009414D01*
G37*
G36*
X011164Y009407D02*
X011213Y009358D01*
X011206Y009351D01*
X011157Y009400D01*
X011164Y009407D01*
G37*
G36*
X011157Y009400D02*
X011206Y009351D01*
X011199Y009344D01*
X011150Y009393D01*
X011157Y009400D01*
G37*
G36*
X011150Y009393D02*
X011199Y009344D01*
X011192Y009337D01*
X011143Y009386D01*
X011150Y009393D01*
G37*
G36*
X011143Y009386D02*
X011192Y009337D01*
X011185Y009330D01*
X011136Y009379D01*
X011143Y009386D01*
G37*
G36*
X011136Y009379D02*
X011185Y009330D01*
X011178Y009323D01*
X011129Y009372D01*
X011136Y009379D01*
G37*
G36*
X011129Y009371D02*
X011178Y009322D01*
X011171Y009315D01*
X011122Y009364D01*
X011129Y009371D01*
G37*
G36*
X011122Y009364D02*
X011171Y009315D01*
X011164Y009308D01*
X011115Y009357D01*
X011122Y009364D01*
G37*
G36*
X011115Y009357D02*
X011164Y009308D01*
X011157Y009301D01*
X011108Y009350D01*
X011115Y009357D01*
G37*
G36*
X011107Y009350D02*
X011156Y009301D01*
X011149Y009294D01*
X011100Y009343D01*
X011107Y009350D01*
G37*
G36*
X011100Y009343D02*
X011149Y009294D01*
X011142Y009287D01*
X011093Y009336D01*
X011100Y009343D01*
G37*
G36*
X011093Y009336D02*
X011142Y009287D01*
X011135Y009280D01*
X011086Y009329D01*
X011093Y009336D01*
G37*
G36*
X011086Y009329D02*
X011135Y009280D01*
X011128Y009273D01*
X011079Y009322D01*
X011086Y009329D01*
G37*
G36*
X011079Y009322D02*
X011128Y009273D01*
X011121Y009266D01*
X011072Y009315D01*
X011079Y009322D01*
G37*
G36*
X011072Y009315D02*
X011121Y009266D01*
X011114Y009259D01*
X011065Y009308D01*
X011072Y009315D01*
G37*
G36*
X011065Y009308D02*
X011114Y009259D01*
X011107Y009252D01*
X011058Y009301D01*
X011065Y009308D01*
G37*
G36*
X011058Y009301D02*
X011107Y009252D01*
X011100Y009245D01*
X011051Y009294D01*
X011058Y009301D01*
G37*
G36*
X011051Y009294D02*
X011100Y009245D01*
X011093Y009238D01*
X011044Y009287D01*
X011051Y009294D01*
G37*
G36*
X011044Y009287D02*
X011093Y009238D01*
X011086Y009231D01*
X011037Y009280D01*
X011044Y009287D01*
G37*
G36*
X011037Y009280D02*
X011086Y009231D01*
X011079Y009224D01*
X011030Y009273D01*
X011037Y009280D01*
G37*
G36*
X011030Y009272D02*
X011079Y009223D01*
X011072Y009216D01*
X011023Y009265D01*
X011030Y009272D01*
G37*
G36*
X011023Y009265D02*
X011072Y009216D01*
X011065Y009209D01*
X011016Y009258D01*
X011023Y009265D01*
G37*
G36*
X011016Y009258D02*
X011065Y009209D01*
X011058Y009202D01*
X011009Y009251D01*
X011016Y009258D01*
G37*
G36*
X011008Y009251D02*
X011057Y009202D01*
X011050Y009195D01*
X011001Y009244D01*
X011008Y009251D01*
G37*
G36*
X011001Y009244D02*
X011050Y009195D01*
X011043Y009188D01*
X010994Y009237D01*
X011001Y009244D01*
G37*
G36*
X010994Y009237D02*
X011043Y009188D01*
X011036Y009181D01*
X010987Y009230D01*
X010994Y009237D01*
G37*
G36*
X010987Y009230D02*
X011036Y009181D01*
X011029Y009174D01*
X010980Y009223D01*
X010987Y009230D01*
G37*
G36*
X010980Y009223D02*
X011029Y009174D01*
X011022Y009167D01*
X010973Y009216D01*
X010980Y009223D01*
G37*
G36*
X010973Y009216D02*
X011022Y009167D01*
X011015Y009160D01*
X010966Y009209D01*
X010973Y009216D01*
G37*
G36*
X010966Y009209D02*
X011015Y009160D01*
X011008Y009153D01*
X010959Y009202D01*
X010966Y009209D01*
G37*
G36*
X010959Y009202D02*
X011008Y009153D01*
X011001Y009146D01*
X010952Y009195D01*
X010959Y009202D01*
G37*
G36*
X010952Y009195D02*
X011001Y009146D01*
X010994Y009139D01*
X010945Y009188D01*
X010952Y009195D01*
G37*
G36*
X010945Y009188D02*
X010994Y009139D01*
X010987Y009132D01*
X010938Y009181D01*
X010945Y009188D01*
G37*
G36*
X010938Y009181D02*
X010987Y009132D01*
X010980Y009125D01*
X010931Y009174D01*
X010938Y009181D01*
G37*
G36*
X010931Y009173D02*
X010980Y009124D01*
X010973Y009117D01*
X010924Y009166D01*
X010931Y009173D01*
G37*
G36*
X010924Y009166D02*
X010973Y009117D01*
X010966Y009110D01*
X010917Y009159D01*
X010924Y009166D01*
G37*
G36*
X010917Y009159D02*
X010966Y009110D01*
X010959Y009103D01*
X010910Y009152D01*
X010917Y009159D01*
G37*
G36*
X010909Y009152D02*
X010958Y009103D01*
X010951Y009096D01*
X010902Y009145D01*
X010909Y009152D01*
G37*
G36*
X010902Y009145D02*
X010951Y009096D01*
X010944Y009089D01*
X010895Y009138D01*
X010902Y009145D01*
G37*
G36*
X010895Y009138D02*
X010944Y009089D01*
X010937Y009082D01*
X010888Y009131D01*
X010895Y009138D01*
G37*
G36*
X010888Y009131D02*
X010937Y009082D01*
X010930Y009075D01*
X010881Y009124D01*
X010888Y009131D01*
G37*
G36*
X010881Y009124D02*
X010930Y009075D01*
X010923Y009068D01*
X010874Y009117D01*
X010881Y009124D01*
G37*
G36*
X010874Y009117D02*
X010923Y009068D01*
X010916Y009061D01*
X010867Y009110D01*
X010874Y009117D01*
G37*
G36*
X010867Y009110D02*
X010916Y009061D01*
X010909Y009054D01*
X010860Y009103D01*
X010867Y009110D01*
G37*
G36*
X010860Y009103D02*
X010909Y009054D01*
X010902Y009047D01*
X010853Y009096D01*
X010860Y009103D01*
G37*
G36*
X010853Y009096D02*
X010902Y009047D01*
X010895Y009040D01*
X010846Y009089D01*
X010853Y009096D01*
G37*
G36*
X010846Y009089D02*
X010895Y009040D01*
X010888Y009033D01*
X010839Y009082D01*
X010846Y009089D01*
G37*
G36*
X010839Y009082D02*
X010888Y009033D01*
X010881Y009026D01*
X010832Y009075D01*
X010839Y009082D01*
G37*
G36*
X010832Y009074D02*
X010881Y009025D01*
X010874Y009018D01*
X010825Y009067D01*
X010832Y009074D01*
G37*
G36*
X010825Y009067D02*
X010874Y009018D01*
X010867Y009011D01*
X010818Y009060D01*
X010825Y009067D01*
G37*
G36*
X010818Y009060D02*
X010867Y009011D01*
X010860Y009004D01*
X010811Y009053D01*
X010818Y009060D01*
G37*
G36*
X010810Y009053D02*
X010859Y009004D01*
X010852Y008997D01*
X010803Y009046D01*
X010810Y009053D01*
G37*
G36*
X010803Y009046D02*
X010852Y008997D01*
X010845Y008990D01*
X010796Y009039D01*
X010803Y009046D01*
G37*
G36*
X010796Y009039D02*
X010845Y008990D01*
X010838Y008983D01*
X010789Y009032D01*
X010796Y009039D01*
G37*
G36*
X010789Y009032D02*
X010838Y008983D01*
X010831Y008976D01*
X010782Y009025D01*
X010789Y009032D01*
G37*
G36*
X010782Y009025D02*
X010831Y008976D01*
X010824Y008969D01*
X010775Y009018D01*
X010782Y009025D01*
G37*
G36*
X010775Y009018D02*
X010824Y008969D01*
X010817Y008962D01*
X010768Y009011D01*
X010775Y009018D01*
G37*
G36*
X010768Y009011D02*
X010817Y008962D01*
X010810Y008955D01*
X010761Y009004D01*
X010768Y009011D01*
G37*
G36*
X010761Y009004D02*
X010810Y008955D01*
X010803Y008948D01*
X010754Y008997D01*
X010761Y009004D01*
G37*
G36*
X010754Y008997D02*
X010803Y008948D01*
X010796Y008941D01*
X010747Y008990D01*
X010754Y008997D01*
G37*
G36*
X010747Y008990D02*
X010796Y008941D01*
X010789Y008934D01*
X010740Y008983D01*
X010747Y008990D01*
G37*
G36*
X010740Y008983D02*
X010789Y008934D01*
X010782Y008927D01*
X010733Y008976D01*
X010740Y008983D01*
G37*
G36*
X010733Y008975D02*
X010782Y008926D01*
X010775Y008919D01*
X010726Y008968D01*
X010733Y008975D01*
G37*
G36*
X010726Y008968D02*
X010775Y008919D01*
X010768Y008912D01*
X010719Y008961D01*
X010726Y008968D01*
G37*
G36*
X010719Y008961D02*
X010768Y008912D01*
X010761Y008905D01*
X010712Y008954D01*
X010719Y008961D01*
G37*
G36*
X010711Y008954D02*
X010760Y008905D01*
X010753Y008898D01*
X010704Y008947D01*
X010711Y008954D01*
G37*
G36*
X010704Y008947D02*
X010753Y008898D01*
X010746Y008891D01*
X010697Y008940D01*
X010704Y008947D01*
G37*
G36*
X010697Y008940D02*
X010746Y008891D01*
X010739Y008884D01*
X010690Y008933D01*
X010697Y008940D01*
G37*
G36*
X010690Y008933D02*
X010739Y008884D01*
X010732Y008877D01*
X010683Y008926D01*
X010690Y008933D01*
G37*
G36*
X010683Y008926D02*
X010732Y008877D01*
X010725Y008870D01*
X010676Y008919D01*
X010683Y008926D01*
G37*
G36*
X010676Y008919D02*
X010725Y008870D01*
X010718Y008863D01*
X010669Y008912D01*
X010676Y008919D01*
G37*
G36*
X010669Y008912D02*
X010718Y008863D01*
X010711Y008856D01*
X010662Y008905D01*
X010669Y008912D01*
G37*
G36*
X010662Y008905D02*
X010711Y008856D01*
X010704Y008849D01*
X010655Y008898D01*
X010662Y008905D01*
G37*
G36*
X010655Y008898D02*
X010704Y008849D01*
X010697Y008842D01*
X010648Y008891D01*
X010655Y008898D01*
G37*
G36*
X010648Y008891D02*
X010697Y008842D01*
X010690Y008835D01*
X010641Y008884D01*
X010648Y008891D01*
G37*
G36*
X010641Y008884D02*
X010690Y008835D01*
X010683Y008828D01*
X010634Y008877D01*
X010641Y008884D01*
G37*
G36*
X010103Y009492D02*
X010152Y009443D01*
X010145Y009436D01*
X010096Y009485D01*
X010103Y009492D01*
G37*
G36*
X010110Y009499D02*
X010159Y009450D01*
X010152Y009443D01*
X010103Y009492D01*
X010110Y009499D01*
G37*
G36*
X010118Y009506D02*
X010167Y009457D01*
X010160Y009450D01*
X010111Y009499D01*
X010118Y009506D01*
G37*
G36*
X010125Y009513D02*
X010174Y009464D01*
X010167Y009457D01*
X010118Y009506D01*
X010125Y009513D01*
G37*
G36*
X010132Y009520D02*
X010181Y009471D01*
X010174Y009464D01*
X010125Y009513D01*
X010132Y009520D01*
G37*
G36*
X010139Y009527D02*
X010188Y009478D01*
X010181Y009471D01*
X010132Y009520D01*
X010139Y009527D01*
G37*
G36*
X010146Y009534D02*
X010195Y009485D01*
X010188Y009478D01*
X010139Y009527D01*
X010146Y009534D01*
G37*
G36*
X010153Y009541D02*
X010202Y009492D01*
X010195Y009485D01*
X010146Y009534D01*
X010153Y009541D01*
G37*
G36*
X010160Y009548D02*
X010209Y009499D01*
X010202Y009492D01*
X010153Y009541D01*
X010160Y009548D01*
G37*
G36*
X010167Y009555D02*
X010216Y009506D01*
X010209Y009499D01*
X010160Y009548D01*
X010167Y009555D01*
G37*
G36*
X010174Y009562D02*
X010223Y009513D01*
X010216Y009506D01*
X010167Y009555D01*
X010174Y009562D01*
G37*
G36*
X010181Y009569D02*
X010230Y009520D01*
X010223Y009513D01*
X010174Y009562D01*
X010181Y009569D01*
G37*
G36*
X010188Y009576D02*
X010237Y009527D01*
X010230Y009520D01*
X010181Y009569D01*
X010188Y009576D01*
G37*
G36*
X010195Y009584D02*
X010244Y009535D01*
X010237Y009528D01*
X010188Y009577D01*
X010195Y009584D01*
G37*
G36*
X010202Y009591D02*
X010251Y009542D01*
X010244Y009535D01*
X010195Y009584D01*
X010202Y009591D01*
G37*
G36*
X010209Y009598D02*
X010258Y009549D01*
X010251Y009542D01*
X010202Y009591D01*
X010209Y009598D01*
G37*
G36*
X010217Y009605D02*
X010266Y009556D01*
X010259Y009549D01*
X010210Y009598D01*
X010217Y009605D01*
G37*
G36*
X010224Y009612D02*
X010273Y009563D01*
X010266Y009556D01*
X010217Y009605D01*
X010224Y009612D01*
G37*
G36*
X010231Y009619D02*
X010280Y009570D01*
X010273Y009563D01*
X010224Y009612D01*
X010231Y009619D01*
G37*
G36*
X010238Y009626D02*
X010287Y009577D01*
X010280Y009570D01*
X010231Y009619D01*
X010238Y009626D01*
G37*
D21*
G36*
X009418Y010107D02*
X010103Y009422D01*
X010096Y009415D01*
X009411Y010100D01*
X009418Y010107D01*
G37*
G36*
X010294Y010983D02*
X010979Y010298D01*
X010972Y010291D01*
X010287Y010976D01*
X010294Y010983D01*
G37*
D22*
G36*
X008683Y010842D02*
X009085Y010440D01*
X009077Y010432D01*
X008675Y010834D01*
X008683Y010842D01*
G37*
D23*
G36*
X007466Y012072D02*
X008419Y011119D01*
X008412Y011112D01*
X007459Y012065D01*
X007466Y012072D01*
G37*
G36*
X007473Y012079D02*
X008426Y011126D01*
X008419Y011119D01*
X007466Y012072D01*
X007473Y012079D01*
G37*
G36*
X007459Y012065D02*
X008412Y011112D01*
X008405Y011105D01*
X007452Y012058D01*
X007459Y012065D01*
G37*
D24*
G36*
X009425Y010114D02*
X010117Y009422D01*
X010109Y009414D01*
X009417Y010106D01*
X009425Y010114D01*
G37*
G36*
X009432Y010121D02*
X010124Y009429D01*
X010116Y009421D01*
X009424Y010113D01*
X009432Y010121D01*
G37*
G36*
X009454Y010128D02*
X010146Y009436D01*
X010138Y009428D01*
X009446Y010120D01*
X009454Y010128D01*
G37*
G36*
X010274Y010949D02*
X010966Y010257D01*
X010958Y010249D01*
X010266Y010941D01*
X010274Y010949D01*
G37*
G36*
X010281Y010970D02*
X010973Y010278D01*
X010965Y010270D01*
X010273Y010962D01*
X010281Y010970D01*
G37*
G36*
X010288Y010977D02*
X010980Y010285D01*
X010972Y010277D01*
X010280Y010969D01*
X010288Y010977D01*
G37*
D25*
G36*
X008668Y010871D02*
X009113Y010426D01*
X009106Y010419D01*
X008661Y010864D01*
X008668Y010871D01*
G37*
D26*
G36*
X008908Y010644D02*
X009141Y010411D01*
X009134Y010404D01*
X008901Y010637D01*
X008908Y010644D01*
G37*
D27*
G36*
X008873Y010679D02*
X008900Y010652D01*
X008893Y010645D01*
X008866Y010672D01*
X008873Y010679D01*
G37*
G36*
X008824Y012511D02*
X008851Y012484D01*
X008844Y012477D01*
X008817Y012504D01*
X008824Y012511D01*
G37*
D28*
G36*
X010273Y010962D02*
X010972Y010263D01*
X010965Y010256D01*
X010266Y010955D01*
X010273Y010962D01*
G37*
G36*
X009439Y010128D02*
X010138Y009429D01*
X010131Y009422D01*
X009432Y010121D01*
X009439Y010128D01*
G37*
D29*
G36*
X008994Y010573D02*
X009169Y010398D01*
X009162Y010391D01*
X008987Y010566D01*
X008994Y010573D01*
G37*
D30*
G36*
X008647Y010919D02*
X008808Y010758D01*
X008801Y010751D01*
X008640Y010912D01*
X008647Y010919D01*
G37*
G36*
X009489Y011733D02*
X009650Y011572D01*
X009643Y011565D01*
X009482Y011726D01*
X009489Y011733D01*
G37*
G36*
X009821Y011400D02*
X009982Y011239D01*
X009975Y011232D01*
X009814Y011393D01*
X009821Y011400D01*
G37*
D31*
G36*
X008980Y011351D02*
X009127Y011204D01*
X009120Y011197D01*
X008973Y011344D01*
X008980Y011351D01*
G37*
G36*
X009043Y010538D02*
X009190Y010391D01*
X009183Y010384D01*
X009036Y010531D01*
X009043Y010538D01*
G37*
D32*
G36*
X008640Y010941D02*
X008781Y010800D01*
X008774Y010793D01*
X008633Y010934D01*
X008640Y010941D01*
G37*
G36*
X009849Y011358D02*
X009990Y011217D01*
X009983Y011210D01*
X009842Y011351D01*
X009849Y011358D01*
G37*
D33*
G36*
X009545Y010955D02*
X009678Y010822D01*
X009671Y010815D01*
X009538Y010948D01*
X009545Y010955D01*
G37*
G36*
X009078Y010517D02*
X009211Y010384D01*
X009204Y010377D01*
X009071Y010510D01*
X009078Y010517D01*
G37*
D34*
G36*
X008633Y010962D02*
X008752Y010843D01*
X008745Y010836D01*
X008626Y010955D01*
X008633Y010962D01*
G37*
G36*
X009870Y011323D02*
X009989Y011204D01*
X009982Y011197D01*
X009863Y011316D01*
X009870Y011323D01*
G37*
D35*
G36*
X009934Y011061D02*
X009989Y011006D01*
X009982Y010999D01*
X009927Y011054D01*
X009934Y011061D01*
G37*
G36*
X009927Y011054D02*
X009982Y010999D01*
X009975Y010992D01*
X009920Y011047D01*
X009927Y011054D01*
G37*
G36*
X009927Y011040D02*
X009982Y010985D01*
X009975Y010978D01*
X009920Y011033D01*
X009927Y011040D01*
G37*
G36*
X009920Y011033D02*
X009975Y010978D01*
X009968Y010971D01*
X009913Y011026D01*
X009920Y011033D01*
G37*
G36*
X009920Y011018D02*
X009975Y010963D01*
X009968Y010956D01*
X009913Y011011D01*
X009920Y011018D01*
G37*
G36*
X009913Y011011D02*
X009968Y010956D01*
X009961Y010949D01*
X009906Y011004D01*
X009913Y011011D01*
G37*
G36*
X009899Y010983D02*
X009954Y010928D01*
X009947Y010921D01*
X009892Y010976D01*
X009899Y010983D01*
G37*
G36*
X009800Y010898D02*
X009855Y010843D01*
X009848Y010836D01*
X009793Y010891D01*
X009800Y010898D01*
G37*
G36*
X009779Y010891D02*
X009834Y010836D01*
X009827Y010829D01*
X009772Y010884D01*
X009779Y010891D01*
G37*
G36*
X009757Y010884D02*
X009812Y010829D01*
X009805Y010822D01*
X009750Y010877D01*
X009757Y010884D01*
G37*
G36*
X009376Y010446D02*
X009431Y010391D01*
X009424Y010384D01*
X009369Y010439D01*
X009376Y010446D01*
G37*
G36*
X009354Y010439D02*
X009409Y010384D01*
X009402Y010377D01*
X009347Y010432D01*
X009354Y010439D01*
G37*
G36*
X009340Y010439D02*
X009395Y010384D01*
X009388Y010377D01*
X009333Y010432D01*
X009340Y010439D01*
G37*
G36*
X009369Y010439D02*
X009424Y010384D01*
X009417Y010377D01*
X009362Y010432D01*
X009369Y010439D01*
G37*
G36*
X008633Y011132D02*
X008688Y011077D01*
X008681Y011070D01*
X008626Y011125D01*
X008633Y011132D01*
G37*
G36*
X008633Y011146D02*
X008688Y011091D01*
X008681Y011084D01*
X008626Y011139D01*
X008633Y011146D01*
G37*
G36*
X008640Y011167D02*
X008695Y011112D01*
X008688Y011105D01*
X008633Y011160D01*
X008640Y011167D01*
G37*
G36*
X008647Y011188D02*
X008702Y011133D01*
X008695Y011126D01*
X008640Y011181D01*
X008647Y011188D01*
G37*
G36*
X008661Y011216D02*
X008716Y011161D01*
X008709Y011154D01*
X008654Y011209D01*
X008661Y011216D01*
G37*
G36*
X008640Y011153D02*
X008695Y011098D01*
X008688Y011091D01*
X008633Y011146D01*
X008640Y011153D01*
G37*
G36*
X008746Y011315D02*
X008801Y011260D01*
X008794Y011253D01*
X008739Y011308D01*
X008746Y011315D01*
G37*
G36*
X008782Y011337D02*
X008837Y011282D01*
X008830Y011275D01*
X008775Y011330D01*
X008782Y011337D01*
G37*
G36*
X008803Y011344D02*
X008858Y011289D01*
X008851Y011282D01*
X008796Y011337D01*
X008803Y011344D01*
G37*
G36*
X008810Y011351D02*
X008865Y011296D01*
X008858Y011289D01*
X008803Y011344D01*
X008810Y011351D01*
G37*
G36*
X008824Y011351D02*
X008879Y011296D01*
X008872Y011289D01*
X008817Y011344D01*
X008824Y011351D01*
G37*
G36*
X008534Y011697D02*
X008589Y011642D01*
X008582Y011635D01*
X008527Y011690D01*
X008534Y011697D01*
G37*
G36*
X008541Y011718D02*
X008596Y011663D01*
X008589Y011656D01*
X008534Y011711D01*
X008541Y011718D01*
G37*
G36*
X008548Y011754D02*
X008603Y011699D01*
X008596Y011692D01*
X008541Y011747D01*
X008548Y011754D01*
G37*
G36*
X008555Y011775D02*
X008610Y011720D01*
X008603Y011713D01*
X008548Y011768D01*
X008555Y011775D01*
G37*
G36*
X008562Y011796D02*
X008617Y011741D01*
X008610Y011734D01*
X008555Y011789D01*
X008562Y011796D01*
G37*
G36*
X008569Y011817D02*
X008624Y011762D01*
X008617Y011755D01*
X008562Y011810D01*
X008569Y011817D01*
G37*
G36*
X008577Y011839D02*
X008632Y011784D01*
X008625Y011777D01*
X008570Y011832D01*
X008577Y011839D01*
G37*
G36*
X008584Y011860D02*
X008639Y011805D01*
X008632Y011798D01*
X008577Y011853D01*
X008584Y011860D01*
G37*
G36*
X008591Y011881D02*
X008646Y011826D01*
X008639Y011819D01*
X008584Y011874D01*
X008591Y011881D01*
G37*
G36*
X008598Y011902D02*
X008653Y011847D01*
X008646Y011840D01*
X008591Y011895D01*
X008598Y011902D01*
G37*
G36*
X008605Y011924D02*
X008660Y011869D01*
X008653Y011862D01*
X008598Y011917D01*
X008605Y011924D01*
G37*
G36*
X008612Y011945D02*
X008667Y011890D01*
X008660Y011883D01*
X008605Y011938D01*
X008612Y011945D01*
G37*
G36*
X008619Y011966D02*
X008674Y011911D01*
X008667Y011904D01*
X008612Y011959D01*
X008619Y011966D01*
G37*
G36*
X008626Y011987D02*
X008681Y011932D01*
X008674Y011925D01*
X008619Y011980D01*
X008626Y011987D01*
G37*
G36*
X008633Y012008D02*
X008688Y011953D01*
X008681Y011946D01*
X008626Y012001D01*
X008633Y012008D01*
G37*
G36*
X008640Y012030D02*
X008695Y011975D01*
X008688Y011968D01*
X008633Y012023D01*
X008640Y012030D01*
G37*
G36*
X008647Y012051D02*
X008702Y011996D01*
X008695Y011989D01*
X008640Y012044D01*
X008647Y012051D01*
G37*
G36*
X008654Y012086D02*
X008709Y012031D01*
X008702Y012024D01*
X008647Y012079D01*
X008654Y012086D01*
G37*
G36*
X008661Y012107D02*
X008716Y012052D01*
X008709Y012045D01*
X008654Y012100D01*
X008661Y012107D01*
G37*
G36*
X008668Y012129D02*
X008723Y012074D01*
X008716Y012067D01*
X008661Y012122D01*
X008668Y012129D01*
G37*
G36*
X008676Y012150D02*
X008731Y012095D01*
X008724Y012088D01*
X008669Y012143D01*
X008676Y012150D01*
G37*
G36*
X008683Y012171D02*
X008738Y012116D01*
X008731Y012109D01*
X008676Y012164D01*
X008683Y012171D01*
G37*
G36*
X008690Y012192D02*
X008745Y012137D01*
X008738Y012130D01*
X008683Y012185D01*
X008690Y012192D01*
G37*
G36*
X008697Y012213D02*
X008752Y012158D01*
X008745Y012151D01*
X008690Y012206D01*
X008697Y012213D01*
G37*
G36*
X008704Y012235D02*
X008759Y012180D01*
X008752Y012173D01*
X008697Y012228D01*
X008704Y012235D01*
G37*
G36*
X008711Y012256D02*
X008766Y012201D01*
X008759Y012194D01*
X008704Y012249D01*
X008711Y012256D01*
G37*
G36*
X008718Y012277D02*
X008773Y012222D01*
X008766Y012215D01*
X008711Y012270D01*
X008718Y012277D01*
G37*
G36*
X008725Y012298D02*
X008780Y012243D01*
X008773Y012236D01*
X008718Y012291D01*
X008725Y012298D01*
G37*
G36*
X008732Y012320D02*
X008787Y012265D01*
X008780Y012258D01*
X008725Y012313D01*
X008732Y012320D01*
G37*
G36*
X008739Y012341D02*
X008794Y012286D01*
X008787Y012279D01*
X008732Y012334D01*
X008739Y012341D01*
G37*
G36*
X008746Y012362D02*
X008801Y012307D01*
X008794Y012300D01*
X008739Y012355D01*
X008746Y012362D01*
G37*
G36*
X008753Y012383D02*
X008808Y012328D01*
X008801Y012321D01*
X008746Y012376D01*
X008753Y012383D01*
G37*
G36*
X008760Y012404D02*
X008815Y012349D01*
X008808Y012342D01*
X008753Y012397D01*
X008760Y012404D01*
G37*
G36*
X008697Y012468D02*
X008752Y012413D01*
X008745Y012406D01*
X008690Y012461D01*
X008697Y012468D01*
G37*
G36*
X008683Y012468D02*
X008738Y012413D01*
X008731Y012406D01*
X008676Y012461D01*
X008683Y012468D01*
G37*
G36*
X008661Y012461D02*
X008716Y012406D01*
X008709Y012399D01*
X008654Y012454D01*
X008661Y012461D01*
G37*
G36*
X008640Y012454D02*
X008695Y012399D01*
X008688Y012392D01*
X008633Y012447D01*
X008640Y012454D01*
G37*
G36*
X008619Y012447D02*
X008674Y012392D01*
X008667Y012385D01*
X008612Y012440D01*
X008619Y012447D01*
G37*
G36*
X008598Y012440D02*
X008653Y012385D01*
X008646Y012378D01*
X008591Y012433D01*
X008598Y012440D01*
G37*
G36*
X008577Y012433D02*
X008632Y012378D01*
X008625Y012371D01*
X008570Y012426D01*
X008577Y012433D01*
G37*
G36*
X008555Y012426D02*
X008610Y012371D01*
X008603Y012364D01*
X008548Y012419D01*
X008555Y012426D01*
G37*
G36*
X008541Y012426D02*
X008596Y012371D01*
X008589Y012364D01*
X008534Y012419D01*
X008541Y012426D01*
G37*
G36*
X008534Y012419D02*
X008589Y012364D01*
X008582Y012357D01*
X008527Y012412D01*
X008534Y012419D01*
G37*
G36*
X008513Y012411D02*
X008568Y012356D01*
X008561Y012349D01*
X008506Y012404D01*
X008513Y012411D01*
G37*
G36*
X008492Y012404D02*
X008547Y012349D01*
X008540Y012342D01*
X008485Y012397D01*
X008492Y012404D01*
G37*
G36*
X008478Y012404D02*
X008533Y012349D01*
X008526Y012342D01*
X008471Y012397D01*
X008478Y012404D01*
G37*
G36*
X008456Y012397D02*
X008511Y012342D01*
X008504Y012335D01*
X008449Y012390D01*
X008456Y012397D01*
G37*
G36*
X008435Y012390D02*
X008490Y012335D01*
X008483Y012328D01*
X008428Y012383D01*
X008435Y012390D01*
G37*
G36*
X008414Y012383D02*
X008469Y012328D01*
X008462Y012321D01*
X008407Y012376D01*
X008414Y012383D01*
G37*
G36*
X008393Y012376D02*
X008448Y012321D01*
X008441Y012314D01*
X008386Y012369D01*
X008393Y012376D01*
G37*
G36*
X008371Y012369D02*
X008426Y012314D01*
X008419Y012307D01*
X008364Y012362D01*
X008371Y012369D01*
G37*
G36*
X008350Y012362D02*
X008405Y012307D01*
X008398Y012300D01*
X008343Y012355D01*
X008350Y012362D01*
G37*
G36*
X008329Y012355D02*
X008384Y012300D01*
X008377Y012293D01*
X008322Y012348D01*
X008329Y012355D01*
G37*
G36*
X008308Y012348D02*
X008363Y012293D01*
X008356Y012286D01*
X008301Y012341D01*
X008308Y012348D01*
G37*
G36*
X008287Y012341D02*
X008342Y012286D01*
X008335Y012279D01*
X008280Y012334D01*
X008287Y012341D01*
G37*
G36*
X008265Y012334D02*
X008320Y012279D01*
X008313Y012272D01*
X008258Y012327D01*
X008265Y012334D01*
G37*
G36*
X008244Y012327D02*
X008299Y012272D01*
X008292Y012265D01*
X008237Y012320D01*
X008244Y012327D01*
G37*
G36*
X008223Y012320D02*
X008278Y012265D01*
X008271Y012258D01*
X008216Y012313D01*
X008223Y012320D01*
G37*
G36*
X008202Y012312D02*
X008257Y012257D01*
X008250Y012250D01*
X008195Y012305D01*
X008202Y012312D01*
G37*
G36*
X008181Y012305D02*
X008236Y012250D01*
X008229Y012243D01*
X008174Y012298D01*
X008181Y012305D01*
G37*
G36*
X008159Y012298D02*
X008214Y012243D01*
X008207Y012236D01*
X008152Y012291D01*
X008159Y012298D01*
G37*
G36*
X008138Y012291D02*
X008193Y012236D01*
X008186Y012229D01*
X008131Y012284D01*
X008138Y012291D01*
G37*
G36*
X008124Y012291D02*
X008179Y012236D01*
X008172Y012229D01*
X008117Y012284D01*
X008124Y012291D01*
G37*
G36*
X008103Y012284D02*
X008158Y012229D01*
X008151Y012222D01*
X008096Y012277D01*
X008103Y012284D01*
G37*
G36*
X008082Y012277D02*
X008137Y012222D01*
X008130Y012215D01*
X008075Y012270D01*
X008082Y012277D01*
G37*
G36*
X008060Y012270D02*
X008115Y012215D01*
X008108Y012208D01*
X008053Y012263D01*
X008060Y012270D01*
G37*
G36*
X008039Y012263D02*
X008094Y012208D01*
X008087Y012201D01*
X008032Y012256D01*
X008039Y012263D01*
G37*
G36*
X008018Y012256D02*
X008073Y012201D01*
X008066Y012194D01*
X008011Y012249D01*
X008018Y012256D01*
G37*
G36*
X007997Y012249D02*
X008052Y012194D01*
X008045Y012187D01*
X007990Y012242D01*
X007997Y012249D01*
G37*
G36*
X007976Y012242D02*
X008031Y012187D01*
X008024Y012180D01*
X007969Y012235D01*
X007976Y012242D01*
G37*
G36*
X007954Y012235D02*
X008009Y012180D01*
X008002Y012173D01*
X007947Y012228D01*
X007954Y012235D01*
G37*
G36*
X007933Y012228D02*
X007988Y012173D01*
X007981Y012166D01*
X007926Y012221D01*
X007933Y012228D01*
G37*
G36*
X007912Y012221D02*
X007967Y012166D01*
X007960Y012159D01*
X007905Y012214D01*
X007912Y012221D01*
G37*
G36*
X007891Y012213D02*
X007946Y012158D01*
X007939Y012151D01*
X007884Y012206D01*
X007891Y012213D01*
G37*
G36*
X007869Y012206D02*
X007924Y012151D01*
X007917Y012144D01*
X007862Y012199D01*
X007869Y012206D01*
G37*
G36*
X007848Y012199D02*
X007903Y012144D01*
X007896Y012137D01*
X007841Y012192D01*
X007848Y012199D01*
G37*
G36*
X007827Y012192D02*
X007882Y012137D01*
X007875Y012130D01*
X007820Y012185D01*
X007827Y012192D01*
G37*
G36*
X007806Y012185D02*
X007861Y012130D01*
X007854Y012123D01*
X007799Y012178D01*
X007806Y012185D01*
G37*
G36*
X007785Y012178D02*
X007840Y012123D01*
X007833Y012116D01*
X007778Y012171D01*
X007785Y012178D01*
G37*
G36*
X007763Y012171D02*
X007818Y012116D01*
X007811Y012109D01*
X007756Y012164D01*
X007763Y012171D01*
G37*
G36*
X007749Y012171D02*
X007804Y012116D01*
X007797Y012109D01*
X007742Y012164D01*
X007749Y012171D01*
G37*
G36*
X007728Y012164D02*
X007783Y012109D01*
X007776Y012102D01*
X007721Y012157D01*
X007728Y012164D01*
G37*
G36*
X007707Y012157D02*
X007762Y012102D01*
X007755Y012095D01*
X007700Y012150D01*
X007707Y012157D01*
G37*
G36*
X007686Y012150D02*
X007741Y012095D01*
X007734Y012088D01*
X007679Y012143D01*
X007686Y012150D01*
G37*
G36*
X007664Y012143D02*
X007719Y012088D01*
X007712Y012081D01*
X007657Y012136D01*
X007664Y012143D01*
G37*
G36*
X007643Y012136D02*
X007698Y012081D01*
X007691Y012074D01*
X007636Y012129D01*
X007643Y012136D01*
G37*
G36*
X007622Y012129D02*
X007677Y012074D01*
X007670Y012067D01*
X007615Y012122D01*
X007622Y012129D01*
G37*
G36*
X007601Y012122D02*
X007656Y012067D01*
X007649Y012060D01*
X007594Y012115D01*
X007601Y012122D01*
G37*
G36*
X007580Y012114D02*
X007635Y012059D01*
X007628Y012052D01*
X007573Y012107D01*
X007580Y012114D01*
G37*
G36*
X007558Y012107D02*
X007613Y012052D01*
X007606Y012045D01*
X007551Y012100D01*
X007558Y012107D01*
G37*
G36*
X007537Y012100D02*
X007592Y012045D01*
X007585Y012038D01*
X007530Y012093D01*
X007537Y012100D01*
G37*
G36*
X007516Y012093D02*
X007571Y012038D01*
X007564Y012031D01*
X007509Y012086D01*
X007516Y012093D01*
G37*
G36*
X007509Y012086D02*
X007564Y012031D01*
X007557Y012024D01*
X007502Y012079D01*
X007509Y012086D01*
G37*
G36*
X007530Y012093D02*
X007585Y012038D01*
X007578Y012031D01*
X007523Y012086D01*
X007530Y012093D01*
G37*
G36*
X007551Y012100D02*
X007606Y012045D01*
X007599Y012038D01*
X007544Y012093D01*
X007551Y012100D01*
G37*
G36*
X007572Y012107D02*
X007627Y012052D01*
X007620Y012045D01*
X007565Y012100D01*
X007572Y012107D01*
G37*
G36*
X007594Y012114D02*
X007649Y012059D01*
X007642Y012052D01*
X007587Y012107D01*
X007594Y012114D01*
G37*
G36*
X007615Y012122D02*
X007670Y012067D01*
X007663Y012060D01*
X007608Y012115D01*
X007615Y012122D01*
G37*
G36*
X007636Y012129D02*
X007691Y012074D01*
X007684Y012067D01*
X007629Y012122D01*
X007636Y012129D01*
G37*
G36*
X007657Y012136D02*
X007712Y012081D01*
X007705Y012074D01*
X007650Y012129D01*
X007657Y012136D01*
G37*
G36*
X007679Y012143D02*
X007734Y012088D01*
X007727Y012081D01*
X007672Y012136D01*
X007679Y012143D01*
G37*
G36*
X007700Y012150D02*
X007755Y012095D01*
X007748Y012088D01*
X007693Y012143D01*
X007700Y012150D01*
G37*
G36*
X007721Y012157D02*
X007776Y012102D01*
X007769Y012095D01*
X007714Y012150D01*
X007721Y012157D01*
G37*
G36*
X007742Y012164D02*
X007797Y012109D01*
X007790Y012102D01*
X007735Y012157D01*
X007742Y012164D01*
G37*
G36*
X007862Y012199D02*
X007917Y012144D01*
X007910Y012137D01*
X007855Y012192D01*
X007862Y012199D01*
G37*
G36*
X007884Y012206D02*
X007939Y012151D01*
X007932Y012144D01*
X007877Y012199D01*
X007884Y012206D01*
G37*
G36*
X007905Y012213D02*
X007960Y012158D01*
X007953Y012151D01*
X007898Y012206D01*
X007905Y012213D01*
G37*
G36*
X007926Y012221D02*
X007981Y012166D01*
X007974Y012159D01*
X007919Y012214D01*
X007926Y012221D01*
G37*
G36*
X007947Y012228D02*
X008002Y012173D01*
X007995Y012166D01*
X007940Y012221D01*
X007947Y012228D01*
G37*
G36*
X007968Y012235D02*
X008023Y012180D01*
X008016Y012173D01*
X007961Y012228D01*
X007968Y012235D01*
G37*
G36*
X007990Y012242D02*
X008045Y012187D01*
X008038Y012180D01*
X007983Y012235D01*
X007990Y012242D01*
G37*
G36*
X008011Y012249D02*
X008066Y012194D01*
X008059Y012187D01*
X008004Y012242D01*
X008011Y012249D01*
G37*
G36*
X008032Y012256D02*
X008087Y012201D01*
X008080Y012194D01*
X008025Y012249D01*
X008032Y012256D01*
G37*
G36*
X008053Y012263D02*
X008108Y012208D01*
X008101Y012201D01*
X008046Y012256D01*
X008053Y012263D01*
G37*
G36*
X008075Y012270D02*
X008130Y012215D01*
X008123Y012208D01*
X008068Y012263D01*
X008075Y012270D01*
G37*
G36*
X008096Y012277D02*
X008151Y012222D01*
X008144Y012215D01*
X008089Y012270D01*
X008096Y012277D01*
G37*
G36*
X008117Y012284D02*
X008172Y012229D01*
X008165Y012222D01*
X008110Y012277D01*
X008117Y012284D01*
G37*
G36*
X008195Y012305D02*
X008250Y012250D01*
X008243Y012243D01*
X008188Y012298D01*
X008195Y012305D01*
G37*
G36*
X008237Y012320D02*
X008292Y012265D01*
X008285Y012258D01*
X008230Y012313D01*
X008237Y012320D01*
G37*
G36*
X008258Y012327D02*
X008313Y012272D01*
X008306Y012265D01*
X008251Y012320D01*
X008258Y012327D01*
G37*
G36*
X008280Y012334D02*
X008335Y012279D01*
X008328Y012272D01*
X008273Y012327D01*
X008280Y012334D01*
G37*
G36*
X008301Y012341D02*
X008356Y012286D01*
X008349Y012279D01*
X008294Y012334D01*
X008301Y012341D01*
G37*
G36*
X008322Y012348D02*
X008377Y012293D01*
X008370Y012286D01*
X008315Y012341D01*
X008322Y012348D01*
G37*
G36*
X008343Y012355D02*
X008398Y012300D01*
X008391Y012293D01*
X008336Y012348D01*
X008343Y012355D01*
G37*
G36*
X008364Y012362D02*
X008419Y012307D01*
X008412Y012300D01*
X008357Y012355D01*
X008364Y012362D01*
G37*
G36*
X008386Y012369D02*
X008441Y012314D01*
X008434Y012307D01*
X008379Y012362D01*
X008386Y012369D01*
G37*
G36*
X008407Y012376D02*
X008462Y012321D01*
X008455Y012314D01*
X008400Y012369D01*
X008407Y012376D01*
G37*
G36*
X008428Y012383D02*
X008483Y012328D01*
X008476Y012321D01*
X008421Y012376D01*
X008428Y012383D01*
G37*
G36*
X008449Y012390D02*
X008504Y012335D01*
X008497Y012328D01*
X008442Y012383D01*
X008449Y012390D01*
G37*
G36*
X008470Y012397D02*
X008525Y012342D01*
X008518Y012335D01*
X008463Y012390D01*
X008470Y012397D01*
G37*
G36*
X008569Y012426D02*
X008624Y012371D01*
X008617Y012364D01*
X008562Y012419D01*
X008569Y012426D01*
G37*
G36*
X008591Y012433D02*
X008646Y012378D01*
X008639Y012371D01*
X008584Y012426D01*
X008591Y012433D01*
G37*
G36*
X008612Y012440D02*
X008667Y012385D01*
X008660Y012378D01*
X008605Y012433D01*
X008612Y012440D01*
G37*
G36*
X008633Y012447D02*
X008688Y012392D01*
X008681Y012385D01*
X008626Y012440D01*
X008633Y012447D01*
G37*
G36*
X008654Y012454D02*
X008709Y012399D01*
X008702Y012392D01*
X008647Y012447D01*
X008654Y012454D01*
G37*
G36*
X008676Y012461D02*
X008731Y012406D01*
X008724Y012399D01*
X008669Y012454D01*
X008676Y012461D01*
G37*
G36*
X008789Y012503D02*
X008844Y012448D01*
X008837Y012441D01*
X008782Y012496D01*
X008789Y012503D01*
G37*
G36*
X008753Y012369D02*
X008808Y012314D01*
X008801Y012307D01*
X008746Y012362D01*
X008753Y012369D01*
G37*
G36*
X008732Y012305D02*
X008787Y012250D01*
X008780Y012243D01*
X008725Y012298D01*
X008732Y012305D01*
G37*
G36*
X008725Y012284D02*
X008780Y012229D01*
X008773Y012222D01*
X008718Y012277D01*
X008725Y012284D01*
G37*
G36*
X008718Y012263D02*
X008773Y012208D01*
X008766Y012201D01*
X008711Y012256D01*
X008718Y012263D01*
G37*
G36*
X008711Y012242D02*
X008766Y012187D01*
X008759Y012180D01*
X008704Y012235D01*
X008711Y012242D01*
G37*
G36*
X008704Y012221D02*
X008759Y012166D01*
X008752Y012159D01*
X008697Y012214D01*
X008704Y012221D01*
G37*
G36*
X008697Y012199D02*
X008752Y012144D01*
X008745Y012137D01*
X008690Y012192D01*
X008697Y012199D01*
G37*
G36*
X008690Y012178D02*
X008745Y012123D01*
X008738Y012116D01*
X008683Y012171D01*
X008690Y012178D01*
G37*
G36*
X008683Y012157D02*
X008738Y012102D01*
X008731Y012095D01*
X008676Y012150D01*
X008683Y012157D01*
G37*
G36*
X008676Y012136D02*
X008731Y012081D01*
X008724Y012074D01*
X008669Y012129D01*
X008676Y012136D01*
G37*
G36*
X008668Y012114D02*
X008723Y012059D01*
X008716Y012052D01*
X008661Y012107D01*
X008668Y012114D01*
G37*
G36*
X008661Y012093D02*
X008716Y012038D01*
X008709Y012031D01*
X008654Y012086D01*
X008661Y012093D01*
G37*
G36*
X008654Y012072D02*
X008709Y012017D01*
X008702Y012010D01*
X008647Y012065D01*
X008654Y012072D01*
G37*
G36*
X008633Y011994D02*
X008688Y011939D01*
X008681Y011932D01*
X008626Y011987D01*
X008633Y011994D01*
G37*
G36*
X008626Y011973D02*
X008681Y011918D01*
X008674Y011911D01*
X008619Y011966D01*
X008626Y011973D01*
G37*
G36*
X008619Y011952D02*
X008674Y011897D01*
X008667Y011890D01*
X008612Y011945D01*
X008619Y011952D01*
G37*
G36*
X008612Y011931D02*
X008667Y011876D01*
X008660Y011869D01*
X008605Y011924D01*
X008612Y011931D01*
G37*
G36*
X008605Y011909D02*
X008660Y011854D01*
X008653Y011847D01*
X008598Y011902D01*
X008605Y011909D01*
G37*
G36*
X008598Y011888D02*
X008653Y011833D01*
X008646Y011826D01*
X008591Y011881D01*
X008598Y011888D01*
G37*
G36*
X008591Y011867D02*
X008646Y011812D01*
X008639Y011805D01*
X008584Y011860D01*
X008591Y011867D01*
G37*
G36*
X008584Y011846D02*
X008639Y011791D01*
X008632Y011784D01*
X008577Y011839D01*
X008584Y011846D01*
G37*
G36*
X008577Y011825D02*
X008632Y011770D01*
X008625Y011763D01*
X008570Y011818D01*
X008577Y011825D01*
G37*
G36*
X008569Y011803D02*
X008624Y011748D01*
X008617Y011741D01*
X008562Y011796D01*
X008569Y011803D01*
G37*
G36*
X008562Y011782D02*
X008617Y011727D01*
X008610Y011720D01*
X008555Y011775D01*
X008562Y011782D01*
G37*
G36*
X008555Y011761D02*
X008610Y011706D01*
X008603Y011699D01*
X008548Y011754D01*
X008555Y011761D01*
G37*
G36*
X008548Y011740D02*
X008603Y011685D01*
X008596Y011678D01*
X008541Y011733D01*
X008548Y011740D01*
G37*
G36*
X008527Y011676D02*
X008582Y011621D01*
X008575Y011614D01*
X008520Y011669D01*
X008527Y011676D01*
G37*
G36*
X008527Y011662D02*
X008582Y011607D01*
X008575Y011600D01*
X008520Y011655D01*
X008527Y011662D01*
G37*
G36*
X008520Y011655D02*
X008575Y011600D01*
X008568Y011593D01*
X008513Y011648D01*
X008520Y011655D01*
G37*
G36*
X008520Y011641D02*
X008575Y011586D01*
X008568Y011579D01*
X008513Y011634D01*
X008520Y011641D01*
G37*
G36*
X008513Y011634D02*
X008568Y011579D01*
X008561Y011572D01*
X008506Y011627D01*
X008513Y011634D01*
G37*
G36*
X008513Y011619D02*
X008568Y011564D01*
X008561Y011557D01*
X008506Y011612D01*
X008513Y011619D01*
G37*
G36*
X008506Y011612D02*
X008561Y011557D01*
X008554Y011550D01*
X008499Y011605D01*
X008506Y011612D01*
G37*
G36*
X008506Y011598D02*
X008561Y011543D01*
X008554Y011536D01*
X008499Y011591D01*
X008506Y011598D01*
G37*
G36*
X008499Y011591D02*
X008554Y011536D01*
X008547Y011529D01*
X008492Y011584D01*
X008499Y011591D01*
G37*
G36*
X008499Y011577D02*
X008554Y011522D01*
X008547Y011515D01*
X008492Y011570D01*
X008499Y011577D01*
G37*
G36*
X008492Y011570D02*
X008547Y011515D01*
X008540Y011508D01*
X008485Y011563D01*
X008492Y011570D01*
G37*
G36*
X008492Y011556D02*
X008547Y011501D01*
X008540Y011494D01*
X008485Y011549D01*
X008492Y011556D01*
G37*
G36*
X008485Y011549D02*
X008540Y011494D01*
X008533Y011487D01*
X008478Y011542D01*
X008485Y011549D01*
G37*
G36*
X008485Y011535D02*
X008540Y011480D01*
X008533Y011473D01*
X008478Y011528D01*
X008485Y011535D01*
G37*
G36*
X008478Y011528D02*
X008533Y011473D01*
X008526Y011466D01*
X008471Y011521D01*
X008478Y011528D01*
G37*
G36*
X008478Y011513D02*
X008533Y011458D01*
X008526Y011451D01*
X008471Y011506D01*
X008478Y011513D01*
G37*
G36*
X008470Y011506D02*
X008525Y011451D01*
X008518Y011444D01*
X008463Y011499D01*
X008470Y011506D01*
G37*
G36*
X008470Y011492D02*
X008525Y011437D01*
X008518Y011430D01*
X008463Y011485D01*
X008470Y011492D01*
G37*
G36*
X008463Y011485D02*
X008518Y011430D01*
X008511Y011423D01*
X008456Y011478D01*
X008463Y011485D01*
G37*
G36*
X008463Y011471D02*
X008518Y011416D01*
X008511Y011409D01*
X008456Y011464D01*
X008463Y011471D01*
G37*
G36*
X008456Y011464D02*
X008511Y011409D01*
X008504Y011402D01*
X008449Y011457D01*
X008456Y011464D01*
G37*
G36*
X008456Y011450D02*
X008511Y011395D01*
X008504Y011388D01*
X008449Y011443D01*
X008456Y011450D01*
G37*
G36*
X008449Y011443D02*
X008504Y011388D01*
X008497Y011381D01*
X008442Y011436D01*
X008449Y011443D01*
G37*
G36*
X008449Y011429D02*
X008504Y011374D01*
X008497Y011367D01*
X008442Y011422D01*
X008449Y011429D01*
G37*
G36*
X008442Y011422D02*
X008497Y011367D01*
X008490Y011360D01*
X008435Y011415D01*
X008442Y011422D01*
G37*
G36*
X008442Y011407D02*
X008497Y011352D01*
X008490Y011345D01*
X008435Y011400D01*
X008442Y011407D01*
G37*
G36*
X008435Y011400D02*
X008490Y011345D01*
X008483Y011338D01*
X008428Y011393D01*
X008435Y011400D01*
G37*
G36*
X008435Y011386D02*
X008490Y011331D01*
X008483Y011324D01*
X008428Y011379D01*
X008435Y011386D01*
G37*
G36*
X008435Y011372D02*
X008490Y011317D01*
X008483Y011310D01*
X008428Y011365D01*
X008435Y011372D01*
G37*
G36*
X008428Y011365D02*
X008483Y011310D01*
X008476Y011303D01*
X008421Y011358D01*
X008428Y011365D01*
G37*
G36*
X008428Y011351D02*
X008483Y011296D01*
X008476Y011289D01*
X008421Y011344D01*
X008428Y011351D01*
G37*
G36*
X008421Y011344D02*
X008476Y011289D01*
X008469Y011282D01*
X008414Y011337D01*
X008421Y011344D01*
G37*
G36*
X008414Y011323D02*
X008469Y011268D01*
X008462Y011261D01*
X008407Y011316D01*
X008414Y011323D01*
G37*
G36*
X008414Y011308D02*
X008469Y011253D01*
X008462Y011246D01*
X008407Y011301D01*
X008414Y011308D01*
G37*
G36*
X008407Y011301D02*
X008462Y011246D01*
X008455Y011239D01*
X008400Y011294D01*
X008407Y011301D01*
G37*
G36*
X008407Y011287D02*
X008462Y011232D01*
X008455Y011225D01*
X008400Y011280D01*
X008407Y011287D01*
G37*
G36*
X008400Y011280D02*
X008455Y011225D01*
X008448Y011218D01*
X008393Y011273D01*
X008400Y011280D01*
G37*
G36*
X008400Y011266D02*
X008455Y011211D01*
X008448Y011204D01*
X008393Y011259D01*
X008400Y011266D01*
G37*
G36*
X008393Y011259D02*
X008448Y011204D01*
X008441Y011197D01*
X008386Y011252D01*
X008393Y011259D01*
G37*
G36*
X008393Y011245D02*
X008448Y011190D01*
X008441Y011183D01*
X008386Y011238D01*
X008393Y011245D01*
G37*
G36*
X008386Y011238D02*
X008441Y011183D01*
X008434Y011176D01*
X008379Y011231D01*
X008386Y011238D01*
G37*
G36*
X008386Y011224D02*
X008441Y011169D01*
X008434Y011162D01*
X008379Y011217D01*
X008386Y011224D01*
G37*
G36*
X008379Y011216D02*
X008434Y011161D01*
X008427Y011154D01*
X008372Y011209D01*
X008379Y011216D01*
G37*
G36*
X009262Y011747D02*
X009317Y011692D01*
X009310Y011685D01*
X009255Y011740D01*
X009262Y011747D01*
G37*
G36*
X009298Y011754D02*
X009353Y011699D01*
X009346Y011692D01*
X009291Y011747D01*
X009298Y011754D01*
G37*
G36*
X009312Y011754D02*
X009367Y011699D01*
X009360Y011692D01*
X009305Y011747D01*
X009312Y011754D01*
G37*
G36*
X009326Y011754D02*
X009381Y011699D01*
X009374Y011692D01*
X009319Y011747D01*
X009326Y011754D01*
G37*
D36*
G36*
X009446Y011747D02*
X009559Y011634D01*
X009552Y011627D01*
X009439Y011740D01*
X009446Y011747D01*
G37*
G36*
X008936Y011366D02*
X009049Y011253D01*
X009042Y011246D01*
X008929Y011359D01*
X008936Y011366D01*
G37*
G36*
X009113Y010496D02*
X009226Y010383D01*
X009219Y010376D01*
X009106Y010489D01*
X009113Y010496D01*
G37*
G36*
X009884Y011295D02*
X009997Y011182D01*
X009990Y011175D01*
X009877Y011288D01*
X009884Y011295D01*
G37*
G36*
X008703Y012476D02*
X008816Y012363D01*
X008809Y012356D01*
X008696Y012469D01*
X008703Y012476D01*
G37*
D37*
G36*
X008718Y012475D02*
X008823Y012370D01*
X008816Y012363D01*
X008711Y012468D01*
X008718Y012475D01*
G37*
G36*
X008633Y010976D02*
X008738Y010871D01*
X008731Y010864D01*
X008626Y010969D01*
X008633Y010976D01*
G37*
G36*
X009142Y010481D02*
X009247Y010376D01*
X009240Y010369D01*
X009135Y010474D01*
X009142Y010481D01*
G37*
G36*
X009587Y010927D02*
X009692Y010822D01*
X009685Y010815D01*
X009580Y010920D01*
X009587Y010927D01*
G37*
D38*
G36*
X009616Y010913D02*
X009714Y010815D01*
X009706Y010807D01*
X009608Y010905D01*
X009616Y010913D01*
G37*
G36*
X009906Y011246D02*
X010004Y011148D01*
X009996Y011140D01*
X009898Y011238D01*
X009906Y011246D01*
G37*
G36*
X009899Y011267D02*
X009997Y011169D01*
X009989Y011161D01*
X009891Y011259D01*
X009899Y011267D01*
G37*
G36*
X009425Y011755D02*
X009523Y011657D01*
X009515Y011649D01*
X009417Y011747D01*
X009425Y011755D01*
G37*
G36*
X008923Y011366D02*
X009021Y011268D01*
X009013Y011260D01*
X008915Y011358D01*
X008923Y011366D01*
G37*
G36*
X008626Y010998D02*
X008724Y010900D01*
X008716Y010892D01*
X008618Y010990D01*
X008626Y010998D01*
G37*
G36*
X009164Y010475D02*
X009262Y010377D01*
X009254Y010369D01*
X009156Y010467D01*
X009164Y010475D01*
G37*
G36*
X008725Y012483D02*
X008823Y012385D01*
X008815Y012377D01*
X008717Y012475D01*
X008725Y012483D01*
G37*
D39*
G36*
X008739Y012482D02*
X008830Y012391D01*
X008823Y012384D01*
X008732Y012475D01*
X008739Y012482D01*
G37*
G36*
X008626Y011012D02*
X008717Y010921D01*
X008710Y010914D01*
X008619Y011005D01*
X008626Y011012D01*
G37*
G36*
X009191Y010460D02*
X009282Y010369D01*
X009275Y010362D01*
X009184Y010453D01*
X009191Y010460D01*
G37*
G36*
X009637Y010906D02*
X009728Y010815D01*
X009721Y010808D01*
X009630Y010899D01*
X009637Y010906D01*
G37*
G36*
X009913Y011224D02*
X010004Y011133D01*
X009997Y011126D01*
X009906Y011217D01*
X009913Y011224D01*
G37*
D40*
G36*
X009920Y011202D02*
X010003Y011119D01*
X009996Y011112D01*
X009913Y011195D01*
X009920Y011202D01*
G37*
G36*
X009659Y010898D02*
X009742Y010815D01*
X009735Y010808D01*
X009652Y010891D01*
X009659Y010898D01*
G37*
G36*
X009227Y010453D02*
X009310Y010370D01*
X009303Y010363D01*
X009220Y010446D01*
X009227Y010453D01*
G37*
G36*
X009213Y010453D02*
X009296Y010370D01*
X009289Y010363D01*
X009206Y010446D01*
X009213Y010453D01*
G37*
G36*
X008626Y011025D02*
X008709Y010942D01*
X008702Y010935D01*
X008619Y011018D01*
X008626Y011025D01*
G37*
G36*
X008619Y011047D02*
X008702Y010964D01*
X008695Y010957D01*
X008612Y011040D01*
X008619Y011047D01*
G37*
G36*
X008909Y011365D02*
X008992Y011282D01*
X008985Y011275D01*
X008902Y011358D01*
X008909Y011365D01*
G37*
G36*
X009411Y011754D02*
X009494Y011671D01*
X009487Y011664D01*
X009404Y011747D01*
X009411Y011754D01*
G37*
G36*
X008746Y012489D02*
X008829Y012406D01*
X008822Y012399D01*
X008739Y012482D01*
X008746Y012489D01*
G37*
D41*
G36*
X008760Y012490D02*
X008837Y012413D01*
X008830Y012406D01*
X008753Y012483D01*
X008760Y012490D01*
G37*
G36*
X009396Y011754D02*
X009473Y011677D01*
X009466Y011670D01*
X009389Y011747D01*
X009396Y011754D01*
G37*
G36*
X008894Y011365D02*
X008971Y011288D01*
X008964Y011281D01*
X008887Y011358D01*
X008894Y011365D01*
G37*
G36*
X008880Y011365D02*
X008957Y011288D01*
X008950Y011281D01*
X008873Y011358D01*
X008880Y011365D01*
G37*
G36*
X008619Y011075D02*
X008696Y010998D01*
X008689Y010991D01*
X008612Y011068D01*
X008619Y011075D01*
G37*
G36*
X008619Y011061D02*
X008696Y010984D01*
X008689Y010977D01*
X008612Y011054D01*
X008619Y011061D01*
G37*
G36*
X009248Y010446D02*
X009325Y010369D01*
X009318Y010362D01*
X009241Y010439D01*
X009248Y010446D01*
G37*
G36*
X009679Y010892D02*
X009756Y010815D01*
X009749Y010808D01*
X009672Y010885D01*
X009679Y010892D01*
G37*
G36*
X009693Y010892D02*
X009770Y010815D01*
X009763Y010808D01*
X009686Y010885D01*
X009693Y010892D01*
G37*
G36*
X009927Y011181D02*
X010004Y011104D01*
X009997Y011097D01*
X009920Y011174D01*
X009927Y011181D01*
G37*
D42*
G36*
X009934Y011160D02*
X010003Y011091D01*
X009996Y011084D01*
X009927Y011153D01*
X009934Y011160D01*
G37*
G36*
X009934Y011146D02*
X010003Y011077D01*
X009996Y011070D01*
X009927Y011139D01*
X009934Y011146D01*
G37*
G36*
X009934Y011132D02*
X010003Y011063D01*
X009996Y011056D01*
X009927Y011125D01*
X009934Y011132D01*
G37*
G36*
X009934Y011117D02*
X010003Y011048D01*
X009996Y011041D01*
X009927Y011110D01*
X009934Y011117D01*
G37*
G36*
X009383Y011754D02*
X009452Y011685D01*
X009445Y011678D01*
X009376Y011747D01*
X009383Y011754D01*
G37*
G36*
X009347Y011761D02*
X009416Y011692D01*
X009409Y011685D01*
X009340Y011754D01*
X009347Y011761D01*
G37*
G36*
X009362Y011761D02*
X009431Y011692D01*
X009424Y011685D01*
X009355Y011754D01*
X009362Y011761D01*
G37*
G36*
X008867Y011365D02*
X008936Y011296D01*
X008929Y011289D01*
X008860Y011358D01*
X008867Y011365D01*
G37*
G36*
X009270Y010439D02*
X009339Y010370D01*
X009332Y010363D01*
X009263Y010432D01*
X009270Y010439D01*
G37*
G36*
X009284Y010439D02*
X009353Y010370D01*
X009346Y010363D01*
X009277Y010432D01*
X009284Y010439D01*
G37*
G36*
X008768Y012496D02*
X008837Y012427D01*
X008830Y012420D01*
X008761Y012489D01*
X008768Y012496D01*
G37*
D43*
G36*
X008781Y012497D02*
X008844Y012434D01*
X008837Y012427D01*
X008774Y012490D01*
X008781Y012497D01*
G37*
G36*
X008753Y012398D02*
X008816Y012335D01*
X008809Y012328D01*
X008746Y012391D01*
X008753Y012398D01*
G37*
G36*
X008739Y012355D02*
X008802Y012292D01*
X008795Y012285D01*
X008732Y012348D01*
X008739Y012355D01*
G37*
G36*
X008520Y012419D02*
X008583Y012356D01*
X008576Y012349D01*
X008513Y012412D01*
X008520Y012419D01*
G37*
G36*
X008498Y012412D02*
X008561Y012349D01*
X008554Y012342D01*
X008491Y012405D01*
X008498Y012412D01*
G37*
G36*
X008166Y012306D02*
X008229Y012243D01*
X008222Y012236D01*
X008159Y012299D01*
X008166Y012306D01*
G37*
G36*
X008145Y012299D02*
X008208Y012236D01*
X008201Y012229D01*
X008138Y012292D01*
X008145Y012299D01*
G37*
G36*
X007834Y012200D02*
X007897Y012137D01*
X007890Y012130D01*
X007827Y012193D01*
X007834Y012200D01*
G37*
G36*
X007812Y012193D02*
X007875Y012130D01*
X007868Y012123D01*
X007805Y012186D01*
X007812Y012193D01*
G37*
G36*
X007791Y012186D02*
X007854Y012123D01*
X007847Y012116D01*
X007784Y012179D01*
X007791Y012186D01*
G37*
G36*
X008633Y012023D02*
X008696Y011960D01*
X008689Y011953D01*
X008626Y012016D01*
X008633Y012023D01*
G37*
G36*
X008640Y012044D02*
X008703Y011981D01*
X008696Y011974D01*
X008633Y012037D01*
X008640Y012044D01*
G37*
G36*
X008647Y012065D02*
X008710Y012002D01*
X008703Y011995D01*
X008640Y012058D01*
X008647Y012065D01*
G37*
G36*
X008541Y011733D02*
X008604Y011670D01*
X008597Y011663D01*
X008534Y011726D01*
X008541Y011733D01*
G37*
G36*
X008534Y011712D02*
X008597Y011649D01*
X008590Y011642D01*
X008527Y011705D01*
X008534Y011712D01*
G37*
G36*
X008527Y011691D02*
X008590Y011628D01*
X008583Y011621D01*
X008520Y011684D01*
X008527Y011691D01*
G37*
G36*
X008413Y011337D02*
X008476Y011274D01*
X008469Y011267D01*
X008406Y011330D01*
X008413Y011337D01*
G37*
G36*
X008626Y011125D02*
X008689Y011062D01*
X008682Y011055D01*
X008619Y011118D01*
X008626Y011125D01*
G37*
G36*
X008626Y011111D02*
X008689Y011048D01*
X008682Y011041D01*
X008619Y011104D01*
X008626Y011111D01*
G37*
G36*
X008626Y011097D02*
X008689Y011034D01*
X008682Y011027D01*
X008619Y011090D01*
X008626Y011097D01*
G37*
G36*
X008626Y011083D02*
X008689Y011020D01*
X008682Y011013D01*
X008619Y011076D01*
X008626Y011083D01*
G37*
G36*
X008831Y011358D02*
X008894Y011295D01*
X008887Y011288D01*
X008824Y011351D01*
X008831Y011358D01*
G37*
G36*
X008845Y011358D02*
X008908Y011295D01*
X008901Y011288D01*
X008838Y011351D01*
X008845Y011358D01*
G37*
G36*
X008859Y011358D02*
X008922Y011295D01*
X008915Y011288D01*
X008852Y011351D01*
X008859Y011358D01*
G37*
G36*
X009333Y011761D02*
X009396Y011698D01*
X009389Y011691D01*
X009326Y011754D01*
X009333Y011761D01*
G37*
G36*
X009934Y011104D02*
X009997Y011041D01*
X009990Y011034D01*
X009927Y011097D01*
X009934Y011104D01*
G37*
G36*
X009934Y011090D02*
X009997Y011027D01*
X009990Y011020D01*
X009927Y011083D01*
X009934Y011090D01*
G37*
G36*
X009934Y011075D02*
X009997Y011012D01*
X009990Y011005D01*
X009927Y011068D01*
X009934Y011075D01*
G37*
G36*
X009764Y010892D02*
X009827Y010829D01*
X009820Y010822D01*
X009757Y010885D01*
X009764Y010892D01*
G37*
G36*
X009743Y010885D02*
X009806Y010822D01*
X009799Y010815D01*
X009736Y010878D01*
X009743Y010885D01*
G37*
G36*
X009715Y010885D02*
X009778Y010822D01*
X009771Y010815D01*
X009708Y010878D01*
X009715Y010885D01*
G37*
G36*
X009729Y010885D02*
X009792Y010822D01*
X009785Y010815D01*
X009722Y010878D01*
X009729Y010885D01*
G37*
G36*
X009326Y010439D02*
X009389Y010376D01*
X009382Y010369D01*
X009319Y010432D01*
X009326Y010439D01*
G37*
G36*
X009297Y010439D02*
X009360Y010376D01*
X009353Y010369D01*
X009290Y010432D01*
X009297Y010439D01*
G37*
G36*
X009311Y010439D02*
X009374Y010376D01*
X009367Y010369D01*
X009304Y010432D01*
X009311Y010439D01*
G37*
D44*
G36*
X009467Y010467D02*
X009480Y010454D01*
X009473Y010447D01*
X009460Y010460D01*
X009467Y010467D01*
G37*
D45*
G36*
X008958Y011359D02*
X009085Y011232D01*
X009078Y011225D01*
X008951Y011352D01*
X008958Y011359D01*
G37*
G36*
X009467Y011740D02*
X009594Y011613D01*
X009587Y011606D01*
X009460Y011733D01*
X009467Y011740D01*
G37*
D46*
G36*
X008993Y011351D02*
X009190Y011154D01*
X009183Y011147D01*
X008986Y011344D01*
X008993Y011351D01*
G37*
G36*
X009446Y011026D02*
X009643Y010829D01*
X009636Y010822D01*
X009439Y011019D01*
X009446Y011026D01*
G37*
D47*
G36*
X009899Y010516D02*
X010562Y009853D01*
X010555Y009846D01*
X009892Y010509D01*
X009899Y010516D01*
G37*
G36*
X009871Y010488D02*
X010534Y009825D01*
X010527Y009818D01*
X009864Y010481D01*
X009871Y010488D01*
G37*
D48*
G36*
X009376Y011082D02*
X009615Y010843D01*
X009608Y010836D01*
X009369Y011075D01*
X009376Y011082D01*
G37*
G36*
X009022Y011337D02*
X009261Y011098D01*
X009254Y011091D01*
X009015Y011330D01*
X009022Y011337D01*
G37*
D49*
G36*
X009050Y011323D02*
X009361Y011012D01*
X009354Y011005D01*
X009043Y011316D01*
X009050Y011323D01*
G37*
D50*
G36*
X009114Y011287D02*
X009487Y010914D01*
X009480Y010907D01*
X009107Y011280D01*
X009114Y011287D01*
G37*
D51*
G36*
X009149Y011266D02*
X009530Y010885D01*
X009523Y010878D01*
X009142Y011259D01*
X009149Y011266D01*
G37*
D52*
G36*
X009913Y010517D02*
X010570Y009860D01*
X010563Y009853D01*
X009906Y010510D01*
X009913Y010517D01*
G37*
D53*
G36*
X009276Y011167D02*
X009593Y010850D01*
X009586Y010843D01*
X009269Y011160D01*
X009276Y011167D01*
G37*
D54*
G36*
X009502Y010984D02*
X009657Y010829D01*
X009650Y010822D01*
X009495Y010977D01*
X009502Y010984D01*
G37*
D55*
G36*
X009820Y011500D02*
X009827Y011493D01*
X009820Y011486D01*
X009813Y011493D01*
X009820Y011500D01*
G37*
G36*
X009212Y011684D02*
X009219Y011677D01*
X009212Y011670D01*
X009205Y011677D01*
X009212Y011684D01*
G37*
D56*
G36*
X011107Y010114D02*
X011920Y009301D01*
X011913Y009294D01*
X011100Y010107D01*
X011107Y010114D01*
G37*
G36*
X011143Y010149D02*
X011956Y009336D01*
X011949Y009329D01*
X011136Y010142D01*
X011143Y010149D01*
G37*
D57*
G36*
X011129Y010149D02*
X011956Y009322D01*
X011949Y009315D01*
X011122Y010142D01*
X011129Y010149D01*
G37*
G36*
X011114Y010135D02*
X011941Y009308D01*
X011934Y009301D01*
X011107Y010128D01*
X011114Y010135D01*
G37*
G36*
X011107Y010128D02*
X011934Y009301D01*
X011927Y009294D01*
X011100Y010121D01*
X011107Y010128D01*
G37*
D58*
G36*
X009509Y011726D02*
X009968Y011267D01*
X009961Y011260D01*
X009502Y011719D01*
X009509Y011726D01*
G37*
D59*
G36*
X009531Y011719D02*
X009962Y011288D01*
X009955Y011281D01*
X009524Y011712D01*
X009531Y011719D01*
G37*
D60*
G36*
X011115Y010149D02*
X011948Y009316D01*
X011941Y009309D01*
X011108Y010142D01*
X011115Y010149D01*
G37*
D61*
G36*
X009560Y011704D02*
X009947Y011317D01*
X009940Y011310D01*
X009553Y011697D01*
X009560Y011704D01*
G37*
D62*
G36*
X009594Y011684D02*
X009933Y011345D01*
X009926Y011338D01*
X009587Y011677D01*
X009594Y011684D01*
G37*
D63*
G36*
X009630Y011662D02*
X009911Y011381D01*
X009904Y011374D01*
X009623Y011655D01*
X009630Y011662D01*
G37*
D64*
X006625Y008627D02*
X006201Y008202D01*
X006908Y007495D02*
X007332Y007920D01*
X008039Y007212D02*
X007615Y006788D01*
X005494Y008910D02*
X005918Y009334D01*
X010557Y006135D02*
X010981Y005711D01*
X011688Y006418D02*
X011264Y006842D01*
X011971Y007550D02*
X012395Y007125D01*
X013102Y007832D02*
X012678Y008257D01*
X013385Y008964D02*
X013809Y008540D01*
X014516Y009247D02*
X014092Y009671D01*
D65*
X010176Y012069D02*
X010112Y012005D01*
X010112Y012217D01*
X010261Y012366D01*
X010473Y012366D01*
X010622Y012217D01*
X010622Y012005D01*
X010473Y011856D01*
X010261Y011856D01*
X010112Y012005D01*
X010208Y012045D01*
X010208Y012177D01*
X010301Y012270D01*
X010433Y012270D01*
X010526Y012177D01*
X010526Y012045D01*
X010433Y011952D01*
X010301Y011952D01*
X010208Y012045D01*
X010304Y012085D01*
X010304Y012137D01*
X010341Y012174D01*
X010393Y012174D01*
X010430Y012137D01*
X010430Y012085D01*
X010393Y012048D01*
X010341Y012048D01*
X010304Y012085D01*
D66*
G36*
X004334Y005493D02*
X004556Y005271D01*
X004252Y004967D01*
X004030Y005189D01*
X004334Y005493D01*
G37*
G36*
X003917Y005911D02*
X004139Y005689D01*
X003835Y005385D01*
X003613Y005607D01*
X003917Y005911D01*
G37*
G36*
X004641Y006635D02*
X004863Y006413D01*
X004559Y006109D01*
X004337Y006331D01*
X004641Y006635D01*
G37*
G36*
X005058Y006217D02*
X005280Y005995D01*
X004976Y005691D01*
X004754Y005913D01*
X005058Y006217D01*
G37*
X009651Y015289D03*
X010242Y015289D03*
X010242Y016313D03*
X009651Y016313D03*
G36*
X015030Y006413D02*
X015252Y006635D01*
X015556Y006331D01*
X015334Y006109D01*
X015030Y006413D01*
G37*
G36*
X014613Y005995D02*
X014835Y006217D01*
X015139Y005913D01*
X014917Y005691D01*
X014613Y005995D01*
G37*
G36*
X015337Y005271D02*
X015559Y005493D01*
X015863Y005189D01*
X015641Y004967D01*
X015337Y005271D01*
G37*
G36*
X015754Y005689D02*
X015976Y005911D01*
X016280Y005607D01*
X016058Y005385D01*
X015754Y005689D01*
G37*
D67*
X015487Y013221D03*
X006767Y015271D03*
M02*
