G75*
%MOIN*%
%OFA0B0*%
%FSLAX24Y24*%
%IPPOS*%
%LPD*%
%AMOC8*
5,1,8,0,0,1.08239X$1,22.5*
%
%ADD10C,0.0000*%
%ADD11R,0.0260X0.0800*%
%ADD12R,0.0433X0.0394*%
%ADD13R,0.0394X0.0433*%
%ADD14C,0.0600*%
%ADD15C,0.0120*%
%ADD16OC8,0.0600*%
%ADD17C,0.0080*%
%ADD18C,0.0317*%
%ADD19C,0.0356*%
%ADD20C,0.0160*%
D10*
X009172Y000100D02*
X010109Y000100D01*
X009172Y000100D02*
X008944Y000112D01*
X008716Y000130D01*
X008488Y000153D01*
X008261Y000182D01*
X008035Y000216D01*
X007810Y000255D01*
X007586Y000300D01*
X007363Y000351D01*
X007141Y000407D01*
X006921Y000468D01*
X006702Y000534D01*
X006485Y000606D01*
X006270Y000683D01*
X006056Y000765D01*
X005845Y000852D01*
X005636Y000945D01*
X005429Y001042D01*
X005225Y001144D01*
X005023Y001252D01*
X004823Y001364D01*
X004627Y001480D01*
X004433Y001602D01*
X004243Y001728D01*
X004055Y001859D01*
X003871Y001994D01*
X003690Y002134D01*
X003512Y002278D01*
X003338Y002426D01*
X003168Y002579D01*
X003001Y002735D01*
X002838Y002896D01*
X002679Y003060D01*
X002525Y003228D01*
X002374Y003400D01*
X002227Y003576D01*
X002085Y003755D01*
X001947Y003937D01*
X001814Y004123D01*
X001685Y004312D01*
X001560Y004503D01*
X001441Y004698D01*
X001326Y004896D01*
X001216Y005096D01*
X001110Y005299D01*
X001010Y005505D01*
X000915Y005712D01*
X000824Y005922D01*
X000739Y006135D01*
X000659Y006349D01*
X000584Y006565D01*
X000515Y006783D01*
X000450Y007002D01*
X000391Y007223D01*
X000338Y007445D01*
X000290Y007669D01*
X000247Y007893D01*
X000209Y008119D01*
X000177Y008345D01*
X000151Y008572D01*
X000130Y008800D01*
X000115Y009028D01*
X000105Y009256D01*
X000100Y009485D01*
X000101Y009714D01*
X000108Y009942D01*
X010110Y000100D02*
X010348Y000103D01*
X010585Y000112D01*
X010822Y000127D01*
X011059Y000148D01*
X011295Y000174D01*
X011530Y000206D01*
X011765Y000244D01*
X011998Y000288D01*
X012231Y000337D01*
X012462Y000392D01*
X012692Y000453D01*
X012920Y000519D01*
X013146Y000591D01*
X013371Y000669D01*
X013594Y000752D01*
X013814Y000840D01*
X014033Y000934D01*
X014249Y001033D01*
X014462Y001137D01*
X014673Y001247D01*
X014881Y001361D01*
X015086Y001481D01*
X015288Y001606D01*
X015488Y001735D01*
X015683Y001870D01*
X015876Y002009D01*
X016065Y002153D01*
X016251Y002302D01*
X016432Y002455D01*
X016610Y002612D01*
X016784Y002774D01*
X016954Y002940D01*
X017120Y003110D01*
X017282Y003284D01*
X017440Y003462D01*
X017593Y003644D01*
X017741Y003829D01*
X017885Y004018D01*
X018024Y004211D01*
X018159Y004407D01*
X018288Y004606D01*
X018413Y004808D01*
X018533Y005013D01*
X018647Y005221D01*
X018757Y005432D01*
X018861Y005646D01*
X018960Y005862D01*
X019054Y006080D01*
X019142Y006301D01*
X019225Y006523D01*
X019303Y006748D01*
X019375Y006974D01*
X019441Y007202D01*
X019502Y007432D01*
X019557Y007663D01*
X019606Y007896D01*
X019650Y008129D01*
X019688Y008364D01*
X019720Y008599D01*
X019746Y008835D01*
X019767Y009072D01*
X019782Y009309D01*
X019791Y009547D01*
X019794Y009784D01*
X019793Y009784D02*
X019793Y010184D01*
X019790Y010420D01*
X019781Y010655D01*
X019767Y010890D01*
X019747Y011125D01*
X019721Y011359D01*
X019689Y011593D01*
X019652Y011825D01*
X019609Y012057D01*
X019560Y012288D01*
X019505Y012517D01*
X019445Y012745D01*
X019380Y012971D01*
X019308Y013196D01*
X019232Y013418D01*
X019150Y013639D01*
X019062Y013858D01*
X018969Y014075D01*
X018871Y014289D01*
X018768Y014501D01*
X018659Y014710D01*
X018546Y014916D01*
X018427Y015120D01*
X018303Y015321D01*
X018175Y015518D01*
X018042Y015712D01*
X017904Y015903D01*
X017761Y016091D01*
X017614Y016275D01*
X017462Y016455D01*
X017306Y016632D01*
X017145Y016804D01*
X016981Y016973D01*
X016812Y017137D01*
X016640Y017298D01*
X016463Y017454D01*
X016283Y017606D01*
X016099Y017753D01*
X015911Y017896D01*
X015720Y018034D01*
X015526Y018167D01*
X015329Y018295D01*
X015128Y018419D01*
X014924Y018538D01*
X014718Y018651D01*
X014509Y018760D01*
X014297Y018863D01*
X014083Y018961D01*
X013866Y019054D01*
X013647Y019142D01*
X013426Y019224D01*
X013204Y019300D01*
X012979Y019372D01*
X012753Y019437D01*
X012525Y019497D01*
X012296Y019552D01*
X012065Y019601D01*
X011833Y019644D01*
X011601Y019681D01*
X011367Y019713D01*
X011133Y019739D01*
X010898Y019759D01*
X010663Y019773D01*
X010428Y019782D01*
X010192Y019785D01*
X010191Y019785D02*
X009948Y019782D01*
X009704Y019773D01*
X009461Y019759D01*
X009218Y019738D01*
X008976Y019712D01*
X008734Y019679D01*
X008493Y019641D01*
X008254Y019597D01*
X008015Y019548D01*
X007778Y019492D01*
X007542Y019431D01*
X007307Y019364D01*
X007074Y019292D01*
X006844Y019214D01*
X006615Y019130D01*
X006388Y019041D01*
X006163Y018946D01*
X005941Y018846D01*
X005721Y018741D01*
X005504Y018630D01*
X005289Y018514D01*
X005078Y018393D01*
X004869Y018267D01*
X004664Y018136D01*
X004461Y018000D01*
X004262Y017859D01*
X004067Y017713D01*
X003875Y017563D01*
X003687Y017408D01*
X003503Y017249D01*
X003322Y017085D01*
X003146Y016917D01*
X002973Y016745D01*
X002805Y016568D01*
X002641Y016388D01*
X002482Y016203D01*
X002327Y016015D01*
X002177Y015823D01*
X002031Y015628D01*
X001890Y015429D01*
X001754Y015226D01*
X001623Y015021D01*
X001497Y014812D01*
X001376Y014601D01*
X001260Y014386D01*
X001149Y014169D01*
X001044Y013949D01*
X000944Y013727D01*
X000849Y013502D01*
X000760Y013276D01*
X000676Y013047D01*
X000598Y012816D01*
X000526Y012583D01*
X000459Y012349D01*
X000398Y012113D01*
X000342Y011875D01*
X000293Y011637D01*
X000249Y011397D01*
X000211Y011156D01*
X000178Y010914D01*
X000152Y010672D01*
X000131Y010429D01*
X000117Y010186D01*
X000108Y009942D01*
D11*
G36*
X007944Y009176D02*
X007760Y008992D01*
X007196Y009556D01*
X007380Y009740D01*
X007944Y009176D01*
G37*
G36*
X008298Y009529D02*
X008114Y009345D01*
X007550Y009909D01*
X007734Y010093D01*
X008298Y009529D01*
G37*
G36*
X008651Y009883D02*
X008467Y009699D01*
X007903Y010263D01*
X008087Y010447D01*
X008651Y009883D01*
G37*
G36*
X009005Y010237D02*
X008821Y010053D01*
X008257Y010617D01*
X008441Y010801D01*
X009005Y010237D01*
G37*
G36*
X009359Y010590D02*
X009175Y010406D01*
X008611Y010970D01*
X008795Y011154D01*
X009359Y010590D01*
G37*
G36*
X009712Y010944D02*
X009528Y010760D01*
X008964Y011324D01*
X009148Y011508D01*
X009712Y010944D01*
G37*
G36*
X010066Y011297D02*
X009882Y011113D01*
X009318Y011677D01*
X009502Y011861D01*
X010066Y011297D01*
G37*
G36*
X011777Y009586D02*
X011593Y009402D01*
X011029Y009966D01*
X011213Y010150D01*
X011777Y009586D01*
G37*
G36*
X011423Y009233D02*
X011239Y009049D01*
X010675Y009613D01*
X010859Y009797D01*
X011423Y009233D01*
G37*
G36*
X011070Y008879D02*
X010886Y008695D01*
X010322Y009259D01*
X010506Y009443D01*
X011070Y008879D01*
G37*
G36*
X010716Y008525D02*
X010532Y008341D01*
X009968Y008905D01*
X010152Y009089D01*
X010716Y008525D01*
G37*
G36*
X010363Y008172D02*
X010179Y007988D01*
X009615Y008552D01*
X009799Y008736D01*
X010363Y008172D01*
G37*
G36*
X010009Y007818D02*
X009825Y007634D01*
X009261Y008198D01*
X009445Y008382D01*
X010009Y007818D01*
G37*
G36*
X009656Y007465D02*
X009472Y007281D01*
X008908Y007845D01*
X009092Y008029D01*
X009656Y007465D01*
G37*
D12*
G36*
X008792Y005651D02*
X008494Y005962D01*
X008778Y006235D01*
X009076Y005924D01*
X008792Y005651D01*
G37*
G36*
X009255Y005167D02*
X008957Y005478D01*
X009241Y005751D01*
X009539Y005440D01*
X009255Y005167D01*
G37*
D13*
G36*
X004746Y011106D02*
X005025Y010827D01*
X004720Y010522D01*
X004441Y010801D01*
X004746Y011106D01*
G37*
G36*
X004273Y011580D02*
X004552Y011301D01*
X004247Y010996D01*
X003968Y011275D01*
X004273Y011580D01*
G37*
G36*
X005433Y012590D02*
X005712Y012311D01*
X005407Y012006D01*
X005128Y012285D01*
X005433Y012590D01*
G37*
G36*
X005906Y012116D02*
X006185Y011837D01*
X005880Y011532D01*
X005601Y011811D01*
X005906Y012116D01*
G37*
G36*
X007096Y013226D02*
X007375Y012947D01*
X007070Y012642D01*
X006791Y012921D01*
X007096Y013226D01*
G37*
G36*
X006623Y013700D02*
X006902Y013421D01*
X006597Y013116D01*
X006318Y013395D01*
X006623Y013700D01*
G37*
G36*
X007663Y014670D02*
X007942Y014391D01*
X007637Y014086D01*
X007358Y014365D01*
X007663Y014670D01*
G37*
G36*
X008136Y014196D02*
X008415Y013917D01*
X008110Y013612D01*
X007831Y013891D01*
X008136Y014196D01*
G37*
G36*
X012857Y011516D02*
X012578Y011795D01*
X012883Y012100D01*
X013162Y011821D01*
X012857Y011516D01*
G37*
G36*
X013330Y011042D02*
X013051Y011321D01*
X013356Y011626D01*
X013635Y011347D01*
X013330Y011042D01*
G37*
D14*
X014092Y009671D02*
X014516Y009247D01*
X013809Y008540D02*
X013385Y008964D01*
X012678Y008257D02*
X013102Y007832D01*
X012395Y007125D02*
X011971Y007550D01*
X011264Y006842D02*
X011688Y006418D01*
X010981Y005711D02*
X010557Y006135D01*
X008039Y007212D02*
X007615Y006788D01*
X006908Y007495D02*
X007332Y007920D01*
X006625Y008627D02*
X006201Y008202D01*
X005494Y008910D02*
X005918Y009334D01*
D15*
X010188Y012072D02*
X010128Y012012D01*
X010128Y012210D01*
X010268Y012350D01*
X010466Y012350D01*
X010606Y012210D01*
X010606Y012012D01*
X010466Y011872D01*
X010268Y011872D01*
X010128Y012012D01*
X010218Y012049D01*
X010218Y012173D01*
X010305Y012260D01*
X010429Y012260D01*
X010516Y012173D01*
X010516Y012049D01*
X010429Y011962D01*
X010305Y011962D01*
X010218Y012049D01*
X010308Y012086D01*
X010308Y012136D01*
X010342Y012170D01*
X010392Y012170D01*
X010426Y012136D01*
X010426Y012086D01*
X010392Y012052D01*
X010342Y012052D01*
X010308Y012086D01*
D16*
X006767Y015271D03*
X015487Y013221D03*
D17*
X008457Y003381D02*
X006157Y003381D01*
X001867Y007671D01*
X001867Y011391D01*
X003077Y012601D01*
X005117Y012601D01*
X005420Y012298D01*
X005893Y011824D02*
X007233Y011824D01*
X008631Y010427D01*
X008985Y010780D02*
X007083Y012681D01*
X007083Y012934D01*
X006610Y013408D02*
X007950Y013408D01*
X008687Y012671D01*
X009087Y012941D02*
X009087Y011385D01*
X009338Y011134D01*
X008277Y010073D02*
X007536Y010814D01*
X004733Y010814D01*
X004260Y010568D02*
X004260Y011288D01*
X004260Y010568D02*
X005706Y009122D01*
X007120Y008916D02*
X007120Y007707D01*
X007827Y007000D02*
X007827Y006900D01*
X008785Y005943D01*
X009248Y005459D02*
X010107Y006318D01*
X010107Y007537D01*
X009635Y008008D01*
X009402Y008241D01*
X008707Y008241D01*
X007582Y009366D01*
X007570Y009366D01*
X007120Y008916D01*
X007827Y007000D02*
X008627Y007000D01*
X009282Y007655D01*
X009282Y007096D01*
X009647Y006731D01*
X010769Y005923D02*
X010769Y005693D01*
X008457Y003381D01*
X011476Y006630D02*
X011476Y006875D01*
X009989Y008362D01*
X010342Y008715D02*
X011257Y007801D01*
X011257Y007791D01*
X011394Y008371D02*
X010696Y009069D01*
X011049Y009418D02*
X011637Y008841D01*
X011787Y008371D02*
X011394Y008371D01*
X011787Y008371D02*
X012147Y008731D01*
X012147Y011084D01*
X012870Y011808D01*
X014283Y013221D01*
X015487Y013221D01*
X013343Y011334D02*
X013190Y011181D01*
X012927Y011181D01*
X012507Y010761D01*
X012507Y010611D01*
X011049Y009423D02*
X011049Y009418D01*
X009087Y012941D02*
X008123Y013904D01*
X007650Y014378D02*
X006767Y015261D01*
X006767Y015271D01*
D18*
X008687Y012671D03*
X012507Y010611D03*
X011637Y008841D03*
X011257Y007791D03*
X009647Y006731D03*
D19*
X014577Y003621D03*
D20*
X015587Y003621D01*
X017137Y005171D01*
X017137Y006131D01*
X014787Y008481D01*
X013887Y008481D01*
X013616Y008752D01*
X013597Y008752D01*
M02*
