G75*
%MOIN*%
%OFA0B0*%
%FSLAX24Y24*%
%IPPOS*%
%LPD*%
%AMOC8*
5,1,8,0,0,1.08239X$1,22.5*
%
%ADD10C,0.0000*%
%ADD11C,0.0160*%
%ADD12C,0.0040*%
%ADD13R,0.0157X0.0157*%
%ADD14R,0.0157X0.0157*%
D10*
X000100Y000100D02*
X000100Y031596D01*
X039470Y031596D01*
X039470Y000100D01*
X000100Y000100D01*
D11*
X009000Y016100D02*
X009003Y016336D01*
X009012Y016571D01*
X009026Y016806D01*
X009046Y017041D01*
X009072Y017275D01*
X009104Y017509D01*
X009141Y017741D01*
X009184Y017973D01*
X009233Y018203D01*
X009288Y018433D01*
X009348Y018660D01*
X009413Y018887D01*
X009485Y019111D01*
X009561Y019334D01*
X009643Y019555D01*
X009731Y019774D01*
X009824Y019990D01*
X009922Y020205D01*
X010025Y020416D01*
X010134Y020625D01*
X010247Y020832D01*
X010366Y021035D01*
X010489Y021236D01*
X010618Y021433D01*
X010751Y021628D01*
X010889Y021819D01*
X011032Y022006D01*
X011179Y022190D01*
X011331Y022370D01*
X011487Y022547D01*
X011647Y022720D01*
X011812Y022888D01*
X011980Y023053D01*
X012153Y023213D01*
X012330Y023369D01*
X012510Y023521D01*
X012694Y023668D01*
X012881Y023811D01*
X013072Y023949D01*
X013267Y024082D01*
X013464Y024211D01*
X013665Y024334D01*
X013868Y024453D01*
X014075Y024566D01*
X014284Y024675D01*
X014495Y024778D01*
X014710Y024876D01*
X014926Y024969D01*
X015145Y025057D01*
X015366Y025139D01*
X015589Y025215D01*
X015813Y025287D01*
X016040Y025352D01*
X016267Y025412D01*
X016497Y025467D01*
X016727Y025516D01*
X016959Y025559D01*
X017191Y025596D01*
X017425Y025628D01*
X017659Y025654D01*
X017894Y025674D01*
X018129Y025688D01*
X018364Y025697D01*
X018600Y025700D01*
X018836Y025697D01*
X019071Y025688D01*
X019306Y025674D01*
X019541Y025654D01*
X019775Y025628D01*
X020009Y025596D01*
X020241Y025559D01*
X020473Y025516D01*
X020703Y025467D01*
X020933Y025412D01*
X021160Y025352D01*
X021387Y025287D01*
X021611Y025215D01*
X021834Y025139D01*
X022055Y025057D01*
X022274Y024969D01*
X022490Y024876D01*
X022705Y024778D01*
X022916Y024675D01*
X023125Y024566D01*
X023332Y024453D01*
X023535Y024334D01*
X023736Y024211D01*
X023933Y024082D01*
X024128Y023949D01*
X024319Y023811D01*
X024506Y023668D01*
X024690Y023521D01*
X024870Y023369D01*
X025047Y023213D01*
X025220Y023053D01*
X025388Y022888D01*
X025553Y022720D01*
X025713Y022547D01*
X025869Y022370D01*
X026021Y022190D01*
X026168Y022006D01*
X026311Y021819D01*
X026449Y021628D01*
X026582Y021433D01*
X026711Y021236D01*
X026834Y021035D01*
X026953Y020832D01*
X027066Y020625D01*
X027175Y020416D01*
X027278Y020205D01*
X027376Y019990D01*
X027469Y019774D01*
X027557Y019555D01*
X027639Y019334D01*
X027715Y019111D01*
X027787Y018887D01*
X027852Y018660D01*
X027912Y018433D01*
X027967Y018203D01*
X028016Y017973D01*
X028059Y017741D01*
X028096Y017509D01*
X028128Y017275D01*
X028154Y017041D01*
X028174Y016806D01*
X028188Y016571D01*
X028197Y016336D01*
X028200Y016100D01*
X028197Y015864D01*
X028188Y015629D01*
X028174Y015394D01*
X028154Y015159D01*
X028128Y014925D01*
X028096Y014691D01*
X028059Y014459D01*
X028016Y014227D01*
X027967Y013997D01*
X027912Y013767D01*
X027852Y013540D01*
X027787Y013313D01*
X027715Y013089D01*
X027639Y012866D01*
X027557Y012645D01*
X027469Y012426D01*
X027376Y012210D01*
X027278Y011995D01*
X027175Y011784D01*
X027066Y011575D01*
X026953Y011368D01*
X026834Y011165D01*
X026711Y010964D01*
X026582Y010767D01*
X026449Y010572D01*
X026311Y010381D01*
X026168Y010194D01*
X026021Y010010D01*
X025869Y009830D01*
X025713Y009653D01*
X025553Y009480D01*
X025388Y009312D01*
X025220Y009147D01*
X025047Y008987D01*
X024870Y008831D01*
X024690Y008679D01*
X024506Y008532D01*
X024319Y008389D01*
X024128Y008251D01*
X023933Y008118D01*
X023736Y007989D01*
X023535Y007866D01*
X023332Y007747D01*
X023125Y007634D01*
X022916Y007525D01*
X022705Y007422D01*
X022490Y007324D01*
X022274Y007231D01*
X022055Y007143D01*
X021834Y007061D01*
X021611Y006985D01*
X021387Y006913D01*
X021160Y006848D01*
X020933Y006788D01*
X020703Y006733D01*
X020473Y006684D01*
X020241Y006641D01*
X020009Y006604D01*
X019775Y006572D01*
X019541Y006546D01*
X019306Y006526D01*
X019071Y006512D01*
X018836Y006503D01*
X018600Y006500D01*
X018364Y006503D01*
X018129Y006512D01*
X017894Y006526D01*
X017659Y006546D01*
X017425Y006572D01*
X017191Y006604D01*
X016959Y006641D01*
X016727Y006684D01*
X016497Y006733D01*
X016267Y006788D01*
X016040Y006848D01*
X015813Y006913D01*
X015589Y006985D01*
X015366Y007061D01*
X015145Y007143D01*
X014926Y007231D01*
X014710Y007324D01*
X014495Y007422D01*
X014284Y007525D01*
X014075Y007634D01*
X013868Y007747D01*
X013665Y007866D01*
X013464Y007989D01*
X013267Y008118D01*
X013072Y008251D01*
X012881Y008389D01*
X012694Y008532D01*
X012510Y008679D01*
X012330Y008831D01*
X012153Y008987D01*
X011980Y009147D01*
X011812Y009312D01*
X011647Y009480D01*
X011487Y009653D01*
X011331Y009830D01*
X011179Y010010D01*
X011032Y010194D01*
X010889Y010381D01*
X010751Y010572D01*
X010618Y010767D01*
X010489Y010964D01*
X010366Y011165D01*
X010247Y011368D01*
X010134Y011575D01*
X010025Y011784D01*
X009922Y011995D01*
X009824Y012210D01*
X009731Y012426D01*
X009643Y012645D01*
X009561Y012866D01*
X009485Y013089D01*
X009413Y013313D01*
X009348Y013540D01*
X009288Y013767D01*
X009233Y013997D01*
X009184Y014227D01*
X009141Y014459D01*
X009104Y014691D01*
X009072Y014925D01*
X009046Y015159D01*
X009026Y015394D01*
X009012Y015629D01*
X009003Y015864D01*
X009000Y016100D01*
D12*
X013291Y013460D02*
X013291Y013352D01*
X013399Y013243D01*
X013508Y013243D01*
X013725Y013460D01*
X013725Y013569D01*
X013616Y013677D01*
X013508Y013677D01*
X014337Y012739D02*
X014120Y012522D01*
X014283Y012685D02*
X014500Y012468D01*
X014554Y012522D02*
X014554Y012739D01*
X014337Y012739D01*
X014554Y012522D02*
X014337Y012305D01*
X012841Y010917D02*
X012841Y010809D01*
X012624Y010592D01*
X012515Y010592D01*
X012407Y010700D01*
X012407Y010809D01*
X012624Y011026D02*
X012732Y011026D01*
X012841Y010917D01*
X011957Y011692D02*
X011740Y011475D01*
X011632Y011475D01*
X011523Y011584D01*
X011523Y011692D01*
X011740Y011909D02*
X011849Y011909D01*
X011957Y011801D01*
X011957Y011692D01*
X022523Y012508D02*
X022523Y012616D01*
X022631Y012725D01*
X022740Y012725D01*
X022957Y012508D01*
X022957Y012399D01*
X022848Y012291D01*
X022740Y012291D01*
X023678Y013120D02*
X023461Y013337D01*
X023461Y013554D01*
X023678Y013554D01*
X023895Y013337D01*
X023732Y013500D02*
X023515Y013283D01*
X025174Y011732D02*
X025283Y011841D01*
X025391Y011841D01*
X025608Y011624D01*
X025608Y011515D01*
X025500Y011407D01*
X025391Y011407D01*
X025174Y011624D02*
X025174Y011732D01*
X024508Y010957D02*
X024725Y010740D01*
X024725Y010632D01*
X024616Y010523D01*
X024508Y010523D01*
X024291Y010740D02*
X024291Y010849D01*
X024399Y010957D01*
X024508Y010957D01*
X019253Y020620D02*
X019100Y020620D01*
X019023Y020697D01*
X019253Y020620D02*
X019330Y020697D01*
X019330Y021004D01*
X019253Y021080D01*
X019100Y021080D01*
X019023Y021004D01*
X018080Y021004D02*
X018080Y020697D01*
X018003Y020620D01*
X017850Y020620D01*
X017773Y020697D01*
X017773Y021004D02*
X017850Y021080D01*
X018003Y021080D01*
X018080Y021004D01*
X018003Y023120D02*
X017850Y023120D01*
X017773Y023197D01*
X018003Y023120D02*
X018080Y023197D01*
X018080Y023504D01*
X018003Y023580D01*
X017850Y023580D01*
X017773Y023504D01*
X019023Y023427D02*
X019023Y023120D01*
X019023Y023350D02*
X019330Y023350D01*
X019330Y023427D02*
X019177Y023580D01*
X019023Y023427D01*
X019330Y023427D02*
X019330Y023120D01*
D13*
X018600Y022100D03*
D14*
G36*
X013100Y012210D02*
X013210Y012100D01*
X013100Y011990D01*
X012990Y012100D01*
X013100Y012210D01*
G37*
G36*
X023990Y012100D02*
X024100Y012210D01*
X024210Y012100D01*
X024100Y011990D01*
X023990Y012100D01*
G37*
M02*
