G75*
%MOIN*%
%OFA0B0*%
%FSLAX24Y24*%
%IPPOS*%
%LPD*%
%AMOC8*
5,1,8,0,0,1.08239X$1,22.5*
%
%ADD10C,0.0000*%
%ADD11C,0.0600*%
%ADD12C,0.0120*%
%ADD13R,0.1299X0.1890*%
%ADD14OC8,0.0600*%
%ADD15C,0.0160*%
%ADD16C,0.0317*%
%ADD17C,0.0080*%
%ADD18C,0.0356*%
D10*
X000100Y000100D02*
X000100Y031596D01*
X039470Y031596D01*
X039470Y000100D01*
X000100Y000100D01*
D11*
X016269Y013087D02*
X016693Y013511D01*
X015986Y014219D02*
X015561Y013794D01*
X014854Y014501D02*
X015279Y014926D01*
X014571Y015633D02*
X014147Y015209D01*
X019210Y012434D02*
X019634Y012010D01*
X020341Y012717D02*
X019917Y013141D01*
X020624Y013849D02*
X021049Y013424D01*
X021756Y014131D02*
X021331Y014556D01*
X022039Y015263D02*
X022463Y014839D01*
X023170Y015546D02*
X022746Y015970D01*
D12*
X018841Y018371D02*
X018781Y018311D01*
X018781Y018509D01*
X018921Y018649D01*
X019119Y018649D01*
X019259Y018509D01*
X019259Y018311D01*
X019119Y018171D01*
X018921Y018171D01*
X018781Y018311D01*
X018871Y018348D01*
X018871Y018472D01*
X018958Y018559D01*
X019082Y018559D01*
X019169Y018472D01*
X019169Y018348D01*
X019082Y018261D01*
X018958Y018261D01*
X018871Y018348D01*
X018961Y018385D01*
X018961Y018435D01*
X018995Y018469D01*
X019045Y018469D01*
X019079Y018435D01*
X019079Y018385D01*
X019045Y018351D01*
X018995Y018351D01*
X018961Y018385D01*
D13*
X019387Y020860D03*
X017813Y020860D03*
X017813Y023340D03*
X019387Y023340D03*
G36*
X022653Y013743D02*
X023571Y014661D01*
X024907Y013325D01*
X023989Y012407D01*
X022653Y013743D01*
G37*
G36*
X021539Y012629D02*
X022457Y013547D01*
X023793Y012211D01*
X022875Y011293D01*
X021539Y012629D01*
G37*
G36*
X023293Y010875D02*
X024211Y011793D01*
X025547Y010457D01*
X024629Y009539D01*
X023293Y010875D01*
G37*
G36*
X024407Y011989D02*
X025325Y012907D01*
X026661Y011571D01*
X025743Y010653D01*
X024407Y011989D01*
G37*
G36*
X014743Y013547D02*
X015661Y012629D01*
X014325Y011293D01*
X013407Y012211D01*
X014743Y013547D01*
G37*
G36*
X013629Y014661D02*
X014547Y013743D01*
X013211Y012407D01*
X012293Y013325D01*
X013629Y014661D01*
G37*
G36*
X011875Y012907D02*
X012793Y011989D01*
X011457Y010653D01*
X010539Y011571D01*
X011875Y012907D01*
G37*
G36*
X012989Y011793D02*
X013907Y010875D01*
X012571Y009539D01*
X011653Y010457D01*
X012989Y011793D01*
G37*
D14*
X024140Y019520D03*
X015420Y021570D03*
D15*
X017813Y020860D02*
X015066Y018114D01*
X015066Y014714D01*
X014760Y014407D01*
X014760Y013960D01*
X013890Y014830D01*
X013540Y014830D01*
X011666Y012956D01*
X011666Y011780D01*
X014534Y012420D02*
X015680Y012420D01*
X017740Y010360D01*
X022790Y010360D01*
X023230Y009920D01*
X024420Y010666D02*
X017904Y010666D01*
X014760Y013810D01*
X014760Y013960D01*
X021544Y014344D02*
X021544Y015494D01*
X022730Y016680D01*
X022730Y019998D01*
X019387Y023340D01*
X022958Y015758D02*
X022958Y014356D01*
X023780Y013534D01*
D16*
X020290Y015140D03*
X019910Y014090D03*
X018300Y013030D03*
X021160Y016910D03*
X017340Y018970D03*
D17*
X018460Y018970D01*
X019020Y018410D01*
X021160Y016910D02*
X021160Y015340D01*
X019910Y014090D01*
X019160Y013340D01*
X018580Y013340D01*
X018300Y013060D01*
X018300Y013030D01*
X017830Y012660D02*
X019030Y011460D01*
X020320Y011460D01*
X021160Y012300D01*
X021160Y013313D01*
X020836Y013636D01*
X020290Y015140D02*
X018870Y014970D01*
X017830Y013930D01*
X017830Y012660D01*
D18*
X023230Y009920D03*
M02*
