G75*
%MOIN*%
%OFA0B0*%
%FSLAX24Y24*%
%IPPOS*%
%LPD*%
%AMOC8*
5,1,8,0,0,1.08239X$1,22.5*
%
%ADD10C,0.0000*%
%ADD11C,0.0160*%
%ADD12R,0.0290X0.0010*%
%ADD13R,0.0050X0.0010*%
%ADD14R,0.0900X0.0010*%
%ADD15R,0.0410X0.0010*%
%ADD16R,0.1310X0.0010*%
%ADD17R,0.0060X0.0010*%
%ADD18R,0.0950X0.0010*%
%ADD19R,0.0500X0.0010*%
%ADD20R,0.1330X0.0010*%
%ADD21R,0.0070X0.0010*%
%ADD22R,0.0970X0.0010*%
%ADD23R,0.0570X0.0010*%
%ADD24R,0.1350X0.0010*%
%ADD25R,0.0980X0.0010*%
%ADD26R,0.0630X0.0010*%
%ADD27R,0.0330X0.0010*%
%ADD28R,0.0040X0.0010*%
%ADD29R,0.0990X0.0010*%
%ADD30R,0.0250X0.0010*%
%ADD31R,0.0230X0.0010*%
%ADD32R,0.0210X0.0010*%
%ADD33R,0.0200X0.0010*%
%ADD34R,0.0190X0.0010*%
%ADD35R,0.0170X0.0010*%
%ADD36R,0.0080X0.0010*%
%ADD37R,0.0160X0.0010*%
%ADD38R,0.0150X0.0010*%
%ADD39R,0.0140X0.0010*%
%ADD40R,0.0130X0.0010*%
%ADD41R,0.0120X0.0010*%
%ADD42R,0.0110X0.0010*%
%ADD43R,0.0100X0.0010*%
%ADD44R,0.0090X0.0010*%
%ADD45R,0.0020X0.0010*%
%ADD46R,0.0180X0.0010*%
%ADD47R,0.0280X0.0010*%
%ADD48R,0.0940X0.0010*%
%ADD49R,0.0340X0.0010*%
%ADD50R,0.0440X0.0010*%
%ADD51R,0.0530X0.0010*%
%ADD52R,0.0540X0.0010*%
%ADD53R,0.0930X0.0010*%
%ADD54R,0.0450X0.0010*%
%ADD55R,0.0220X0.0010*%
%ADD56R,0.0010X0.0010*%
%ADD57R,0.1150X0.0010*%
%ADD58R,0.1170X0.0010*%
%ADD59R,0.0650X0.0010*%
%ADD60R,0.0610X0.0010*%
%ADD61R,0.1180X0.0010*%
%ADD62R,0.0550X0.0010*%
%ADD63R,0.0480X0.0010*%
%ADD64R,0.0400X0.0010*%
%ADD65C,0.0120*%
%ADD66C,0.0040*%
%ADD67R,0.0157X0.0157*%
%ADD68R,0.0157X0.0157*%
D10*
X000100Y010131D02*
X000100Y010160D01*
X000103Y010392D01*
X000111Y010625D01*
X000125Y010857D01*
X000144Y011088D01*
X000169Y011319D01*
X000200Y011550D01*
X000236Y011779D01*
X000278Y012008D01*
X000325Y012235D01*
X000378Y012462D01*
X000436Y012687D01*
X000500Y012910D01*
X000569Y013132D01*
X000643Y013352D01*
X000723Y013571D01*
X000808Y013787D01*
X000898Y014001D01*
X000993Y014213D01*
X001093Y014423D01*
X001199Y014630D01*
X001309Y014834D01*
X001424Y015036D01*
X001544Y015235D01*
X001669Y015431D01*
X001799Y015624D01*
X001933Y015814D01*
X002072Y016000D01*
X002215Y016183D01*
X002363Y016363D01*
X002515Y016539D01*
X002671Y016711D01*
X002831Y016879D01*
X002995Y017044D01*
X003163Y017204D01*
X003335Y017360D01*
X003511Y017513D01*
X003690Y017660D01*
X003873Y017804D01*
X004059Y017943D01*
X004249Y018077D01*
X004442Y018207D01*
X004638Y018332D01*
X004836Y018453D01*
X005038Y018568D01*
X005242Y018679D01*
X005449Y018784D01*
X005659Y018885D01*
X005871Y018980D01*
X006085Y019071D01*
X006301Y019156D01*
X006519Y019236D01*
X006739Y019310D01*
X006961Y019380D01*
X007185Y019444D01*
X007410Y019502D01*
X007636Y019555D01*
X007863Y019603D01*
X008092Y019645D01*
X008322Y019681D01*
X008552Y019712D01*
X008783Y019738D01*
X009014Y019757D01*
X009246Y019771D01*
X009479Y019780D01*
X009711Y019783D01*
X010170Y019784D01*
X010404Y019782D01*
X010638Y019774D01*
X010871Y019760D01*
X011104Y019741D01*
X011337Y019715D01*
X011569Y019685D01*
X011800Y019648D01*
X012030Y019606D01*
X012259Y019558D01*
X012487Y019505D01*
X012713Y019446D01*
X012938Y019381D01*
X013161Y019311D01*
X013382Y019236D01*
X013602Y019155D01*
X013819Y019069D01*
X014035Y018978D01*
X014248Y018881D01*
X014458Y018779D01*
X014666Y018672D01*
X014872Y018560D01*
X015074Y018443D01*
X015274Y018321D01*
X015470Y018194D01*
X015663Y018062D01*
X015854Y017926D01*
X016040Y017785D01*
X016223Y017639D01*
X016403Y017489D01*
X016579Y017335D01*
X016751Y017177D01*
X016919Y017014D01*
X017083Y016847D01*
X017243Y016676D01*
X017398Y016502D01*
X017549Y016323D01*
X017696Y016141D01*
X017839Y015956D01*
X017977Y015767D01*
X018110Y015574D01*
X018238Y015379D01*
X018362Y015180D01*
X018480Y014978D01*
X018594Y014774D01*
X018702Y014567D01*
X018806Y014357D01*
X018904Y014145D01*
X018997Y013930D01*
X019085Y013713D01*
X019168Y013495D01*
X019245Y013274D01*
X019316Y013051D01*
X019383Y012827D01*
X019443Y012601D01*
X019498Y012373D01*
X019548Y012145D01*
X019592Y011915D01*
X019630Y011684D01*
X019663Y011453D01*
X019689Y011220D01*
X019711Y010987D01*
X019726Y010754D01*
X019736Y010520D01*
X019740Y010286D01*
X019741Y010286D02*
X019743Y009754D01*
X019741Y009521D01*
X019734Y009288D01*
X019721Y009056D01*
X019702Y008823D01*
X019678Y008592D01*
X019648Y008361D01*
X019613Y008131D01*
X019572Y007901D01*
X019525Y007673D01*
X019473Y007446D01*
X019416Y007221D01*
X019353Y006996D01*
X019285Y006774D01*
X019211Y006553D01*
X019132Y006334D01*
X019047Y006117D01*
X018958Y005902D01*
X018863Y005689D01*
X018763Y005479D01*
X018658Y005271D01*
X018548Y005066D01*
X018433Y004863D01*
X018313Y004664D01*
X018189Y004467D01*
X018059Y004273D01*
X017925Y004083D01*
X017787Y003896D01*
X017644Y003712D01*
X017496Y003532D01*
X017344Y003355D01*
X017188Y003182D01*
X017028Y003013D01*
X016864Y002848D01*
X016695Y002687D01*
X016523Y002530D01*
X016348Y002378D01*
X016168Y002229D01*
X015985Y002085D01*
X015799Y001946D01*
X015609Y001811D01*
X015416Y001681D01*
X015220Y001555D01*
X015021Y001434D01*
X014819Y001318D01*
X014614Y001207D01*
X014407Y001101D01*
X014197Y001000D01*
X013985Y000904D01*
X013770Y000814D01*
X013554Y000728D01*
X013335Y000648D01*
X013114Y000573D01*
X012892Y000504D01*
X012668Y000440D01*
X012443Y000381D01*
X012216Y000328D01*
X011988Y000280D01*
X011759Y000238D01*
X011529Y000201D01*
X011299Y000170D01*
X011067Y000145D01*
X010835Y000125D01*
X010603Y000111D01*
X010370Y000103D01*
X010137Y000100D01*
X009891Y000103D01*
X009645Y000112D01*
X009399Y000127D01*
X009154Y000148D01*
X008909Y000175D01*
X008665Y000209D01*
X008422Y000248D01*
X008180Y000293D01*
X007939Y000344D01*
X007699Y000401D01*
X007461Y000463D01*
X007225Y000532D01*
X006990Y000606D01*
X006757Y000686D01*
X006526Y000772D01*
X006297Y000863D01*
X006071Y000960D01*
X005847Y001063D01*
X005626Y001171D01*
X005407Y001284D01*
X005192Y001403D01*
X004979Y001527D01*
X004769Y001656D01*
X004563Y001790D01*
X004360Y001930D01*
X004160Y002074D01*
X003964Y002223D01*
X003772Y002377D01*
X003583Y002535D01*
X003399Y002698D01*
X003218Y002866D01*
X003042Y003038D01*
X002870Y003214D01*
X002702Y003394D01*
X002539Y003579D01*
X002380Y003767D01*
X002227Y003959D01*
X002077Y004155D01*
X001933Y004355D01*
X001794Y004558D01*
X001659Y004764D01*
X001530Y004973D01*
X001406Y005186D01*
X001287Y005402D01*
X001174Y005620D01*
X001066Y005842D01*
X000963Y006065D01*
X000866Y006292D01*
X000774Y006520D01*
X000688Y006751D01*
X000608Y006984D01*
X000534Y007219D01*
X000465Y007455D01*
X000402Y007693D01*
X000345Y007933D01*
X000294Y008174D01*
X000249Y008416D01*
X000209Y008659D01*
X000176Y008903D01*
X000149Y009148D01*
X000128Y009393D01*
X000112Y009639D01*
X000103Y009885D01*
X000100Y010131D01*
D11*
X000405Y010000D02*
X000408Y010236D01*
X000417Y010471D01*
X000431Y010706D01*
X000451Y010941D01*
X000477Y011175D01*
X000509Y011409D01*
X000546Y011641D01*
X000589Y011873D01*
X000638Y012104D01*
X000693Y012333D01*
X000753Y012561D01*
X000818Y012787D01*
X000890Y013012D01*
X000966Y013234D01*
X001048Y013455D01*
X001136Y013674D01*
X001229Y013891D01*
X001327Y014105D01*
X001430Y014317D01*
X001539Y014526D01*
X001652Y014732D01*
X001771Y014936D01*
X001895Y015137D01*
X002023Y015334D01*
X002156Y015528D01*
X002294Y015719D01*
X002437Y015907D01*
X002584Y016091D01*
X002736Y016271D01*
X002892Y016448D01*
X003053Y016620D01*
X003217Y016789D01*
X003386Y016953D01*
X003558Y017114D01*
X003735Y017270D01*
X003915Y017422D01*
X004099Y017569D01*
X004287Y017712D01*
X004478Y017850D01*
X004672Y017983D01*
X004869Y018111D01*
X005070Y018235D01*
X005274Y018354D01*
X005480Y018467D01*
X005689Y018576D01*
X005901Y018679D01*
X006115Y018777D01*
X006332Y018870D01*
X006551Y018958D01*
X006772Y019040D01*
X006994Y019116D01*
X007219Y019188D01*
X007445Y019253D01*
X007673Y019313D01*
X007902Y019368D01*
X008133Y019417D01*
X008365Y019460D01*
X008597Y019497D01*
X008831Y019529D01*
X009065Y019555D01*
X009300Y019575D01*
X009535Y019589D01*
X009770Y019598D01*
X010006Y019601D01*
X010242Y019598D01*
X010477Y019589D01*
X010712Y019575D01*
X010947Y019555D01*
X011181Y019529D01*
X011415Y019497D01*
X011647Y019460D01*
X011879Y019417D01*
X012110Y019368D01*
X012339Y019313D01*
X012567Y019253D01*
X012793Y019188D01*
X013018Y019116D01*
X013240Y019040D01*
X013461Y018958D01*
X013680Y018870D01*
X013897Y018777D01*
X014111Y018679D01*
X014323Y018576D01*
X014532Y018467D01*
X014738Y018354D01*
X014942Y018235D01*
X015143Y018111D01*
X015340Y017983D01*
X015534Y017850D01*
X015725Y017712D01*
X015913Y017569D01*
X016097Y017422D01*
X016277Y017270D01*
X016454Y017114D01*
X016626Y016953D01*
X016795Y016789D01*
X016959Y016620D01*
X017120Y016448D01*
X017276Y016271D01*
X017428Y016091D01*
X017575Y015907D01*
X017718Y015719D01*
X017856Y015528D01*
X017989Y015334D01*
X018117Y015137D01*
X018241Y014936D01*
X018360Y014732D01*
X018473Y014526D01*
X018582Y014317D01*
X018685Y014105D01*
X018783Y013891D01*
X018876Y013674D01*
X018964Y013455D01*
X019046Y013234D01*
X019122Y013012D01*
X019194Y012787D01*
X019259Y012561D01*
X019319Y012333D01*
X019374Y012104D01*
X019423Y011873D01*
X019466Y011641D01*
X019503Y011409D01*
X019535Y011175D01*
X019561Y010941D01*
X019581Y010706D01*
X019595Y010471D01*
X019604Y010236D01*
X019607Y010000D01*
X019604Y009764D01*
X019595Y009529D01*
X019581Y009294D01*
X019561Y009059D01*
X019535Y008825D01*
X019503Y008591D01*
X019466Y008359D01*
X019423Y008127D01*
X019374Y007896D01*
X019319Y007667D01*
X019259Y007439D01*
X019194Y007213D01*
X019122Y006988D01*
X019046Y006766D01*
X018964Y006545D01*
X018876Y006326D01*
X018783Y006109D01*
X018685Y005895D01*
X018582Y005683D01*
X018473Y005474D01*
X018360Y005268D01*
X018241Y005064D01*
X018117Y004863D01*
X017989Y004666D01*
X017856Y004472D01*
X017718Y004281D01*
X017575Y004093D01*
X017428Y003909D01*
X017276Y003729D01*
X017120Y003552D01*
X016959Y003380D01*
X016795Y003211D01*
X016626Y003047D01*
X016454Y002886D01*
X016277Y002730D01*
X016097Y002578D01*
X015913Y002431D01*
X015725Y002288D01*
X015534Y002150D01*
X015340Y002017D01*
X015143Y001889D01*
X014942Y001765D01*
X014738Y001646D01*
X014532Y001533D01*
X014323Y001424D01*
X014111Y001321D01*
X013897Y001223D01*
X013680Y001130D01*
X013461Y001042D01*
X013240Y000960D01*
X013018Y000884D01*
X012793Y000812D01*
X012567Y000747D01*
X012339Y000687D01*
X012110Y000632D01*
X011879Y000583D01*
X011647Y000540D01*
X011415Y000503D01*
X011181Y000471D01*
X010947Y000445D01*
X010712Y000425D01*
X010477Y000411D01*
X010242Y000402D01*
X010006Y000399D01*
X009770Y000402D01*
X009535Y000411D01*
X009300Y000425D01*
X009065Y000445D01*
X008831Y000471D01*
X008597Y000503D01*
X008365Y000540D01*
X008133Y000583D01*
X007902Y000632D01*
X007673Y000687D01*
X007445Y000747D01*
X007219Y000812D01*
X006994Y000884D01*
X006772Y000960D01*
X006551Y001042D01*
X006332Y001130D01*
X006115Y001223D01*
X005901Y001321D01*
X005689Y001424D01*
X005480Y001533D01*
X005274Y001646D01*
X005070Y001765D01*
X004869Y001889D01*
X004672Y002017D01*
X004478Y002150D01*
X004287Y002288D01*
X004099Y002431D01*
X003915Y002578D01*
X003735Y002730D01*
X003558Y002886D01*
X003386Y003047D01*
X003217Y003211D01*
X003053Y003380D01*
X002892Y003552D01*
X002736Y003729D01*
X002584Y003909D01*
X002437Y004093D01*
X002294Y004281D01*
X002156Y004472D01*
X002023Y004666D01*
X001895Y004863D01*
X001771Y005064D01*
X001652Y005268D01*
X001539Y005474D01*
X001430Y005683D01*
X001327Y005895D01*
X001229Y006109D01*
X001136Y006326D01*
X001048Y006545D01*
X000966Y006766D01*
X000890Y006988D01*
X000818Y007213D01*
X000753Y007439D01*
X000693Y007667D01*
X000638Y007896D01*
X000589Y008127D01*
X000546Y008359D01*
X000509Y008591D01*
X000477Y008825D01*
X000451Y009059D01*
X000431Y009294D01*
X000417Y009529D01*
X000408Y009764D01*
X000405Y010000D01*
D12*
X008346Y011310D03*
X008346Y011310D03*
X008346Y011310D03*
X008346Y011310D03*
X008536Y011260D03*
X008536Y011260D03*
X008536Y011260D03*
X008536Y011260D03*
X008546Y012550D03*
X008546Y012550D03*
X008546Y012550D03*
X008546Y012550D03*
D13*
X008036Y012270D03*
X008036Y012270D03*
X008036Y012270D03*
X008036Y012270D03*
X009086Y011570D03*
X009086Y011570D03*
X009086Y011570D03*
X009086Y011570D03*
X011056Y011270D03*
X011056Y011270D03*
X011056Y011270D03*
X011056Y011270D03*
D14*
X009771Y011270D03*
X009771Y011270D03*
X009771Y011270D03*
X009771Y011270D03*
D15*
X008536Y011270D03*
X008536Y011270D03*
X008536Y011270D03*
X008536Y011270D03*
D16*
X007196Y011270D03*
X007196Y011270D03*
X007196Y011270D03*
X007196Y011270D03*
D17*
X008001Y011660D03*
X008001Y011660D03*
X008001Y011660D03*
X008001Y011660D03*
X008041Y012280D03*
X008041Y012280D03*
X008041Y012280D03*
X008041Y012280D03*
X008041Y012290D03*
X008041Y012290D03*
X008041Y012290D03*
X008041Y012290D03*
X007191Y012560D03*
X007191Y012560D03*
X007191Y012560D03*
X007191Y012560D03*
X009081Y011560D03*
X009081Y011560D03*
X009081Y011560D03*
X009081Y011560D03*
X010241Y012480D03*
X010241Y012480D03*
X010241Y012480D03*
X010241Y012480D03*
X011051Y011280D03*
X011051Y011280D03*
X011051Y011280D03*
X011051Y011280D03*
D18*
X009776Y011280D03*
X009776Y011280D03*
X009776Y011280D03*
X009776Y011280D03*
X009806Y011890D03*
X009806Y011890D03*
X009806Y011890D03*
X009806Y011890D03*
X009806Y011900D03*
X009806Y011900D03*
X009806Y011900D03*
X009806Y011900D03*
X009806Y011910D03*
X009806Y011910D03*
X009806Y011910D03*
X009806Y011910D03*
X009776Y012540D03*
X009776Y012540D03*
X009776Y012540D03*
X009776Y012540D03*
D19*
X008601Y011930D03*
X008601Y011930D03*
X008601Y011930D03*
X008601Y011930D03*
X008451Y011900D03*
X008451Y011900D03*
X008451Y011900D03*
X008451Y011900D03*
X008541Y011280D03*
X008541Y011280D03*
X008541Y011280D03*
X008541Y011280D03*
D20*
X007196Y011280D03*
X007196Y011280D03*
X007196Y011280D03*
X007196Y011280D03*
X007196Y011320D03*
X007196Y011320D03*
X007196Y011320D03*
X007196Y011320D03*
X007196Y011330D03*
X007196Y011330D03*
X007196Y011330D03*
X007196Y011330D03*
D21*
X006706Y011590D03*
X006706Y011590D03*
X006706Y011590D03*
X006706Y011590D03*
X006916Y012000D03*
X006916Y012000D03*
X006916Y012000D03*
X006916Y012000D03*
X007276Y012380D03*
X007276Y012380D03*
X007276Y012380D03*
X007276Y012380D03*
X007196Y012550D03*
X007196Y012550D03*
X007196Y012550D03*
X007196Y012550D03*
X008046Y012310D03*
X008046Y012310D03*
X008046Y012310D03*
X008046Y012310D03*
X008046Y012300D03*
X008046Y012300D03*
X008046Y012300D03*
X008046Y012300D03*
X008056Y012320D03*
X008056Y012320D03*
X008056Y012320D03*
X008056Y012320D03*
X008056Y012330D03*
X008056Y012330D03*
X008056Y012330D03*
X008056Y012330D03*
X008066Y012350D03*
X008066Y012350D03*
X008066Y012350D03*
X008066Y012350D03*
X008076Y012360D03*
X008076Y012360D03*
X008076Y012360D03*
X008076Y012360D03*
X008546Y012560D03*
X008546Y012560D03*
X008546Y012560D03*
X008546Y012560D03*
X009046Y012270D03*
X009046Y012270D03*
X009046Y012270D03*
X009046Y012270D03*
X009046Y012260D03*
X009046Y012260D03*
X009046Y012260D03*
X009046Y012260D03*
X009056Y012240D03*
X009056Y012240D03*
X009056Y012240D03*
X009056Y012240D03*
X009056Y012230D03*
X009056Y012230D03*
X009056Y012230D03*
X009056Y012230D03*
X009056Y012220D03*
X009056Y012220D03*
X009056Y012220D03*
X009056Y012220D03*
X009056Y012210D03*
X009056Y012210D03*
X009056Y012210D03*
X009056Y012210D03*
X009056Y012200D03*
X009056Y012200D03*
X009056Y012200D03*
X009056Y012200D03*
X009056Y012190D03*
X009056Y012190D03*
X009056Y012190D03*
X009056Y012190D03*
X009056Y012180D03*
X009056Y012180D03*
X009056Y012180D03*
X009056Y012180D03*
X009056Y012170D03*
X009056Y012170D03*
X009056Y012170D03*
X009056Y012170D03*
X009046Y012160D03*
X009046Y012160D03*
X009046Y012160D03*
X009046Y012160D03*
X009046Y012150D03*
X009046Y012150D03*
X009046Y012150D03*
X009046Y012150D03*
X009046Y012140D03*
X009046Y012140D03*
X009046Y012140D03*
X009046Y012140D03*
X009046Y012130D03*
X009046Y012130D03*
X009046Y012130D03*
X009046Y012130D03*
X009036Y012110D03*
X009036Y012110D03*
X009036Y012110D03*
X009036Y012110D03*
X009086Y011550D03*
X009086Y011550D03*
X009086Y011550D03*
X009086Y011550D03*
X009076Y011540D03*
X009076Y011540D03*
X009076Y011540D03*
X009076Y011540D03*
X009076Y011530D03*
X009076Y011530D03*
X009076Y011530D03*
X009076Y011530D03*
X009076Y011520D03*
X009076Y011520D03*
X009076Y011520D03*
X009076Y011520D03*
X009066Y011510D03*
X009066Y011510D03*
X009066Y011510D03*
X009066Y011510D03*
X008026Y011500D03*
X008026Y011500D03*
X008026Y011500D03*
X008026Y011500D03*
X008016Y011520D03*
X008016Y011520D03*
X008016Y011520D03*
X008016Y011520D03*
X008016Y011530D03*
X008016Y011530D03*
X008016Y011530D03*
X008016Y011530D03*
X008006Y011550D03*
X008006Y011550D03*
X008006Y011550D03*
X008006Y011550D03*
X008006Y011560D03*
X008006Y011560D03*
X008006Y011560D03*
X008006Y011560D03*
X008006Y011570D03*
X008006Y011570D03*
X008006Y011570D03*
X008006Y011570D03*
X007996Y011580D03*
X007996Y011580D03*
X007996Y011580D03*
X007996Y011580D03*
X007996Y011590D03*
X007996Y011590D03*
X007996Y011590D03*
X007996Y011590D03*
X007996Y011600D03*
X007996Y011600D03*
X007996Y011600D03*
X007996Y011600D03*
X007996Y011610D03*
X007996Y011610D03*
X007996Y011610D03*
X007996Y011610D03*
X007996Y011620D03*
X007996Y011620D03*
X007996Y011620D03*
X007996Y011620D03*
X007996Y011630D03*
X007996Y011630D03*
X007996Y011630D03*
X007996Y011630D03*
X007996Y011640D03*
X007996Y011640D03*
X007996Y011640D03*
X007996Y011640D03*
X007996Y011650D03*
X007996Y011650D03*
X007996Y011650D03*
X007996Y011650D03*
X008006Y011680D03*
X008006Y011680D03*
X008006Y011680D03*
X008006Y011680D03*
X008006Y011690D03*
X008006Y011690D03*
X008006Y011690D03*
X008006Y011690D03*
X008006Y011700D03*
X008006Y011700D03*
X008006Y011700D03*
X008006Y011700D03*
X008016Y011720D03*
X008016Y011720D03*
X008016Y011720D03*
X008016Y011720D03*
X010246Y011720D03*
X010246Y011720D03*
X010246Y011720D03*
X010246Y011720D03*
X010246Y011730D03*
X010246Y011730D03*
X010246Y011730D03*
X010246Y011730D03*
X010246Y011740D03*
X010246Y011740D03*
X010246Y011740D03*
X010246Y011740D03*
X010246Y011750D03*
X010246Y011750D03*
X010246Y011750D03*
X010246Y011750D03*
X010246Y011760D03*
X010246Y011760D03*
X010246Y011760D03*
X010246Y011760D03*
X010246Y011770D03*
X010246Y011770D03*
X010246Y011770D03*
X010246Y011770D03*
X010246Y011780D03*
X010246Y011780D03*
X010246Y011780D03*
X010246Y011780D03*
X010246Y011790D03*
X010246Y011790D03*
X010246Y011790D03*
X010246Y011790D03*
X010246Y011800D03*
X010246Y011800D03*
X010246Y011800D03*
X010246Y011800D03*
X010246Y011810D03*
X010246Y011810D03*
X010246Y011810D03*
X010246Y011810D03*
X010246Y011820D03*
X010246Y011820D03*
X010246Y011820D03*
X010246Y011820D03*
X010246Y011830D03*
X010246Y011830D03*
X010246Y011830D03*
X010246Y011830D03*
X010246Y011840D03*
X010246Y011840D03*
X010246Y011840D03*
X010246Y011840D03*
X010246Y011850D03*
X010246Y011850D03*
X010246Y011850D03*
X010246Y011850D03*
X010246Y011860D03*
X010246Y011860D03*
X010246Y011860D03*
X010246Y011860D03*
X010246Y011870D03*
X010246Y011870D03*
X010246Y011870D03*
X010246Y011870D03*
X010246Y011940D03*
X010246Y011940D03*
X010246Y011940D03*
X010246Y011940D03*
X010246Y011950D03*
X010246Y011950D03*
X010246Y011950D03*
X010246Y011950D03*
X010246Y011960D03*
X010246Y011960D03*
X010246Y011960D03*
X010246Y011960D03*
X010246Y011970D03*
X010246Y011970D03*
X010246Y011970D03*
X010246Y011970D03*
X010246Y011980D03*
X010246Y011980D03*
X010246Y011980D03*
X010246Y011980D03*
X010246Y011990D03*
X010246Y011990D03*
X010246Y011990D03*
X010246Y011990D03*
X010246Y012000D03*
X010246Y012000D03*
X010246Y012000D03*
X010246Y012000D03*
X010246Y012010D03*
X010246Y012010D03*
X010246Y012010D03*
X010246Y012010D03*
X010246Y012020D03*
X010246Y012020D03*
X010246Y012020D03*
X010246Y012020D03*
X010246Y012030D03*
X010246Y012030D03*
X010246Y012030D03*
X010246Y012030D03*
X010246Y012040D03*
X010246Y012040D03*
X010246Y012040D03*
X010246Y012040D03*
X010246Y012050D03*
X010246Y012050D03*
X010246Y012050D03*
X010246Y012050D03*
X010246Y012060D03*
X010246Y012060D03*
X010246Y012060D03*
X010246Y012060D03*
X010246Y012070D03*
X010246Y012070D03*
X010246Y012070D03*
X010246Y012070D03*
X010246Y012080D03*
X010246Y012080D03*
X010246Y012080D03*
X010246Y012080D03*
X010246Y012090D03*
X010246Y012090D03*
X010246Y012090D03*
X010246Y012090D03*
X010246Y012100D03*
X010246Y012100D03*
X010246Y012100D03*
X010246Y012100D03*
X010246Y012110D03*
X010246Y012110D03*
X010246Y012110D03*
X010246Y012110D03*
X010246Y012120D03*
X010246Y012120D03*
X010246Y012120D03*
X010246Y012120D03*
X010246Y012130D03*
X010246Y012130D03*
X010246Y012130D03*
X010246Y012130D03*
X010246Y012140D03*
X010246Y012140D03*
X010246Y012140D03*
X010246Y012140D03*
X010246Y012150D03*
X010246Y012150D03*
X010246Y012150D03*
X010246Y012150D03*
X010246Y012160D03*
X010246Y012160D03*
X010246Y012160D03*
X010246Y012160D03*
X010246Y012170D03*
X010246Y012170D03*
X010246Y012170D03*
X010246Y012170D03*
X010246Y012180D03*
X010246Y012180D03*
X010246Y012180D03*
X010246Y012180D03*
X010246Y012190D03*
X010246Y012190D03*
X010246Y012190D03*
X010246Y012190D03*
X010246Y012200D03*
X010246Y012200D03*
X010246Y012200D03*
X010246Y012200D03*
X010246Y012210D03*
X010246Y012210D03*
X010246Y012210D03*
X010246Y012210D03*
X010246Y012220D03*
X010246Y012220D03*
X010246Y012220D03*
X010246Y012220D03*
X010246Y012230D03*
X010246Y012230D03*
X010246Y012230D03*
X010246Y012230D03*
X010246Y012240D03*
X010246Y012240D03*
X010246Y012240D03*
X010246Y012240D03*
X010246Y012250D03*
X010246Y012250D03*
X010246Y012250D03*
X010246Y012250D03*
X010246Y012260D03*
X010246Y012260D03*
X010246Y012260D03*
X010246Y012260D03*
X010246Y012270D03*
X010246Y012270D03*
X010246Y012270D03*
X010246Y012270D03*
X010246Y012280D03*
X010246Y012280D03*
X010246Y012280D03*
X010246Y012280D03*
X010246Y012290D03*
X010246Y012290D03*
X010246Y012290D03*
X010246Y012290D03*
X010246Y012300D03*
X010246Y012300D03*
X010246Y012300D03*
X010246Y012300D03*
X010246Y012310D03*
X010246Y012310D03*
X010246Y012310D03*
X010246Y012310D03*
X010246Y012320D03*
X010246Y012320D03*
X010246Y012320D03*
X010246Y012320D03*
X010246Y012330D03*
X010246Y012330D03*
X010246Y012330D03*
X010246Y012330D03*
X010246Y012340D03*
X010246Y012340D03*
X010246Y012340D03*
X010246Y012340D03*
X010246Y012350D03*
X010246Y012350D03*
X010246Y012350D03*
X010246Y012350D03*
X010246Y012360D03*
X010246Y012360D03*
X010246Y012360D03*
X010246Y012360D03*
X010246Y012370D03*
X010246Y012370D03*
X010246Y012370D03*
X010246Y012370D03*
X010246Y012380D03*
X010246Y012380D03*
X010246Y012380D03*
X010246Y012380D03*
X010246Y012390D03*
X010246Y012390D03*
X010246Y012390D03*
X010246Y012390D03*
X010246Y012400D03*
X010246Y012400D03*
X010246Y012400D03*
X010246Y012400D03*
X010246Y012410D03*
X010246Y012410D03*
X010246Y012410D03*
X010246Y012410D03*
X010246Y012420D03*
X010246Y012420D03*
X010246Y012420D03*
X010246Y012420D03*
X010246Y012430D03*
X010246Y012430D03*
X010246Y012430D03*
X010246Y012430D03*
X010246Y012440D03*
X010246Y012440D03*
X010246Y012440D03*
X010246Y012440D03*
X010246Y012450D03*
X010246Y012450D03*
X010246Y012450D03*
X010246Y012450D03*
X010246Y012460D03*
X010246Y012460D03*
X010246Y012460D03*
X010246Y012460D03*
X010246Y012470D03*
X010246Y012470D03*
X010246Y012470D03*
X010246Y012470D03*
X010246Y011710D03*
X010246Y011710D03*
X010246Y011710D03*
X010246Y011710D03*
X010246Y011700D03*
X010246Y011700D03*
X010246Y011700D03*
X010246Y011700D03*
X010246Y011690D03*
X010246Y011690D03*
X010246Y011690D03*
X010246Y011690D03*
X010246Y011680D03*
X010246Y011680D03*
X010246Y011680D03*
X010246Y011680D03*
X010246Y011670D03*
X010246Y011670D03*
X010246Y011670D03*
X010246Y011670D03*
X010246Y011660D03*
X010246Y011660D03*
X010246Y011660D03*
X010246Y011660D03*
X010246Y011650D03*
X010246Y011650D03*
X010246Y011650D03*
X010246Y011650D03*
X010246Y011640D03*
X010246Y011640D03*
X010246Y011640D03*
X010246Y011640D03*
X010246Y011630D03*
X010246Y011630D03*
X010246Y011630D03*
X010246Y011630D03*
X010246Y011620D03*
X010246Y011620D03*
X010246Y011620D03*
X010246Y011620D03*
X010246Y011610D03*
X010246Y011610D03*
X010246Y011610D03*
X010246Y011610D03*
X010246Y011600D03*
X010246Y011600D03*
X010246Y011600D03*
X010246Y011600D03*
X010246Y011590D03*
X010246Y011590D03*
X010246Y011590D03*
X010246Y011590D03*
X010246Y011580D03*
X010246Y011580D03*
X010246Y011580D03*
X010246Y011580D03*
X010246Y011570D03*
X010246Y011570D03*
X010246Y011570D03*
X010246Y011570D03*
X010246Y011560D03*
X010246Y011560D03*
X010246Y011560D03*
X010246Y011560D03*
X010246Y011550D03*
X010246Y011550D03*
X010246Y011550D03*
X010246Y011550D03*
X010246Y011540D03*
X010246Y011540D03*
X010246Y011540D03*
X010246Y011540D03*
X010246Y011530D03*
X010246Y011530D03*
X010246Y011530D03*
X010246Y011530D03*
X010246Y011520D03*
X010246Y011520D03*
X010246Y011520D03*
X010246Y011520D03*
X010246Y011510D03*
X010246Y011510D03*
X010246Y011510D03*
X010246Y011510D03*
X010246Y011500D03*
X010246Y011500D03*
X010246Y011500D03*
X010246Y011500D03*
X010246Y011490D03*
X010246Y011490D03*
X010246Y011490D03*
X010246Y011490D03*
X010246Y011480D03*
X010246Y011480D03*
X010246Y011480D03*
X010246Y011480D03*
X010246Y011470D03*
X010246Y011470D03*
X010246Y011470D03*
X010246Y011470D03*
X010246Y011460D03*
X010246Y011460D03*
X010246Y011460D03*
X010246Y011460D03*
X010246Y011450D03*
X010246Y011450D03*
X010246Y011450D03*
X010246Y011450D03*
X010246Y011440D03*
X010246Y011440D03*
X010246Y011440D03*
X010246Y011440D03*
X010246Y011430D03*
X010246Y011430D03*
X010246Y011430D03*
X010246Y011430D03*
X010246Y011420D03*
X010246Y011420D03*
X010246Y011420D03*
X010246Y011420D03*
X010246Y011410D03*
X010246Y011410D03*
X010246Y011410D03*
X010246Y011410D03*
X010246Y011400D03*
X010246Y011400D03*
X010246Y011400D03*
X010246Y011400D03*
X010246Y011390D03*
X010246Y011390D03*
X010246Y011390D03*
X010246Y011390D03*
X010246Y011380D03*
X010246Y011380D03*
X010246Y011380D03*
X010246Y011380D03*
X010246Y011370D03*
X010246Y011370D03*
X010246Y011370D03*
X010246Y011370D03*
X010246Y011360D03*
X010246Y011360D03*
X010246Y011360D03*
X010246Y011360D03*
X010246Y011350D03*
X010246Y011350D03*
X010246Y011350D03*
X010246Y011350D03*
X010246Y011340D03*
X010246Y011340D03*
X010246Y011340D03*
X010246Y011340D03*
X011056Y011340D03*
X011056Y011340D03*
X011056Y011340D03*
X011056Y011340D03*
X011056Y011350D03*
X011056Y011350D03*
X011056Y011350D03*
X011056Y011350D03*
X011056Y011360D03*
X011056Y011360D03*
X011056Y011360D03*
X011056Y011360D03*
X011056Y011370D03*
X011056Y011370D03*
X011056Y011370D03*
X011056Y011370D03*
X011056Y011380D03*
X011056Y011380D03*
X011056Y011380D03*
X011056Y011380D03*
X011056Y011390D03*
X011056Y011390D03*
X011056Y011390D03*
X011056Y011390D03*
X011056Y011400D03*
X011056Y011400D03*
X011056Y011400D03*
X011056Y011400D03*
X011056Y011410D03*
X011056Y011410D03*
X011056Y011410D03*
X011056Y011410D03*
X011056Y011420D03*
X011056Y011420D03*
X011056Y011420D03*
X011056Y011420D03*
X011056Y011430D03*
X011056Y011430D03*
X011056Y011430D03*
X011056Y011430D03*
X011056Y011440D03*
X011056Y011440D03*
X011056Y011440D03*
X011056Y011440D03*
X011056Y011450D03*
X011056Y011450D03*
X011056Y011450D03*
X011056Y011450D03*
X011056Y011460D03*
X011056Y011460D03*
X011056Y011460D03*
X011056Y011460D03*
X011056Y011470D03*
X011056Y011470D03*
X011056Y011470D03*
X011056Y011470D03*
X011056Y011480D03*
X011056Y011480D03*
X011056Y011480D03*
X011056Y011480D03*
X011056Y011490D03*
X011056Y011490D03*
X011056Y011490D03*
X011056Y011490D03*
X011056Y011500D03*
X011056Y011500D03*
X011056Y011500D03*
X011056Y011500D03*
X011056Y011510D03*
X011056Y011510D03*
X011056Y011510D03*
X011056Y011510D03*
X011056Y011520D03*
X011056Y011520D03*
X011056Y011520D03*
X011056Y011520D03*
X011056Y011530D03*
X011056Y011530D03*
X011056Y011530D03*
X011056Y011530D03*
X011056Y011540D03*
X011056Y011540D03*
X011056Y011540D03*
X011056Y011540D03*
X011056Y011550D03*
X011056Y011550D03*
X011056Y011550D03*
X011056Y011550D03*
X011056Y011560D03*
X011056Y011560D03*
X011056Y011560D03*
X011056Y011560D03*
X011056Y011570D03*
X011056Y011570D03*
X011056Y011570D03*
X011056Y011570D03*
X011056Y011580D03*
X011056Y011580D03*
X011056Y011580D03*
X011056Y011580D03*
X011056Y011590D03*
X011056Y011590D03*
X011056Y011590D03*
X011056Y011590D03*
X011056Y011600D03*
X011056Y011600D03*
X011056Y011600D03*
X011056Y011600D03*
X011056Y011610D03*
X011056Y011610D03*
X011056Y011610D03*
X011056Y011610D03*
X011056Y011620D03*
X011056Y011620D03*
X011056Y011620D03*
X011056Y011620D03*
X011056Y011630D03*
X011056Y011630D03*
X011056Y011630D03*
X011056Y011630D03*
X011056Y011640D03*
X011056Y011640D03*
X011056Y011640D03*
X011056Y011640D03*
X011056Y011650D03*
X011056Y011650D03*
X011056Y011650D03*
X011056Y011650D03*
X011056Y011660D03*
X011056Y011660D03*
X011056Y011660D03*
X011056Y011660D03*
X011056Y011670D03*
X011056Y011670D03*
X011056Y011670D03*
X011056Y011670D03*
X011056Y011680D03*
X011056Y011680D03*
X011056Y011680D03*
X011056Y011680D03*
X011056Y011690D03*
X011056Y011690D03*
X011056Y011690D03*
X011056Y011690D03*
X011056Y011700D03*
X011056Y011700D03*
X011056Y011700D03*
X011056Y011700D03*
X011056Y011710D03*
X011056Y011710D03*
X011056Y011710D03*
X011056Y011710D03*
X011056Y011720D03*
X011056Y011720D03*
X011056Y011720D03*
X011056Y011720D03*
X011056Y011730D03*
X011056Y011730D03*
X011056Y011730D03*
X011056Y011730D03*
X011056Y011740D03*
X011056Y011740D03*
X011056Y011740D03*
X011056Y011740D03*
X011056Y011750D03*
X011056Y011750D03*
X011056Y011750D03*
X011056Y011750D03*
X011056Y011760D03*
X011056Y011760D03*
X011056Y011760D03*
X011056Y011760D03*
X011056Y011770D03*
X011056Y011770D03*
X011056Y011770D03*
X011056Y011770D03*
X011056Y011780D03*
X011056Y011780D03*
X011056Y011780D03*
X011056Y011780D03*
X011056Y011790D03*
X011056Y011790D03*
X011056Y011790D03*
X011056Y011790D03*
X011056Y011800D03*
X011056Y011800D03*
X011056Y011800D03*
X011056Y011800D03*
X011056Y011810D03*
X011056Y011810D03*
X011056Y011810D03*
X011056Y011810D03*
X011056Y011820D03*
X011056Y011820D03*
X011056Y011820D03*
X011056Y011820D03*
X011056Y011830D03*
X011056Y011830D03*
X011056Y011830D03*
X011056Y011830D03*
X011056Y011840D03*
X011056Y011840D03*
X011056Y011840D03*
X011056Y011840D03*
X011056Y011850D03*
X011056Y011850D03*
X011056Y011850D03*
X011056Y011850D03*
X011056Y011860D03*
X011056Y011860D03*
X011056Y011860D03*
X011056Y011860D03*
X011056Y011870D03*
X011056Y011870D03*
X011056Y011870D03*
X011056Y011870D03*
X011056Y011880D03*
X011056Y011880D03*
X011056Y011880D03*
X011056Y011880D03*
X011056Y011890D03*
X011056Y011890D03*
X011056Y011890D03*
X011056Y011890D03*
X011056Y011900D03*
X011056Y011900D03*
X011056Y011900D03*
X011056Y011900D03*
X011056Y011910D03*
X011056Y011910D03*
X011056Y011910D03*
X011056Y011910D03*
X011056Y011920D03*
X011056Y011920D03*
X011056Y011920D03*
X011056Y011920D03*
X011056Y011930D03*
X011056Y011930D03*
X011056Y011930D03*
X011056Y011930D03*
X011056Y011940D03*
X011056Y011940D03*
X011056Y011940D03*
X011056Y011940D03*
X011056Y011950D03*
X011056Y011950D03*
X011056Y011950D03*
X011056Y011950D03*
X011056Y011960D03*
X011056Y011960D03*
X011056Y011960D03*
X011056Y011960D03*
X011056Y011970D03*
X011056Y011970D03*
X011056Y011970D03*
X011056Y011970D03*
X011056Y011980D03*
X011056Y011980D03*
X011056Y011980D03*
X011056Y011980D03*
X011056Y011990D03*
X011056Y011990D03*
X011056Y011990D03*
X011056Y011990D03*
X011056Y012000D03*
X011056Y012000D03*
X011056Y012000D03*
X011056Y012000D03*
X011056Y012010D03*
X011056Y012010D03*
X011056Y012010D03*
X011056Y012010D03*
X011056Y012020D03*
X011056Y012020D03*
X011056Y012020D03*
X011056Y012020D03*
X011056Y012030D03*
X011056Y012030D03*
X011056Y012030D03*
X011056Y012030D03*
X011056Y012040D03*
X011056Y012040D03*
X011056Y012040D03*
X011056Y012040D03*
X011056Y012050D03*
X011056Y012050D03*
X011056Y012050D03*
X011056Y012050D03*
X011056Y012060D03*
X011056Y012060D03*
X011056Y012060D03*
X011056Y012060D03*
X011056Y012070D03*
X011056Y012070D03*
X011056Y012070D03*
X011056Y012070D03*
X011056Y012080D03*
X011056Y012080D03*
X011056Y012080D03*
X011056Y012080D03*
X011056Y012090D03*
X011056Y012090D03*
X011056Y012090D03*
X011056Y012090D03*
X011056Y012100D03*
X011056Y012100D03*
X011056Y012100D03*
X011056Y012100D03*
X011056Y012110D03*
X011056Y012110D03*
X011056Y012110D03*
X011056Y012110D03*
X011056Y012120D03*
X011056Y012120D03*
X011056Y012120D03*
X011056Y012120D03*
X011056Y012130D03*
X011056Y012130D03*
X011056Y012130D03*
X011056Y012130D03*
X011056Y012140D03*
X011056Y012140D03*
X011056Y012140D03*
X011056Y012140D03*
X011056Y012150D03*
X011056Y012150D03*
X011056Y012150D03*
X011056Y012150D03*
X011056Y012160D03*
X011056Y012160D03*
X011056Y012160D03*
X011056Y012160D03*
X011056Y012170D03*
X011056Y012170D03*
X011056Y012170D03*
X011056Y012170D03*
X011056Y012180D03*
X011056Y012180D03*
X011056Y012180D03*
X011056Y012180D03*
X011056Y012190D03*
X011056Y012190D03*
X011056Y012190D03*
X011056Y012190D03*
X011056Y012200D03*
X011056Y012200D03*
X011056Y012200D03*
X011056Y012200D03*
X011056Y012210D03*
X011056Y012210D03*
X011056Y012210D03*
X011056Y012210D03*
X011056Y012220D03*
X011056Y012220D03*
X011056Y012220D03*
X011056Y012220D03*
X011056Y012230D03*
X011056Y012230D03*
X011056Y012230D03*
X011056Y012230D03*
X011056Y012240D03*
X011056Y012240D03*
X011056Y012240D03*
X011056Y012240D03*
X011056Y012250D03*
X011056Y012250D03*
X011056Y012250D03*
X011056Y012250D03*
X011056Y012260D03*
X011056Y012260D03*
X011056Y012260D03*
X011056Y012260D03*
X011056Y012270D03*
X011056Y012270D03*
X011056Y012270D03*
X011056Y012270D03*
X011056Y012280D03*
X011056Y012280D03*
X011056Y012280D03*
X011056Y012280D03*
X011056Y012290D03*
X011056Y012290D03*
X011056Y012290D03*
X011056Y012290D03*
X011056Y012300D03*
X011056Y012300D03*
X011056Y012300D03*
X011056Y012300D03*
X011056Y012310D03*
X011056Y012310D03*
X011056Y012310D03*
X011056Y012310D03*
X011056Y012320D03*
X011056Y012320D03*
X011056Y012320D03*
X011056Y012320D03*
X011056Y012330D03*
X011056Y012330D03*
X011056Y012330D03*
X011056Y012330D03*
X011056Y012340D03*
X011056Y012340D03*
X011056Y012340D03*
X011056Y012340D03*
X011056Y012350D03*
X011056Y012350D03*
X011056Y012350D03*
X011056Y012350D03*
X011056Y012360D03*
X011056Y012360D03*
X011056Y012360D03*
X011056Y012360D03*
X011056Y012370D03*
X011056Y012370D03*
X011056Y012370D03*
X011056Y012370D03*
X011056Y012380D03*
X011056Y012380D03*
X011056Y012380D03*
X011056Y012380D03*
X011056Y012390D03*
X011056Y012390D03*
X011056Y012390D03*
X011056Y012390D03*
X011056Y012400D03*
X011056Y012400D03*
X011056Y012400D03*
X011056Y012400D03*
X011056Y012410D03*
X011056Y012410D03*
X011056Y012410D03*
X011056Y012410D03*
X011056Y012420D03*
X011056Y012420D03*
X011056Y012420D03*
X011056Y012420D03*
X011056Y012430D03*
X011056Y012430D03*
X011056Y012430D03*
X011056Y012430D03*
X011056Y012440D03*
X011056Y012440D03*
X011056Y012440D03*
X011056Y012440D03*
X011056Y012450D03*
X011056Y012450D03*
X011056Y012450D03*
X011056Y012450D03*
X011056Y012460D03*
X011056Y012460D03*
X011056Y012460D03*
X011056Y012460D03*
X011056Y012470D03*
X011056Y012470D03*
X011056Y012470D03*
X011056Y012470D03*
X011056Y012480D03*
X011056Y012480D03*
X011056Y012480D03*
X011056Y012480D03*
X011056Y011330D03*
X011056Y011330D03*
X011056Y011330D03*
X011056Y011330D03*
X011056Y011320D03*
X011056Y011320D03*
X011056Y011320D03*
X011056Y011320D03*
X011056Y011310D03*
X011056Y011310D03*
X011056Y011310D03*
X011056Y011310D03*
X011056Y011300D03*
X011056Y011300D03*
X011056Y011300D03*
X011056Y011300D03*
X011056Y011290D03*
X011056Y011290D03*
X011056Y011290D03*
X011056Y011290D03*
D22*
X009776Y011290D03*
X009776Y011290D03*
X009776Y011290D03*
X009776Y011290D03*
X009776Y012530D03*
X009776Y012530D03*
X009776Y012530D03*
X009776Y012530D03*
D23*
X008536Y011290D03*
X008536Y011290D03*
X008536Y011290D03*
X008536Y011290D03*
D24*
X007196Y011290D03*
X007196Y011290D03*
X007196Y011290D03*
X007196Y011290D03*
X007196Y011300D03*
X007196Y011300D03*
X007196Y011300D03*
X007196Y011300D03*
X007196Y011310D03*
X007196Y011310D03*
X007196Y011310D03*
X007196Y011310D03*
D25*
X009781Y011310D03*
X009781Y011310D03*
X009781Y011310D03*
X009781Y011310D03*
X009781Y011300D03*
X009781Y011300D03*
X009781Y011300D03*
X009781Y011300D03*
X009791Y011330D03*
X009791Y011330D03*
X009791Y011330D03*
X009791Y011330D03*
X009791Y012490D03*
X009791Y012490D03*
X009791Y012490D03*
X009791Y012490D03*
X009781Y012510D03*
X009781Y012510D03*
X009781Y012510D03*
X009781Y012510D03*
X009781Y012520D03*
X009781Y012520D03*
X009781Y012520D03*
X009781Y012520D03*
D26*
X008536Y011300D03*
X008536Y011300D03*
X008536Y011300D03*
X008536Y011300D03*
D27*
X008716Y011310D03*
X008716Y011310D03*
X008716Y011310D03*
X008716Y011310D03*
D28*
X008521Y011310D03*
X008521Y011310D03*
X008521Y011310D03*
X008521Y011310D03*
X007191Y012570D03*
X007191Y012570D03*
X007191Y012570D03*
X007191Y012570D03*
D29*
X009786Y012500D03*
X009786Y012500D03*
X009786Y012500D03*
X009786Y012500D03*
X009786Y011320D03*
X009786Y011320D03*
X009786Y011320D03*
X009786Y011320D03*
D30*
X008786Y011320D03*
X008786Y011320D03*
X008786Y011320D03*
X008786Y011320D03*
D31*
X008286Y011320D03*
X008286Y011320D03*
X008286Y011320D03*
X008286Y011320D03*
X008306Y012490D03*
X008306Y012490D03*
X008306Y012490D03*
X008306Y012490D03*
X008776Y012490D03*
X008776Y012490D03*
X008776Y012490D03*
X008776Y012490D03*
D32*
X008206Y011860D03*
X008206Y011860D03*
X008206Y011860D03*
X008206Y011860D03*
X008826Y011330D03*
X008826Y011330D03*
X008826Y011330D03*
X008826Y011330D03*
D33*
X008251Y011330D03*
X008251Y011330D03*
X008251Y011330D03*
X008251Y011330D03*
X008811Y012480D03*
X008811Y012480D03*
X008811Y012480D03*
X008811Y012480D03*
D34*
X008876Y011980D03*
X008876Y011980D03*
X008876Y011980D03*
X008876Y011980D03*
X008856Y011340D03*
X008856Y011340D03*
X008856Y011340D03*
X008856Y011340D03*
D35*
X008216Y011340D03*
X008216Y011340D03*
X008216Y011340D03*
X008216Y011340D03*
X008836Y012470D03*
X008836Y012470D03*
X008836Y012470D03*
X008836Y012470D03*
D36*
X009021Y012330D03*
X009021Y012330D03*
X009021Y012330D03*
X009021Y012330D03*
X009021Y012320D03*
X009021Y012320D03*
X009021Y012320D03*
X009021Y012320D03*
X009031Y012310D03*
X009031Y012310D03*
X009031Y012310D03*
X009031Y012310D03*
X009031Y012300D03*
X009031Y012300D03*
X009031Y012300D03*
X009031Y012300D03*
X009041Y012290D03*
X009041Y012290D03*
X009041Y012290D03*
X009041Y012290D03*
X009041Y012280D03*
X009041Y012280D03*
X009041Y012280D03*
X009041Y012280D03*
X009051Y012250D03*
X009051Y012250D03*
X009051Y012250D03*
X009051Y012250D03*
X009041Y012120D03*
X009041Y012120D03*
X009041Y012120D03*
X009041Y012120D03*
X009031Y012100D03*
X009031Y012100D03*
X009031Y012100D03*
X009031Y012100D03*
X009021Y012080D03*
X009021Y012080D03*
X009021Y012080D03*
X009021Y012080D03*
X009061Y011500D03*
X009061Y011500D03*
X009061Y011500D03*
X009061Y011500D03*
X009061Y011490D03*
X009061Y011490D03*
X009061Y011490D03*
X009061Y011490D03*
X009051Y011480D03*
X009051Y011480D03*
X009051Y011480D03*
X009051Y011480D03*
X009041Y011470D03*
X009041Y011470D03*
X009041Y011470D03*
X009041Y011470D03*
X008051Y011460D03*
X008051Y011460D03*
X008051Y011460D03*
X008051Y011460D03*
X008041Y011470D03*
X008041Y011470D03*
X008041Y011470D03*
X008041Y011470D03*
X008041Y011480D03*
X008041Y011480D03*
X008041Y011480D03*
X008041Y011480D03*
X008031Y011490D03*
X008031Y011490D03*
X008031Y011490D03*
X008031Y011490D03*
X008021Y011510D03*
X008021Y011510D03*
X008021Y011510D03*
X008021Y011510D03*
X008011Y011540D03*
X008011Y011540D03*
X008011Y011540D03*
X008011Y011540D03*
X008001Y011670D03*
X008001Y011670D03*
X008001Y011670D03*
X008001Y011670D03*
X008011Y011710D03*
X008011Y011710D03*
X008011Y011710D03*
X008011Y011710D03*
X008021Y011730D03*
X008021Y011730D03*
X008021Y011730D03*
X008021Y011730D03*
X008021Y011740D03*
X008021Y011740D03*
X008021Y011740D03*
X008021Y011740D03*
X008031Y011750D03*
X008031Y011750D03*
X008031Y011750D03*
X008031Y011750D03*
X007691Y011580D03*
X007691Y011580D03*
X007691Y011580D03*
X007691Y011580D03*
X007691Y011570D03*
X007691Y011570D03*
X007691Y011570D03*
X007691Y011570D03*
X007701Y011560D03*
X007701Y011560D03*
X007701Y011560D03*
X007701Y011560D03*
X007701Y011550D03*
X007701Y011550D03*
X007701Y011550D03*
X007701Y011550D03*
X007711Y011540D03*
X007711Y011540D03*
X007711Y011540D03*
X007711Y011540D03*
X007711Y011530D03*
X007711Y011530D03*
X007711Y011530D03*
X007711Y011530D03*
X007721Y011520D03*
X007721Y011520D03*
X007721Y011520D03*
X007721Y011520D03*
X007721Y011510D03*
X007721Y011510D03*
X007721Y011510D03*
X007721Y011510D03*
X007731Y011500D03*
X007731Y011500D03*
X007731Y011500D03*
X007731Y011500D03*
X007741Y011490D03*
X007741Y011490D03*
X007741Y011490D03*
X007741Y011490D03*
X007741Y011480D03*
X007741Y011480D03*
X007741Y011480D03*
X007741Y011480D03*
X007751Y011470D03*
X007751Y011470D03*
X007751Y011470D03*
X007751Y011470D03*
X007751Y011460D03*
X007751Y011460D03*
X007751Y011460D03*
X007751Y011460D03*
X007761Y011440D03*
X007761Y011440D03*
X007761Y011440D03*
X007761Y011440D03*
X007771Y011430D03*
X007771Y011430D03*
X007771Y011430D03*
X007771Y011430D03*
X007771Y011420D03*
X007771Y011420D03*
X007771Y011420D03*
X007771Y011420D03*
X007781Y011410D03*
X007781Y011410D03*
X007781Y011410D03*
X007781Y011410D03*
X007781Y011400D03*
X007781Y011400D03*
X007781Y011400D03*
X007781Y011400D03*
X007791Y011390D03*
X007791Y011390D03*
X007791Y011390D03*
X007791Y011390D03*
X007791Y011380D03*
X007791Y011380D03*
X007791Y011380D03*
X007791Y011380D03*
X007801Y011370D03*
X007801Y011370D03*
X007801Y011370D03*
X007801Y011370D03*
X007801Y011360D03*
X007801Y011360D03*
X007801Y011360D03*
X007801Y011360D03*
X007811Y011350D03*
X007811Y011350D03*
X007811Y011350D03*
X007811Y011350D03*
X007811Y011340D03*
X007811Y011340D03*
X007811Y011340D03*
X007811Y011340D03*
X007681Y011590D03*
X007681Y011590D03*
X007681Y011590D03*
X007681Y011590D03*
X007681Y011600D03*
X007681Y011600D03*
X007681Y011600D03*
X007681Y011600D03*
X007671Y011610D03*
X007671Y011610D03*
X007671Y011610D03*
X007671Y011610D03*
X007671Y011620D03*
X007671Y011620D03*
X007671Y011620D03*
X007671Y011620D03*
X007661Y011630D03*
X007661Y011630D03*
X007661Y011630D03*
X007661Y011630D03*
X007661Y011630D03*
X007661Y011630D03*
X007661Y011630D03*
X007661Y011630D03*
X007661Y011640D03*
X007661Y011640D03*
X007661Y011640D03*
X007661Y011640D03*
X007651Y011650D03*
X007651Y011650D03*
X007651Y011650D03*
X007651Y011650D03*
X007651Y011660D03*
X007651Y011660D03*
X007651Y011660D03*
X007651Y011660D03*
X007641Y011670D03*
X007641Y011670D03*
X007641Y011670D03*
X007641Y011670D03*
X007641Y011680D03*
X007641Y011680D03*
X007641Y011680D03*
X007641Y011680D03*
X007631Y011690D03*
X007631Y011690D03*
X007631Y011690D03*
X007631Y011690D03*
X007631Y011700D03*
X007631Y011700D03*
X007631Y011700D03*
X007631Y011700D03*
X007621Y011710D03*
X007621Y011710D03*
X007621Y011710D03*
X007621Y011710D03*
X007621Y011720D03*
X007621Y011720D03*
X007621Y011720D03*
X007621Y011720D03*
X007611Y011730D03*
X007611Y011730D03*
X007611Y011730D03*
X007611Y011730D03*
X007611Y011740D03*
X007611Y011740D03*
X007611Y011740D03*
X007611Y011740D03*
X007601Y011750D03*
X007601Y011750D03*
X007601Y011750D03*
X007601Y011750D03*
X007601Y011760D03*
X007601Y011760D03*
X007601Y011760D03*
X007601Y011760D03*
X007591Y011770D03*
X007591Y011770D03*
X007591Y011770D03*
X007591Y011770D03*
X007581Y011790D03*
X007581Y011790D03*
X007581Y011790D03*
X007581Y011790D03*
X007571Y011810D03*
X007571Y011810D03*
X007571Y011810D03*
X007571Y011810D03*
X007561Y011830D03*
X007561Y011830D03*
X007561Y011830D03*
X007561Y011830D03*
X007551Y011840D03*
X007551Y011840D03*
X007551Y011840D03*
X007551Y011840D03*
X007551Y011850D03*
X007551Y011850D03*
X007551Y011850D03*
X007551Y011850D03*
X007541Y011860D03*
X007541Y011860D03*
X007541Y011860D03*
X007541Y011860D03*
X007541Y011870D03*
X007541Y011870D03*
X007541Y011870D03*
X007541Y011870D03*
X007531Y011880D03*
X007531Y011880D03*
X007531Y011880D03*
X007531Y011880D03*
X007531Y011890D03*
X007531Y011890D03*
X007531Y011890D03*
X007531Y011890D03*
X007521Y011900D03*
X007521Y011900D03*
X007521Y011900D03*
X007521Y011900D03*
X007521Y011910D03*
X007521Y011910D03*
X007521Y011910D03*
X007521Y011910D03*
X007511Y011920D03*
X007511Y011920D03*
X007511Y011920D03*
X007511Y011920D03*
X007511Y011930D03*
X007511Y011930D03*
X007511Y011930D03*
X007511Y011930D03*
X007501Y011940D03*
X007501Y011940D03*
X007501Y011940D03*
X007501Y011940D03*
X007501Y011950D03*
X007501Y011950D03*
X007501Y011950D03*
X007501Y011950D03*
X007491Y011960D03*
X007491Y011960D03*
X007491Y011960D03*
X007491Y011960D03*
X007491Y011970D03*
X007491Y011970D03*
X007491Y011970D03*
X007491Y011970D03*
X007481Y011980D03*
X007481Y011980D03*
X007481Y011980D03*
X007481Y011980D03*
X007481Y011990D03*
X007481Y011990D03*
X007481Y011990D03*
X007481Y011990D03*
X007471Y012000D03*
X007471Y012000D03*
X007471Y012000D03*
X007471Y012000D03*
X007471Y012010D03*
X007471Y012010D03*
X007471Y012010D03*
X007471Y012010D03*
X007461Y012020D03*
X007461Y012020D03*
X007461Y012020D03*
X007461Y012020D03*
X007461Y012030D03*
X007461Y012030D03*
X007461Y012030D03*
X007461Y012030D03*
X007451Y012040D03*
X007451Y012040D03*
X007451Y012040D03*
X007451Y012040D03*
X007451Y012050D03*
X007451Y012050D03*
X007451Y012050D03*
X007451Y012050D03*
X007441Y012060D03*
X007441Y012060D03*
X007441Y012060D03*
X007441Y012060D03*
X007441Y012070D03*
X007441Y012070D03*
X007441Y012070D03*
X007441Y012070D03*
X007431Y012080D03*
X007431Y012080D03*
X007431Y012080D03*
X007431Y012080D03*
X007421Y012100D03*
X007421Y012100D03*
X007421Y012100D03*
X007421Y012100D03*
X007411Y012120D03*
X007411Y012120D03*
X007411Y012120D03*
X007411Y012120D03*
X007401Y012140D03*
X007401Y012140D03*
X007401Y012140D03*
X007401Y012140D03*
X007391Y012150D03*
X007391Y012150D03*
X007391Y012150D03*
X007391Y012150D03*
X007391Y012160D03*
X007391Y012160D03*
X007391Y012160D03*
X007391Y012160D03*
X007381Y012170D03*
X007381Y012170D03*
X007381Y012170D03*
X007381Y012170D03*
X007381Y012180D03*
X007381Y012180D03*
X007381Y012180D03*
X007381Y012180D03*
X007371Y012190D03*
X007371Y012190D03*
X007371Y012190D03*
X007371Y012190D03*
X007371Y012200D03*
X007371Y012200D03*
X007371Y012200D03*
X007371Y012200D03*
X007361Y012210D03*
X007361Y012210D03*
X007361Y012210D03*
X007361Y012210D03*
X007361Y012220D03*
X007361Y012220D03*
X007361Y012220D03*
X007361Y012220D03*
X007351Y012230D03*
X007351Y012230D03*
X007351Y012230D03*
X007351Y012230D03*
X007351Y012240D03*
X007351Y012240D03*
X007351Y012240D03*
X007351Y012240D03*
X007341Y012250D03*
X007341Y012250D03*
X007341Y012250D03*
X007341Y012250D03*
X007341Y012260D03*
X007341Y012260D03*
X007341Y012260D03*
X007341Y012260D03*
X007331Y012270D03*
X007331Y012270D03*
X007331Y012270D03*
X007331Y012270D03*
X007331Y012280D03*
X007331Y012280D03*
X007331Y012280D03*
X007331Y012280D03*
X007321Y012290D03*
X007321Y012290D03*
X007321Y012290D03*
X007321Y012290D03*
X007321Y012300D03*
X007321Y012300D03*
X007321Y012300D03*
X007321Y012300D03*
X007311Y012310D03*
X007311Y012310D03*
X007311Y012310D03*
X007311Y012310D03*
X007311Y012320D03*
X007311Y012320D03*
X007311Y012320D03*
X007311Y012320D03*
X007301Y012330D03*
X007301Y012330D03*
X007301Y012330D03*
X007301Y012330D03*
X007301Y012340D03*
X007301Y012340D03*
X007301Y012340D03*
X007301Y012340D03*
X007291Y012350D03*
X007291Y012350D03*
X007291Y012350D03*
X007291Y012350D03*
X007291Y012360D03*
X007291Y012360D03*
X007291Y012360D03*
X007291Y012360D03*
X007281Y012370D03*
X007281Y012370D03*
X007281Y012370D03*
X007281Y012370D03*
X007271Y012390D03*
X007271Y012390D03*
X007271Y012390D03*
X007271Y012390D03*
X007261Y012410D03*
X007261Y012410D03*
X007261Y012410D03*
X007261Y012410D03*
X007261Y012420D03*
X007261Y012420D03*
X007261Y012420D03*
X007261Y012420D03*
X007251Y012430D03*
X007251Y012430D03*
X007251Y012430D03*
X007251Y012430D03*
X007241Y012450D03*
X007241Y012450D03*
X007241Y012450D03*
X007241Y012450D03*
X007151Y012450D03*
X007151Y012450D03*
X007151Y012450D03*
X007151Y012450D03*
X007141Y012440D03*
X007141Y012440D03*
X007141Y012440D03*
X007141Y012440D03*
X007141Y012430D03*
X007141Y012430D03*
X007141Y012430D03*
X007141Y012430D03*
X007131Y012420D03*
X007131Y012420D03*
X007131Y012420D03*
X007131Y012420D03*
X007131Y012410D03*
X007131Y012410D03*
X007131Y012410D03*
X007131Y012410D03*
X007121Y012400D03*
X007121Y012400D03*
X007121Y012400D03*
X007121Y012400D03*
X007121Y012390D03*
X007121Y012390D03*
X007121Y012390D03*
X007121Y012390D03*
X007111Y012380D03*
X007111Y012380D03*
X007111Y012380D03*
X007111Y012380D03*
X007111Y012370D03*
X007111Y012370D03*
X007111Y012370D03*
X007111Y012370D03*
X007101Y012360D03*
X007101Y012360D03*
X007101Y012360D03*
X007101Y012360D03*
X007101Y012350D03*
X007101Y012350D03*
X007101Y012350D03*
X007101Y012350D03*
X007091Y012340D03*
X007091Y012340D03*
X007091Y012340D03*
X007091Y012340D03*
X007091Y012330D03*
X007091Y012330D03*
X007091Y012330D03*
X007091Y012330D03*
X007081Y012320D03*
X007081Y012320D03*
X007081Y012320D03*
X007081Y012320D03*
X007071Y012310D03*
X007071Y012310D03*
X007071Y012310D03*
X007071Y012310D03*
X007071Y012300D03*
X007071Y012300D03*
X007071Y012300D03*
X007071Y012300D03*
X007061Y012280D03*
X007061Y012280D03*
X007061Y012280D03*
X007061Y012280D03*
X007051Y012260D03*
X007051Y012260D03*
X007051Y012260D03*
X007051Y012260D03*
X007041Y012250D03*
X007041Y012250D03*
X007041Y012250D03*
X007041Y012250D03*
X007041Y012240D03*
X007041Y012240D03*
X007041Y012240D03*
X007041Y012240D03*
X007031Y012230D03*
X007031Y012230D03*
X007031Y012230D03*
X007031Y012230D03*
X007031Y012220D03*
X007031Y012220D03*
X007031Y012220D03*
X007031Y012220D03*
X007021Y012210D03*
X007021Y012210D03*
X007021Y012210D03*
X007021Y012210D03*
X007021Y012200D03*
X007021Y012200D03*
X007021Y012200D03*
X007021Y012200D03*
X007011Y012190D03*
X007011Y012190D03*
X007011Y012190D03*
X007011Y012190D03*
X007011Y012180D03*
X007011Y012180D03*
X007011Y012180D03*
X007011Y012180D03*
X007001Y012170D03*
X007001Y012170D03*
X007001Y012170D03*
X007001Y012170D03*
X007001Y012160D03*
X007001Y012160D03*
X007001Y012160D03*
X007001Y012160D03*
X006991Y012150D03*
X006991Y012150D03*
X006991Y012150D03*
X006991Y012150D03*
X006991Y012140D03*
X006991Y012140D03*
X006991Y012140D03*
X006991Y012140D03*
X006981Y012130D03*
X006981Y012130D03*
X006981Y012130D03*
X006981Y012130D03*
X006981Y012120D03*
X006981Y012120D03*
X006981Y012120D03*
X006981Y012120D03*
X006971Y012110D03*
X006971Y012110D03*
X006971Y012110D03*
X006971Y012110D03*
X006971Y012100D03*
X006971Y012100D03*
X006971Y012100D03*
X006971Y012100D03*
X006961Y012090D03*
X006961Y012090D03*
X006961Y012090D03*
X006961Y012090D03*
X006961Y012080D03*
X006961Y012080D03*
X006961Y012080D03*
X006961Y012080D03*
X006951Y012070D03*
X006951Y012070D03*
X006951Y012070D03*
X006951Y012070D03*
X006951Y012060D03*
X006951Y012060D03*
X006951Y012060D03*
X006951Y012060D03*
X006941Y012050D03*
X006941Y012050D03*
X006941Y012050D03*
X006941Y012050D03*
X006941Y012040D03*
X006941Y012040D03*
X006941Y012040D03*
X006941Y012040D03*
X006931Y012030D03*
X006931Y012030D03*
X006931Y012030D03*
X006931Y012030D03*
X006931Y012020D03*
X006931Y012020D03*
X006931Y012020D03*
X006931Y012020D03*
X006921Y012010D03*
X006921Y012010D03*
X006921Y012010D03*
X006921Y012010D03*
X006911Y011990D03*
X006911Y011990D03*
X006911Y011990D03*
X006911Y011990D03*
X006911Y011980D03*
X006911Y011980D03*
X006911Y011980D03*
X006911Y011980D03*
X006901Y011970D03*
X006901Y011970D03*
X006901Y011970D03*
X006901Y011970D03*
X006891Y011950D03*
X006891Y011950D03*
X006891Y011950D03*
X006891Y011950D03*
X006881Y011930D03*
X006881Y011930D03*
X006881Y011930D03*
X006881Y011930D03*
X006871Y011920D03*
X006871Y011920D03*
X006871Y011920D03*
X006871Y011920D03*
X006871Y011910D03*
X006871Y011910D03*
X006871Y011910D03*
X006871Y011910D03*
X006861Y011900D03*
X006861Y011900D03*
X006861Y011900D03*
X006861Y011900D03*
X006861Y011890D03*
X006861Y011890D03*
X006861Y011890D03*
X006861Y011890D03*
X006851Y011880D03*
X006851Y011880D03*
X006851Y011880D03*
X006851Y011880D03*
X006851Y011870D03*
X006851Y011870D03*
X006851Y011870D03*
X006851Y011870D03*
X006841Y011860D03*
X006841Y011860D03*
X006841Y011860D03*
X006841Y011860D03*
X006841Y011850D03*
X006841Y011850D03*
X006841Y011850D03*
X006841Y011850D03*
X006831Y011840D03*
X006831Y011840D03*
X006831Y011840D03*
X006831Y011840D03*
X006831Y011830D03*
X006831Y011830D03*
X006831Y011830D03*
X006831Y011830D03*
X006821Y011820D03*
X006821Y011820D03*
X006821Y011820D03*
X006821Y011820D03*
X006821Y011810D03*
X006821Y011810D03*
X006821Y011810D03*
X006821Y011810D03*
X006811Y011800D03*
X006811Y011800D03*
X006811Y011800D03*
X006811Y011800D03*
X006811Y011790D03*
X006811Y011790D03*
X006811Y011790D03*
X006811Y011790D03*
X006801Y011780D03*
X006801Y011780D03*
X006801Y011780D03*
X006801Y011780D03*
X006801Y011770D03*
X006801Y011770D03*
X006801Y011770D03*
X006801Y011770D03*
X006791Y011760D03*
X006791Y011760D03*
X006791Y011760D03*
X006791Y011760D03*
X006791Y011750D03*
X006791Y011750D03*
X006791Y011750D03*
X006791Y011750D03*
X006781Y011740D03*
X006781Y011740D03*
X006781Y011740D03*
X006781Y011740D03*
X006781Y011730D03*
X006781Y011730D03*
X006781Y011730D03*
X006781Y011730D03*
X006771Y011720D03*
X006771Y011720D03*
X006771Y011720D03*
X006771Y011720D03*
X006771Y011710D03*
X006771Y011710D03*
X006771Y011710D03*
X006771Y011710D03*
X006761Y011700D03*
X006761Y011700D03*
X006761Y011700D03*
X006761Y011700D03*
X006761Y011690D03*
X006761Y011690D03*
X006761Y011690D03*
X006761Y011690D03*
X006751Y011680D03*
X006751Y011680D03*
X006751Y011680D03*
X006751Y011680D03*
X006751Y011670D03*
X006751Y011670D03*
X006751Y011670D03*
X006751Y011670D03*
X006741Y011660D03*
X006741Y011660D03*
X006741Y011660D03*
X006741Y011660D03*
X006731Y011640D03*
X006731Y011640D03*
X006731Y011640D03*
X006731Y011640D03*
X006721Y011620D03*
X006721Y011620D03*
X006721Y011620D03*
X006721Y011620D03*
X006711Y011600D03*
X006711Y011600D03*
X006711Y011600D03*
X006711Y011600D03*
X006701Y011580D03*
X006701Y011580D03*
X006701Y011580D03*
X006701Y011580D03*
X006691Y011570D03*
X006691Y011570D03*
X006691Y011570D03*
X006691Y011570D03*
X006691Y011560D03*
X006691Y011560D03*
X006691Y011560D03*
X006691Y011560D03*
X006681Y011550D03*
X006681Y011550D03*
X006681Y011550D03*
X006681Y011550D03*
X006681Y011540D03*
X006681Y011540D03*
X006681Y011540D03*
X006681Y011540D03*
X006671Y011530D03*
X006671Y011530D03*
X006671Y011530D03*
X006671Y011530D03*
X006671Y011520D03*
X006671Y011520D03*
X006671Y011520D03*
X006671Y011520D03*
X006661Y011510D03*
X006661Y011510D03*
X006661Y011510D03*
X006661Y011510D03*
X006661Y011500D03*
X006661Y011500D03*
X006661Y011500D03*
X006661Y011500D03*
X006651Y011490D03*
X006651Y011490D03*
X006651Y011490D03*
X006651Y011490D03*
X006651Y011480D03*
X006651Y011480D03*
X006651Y011480D03*
X006651Y011480D03*
X006641Y011470D03*
X006641Y011470D03*
X006641Y011470D03*
X006641Y011470D03*
X006641Y011460D03*
X006641Y011460D03*
X006641Y011460D03*
X006641Y011460D03*
X006631Y011450D03*
X006631Y011450D03*
X006631Y011450D03*
X006631Y011450D03*
X006631Y011440D03*
X006631Y011440D03*
X006631Y011440D03*
X006631Y011440D03*
X006621Y011430D03*
X006621Y011430D03*
X006621Y011430D03*
X006621Y011430D03*
X006621Y011420D03*
X006621Y011420D03*
X006621Y011420D03*
X006621Y011420D03*
X006611Y011410D03*
X006611Y011410D03*
X006611Y011410D03*
X006611Y011410D03*
X006611Y011400D03*
X006611Y011400D03*
X006611Y011400D03*
X006611Y011400D03*
X006601Y011390D03*
X006601Y011390D03*
X006601Y011390D03*
X006601Y011390D03*
X006601Y011380D03*
X006601Y011380D03*
X006601Y011380D03*
X006601Y011380D03*
X006591Y011370D03*
X006591Y011370D03*
X006591Y011370D03*
X006591Y011370D03*
X006591Y011360D03*
X006591Y011360D03*
X006591Y011360D03*
X006591Y011360D03*
X006581Y011350D03*
X006581Y011350D03*
X006581Y011350D03*
X006581Y011350D03*
X006581Y011340D03*
X006581Y011340D03*
X006581Y011340D03*
X006581Y011340D03*
X007191Y012540D03*
X007191Y012540D03*
X007191Y012540D03*
X007191Y012540D03*
X008061Y012340D03*
X008061Y012340D03*
X008061Y012340D03*
X008061Y012340D03*
X008081Y012370D03*
X008081Y012370D03*
X008081Y012370D03*
X008081Y012370D03*
X008091Y012380D03*
X008091Y012380D03*
X008091Y012380D03*
X008091Y012380D03*
X008101Y012390D03*
X008101Y012390D03*
X008101Y012390D03*
X008101Y012390D03*
D37*
X008231Y012470D03*
X008231Y012470D03*
X008231Y012470D03*
X008231Y012470D03*
X008861Y012460D03*
X008861Y012460D03*
X008861Y012460D03*
X008861Y012460D03*
X008141Y011840D03*
X008141Y011840D03*
X008141Y011840D03*
X008141Y011840D03*
X008881Y011350D03*
X008881Y011350D03*
X008881Y011350D03*
X008881Y011350D03*
X007191Y012460D03*
X007191Y012460D03*
X007191Y012460D03*
X007191Y012460D03*
D38*
X007196Y012470D03*
X007196Y012470D03*
X007196Y012470D03*
X007196Y012470D03*
X008196Y011350D03*
X008196Y011350D03*
X008196Y011350D03*
X008196Y011350D03*
X008906Y011360D03*
X008906Y011360D03*
X008906Y011360D03*
X008906Y011360D03*
X008906Y011990D03*
X008906Y011990D03*
X008906Y011990D03*
X008906Y011990D03*
D39*
X008931Y012000D03*
X008931Y012000D03*
X008931Y012000D03*
X008931Y012000D03*
X008901Y012440D03*
X008901Y012440D03*
X008901Y012440D03*
X008901Y012440D03*
X008881Y012450D03*
X008881Y012450D03*
X008881Y012450D03*
X008881Y012450D03*
X008201Y012460D03*
X008201Y012460D03*
X008201Y012460D03*
X008201Y012460D03*
X008121Y011830D03*
X008121Y011830D03*
X008121Y011830D03*
X008121Y011830D03*
X008171Y011360D03*
X008171Y011360D03*
X008171Y011360D03*
X008171Y011360D03*
X008921Y011370D03*
X008921Y011370D03*
X008921Y011370D03*
X008921Y011370D03*
X007191Y012480D03*
X007191Y012480D03*
X007191Y012480D03*
X007191Y012480D03*
D40*
X007196Y012490D03*
X007196Y012490D03*
X007196Y012490D03*
X007196Y012490D03*
X008156Y011370D03*
X008156Y011370D03*
X008156Y011370D03*
X008156Y011370D03*
X008946Y011380D03*
X008946Y011380D03*
X008946Y011380D03*
X008946Y011380D03*
X008946Y012010D03*
X008946Y012010D03*
X008946Y012010D03*
X008946Y012010D03*
X008916Y012430D03*
X008916Y012430D03*
X008916Y012430D03*
X008916Y012430D03*
D41*
X008931Y012420D03*
X008931Y012420D03*
X008931Y012420D03*
X008931Y012420D03*
X008961Y012020D03*
X008961Y012020D03*
X008961Y012020D03*
X008961Y012020D03*
X008971Y011400D03*
X008971Y011400D03*
X008971Y011400D03*
X008971Y011400D03*
X008961Y011390D03*
X008961Y011390D03*
X008961Y011390D03*
X008961Y011390D03*
X008141Y011380D03*
X008141Y011380D03*
X008141Y011380D03*
X008141Y011380D03*
X008121Y011390D03*
X008121Y011390D03*
X008121Y011390D03*
X008121Y011390D03*
X008101Y011820D03*
X008101Y011820D03*
X008101Y011820D03*
X008101Y011820D03*
X008181Y012450D03*
X008181Y012450D03*
X008181Y012450D03*
X008181Y012450D03*
X007191Y012500D03*
X007191Y012500D03*
X007191Y012500D03*
X007191Y012500D03*
D42*
X007196Y012510D03*
X007196Y012510D03*
X007196Y012510D03*
X007196Y012510D03*
X008076Y011800D03*
X008076Y011800D03*
X008076Y011800D03*
X008076Y011800D03*
X008086Y011810D03*
X008086Y011810D03*
X008086Y011810D03*
X008086Y011810D03*
X008096Y011410D03*
X008096Y011410D03*
X008096Y011410D03*
X008096Y011410D03*
X008106Y011400D03*
X008106Y011400D03*
X008106Y011400D03*
X008106Y011400D03*
X008986Y011410D03*
X008986Y011410D03*
X008986Y011410D03*
X008986Y011410D03*
X008976Y012030D03*
X008976Y012030D03*
X008976Y012030D03*
X008976Y012030D03*
X008986Y012040D03*
X008986Y012040D03*
X008986Y012040D03*
X008986Y012040D03*
X008946Y012410D03*
X008946Y012410D03*
X008946Y012410D03*
X008946Y012410D03*
X008166Y012440D03*
X008166Y012440D03*
X008166Y012440D03*
X008166Y012440D03*
D43*
X008151Y012430D03*
X008151Y012430D03*
X008151Y012430D03*
X008151Y012430D03*
X008131Y012420D03*
X008131Y012420D03*
X008131Y012420D03*
X008131Y012420D03*
X008121Y012410D03*
X008121Y012410D03*
X008121Y012410D03*
X008121Y012410D03*
X008061Y011790D03*
X008061Y011790D03*
X008061Y011790D03*
X008061Y011790D03*
X007191Y012520D03*
X007191Y012520D03*
X007191Y012520D03*
X007191Y012520D03*
X008961Y012400D03*
X008961Y012400D03*
X008961Y012400D03*
X008961Y012400D03*
X008971Y012390D03*
X008971Y012390D03*
X008971Y012390D03*
X008971Y012390D03*
X008981Y012380D03*
X008981Y012380D03*
X008981Y012380D03*
X008981Y012380D03*
X008991Y012370D03*
X008991Y012370D03*
X008991Y012370D03*
X008991Y012370D03*
X009011Y011430D03*
X009011Y011430D03*
X009011Y011430D03*
X009011Y011430D03*
X009001Y011420D03*
X009001Y011420D03*
X009001Y011420D03*
X009001Y011420D03*
D44*
X009016Y011440D03*
X009016Y011440D03*
X009016Y011440D03*
X009016Y011440D03*
X009026Y011450D03*
X009026Y011450D03*
X009026Y011450D03*
X009026Y011450D03*
X009036Y011460D03*
X009036Y011460D03*
X009036Y011460D03*
X009036Y011460D03*
X008996Y012050D03*
X008996Y012050D03*
X008996Y012050D03*
X008996Y012050D03*
X009006Y012060D03*
X009006Y012060D03*
X009006Y012060D03*
X009006Y012060D03*
X009016Y012070D03*
X009016Y012070D03*
X009016Y012070D03*
X009016Y012070D03*
X009026Y012090D03*
X009026Y012090D03*
X009026Y012090D03*
X009026Y012090D03*
X009016Y012340D03*
X009016Y012340D03*
X009016Y012340D03*
X009016Y012340D03*
X009006Y012350D03*
X009006Y012350D03*
X009006Y012350D03*
X009006Y012350D03*
X008996Y012360D03*
X008996Y012360D03*
X008996Y012360D03*
X008996Y012360D03*
X008106Y012400D03*
X008106Y012400D03*
X008106Y012400D03*
X008106Y012400D03*
X008056Y011780D03*
X008056Y011780D03*
X008056Y011780D03*
X008056Y011780D03*
X008046Y011770D03*
X008046Y011770D03*
X008046Y011770D03*
X008046Y011770D03*
X008036Y011760D03*
X008036Y011760D03*
X008036Y011760D03*
X008036Y011760D03*
X008056Y011450D03*
X008056Y011450D03*
X008056Y011450D03*
X008056Y011450D03*
X008066Y011440D03*
X008066Y011440D03*
X008066Y011440D03*
X008066Y011440D03*
X008076Y011430D03*
X008076Y011430D03*
X008076Y011430D03*
X008076Y011430D03*
X008086Y011420D03*
X008086Y011420D03*
X008086Y011420D03*
X008086Y011420D03*
X007756Y011450D03*
X007756Y011450D03*
X007756Y011450D03*
X007756Y011450D03*
X007586Y011780D03*
X007586Y011780D03*
X007586Y011780D03*
X007586Y011780D03*
X007576Y011800D03*
X007576Y011800D03*
X007576Y011800D03*
X007576Y011800D03*
X007566Y011820D03*
X007566Y011820D03*
X007566Y011820D03*
X007566Y011820D03*
X007426Y012090D03*
X007426Y012090D03*
X007426Y012090D03*
X007426Y012090D03*
X007416Y012110D03*
X007416Y012110D03*
X007416Y012110D03*
X007416Y012110D03*
X007406Y012130D03*
X007406Y012130D03*
X007406Y012130D03*
X007406Y012130D03*
X007266Y012400D03*
X007266Y012400D03*
X007266Y012400D03*
X007266Y012400D03*
X007246Y012440D03*
X007246Y012440D03*
X007246Y012440D03*
X007246Y012440D03*
X007196Y012530D03*
X007196Y012530D03*
X007196Y012530D03*
X007196Y012530D03*
X007066Y012290D03*
X007066Y012290D03*
X007066Y012290D03*
X007066Y012290D03*
X007056Y012270D03*
X007056Y012270D03*
X007056Y012270D03*
X007056Y012270D03*
X006896Y011960D03*
X006896Y011960D03*
X006896Y011960D03*
X006896Y011960D03*
X006886Y011940D03*
X006886Y011940D03*
X006886Y011940D03*
X006886Y011940D03*
X006736Y011650D03*
X006736Y011650D03*
X006736Y011650D03*
X006736Y011650D03*
X006726Y011630D03*
X006726Y011630D03*
X006726Y011630D03*
X006726Y011630D03*
X006716Y011610D03*
X006716Y011610D03*
X006716Y011610D03*
X006716Y011610D03*
D45*
X009081Y011580D03*
X009081Y011580D03*
X009081Y011580D03*
X009081Y011580D03*
D46*
X008171Y011850D03*
X008171Y011850D03*
X008171Y011850D03*
X008171Y011850D03*
X008261Y012480D03*
X008261Y012480D03*
X008261Y012480D03*
X008261Y012480D03*
D47*
X008251Y011870D03*
X008251Y011870D03*
X008251Y011870D03*
X008251Y011870D03*
X008801Y011960D03*
X008801Y011960D03*
X008801Y011960D03*
X008801Y011960D03*
D48*
X009811Y011920D03*
X009811Y011920D03*
X009811Y011920D03*
X009811Y011920D03*
X009811Y011880D03*
X009811Y011880D03*
X009811Y011880D03*
X009811Y011880D03*
D49*
X008741Y011950D03*
X008741Y011950D03*
X008741Y011950D03*
X008741Y011950D03*
X008311Y011880D03*
X008311Y011880D03*
X008311Y011880D03*
X008311Y011880D03*
D50*
X008391Y011890D03*
X008391Y011890D03*
X008391Y011890D03*
X008391Y011890D03*
D51*
X008506Y011910D03*
X008506Y011910D03*
X008506Y011910D03*
X008506Y011910D03*
D52*
X008551Y011920D03*
X008551Y011920D03*
X008551Y011920D03*
X008551Y011920D03*
D53*
X009816Y011930D03*
X009816Y011930D03*
X009816Y011930D03*
X009816Y011930D03*
D54*
X008666Y011940D03*
X008666Y011940D03*
X008666Y011940D03*
X008666Y011940D03*
D55*
X008841Y011970D03*
X008841Y011970D03*
X008841Y011970D03*
X008841Y011970D03*
D56*
X008596Y012560D03*
X008596Y012560D03*
X008596Y012560D03*
X008596Y012560D03*
X008036Y012260D03*
X008036Y012260D03*
X008036Y012260D03*
X008036Y012260D03*
D57*
X011056Y012490D03*
X011056Y012490D03*
X011056Y012490D03*
X011056Y012490D03*
X011056Y012540D03*
X011056Y012540D03*
X011056Y012540D03*
X011056Y012540D03*
D58*
X011056Y012530D03*
X011056Y012530D03*
X011056Y012530D03*
X011056Y012530D03*
X011056Y012510D03*
X011056Y012510D03*
X011056Y012510D03*
X011056Y012510D03*
X011056Y012500D03*
X011056Y012500D03*
X011056Y012500D03*
X011056Y012500D03*
D59*
X008536Y012500D03*
X008536Y012500D03*
X008536Y012500D03*
X008536Y012500D03*
D60*
X008536Y012510D03*
X008536Y012510D03*
X008536Y012510D03*
X008536Y012510D03*
D61*
X011051Y012520D03*
X011051Y012520D03*
X011051Y012520D03*
X011051Y012520D03*
D62*
X008536Y012520D03*
X008536Y012520D03*
X008536Y012520D03*
X008536Y012520D03*
D63*
X008541Y012530D03*
X008541Y012530D03*
X008541Y012530D03*
X008541Y012530D03*
D64*
X008541Y012540D03*
X008541Y012540D03*
X008541Y012540D03*
X008541Y012540D03*
D65*
X007920Y016242D02*
X007475Y016242D01*
X011695Y018162D02*
X012140Y018162D01*
X011917Y018384D02*
X011917Y017939D01*
X016006Y007816D02*
X016320Y007502D01*
X016320Y007816D02*
X016006Y007502D01*
X015139Y003879D02*
X014824Y003565D01*
X006478Y005139D02*
X006163Y005454D01*
X006478Y005454D02*
X006163Y005139D01*
X002267Y006438D02*
X001952Y006753D01*
D66*
X003613Y004600D02*
X003721Y004492D01*
X003830Y004492D01*
X004047Y004709D01*
X004047Y004817D01*
X003938Y004926D01*
X003830Y004926D01*
X003613Y004709D02*
X003613Y004600D01*
X002946Y005375D02*
X002838Y005375D01*
X002729Y005484D01*
X002729Y005592D01*
X002946Y005375D02*
X003163Y005592D01*
X003163Y005701D01*
X003055Y005809D01*
X002946Y005809D01*
X004497Y007252D02*
X004497Y007360D01*
X004497Y007252D02*
X004605Y007143D01*
X004714Y007143D01*
X004931Y007360D01*
X004931Y007469D01*
X004822Y007577D01*
X004714Y007577D01*
X005543Y006639D02*
X005326Y006422D01*
X005489Y006585D02*
X005706Y006368D01*
X005761Y006422D02*
X005543Y006205D01*
X005761Y006422D02*
X005761Y006639D01*
X005543Y006639D01*
X013829Y006316D02*
X013937Y006425D01*
X014046Y006425D01*
X014263Y006208D01*
X014263Y006099D01*
X014154Y005991D01*
X014046Y005991D01*
X013829Y006208D02*
X013829Y006316D01*
X014767Y007037D02*
X014767Y007254D01*
X014984Y007254D01*
X015201Y007037D01*
X015038Y007200D02*
X014821Y006983D01*
X014767Y007037D02*
X014984Y006820D01*
X016480Y005432D02*
X016480Y005324D01*
X016480Y005432D02*
X016589Y005541D01*
X016697Y005541D01*
X016914Y005324D01*
X016914Y005215D01*
X016806Y005107D01*
X016697Y005107D01*
X016031Y004440D02*
X016031Y004332D01*
X015922Y004223D01*
X015814Y004223D01*
X016031Y004440D02*
X015814Y004657D01*
X015705Y004657D01*
X015597Y004549D01*
X015597Y004440D01*
X010559Y015520D02*
X010406Y015520D01*
X010329Y015597D01*
X010559Y015520D02*
X010636Y015597D01*
X010636Y015904D01*
X010559Y015980D01*
X010406Y015980D01*
X010329Y015904D01*
X009386Y015904D02*
X009386Y015597D01*
X009309Y015520D01*
X009156Y015520D01*
X009079Y015597D01*
X009079Y015904D02*
X009156Y015980D01*
X009309Y015980D01*
X009386Y015904D01*
X009309Y018020D02*
X009156Y018020D01*
X009079Y018097D01*
X009309Y018020D02*
X009386Y018097D01*
X009386Y018404D01*
X009309Y018480D01*
X009156Y018480D01*
X009079Y018404D01*
X010329Y018327D02*
X010329Y018020D01*
X010329Y018250D02*
X010636Y018250D01*
X010636Y018327D02*
X010483Y018480D01*
X010329Y018327D01*
X010636Y018327D02*
X010636Y018020D01*
D67*
G36*
X004306Y006110D02*
X004416Y006000D01*
X004306Y005890D01*
X004196Y006000D01*
X004306Y006110D01*
G37*
G36*
X015296Y005800D02*
X015406Y005910D01*
X015516Y005800D01*
X015406Y005690D01*
X015296Y005800D01*
G37*
D68*
X009906Y017000D03*
M02*
