G75*
%MOIN*%
%OFA0B0*%
%FSLAX24Y24*%
%IPPOS*%
%LPD*%
%AMOC8*
5,1,8,0,0,1.08239X$1,22.5*
%
%ADD10C,0.0000*%
%ADD11C,0.0600*%
%ADD12OC8,0.0600*%
%ADD13R,0.1299X0.1890*%
%ADD14C,0.0317*%
%ADD15C,0.0080*%
%ADD16C,0.0160*%
D10*
X000112Y000100D02*
X000100Y019777D01*
X019899Y019789D01*
X019797Y000100D01*
X000112Y000100D01*
D11*
X006907Y007281D02*
X007331Y007705D01*
X006624Y008412D02*
X006200Y007988D01*
X005493Y008695D02*
X005917Y009119D01*
X005210Y009826D02*
X004785Y009402D01*
X007614Y006574D02*
X008038Y006998D01*
X009212Y007850D02*
X009212Y008450D01*
X010212Y008450D02*
X010212Y007850D01*
X012493Y007405D02*
X012917Y006981D01*
X013624Y007688D02*
X013200Y008112D01*
X013907Y008819D02*
X014331Y008395D01*
D12*
X011312Y014240D03*
X008322Y014230D03*
D13*
X009124Y015760D03*
X010699Y015760D03*
X010699Y018240D03*
X009124Y018240D03*
G36*
X004841Y008561D02*
X005759Y007643D01*
X004423Y006307D01*
X003505Y007225D01*
X004841Y008561D01*
G37*
G36*
X005955Y007447D02*
X006873Y006529D01*
X005537Y005193D01*
X004619Y006111D01*
X005955Y007447D01*
G37*
G36*
X004201Y005693D02*
X005119Y004775D01*
X003783Y003439D01*
X002865Y004357D01*
X004201Y005693D01*
G37*
G36*
X003087Y006807D02*
X004005Y005889D01*
X002669Y004553D01*
X001751Y005471D01*
X003087Y006807D01*
G37*
G36*
X012851Y006329D02*
X013769Y007247D01*
X015105Y005911D01*
X014187Y004993D01*
X012851Y006329D01*
G37*
G36*
X013965Y007443D02*
X014883Y008361D01*
X016219Y007025D01*
X015301Y006107D01*
X013965Y007443D01*
G37*
G36*
X015719Y005689D02*
X016637Y006607D01*
X017973Y005271D01*
X017055Y004353D01*
X015719Y005689D01*
G37*
G36*
X014605Y004575D02*
X015523Y005493D01*
X016859Y004157D01*
X015941Y003239D01*
X014605Y004575D01*
G37*
D14*
X009922Y006770D03*
X009242Y006080D03*
X009632Y009070D03*
X009802Y010490D03*
X008522Y010830D03*
X008162Y009200D03*
D15*
X009452Y010490D01*
X009802Y010490D01*
X008522Y010300D02*
X008522Y010830D01*
X008522Y010300D02*
X007852Y009630D01*
X007852Y009050D01*
X008042Y008860D01*
X009422Y008860D01*
X009632Y009070D01*
D16*
X011222Y008080D02*
X009922Y006780D01*
X009922Y006770D01*
X009242Y006080D02*
X008952Y005790D01*
X005772Y005790D01*
X005746Y005816D01*
X005746Y006320D01*
X006412Y008200D02*
X006412Y008210D01*
X006972Y008770D01*
X007292Y008770D01*
X011696Y004366D01*
X015732Y004366D01*
X015092Y007234D02*
X015092Y007300D01*
X015762Y007970D01*
X015762Y008610D01*
X013972Y010400D01*
X012962Y010400D01*
X012982Y010420D01*
X012982Y011350D01*
X011952Y012380D01*
X011952Y016980D01*
X010699Y018233D01*
X010699Y018240D01*
X009114Y015770D02*
X009124Y015760D01*
X009114Y015770D02*
X008182Y015770D01*
X006252Y013840D01*
X006252Y010870D01*
X004998Y009616D01*
X004998Y009614D01*
X005705Y008907D02*
X005548Y008750D01*
X004472Y008750D01*
X002878Y007156D01*
X002878Y005680D01*
X011222Y008080D02*
X011818Y008080D01*
X011832Y008066D01*
X011832Y009300D01*
X012932Y010400D01*
X012962Y010400D01*
X011832Y008066D02*
X012705Y007193D01*
X011312Y014240D02*
X008322Y014230D01*
M02*
