%
M48
M72
T01C0.0236
T02C0.0400
T03C0.0440
T04C0.1300
%
T01
X12760Y9070
X16560Y7910
X5440Y3610
X12700Y18110
X14040Y3870
X3060Y7930
X6930Y17230
T02
X4552Y9798
X5259Y9091
X5966Y8384
X6674Y7676
X7381Y6969
X8088Y6262
X12249Y6789
X12956Y7496
X13664Y8204
X14371Y8911
X8840Y13940
X9840Y13940
X10840Y13940
X10794Y5864
X10086Y5156
X12880Y10400
T03
X9261Y7675
X9968Y8382
X10675Y9089
T04
X5089Y13261
M30
