G75*
%MOIN*%
%OFA0B0*%
%FSLAX24Y24*%
%IPPOS*%
%LPD*%
%AMOC8*
5,1,8,0,0,1.08239X$1,22.5*
%
%ADD10C,0.0000*%
%ADD11C,0.0640*%
%ADD12OC8,0.0640*%
%ADD13C,0.0700*%
%ADD14C,0.1340*%
%ADD15R,0.0473X0.0434*%
D10*
X000100Y009565D02*
X000100Y010260D01*
X004439Y013261D02*
X004441Y013311D01*
X004447Y013361D01*
X004457Y013411D01*
X004470Y013459D01*
X004487Y013507D01*
X004508Y013553D01*
X004532Y013597D01*
X004560Y013639D01*
X004591Y013679D01*
X004625Y013716D01*
X004662Y013751D01*
X004701Y013782D01*
X004742Y013811D01*
X004786Y013836D01*
X004832Y013858D01*
X004879Y013876D01*
X004927Y013890D01*
X004976Y013901D01*
X005026Y013908D01*
X005076Y013911D01*
X005127Y013910D01*
X005177Y013905D01*
X005227Y013896D01*
X005275Y013884D01*
X005323Y013867D01*
X005369Y013847D01*
X005414Y013824D01*
X005457Y013797D01*
X005497Y013767D01*
X005535Y013734D01*
X005570Y013698D01*
X005603Y013659D01*
X005632Y013618D01*
X005658Y013575D01*
X005681Y013530D01*
X005700Y013483D01*
X005715Y013435D01*
X005727Y013386D01*
X005735Y013336D01*
X005739Y013286D01*
X005739Y013236D01*
X005735Y013186D01*
X005727Y013136D01*
X005715Y013087D01*
X005700Y013039D01*
X005681Y012992D01*
X005658Y012947D01*
X005632Y012904D01*
X005603Y012863D01*
X005570Y012824D01*
X005535Y012788D01*
X005497Y012755D01*
X005457Y012725D01*
X005414Y012698D01*
X005369Y012675D01*
X005323Y012655D01*
X005275Y012638D01*
X005227Y012626D01*
X005177Y012617D01*
X005127Y012612D01*
X005076Y012611D01*
X005026Y012614D01*
X004976Y012621D01*
X004927Y012632D01*
X004879Y012646D01*
X004832Y012664D01*
X004786Y012686D01*
X004742Y012711D01*
X004701Y012740D01*
X004662Y012771D01*
X004625Y012806D01*
X004591Y012843D01*
X004560Y012883D01*
X004532Y012925D01*
X004508Y012969D01*
X004487Y013015D01*
X004470Y013063D01*
X004457Y013111D01*
X004447Y013161D01*
X004441Y013211D01*
X004439Y013261D01*
X000100Y010260D02*
X000103Y010490D01*
X000111Y010720D01*
X000125Y010950D01*
X000144Y011179D01*
X000169Y011408D01*
X000200Y011636D01*
X000236Y011864D01*
X000277Y012090D01*
X000324Y012315D01*
X000377Y012539D01*
X000435Y012762D01*
X000498Y012984D01*
X000566Y013203D01*
X000640Y013421D01*
X000719Y013638D01*
X000803Y013852D01*
X000893Y014064D01*
X000987Y014274D01*
X001087Y014481D01*
X001191Y014686D01*
X001300Y014889D01*
X001415Y015089D01*
X001534Y015286D01*
X001658Y015480D01*
X001786Y015671D01*
X001919Y015859D01*
X002057Y016043D01*
X002199Y016224D01*
X002345Y016402D01*
X002495Y016576D01*
X002650Y016747D01*
X002809Y016913D01*
X002972Y017076D01*
X003138Y017235D01*
X003309Y017390D01*
X003483Y017540D01*
X003661Y017686D01*
X003842Y017828D01*
X004026Y017966D01*
X004214Y018099D01*
X004405Y018227D01*
X004599Y018351D01*
X004796Y018470D01*
X004996Y018585D01*
X005199Y018694D01*
X005404Y018798D01*
X005611Y018898D01*
X005821Y018992D01*
X006033Y019082D01*
X006247Y019166D01*
X006464Y019245D01*
X006682Y019319D01*
X006901Y019387D01*
X007123Y019450D01*
X007346Y019508D01*
X007570Y019561D01*
X007795Y019608D01*
X008021Y019649D01*
X008249Y019685D01*
X008477Y019716D01*
X008706Y019741D01*
X008935Y019760D01*
X009165Y019774D01*
X009395Y019782D01*
X009625Y019785D01*
X009874Y019782D01*
X010124Y019773D01*
X010372Y019757D01*
X010621Y019736D01*
X010869Y019709D01*
X011116Y019675D01*
X011362Y019635D01*
X011607Y019590D01*
X011851Y019538D01*
X012094Y019481D01*
X012335Y019417D01*
X012574Y019348D01*
X012812Y019272D01*
X013048Y019191D01*
X013282Y019104D01*
X013513Y019012D01*
X013742Y018913D01*
X013969Y018810D01*
X014193Y018700D01*
X014414Y018585D01*
X014633Y018465D01*
X014848Y018340D01*
X015061Y018209D01*
X015270Y018073D01*
X015475Y017932D01*
X015677Y017786D01*
X015876Y017635D01*
X016070Y017479D01*
X016261Y017318D01*
X016448Y017153D01*
X016631Y016983D01*
X016809Y016809D01*
X016983Y016631D01*
X017153Y016448D01*
X017318Y016261D01*
X017479Y016070D01*
X017635Y015876D01*
X017786Y015677D01*
X017932Y015475D01*
X018073Y015270D01*
X018209Y015061D01*
X018340Y014848D01*
X018465Y014633D01*
X018585Y014414D01*
X018700Y014193D01*
X018810Y013969D01*
X018913Y013742D01*
X019012Y013513D01*
X019104Y013282D01*
X019191Y013048D01*
X019272Y012812D01*
X019348Y012574D01*
X019417Y012335D01*
X019481Y012094D01*
X019538Y011851D01*
X019590Y011607D01*
X019635Y011362D01*
X019675Y011116D01*
X019709Y010869D01*
X019736Y010621D01*
X019757Y010372D01*
X019773Y010124D01*
X019782Y009874D01*
X019785Y009625D01*
X019782Y009395D01*
X019774Y009165D01*
X019760Y008935D01*
X019741Y008706D01*
X019716Y008477D01*
X019685Y008249D01*
X019649Y008021D01*
X019608Y007795D01*
X019561Y007570D01*
X019508Y007346D01*
X019450Y007123D01*
X019387Y006901D01*
X019319Y006682D01*
X019245Y006464D01*
X019166Y006247D01*
X019082Y006033D01*
X018992Y005821D01*
X018898Y005611D01*
X018798Y005404D01*
X018694Y005199D01*
X018585Y004996D01*
X018470Y004796D01*
X018351Y004599D01*
X018227Y004405D01*
X018099Y004214D01*
X017966Y004026D01*
X017828Y003842D01*
X017686Y003661D01*
X017540Y003483D01*
X017390Y003309D01*
X017235Y003138D01*
X017076Y002972D01*
X016913Y002809D01*
X016747Y002650D01*
X016576Y002495D01*
X016402Y002345D01*
X016224Y002199D01*
X016043Y002057D01*
X015859Y001919D01*
X015671Y001786D01*
X015480Y001658D01*
X015286Y001534D01*
X015089Y001415D01*
X014889Y001300D01*
X014686Y001191D01*
X014481Y001087D01*
X014274Y000987D01*
X014064Y000893D01*
X013852Y000803D01*
X013638Y000719D01*
X013421Y000640D01*
X013203Y000566D01*
X012984Y000498D01*
X012762Y000435D01*
X012539Y000377D01*
X012315Y000324D01*
X012090Y000277D01*
X011864Y000236D01*
X011636Y000200D01*
X011408Y000169D01*
X011179Y000144D01*
X010950Y000125D01*
X010720Y000111D01*
X010490Y000103D01*
X010260Y000100D01*
X009565Y000100D01*
X009336Y000103D01*
X009108Y000111D01*
X008879Y000125D01*
X008651Y000144D01*
X008424Y000169D01*
X008197Y000199D01*
X007972Y000235D01*
X007747Y000276D01*
X007523Y000323D01*
X007300Y000375D01*
X007078Y000432D01*
X006859Y000495D01*
X006640Y000563D01*
X006423Y000637D01*
X006209Y000715D01*
X005996Y000799D01*
X005785Y000888D01*
X005576Y000981D01*
X005370Y001080D01*
X005166Y001184D01*
X004965Y001293D01*
X004767Y001406D01*
X004571Y001525D01*
X004378Y001648D01*
X004188Y001775D01*
X004002Y001908D01*
X003818Y002044D01*
X003638Y002185D01*
X003462Y002331D01*
X003289Y002480D01*
X003119Y002634D01*
X002954Y002792D01*
X002792Y002954D01*
X002634Y003119D01*
X002480Y003289D01*
X002331Y003462D01*
X002185Y003638D01*
X002044Y003818D01*
X001908Y004002D01*
X001775Y004188D01*
X001648Y004378D01*
X001525Y004571D01*
X001406Y004767D01*
X001293Y004965D01*
X001184Y005166D01*
X001080Y005370D01*
X000981Y005576D01*
X000888Y005785D01*
X000799Y005996D01*
X000715Y006209D01*
X000637Y006423D01*
X000563Y006640D01*
X000495Y006859D01*
X000432Y007078D01*
X000375Y007300D01*
X000323Y007523D01*
X000276Y007747D01*
X000235Y007972D01*
X000199Y008197D01*
X000169Y008424D01*
X000144Y008651D01*
X000125Y008879D01*
X000111Y009108D01*
X000103Y009336D01*
X000100Y009565D01*
D11*
X007169Y006757D02*
X007593Y007181D01*
X008300Y006474D02*
X007876Y006050D01*
X006461Y007464D02*
X006886Y007889D01*
X006179Y008596D02*
X005754Y008171D01*
X005047Y008879D02*
X005471Y009303D01*
X004764Y010010D02*
X004340Y009586D01*
X008840Y013640D02*
X008840Y014240D01*
X009840Y014240D02*
X009840Y013640D01*
X010840Y013640D02*
X010840Y014240D01*
X014159Y009123D02*
X014583Y008699D01*
X013876Y007991D02*
X013451Y008416D01*
X012744Y007709D02*
X013169Y007284D01*
X012461Y006577D02*
X012037Y007001D01*
X011006Y005651D02*
X010581Y006076D01*
X009874Y005369D02*
X010299Y004944D01*
D12*
X012880Y010400D03*
D13*
X010908Y008856D02*
X010442Y009323D01*
X009734Y008616D02*
X010201Y008149D01*
X009494Y007442D02*
X009027Y007908D01*
D14*
X005089Y013261D03*
D15*
X008095Y016380D03*
X008765Y016380D03*
X010675Y016370D03*
X011345Y016370D03*
M02*
