G75*
%MOIN*%
%OFA0B0*%
%FSLAX24Y24*%
%IPPOS*%
%LPD*%
%AMOC8*
5,1,8,0,0,1.08239X$1,22.5*
%
%ADD10C,0.0000*%
%ADD11C,0.0680*%
%ADD12OC8,0.0680*%
%ADD13C,0.0740*%
%ADD14C,0.1380*%
%ADD15R,0.0315X0.0433*%
%ADD16C,0.0476*%
D10*
X000100Y000100D02*
X000100Y019785D01*
X019785Y019785D01*
X019785Y000100D01*
X000100Y000100D01*
X004439Y013261D02*
X004441Y013311D01*
X004447Y013361D01*
X004457Y013411D01*
X004470Y013459D01*
X004487Y013507D01*
X004508Y013553D01*
X004532Y013597D01*
X004560Y013639D01*
X004591Y013679D01*
X004625Y013716D01*
X004662Y013751D01*
X004701Y013782D01*
X004742Y013811D01*
X004786Y013836D01*
X004832Y013858D01*
X004879Y013876D01*
X004927Y013890D01*
X004976Y013901D01*
X005026Y013908D01*
X005076Y013911D01*
X005127Y013910D01*
X005177Y013905D01*
X005227Y013896D01*
X005275Y013884D01*
X005323Y013867D01*
X005369Y013847D01*
X005414Y013824D01*
X005457Y013797D01*
X005497Y013767D01*
X005535Y013734D01*
X005570Y013698D01*
X005603Y013659D01*
X005632Y013618D01*
X005658Y013575D01*
X005681Y013530D01*
X005700Y013483D01*
X005715Y013435D01*
X005727Y013386D01*
X005735Y013336D01*
X005739Y013286D01*
X005739Y013236D01*
X005735Y013186D01*
X005727Y013136D01*
X005715Y013087D01*
X005700Y013039D01*
X005681Y012992D01*
X005658Y012947D01*
X005632Y012904D01*
X005603Y012863D01*
X005570Y012824D01*
X005535Y012788D01*
X005497Y012755D01*
X005457Y012725D01*
X005414Y012698D01*
X005369Y012675D01*
X005323Y012655D01*
X005275Y012638D01*
X005227Y012626D01*
X005177Y012617D01*
X005127Y012612D01*
X005076Y012611D01*
X005026Y012614D01*
X004976Y012621D01*
X004927Y012632D01*
X004879Y012646D01*
X004832Y012664D01*
X004786Y012686D01*
X004742Y012711D01*
X004701Y012740D01*
X004662Y012771D01*
X004625Y012806D01*
X004591Y012843D01*
X004560Y012883D01*
X004532Y012925D01*
X004508Y012969D01*
X004487Y013015D01*
X004470Y013063D01*
X004457Y013111D01*
X004447Y013161D01*
X004441Y013211D01*
X004439Y013261D01*
D11*
X004764Y010010D02*
X004340Y009586D01*
X005047Y008879D02*
X005471Y009303D01*
X006179Y008596D02*
X005754Y008171D01*
X006461Y007464D02*
X006886Y007889D01*
X007593Y007181D02*
X007169Y006757D01*
X007876Y006050D02*
X008300Y006474D01*
X009874Y005369D02*
X010299Y004944D01*
X011006Y005651D02*
X010581Y006076D01*
X012037Y007001D02*
X012461Y006577D01*
X013169Y007284D02*
X012744Y007709D01*
X013451Y008416D02*
X013876Y007991D01*
X014583Y008699D02*
X014159Y009123D01*
X010840Y013640D02*
X010840Y014240D01*
X009840Y014240D02*
X009840Y013640D01*
X008840Y013640D02*
X008840Y014240D01*
D12*
X012880Y010400D03*
D13*
X010908Y008856D02*
X010442Y009323D01*
X009734Y008616D02*
X010201Y008149D01*
X009494Y007442D02*
X009027Y007908D01*
D14*
X005089Y013261D03*
D15*
X009545Y016368D03*
X010135Y016368D03*
X010135Y017392D03*
X009545Y017392D03*
G36*
X004364Y006834D02*
X004586Y006612D01*
X004282Y006308D01*
X004060Y006530D01*
X004364Y006834D01*
G37*
G36*
X004782Y006416D02*
X005004Y006194D01*
X004700Y005890D01*
X004478Y006112D01*
X004782Y006416D01*
G37*
G36*
X004058Y005692D02*
X004280Y005470D01*
X003976Y005166D01*
X003754Y005388D01*
X004058Y005692D01*
G37*
G36*
X003640Y006110D02*
X003862Y005888D01*
X003558Y005584D01*
X003336Y005806D01*
X003640Y006110D01*
G37*
G36*
X014606Y005924D02*
X014828Y006146D01*
X015132Y005842D01*
X014910Y005620D01*
X014606Y005924D01*
G37*
G36*
X015024Y006342D02*
X015246Y006564D01*
X015550Y006260D01*
X015328Y006038D01*
X015024Y006342D01*
G37*
G36*
X015748Y005618D02*
X015970Y005840D01*
X016274Y005536D01*
X016052Y005314D01*
X015748Y005618D01*
G37*
G36*
X015330Y005200D02*
X015552Y005422D01*
X015856Y005118D01*
X015634Y004896D01*
X015330Y005200D01*
G37*
D16*
X014040Y003870D03*
X016560Y007910D03*
X012760Y009070D03*
X005440Y003610D03*
X003060Y007930D03*
X006930Y017230D03*
X012700Y018110D03*
M02*
