G75*
%MOIN*%
%OFA0B0*%
%FSLAX24Y24*%
%IPPOS*%
%LPD*%
%AMOC8*
5,1,8,0,0,1.08239X$1,22.5*
%
%ADD10C,0.0000*%
%ADD11C,0.0160*%
%ADD12C,0.0040*%
%ADD13R,0.0157X0.0157*%
%ADD14R,0.0157X0.0157*%
D10*
X000100Y000100D02*
X000100Y019785D01*
X019785Y019785D01*
X019785Y000100D01*
X000100Y000100D01*
X004439Y013261D02*
X004441Y013311D01*
X004447Y013361D01*
X004457Y013411D01*
X004470Y013459D01*
X004487Y013507D01*
X004508Y013553D01*
X004532Y013597D01*
X004560Y013639D01*
X004591Y013679D01*
X004625Y013716D01*
X004662Y013751D01*
X004701Y013782D01*
X004742Y013811D01*
X004786Y013836D01*
X004832Y013858D01*
X004879Y013876D01*
X004927Y013890D01*
X004976Y013901D01*
X005026Y013908D01*
X005076Y013911D01*
X005127Y013910D01*
X005177Y013905D01*
X005227Y013896D01*
X005275Y013884D01*
X005323Y013867D01*
X005369Y013847D01*
X005414Y013824D01*
X005457Y013797D01*
X005497Y013767D01*
X005535Y013734D01*
X005570Y013698D01*
X005603Y013659D01*
X005632Y013618D01*
X005658Y013575D01*
X005681Y013530D01*
X005700Y013483D01*
X005715Y013435D01*
X005727Y013386D01*
X005735Y013336D01*
X005739Y013286D01*
X005739Y013236D01*
X005735Y013186D01*
X005727Y013136D01*
X005715Y013087D01*
X005700Y013039D01*
X005681Y012992D01*
X005658Y012947D01*
X005632Y012904D01*
X005603Y012863D01*
X005570Y012824D01*
X005535Y012788D01*
X005497Y012755D01*
X005457Y012725D01*
X005414Y012698D01*
X005369Y012675D01*
X005323Y012655D01*
X005275Y012638D01*
X005227Y012626D01*
X005177Y012617D01*
X005127Y012612D01*
X005076Y012611D01*
X005026Y012614D01*
X004976Y012621D01*
X004927Y012632D01*
X004879Y012646D01*
X004832Y012664D01*
X004786Y012686D01*
X004742Y012711D01*
X004701Y012740D01*
X004662Y012771D01*
X004625Y012806D01*
X004591Y012843D01*
X004560Y012883D01*
X004532Y012925D01*
X004508Y012969D01*
X004487Y013015D01*
X004470Y013063D01*
X004457Y013111D01*
X004447Y013161D01*
X004441Y013211D01*
X004439Y013261D01*
D11*
X000300Y009850D02*
X000303Y010086D01*
X000312Y010321D01*
X000326Y010556D01*
X000346Y010791D01*
X000372Y011025D01*
X000404Y011259D01*
X000441Y011491D01*
X000484Y011723D01*
X000533Y011953D01*
X000588Y012183D01*
X000648Y012410D01*
X000713Y012637D01*
X000785Y012861D01*
X000861Y013084D01*
X000943Y013305D01*
X001031Y013524D01*
X001124Y013740D01*
X001222Y013955D01*
X001325Y014166D01*
X001434Y014375D01*
X001547Y014582D01*
X001666Y014785D01*
X001789Y014986D01*
X001918Y015183D01*
X002051Y015378D01*
X002189Y015569D01*
X002332Y015756D01*
X002479Y015940D01*
X002631Y016120D01*
X002787Y016297D01*
X002947Y016470D01*
X003112Y016638D01*
X003280Y016803D01*
X003453Y016963D01*
X003630Y017119D01*
X003810Y017271D01*
X003994Y017418D01*
X004181Y017561D01*
X004372Y017699D01*
X004567Y017832D01*
X004764Y017961D01*
X004965Y018084D01*
X005168Y018203D01*
X005375Y018316D01*
X005584Y018425D01*
X005795Y018528D01*
X006010Y018626D01*
X006226Y018719D01*
X006445Y018807D01*
X006666Y018889D01*
X006889Y018965D01*
X007113Y019037D01*
X007340Y019102D01*
X007567Y019162D01*
X007797Y019217D01*
X008027Y019266D01*
X008259Y019309D01*
X008491Y019346D01*
X008725Y019378D01*
X008959Y019404D01*
X009194Y019424D01*
X009429Y019438D01*
X009664Y019447D01*
X009900Y019450D01*
X010136Y019447D01*
X010371Y019438D01*
X010606Y019424D01*
X010841Y019404D01*
X011075Y019378D01*
X011309Y019346D01*
X011541Y019309D01*
X011773Y019266D01*
X012003Y019217D01*
X012233Y019162D01*
X012460Y019102D01*
X012687Y019037D01*
X012911Y018965D01*
X013134Y018889D01*
X013355Y018807D01*
X013574Y018719D01*
X013790Y018626D01*
X014005Y018528D01*
X014216Y018425D01*
X014425Y018316D01*
X014632Y018203D01*
X014835Y018084D01*
X015036Y017961D01*
X015233Y017832D01*
X015428Y017699D01*
X015619Y017561D01*
X015806Y017418D01*
X015990Y017271D01*
X016170Y017119D01*
X016347Y016963D01*
X016520Y016803D01*
X016688Y016638D01*
X016853Y016470D01*
X017013Y016297D01*
X017169Y016120D01*
X017321Y015940D01*
X017468Y015756D01*
X017611Y015569D01*
X017749Y015378D01*
X017882Y015183D01*
X018011Y014986D01*
X018134Y014785D01*
X018253Y014582D01*
X018366Y014375D01*
X018475Y014166D01*
X018578Y013955D01*
X018676Y013740D01*
X018769Y013524D01*
X018857Y013305D01*
X018939Y013084D01*
X019015Y012861D01*
X019087Y012637D01*
X019152Y012410D01*
X019212Y012183D01*
X019267Y011953D01*
X019316Y011723D01*
X019359Y011491D01*
X019396Y011259D01*
X019428Y011025D01*
X019454Y010791D01*
X019474Y010556D01*
X019488Y010321D01*
X019497Y010086D01*
X019500Y009850D01*
X019497Y009614D01*
X019488Y009379D01*
X019474Y009144D01*
X019454Y008909D01*
X019428Y008675D01*
X019396Y008441D01*
X019359Y008209D01*
X019316Y007977D01*
X019267Y007747D01*
X019212Y007517D01*
X019152Y007290D01*
X019087Y007063D01*
X019015Y006839D01*
X018939Y006616D01*
X018857Y006395D01*
X018769Y006176D01*
X018676Y005960D01*
X018578Y005745D01*
X018475Y005534D01*
X018366Y005325D01*
X018253Y005118D01*
X018134Y004915D01*
X018011Y004714D01*
X017882Y004517D01*
X017749Y004322D01*
X017611Y004131D01*
X017468Y003944D01*
X017321Y003760D01*
X017169Y003580D01*
X017013Y003403D01*
X016853Y003230D01*
X016688Y003062D01*
X016520Y002897D01*
X016347Y002737D01*
X016170Y002581D01*
X015990Y002429D01*
X015806Y002282D01*
X015619Y002139D01*
X015428Y002001D01*
X015233Y001868D01*
X015036Y001739D01*
X014835Y001616D01*
X014632Y001497D01*
X014425Y001384D01*
X014216Y001275D01*
X014005Y001172D01*
X013790Y001074D01*
X013574Y000981D01*
X013355Y000893D01*
X013134Y000811D01*
X012911Y000735D01*
X012687Y000663D01*
X012460Y000598D01*
X012233Y000538D01*
X012003Y000483D01*
X011773Y000434D01*
X011541Y000391D01*
X011309Y000354D01*
X011075Y000322D01*
X010841Y000296D01*
X010606Y000276D01*
X010371Y000262D01*
X010136Y000253D01*
X009900Y000250D01*
X009664Y000253D01*
X009429Y000262D01*
X009194Y000276D01*
X008959Y000296D01*
X008725Y000322D01*
X008491Y000354D01*
X008259Y000391D01*
X008027Y000434D01*
X007797Y000483D01*
X007567Y000538D01*
X007340Y000598D01*
X007113Y000663D01*
X006889Y000735D01*
X006666Y000811D01*
X006445Y000893D01*
X006226Y000981D01*
X006010Y001074D01*
X005795Y001172D01*
X005584Y001275D01*
X005375Y001384D01*
X005168Y001497D01*
X004965Y001616D01*
X004764Y001739D01*
X004567Y001868D01*
X004372Y002001D01*
X004181Y002139D01*
X003994Y002282D01*
X003810Y002429D01*
X003630Y002581D01*
X003453Y002737D01*
X003280Y002897D01*
X003112Y003062D01*
X002947Y003230D01*
X002787Y003403D01*
X002631Y003580D01*
X002479Y003760D01*
X002332Y003944D01*
X002189Y004131D01*
X002051Y004322D01*
X001918Y004517D01*
X001789Y004714D01*
X001666Y004915D01*
X001547Y005118D01*
X001434Y005325D01*
X001325Y005534D01*
X001222Y005745D01*
X001124Y005960D01*
X001031Y006176D01*
X000943Y006395D01*
X000861Y006616D01*
X000785Y006839D01*
X000713Y007063D01*
X000648Y007290D01*
X000588Y007517D01*
X000533Y007747D01*
X000484Y007977D01*
X000441Y008209D01*
X000404Y008441D01*
X000372Y008675D01*
X000346Y008909D01*
X000326Y009144D01*
X000312Y009379D01*
X000303Y009614D01*
X000300Y009850D01*
D12*
X002810Y005809D02*
X002919Y005809D01*
X003027Y005701D01*
X003027Y005592D01*
X002810Y005375D01*
X002702Y005375D01*
X002593Y005484D01*
X002593Y005592D01*
X003477Y004709D02*
X003477Y004600D01*
X003585Y004492D01*
X003694Y004492D01*
X003911Y004709D01*
X003911Y004817D01*
X003802Y004926D01*
X003694Y004926D01*
X005190Y006422D02*
X005407Y006639D01*
X005624Y006639D01*
X005624Y006422D01*
X005407Y006205D01*
X005570Y006368D02*
X005353Y006585D01*
X004578Y007143D02*
X004469Y007143D01*
X004361Y007252D01*
X004361Y007360D01*
X004578Y007143D02*
X004795Y007360D01*
X004795Y007469D01*
X004686Y007577D01*
X004578Y007577D01*
X009090Y015400D02*
X009013Y015477D01*
X009090Y015400D02*
X009243Y015400D01*
X009320Y015477D01*
X009320Y015784D01*
X009243Y015860D01*
X009090Y015860D01*
X009013Y015784D01*
X010263Y015784D02*
X010340Y015860D01*
X010493Y015860D01*
X010570Y015784D01*
X010570Y015477D01*
X010493Y015400D01*
X010340Y015400D01*
X010263Y015477D01*
X010263Y017900D02*
X010263Y018207D01*
X010417Y018360D01*
X010570Y018207D01*
X010570Y017900D01*
X010570Y018130D02*
X010263Y018130D01*
X009320Y017977D02*
X009243Y017900D01*
X009090Y017900D01*
X009013Y017977D01*
X009013Y018284D02*
X009090Y018360D01*
X009243Y018360D01*
X009320Y018284D01*
X009320Y017977D01*
X014801Y007184D02*
X014801Y006967D01*
X015018Y006750D01*
X014855Y006913D02*
X015072Y007130D01*
X015018Y007184D02*
X014801Y007184D01*
X015018Y007184D02*
X015235Y006967D01*
X014297Y006138D02*
X014297Y006029D01*
X014188Y005921D01*
X014080Y005921D01*
X014297Y006138D02*
X014080Y006355D01*
X013971Y006355D01*
X013863Y006246D01*
X013863Y006138D01*
X015631Y004479D02*
X015631Y004370D01*
X015631Y004479D02*
X015739Y004587D01*
X015848Y004587D01*
X016065Y004370D01*
X016065Y004262D01*
X015956Y004153D01*
X015848Y004153D01*
X016731Y005037D02*
X016840Y005037D01*
X016948Y005145D01*
X016948Y005254D01*
X016731Y005471D01*
X016623Y005471D01*
X016514Y005362D01*
X016514Y005254D01*
D13*
X009840Y016880D03*
D14*
G36*
X004170Y006110D02*
X004280Y006000D01*
X004170Y005890D01*
X004060Y006000D01*
X004170Y006110D01*
G37*
G36*
X015330Y005730D02*
X015440Y005840D01*
X015550Y005730D01*
X015440Y005620D01*
X015330Y005730D01*
G37*
M02*
