G75*
%MOIN*%
%OFA0B0*%
%FSLAX24Y24*%
%IPPOS*%
%LPD*%
%AMOC8*
5,1,8,0,0,1.08239X$1,22.5*
%
%ADD10C,0.0000*%
%ADD11C,0.0080*%
%ADD12C,0.0160*%
%ADD13C,0.0060*%
%ADD14C,0.0100*%
%ADD15C,0.0020*%
%ADD16C,0.0040*%
%ADD17R,0.0300X0.0250*%
%ADD18R,0.0500X0.1100*%
D10*
X000100Y009565D02*
X000100Y010260D01*
X004439Y013261D02*
X004441Y013311D01*
X004447Y013361D01*
X004457Y013411D01*
X004470Y013459D01*
X004487Y013507D01*
X004508Y013553D01*
X004532Y013597D01*
X004560Y013639D01*
X004591Y013679D01*
X004625Y013716D01*
X004662Y013751D01*
X004701Y013782D01*
X004742Y013811D01*
X004786Y013836D01*
X004832Y013858D01*
X004879Y013876D01*
X004927Y013890D01*
X004976Y013901D01*
X005026Y013908D01*
X005076Y013911D01*
X005127Y013910D01*
X005177Y013905D01*
X005227Y013896D01*
X005275Y013884D01*
X005323Y013867D01*
X005369Y013847D01*
X005414Y013824D01*
X005457Y013797D01*
X005497Y013767D01*
X005535Y013734D01*
X005570Y013698D01*
X005603Y013659D01*
X005632Y013618D01*
X005658Y013575D01*
X005681Y013530D01*
X005700Y013483D01*
X005715Y013435D01*
X005727Y013386D01*
X005735Y013336D01*
X005739Y013286D01*
X005739Y013236D01*
X005735Y013186D01*
X005727Y013136D01*
X005715Y013087D01*
X005700Y013039D01*
X005681Y012992D01*
X005658Y012947D01*
X005632Y012904D01*
X005603Y012863D01*
X005570Y012824D01*
X005535Y012788D01*
X005497Y012755D01*
X005457Y012725D01*
X005414Y012698D01*
X005369Y012675D01*
X005323Y012655D01*
X005275Y012638D01*
X005227Y012626D01*
X005177Y012617D01*
X005127Y012612D01*
X005076Y012611D01*
X005026Y012614D01*
X004976Y012621D01*
X004927Y012632D01*
X004879Y012646D01*
X004832Y012664D01*
X004786Y012686D01*
X004742Y012711D01*
X004701Y012740D01*
X004662Y012771D01*
X004625Y012806D01*
X004591Y012843D01*
X004560Y012883D01*
X004532Y012925D01*
X004508Y012969D01*
X004487Y013015D01*
X004470Y013063D01*
X004457Y013111D01*
X004447Y013161D01*
X004441Y013211D01*
X004439Y013261D01*
X000100Y010260D02*
X000103Y010490D01*
X000111Y010720D01*
X000125Y010950D01*
X000144Y011179D01*
X000169Y011408D01*
X000200Y011636D01*
X000236Y011864D01*
X000277Y012090D01*
X000324Y012315D01*
X000377Y012539D01*
X000435Y012762D01*
X000498Y012984D01*
X000566Y013203D01*
X000640Y013421D01*
X000719Y013638D01*
X000803Y013852D01*
X000893Y014064D01*
X000987Y014274D01*
X001087Y014481D01*
X001191Y014686D01*
X001300Y014889D01*
X001415Y015089D01*
X001534Y015286D01*
X001658Y015480D01*
X001786Y015671D01*
X001919Y015859D01*
X002057Y016043D01*
X002199Y016224D01*
X002345Y016402D01*
X002495Y016576D01*
X002650Y016747D01*
X002809Y016913D01*
X002972Y017076D01*
X003138Y017235D01*
X003309Y017390D01*
X003483Y017540D01*
X003661Y017686D01*
X003842Y017828D01*
X004026Y017966D01*
X004214Y018099D01*
X004405Y018227D01*
X004599Y018351D01*
X004796Y018470D01*
X004996Y018585D01*
X005199Y018694D01*
X005404Y018798D01*
X005611Y018898D01*
X005821Y018992D01*
X006033Y019082D01*
X006247Y019166D01*
X006464Y019245D01*
X006682Y019319D01*
X006901Y019387D01*
X007123Y019450D01*
X007346Y019508D01*
X007570Y019561D01*
X007795Y019608D01*
X008021Y019649D01*
X008249Y019685D01*
X008477Y019716D01*
X008706Y019741D01*
X008935Y019760D01*
X009165Y019774D01*
X009395Y019782D01*
X009625Y019785D01*
X009874Y019782D01*
X010124Y019773D01*
X010372Y019757D01*
X010621Y019736D01*
X010869Y019709D01*
X011116Y019675D01*
X011362Y019635D01*
X011607Y019590D01*
X011851Y019538D01*
X012094Y019481D01*
X012335Y019417D01*
X012574Y019348D01*
X012812Y019272D01*
X013048Y019191D01*
X013282Y019104D01*
X013513Y019012D01*
X013742Y018913D01*
X013969Y018810D01*
X014193Y018700D01*
X014414Y018585D01*
X014633Y018465D01*
X014848Y018340D01*
X015061Y018209D01*
X015270Y018073D01*
X015475Y017932D01*
X015677Y017786D01*
X015876Y017635D01*
X016070Y017479D01*
X016261Y017318D01*
X016448Y017153D01*
X016631Y016983D01*
X016809Y016809D01*
X016983Y016631D01*
X017153Y016448D01*
X017318Y016261D01*
X017479Y016070D01*
X017635Y015876D01*
X017786Y015677D01*
X017932Y015475D01*
X018073Y015270D01*
X018209Y015061D01*
X018340Y014848D01*
X018465Y014633D01*
X018585Y014414D01*
X018700Y014193D01*
X018810Y013969D01*
X018913Y013742D01*
X019012Y013513D01*
X019104Y013282D01*
X019191Y013048D01*
X019272Y012812D01*
X019348Y012574D01*
X019417Y012335D01*
X019481Y012094D01*
X019538Y011851D01*
X019590Y011607D01*
X019635Y011362D01*
X019675Y011116D01*
X019709Y010869D01*
X019736Y010621D01*
X019757Y010372D01*
X019773Y010124D01*
X019782Y009874D01*
X019785Y009625D01*
X019782Y009395D01*
X019774Y009165D01*
X019760Y008935D01*
X019741Y008706D01*
X019716Y008477D01*
X019685Y008249D01*
X019649Y008021D01*
X019608Y007795D01*
X019561Y007570D01*
X019508Y007346D01*
X019450Y007123D01*
X019387Y006901D01*
X019319Y006682D01*
X019245Y006464D01*
X019166Y006247D01*
X019082Y006033D01*
X018992Y005821D01*
X018898Y005611D01*
X018798Y005404D01*
X018694Y005199D01*
X018585Y004996D01*
X018470Y004796D01*
X018351Y004599D01*
X018227Y004405D01*
X018099Y004214D01*
X017966Y004026D01*
X017828Y003842D01*
X017686Y003661D01*
X017540Y003483D01*
X017390Y003309D01*
X017235Y003138D01*
X017076Y002972D01*
X016913Y002809D01*
X016747Y002650D01*
X016576Y002495D01*
X016402Y002345D01*
X016224Y002199D01*
X016043Y002057D01*
X015859Y001919D01*
X015671Y001786D01*
X015480Y001658D01*
X015286Y001534D01*
X015089Y001415D01*
X014889Y001300D01*
X014686Y001191D01*
X014481Y001087D01*
X014274Y000987D01*
X014064Y000893D01*
X013852Y000803D01*
X013638Y000719D01*
X013421Y000640D01*
X013203Y000566D01*
X012984Y000498D01*
X012762Y000435D01*
X012539Y000377D01*
X012315Y000324D01*
X012090Y000277D01*
X011864Y000236D01*
X011636Y000200D01*
X011408Y000169D01*
X011179Y000144D01*
X010950Y000125D01*
X010720Y000111D01*
X010490Y000103D01*
X010260Y000100D01*
X009565Y000100D01*
X009336Y000103D01*
X009108Y000111D01*
X008879Y000125D01*
X008651Y000144D01*
X008424Y000169D01*
X008197Y000199D01*
X007972Y000235D01*
X007747Y000276D01*
X007523Y000323D01*
X007300Y000375D01*
X007078Y000432D01*
X006859Y000495D01*
X006640Y000563D01*
X006423Y000637D01*
X006209Y000715D01*
X005996Y000799D01*
X005785Y000888D01*
X005576Y000981D01*
X005370Y001080D01*
X005166Y001184D01*
X004965Y001293D01*
X004767Y001406D01*
X004571Y001525D01*
X004378Y001648D01*
X004188Y001775D01*
X004002Y001908D01*
X003818Y002044D01*
X003638Y002185D01*
X003462Y002331D01*
X003289Y002480D01*
X003119Y002634D01*
X002954Y002792D01*
X002792Y002954D01*
X002634Y003119D01*
X002480Y003289D01*
X002331Y003462D01*
X002185Y003638D01*
X002044Y003818D01*
X001908Y004002D01*
X001775Y004188D01*
X001648Y004378D01*
X001525Y004571D01*
X001406Y004767D01*
X001293Y004965D01*
X001184Y005166D01*
X001080Y005370D01*
X000981Y005576D01*
X000888Y005785D01*
X000799Y005996D01*
X000715Y006209D01*
X000637Y006423D01*
X000563Y006640D01*
X000495Y006859D01*
X000432Y007078D01*
X000375Y007300D01*
X000323Y007523D01*
X000276Y007747D01*
X000235Y007972D01*
X000199Y008197D01*
X000169Y008424D01*
X000144Y008651D01*
X000125Y008879D01*
X000111Y009108D01*
X000103Y009336D01*
X000100Y009565D01*
D11*
X003750Y009750D02*
X004450Y009010D01*
X005360Y009860D01*
X004630Y010540D01*
X004620Y010530D02*
X003750Y009750D01*
X008310Y013430D02*
X008310Y014430D01*
X008330Y014430D02*
X009320Y014440D01*
X009300Y013420D01*
X008310Y013430D01*
X013650Y008960D02*
X014370Y009640D01*
X015110Y008870D01*
X014370Y008150D01*
X013640Y008940D01*
D12*
X000300Y009850D02*
X000303Y010086D01*
X000312Y010321D01*
X000326Y010556D01*
X000346Y010791D01*
X000372Y011025D01*
X000404Y011259D01*
X000441Y011491D01*
X000484Y011723D01*
X000533Y011953D01*
X000588Y012183D01*
X000648Y012410D01*
X000713Y012637D01*
X000785Y012861D01*
X000861Y013084D01*
X000943Y013305D01*
X001031Y013524D01*
X001124Y013740D01*
X001222Y013955D01*
X001325Y014166D01*
X001434Y014375D01*
X001547Y014582D01*
X001666Y014785D01*
X001789Y014986D01*
X001918Y015183D01*
X002051Y015378D01*
X002189Y015569D01*
X002332Y015756D01*
X002479Y015940D01*
X002631Y016120D01*
X002787Y016297D01*
X002947Y016470D01*
X003112Y016638D01*
X003280Y016803D01*
X003453Y016963D01*
X003630Y017119D01*
X003810Y017271D01*
X003994Y017418D01*
X004181Y017561D01*
X004372Y017699D01*
X004567Y017832D01*
X004764Y017961D01*
X004965Y018084D01*
X005168Y018203D01*
X005375Y018316D01*
X005584Y018425D01*
X005795Y018528D01*
X006010Y018626D01*
X006226Y018719D01*
X006445Y018807D01*
X006666Y018889D01*
X006889Y018965D01*
X007113Y019037D01*
X007340Y019102D01*
X007567Y019162D01*
X007797Y019217D01*
X008027Y019266D01*
X008259Y019309D01*
X008491Y019346D01*
X008725Y019378D01*
X008959Y019404D01*
X009194Y019424D01*
X009429Y019438D01*
X009664Y019447D01*
X009900Y019450D01*
X010136Y019447D01*
X010371Y019438D01*
X010606Y019424D01*
X010841Y019404D01*
X011075Y019378D01*
X011309Y019346D01*
X011541Y019309D01*
X011773Y019266D01*
X012003Y019217D01*
X012233Y019162D01*
X012460Y019102D01*
X012687Y019037D01*
X012911Y018965D01*
X013134Y018889D01*
X013355Y018807D01*
X013574Y018719D01*
X013790Y018626D01*
X014005Y018528D01*
X014216Y018425D01*
X014425Y018316D01*
X014632Y018203D01*
X014835Y018084D01*
X015036Y017961D01*
X015233Y017832D01*
X015428Y017699D01*
X015619Y017561D01*
X015806Y017418D01*
X015990Y017271D01*
X016170Y017119D01*
X016347Y016963D01*
X016520Y016803D01*
X016688Y016638D01*
X016853Y016470D01*
X017013Y016297D01*
X017169Y016120D01*
X017321Y015940D01*
X017468Y015756D01*
X017611Y015569D01*
X017749Y015378D01*
X017882Y015183D01*
X018011Y014986D01*
X018134Y014785D01*
X018253Y014582D01*
X018366Y014375D01*
X018475Y014166D01*
X018578Y013955D01*
X018676Y013740D01*
X018769Y013524D01*
X018857Y013305D01*
X018939Y013084D01*
X019015Y012861D01*
X019087Y012637D01*
X019152Y012410D01*
X019212Y012183D01*
X019267Y011953D01*
X019316Y011723D01*
X019359Y011491D01*
X019396Y011259D01*
X019428Y011025D01*
X019454Y010791D01*
X019474Y010556D01*
X019488Y010321D01*
X019497Y010086D01*
X019500Y009850D01*
X019497Y009614D01*
X019488Y009379D01*
X019474Y009144D01*
X019454Y008909D01*
X019428Y008675D01*
X019396Y008441D01*
X019359Y008209D01*
X019316Y007977D01*
X019267Y007747D01*
X019212Y007517D01*
X019152Y007290D01*
X019087Y007063D01*
X019015Y006839D01*
X018939Y006616D01*
X018857Y006395D01*
X018769Y006176D01*
X018676Y005960D01*
X018578Y005745D01*
X018475Y005534D01*
X018366Y005325D01*
X018253Y005118D01*
X018134Y004915D01*
X018011Y004714D01*
X017882Y004517D01*
X017749Y004322D01*
X017611Y004131D01*
X017468Y003944D01*
X017321Y003760D01*
X017169Y003580D01*
X017013Y003403D01*
X016853Y003230D01*
X016688Y003062D01*
X016520Y002897D01*
X016347Y002737D01*
X016170Y002581D01*
X015990Y002429D01*
X015806Y002282D01*
X015619Y002139D01*
X015428Y002001D01*
X015233Y001868D01*
X015036Y001739D01*
X014835Y001616D01*
X014632Y001497D01*
X014425Y001384D01*
X014216Y001275D01*
X014005Y001172D01*
X013790Y001074D01*
X013574Y000981D01*
X013355Y000893D01*
X013134Y000811D01*
X012911Y000735D01*
X012687Y000663D01*
X012460Y000598D01*
X012233Y000538D01*
X012003Y000483D01*
X011773Y000434D01*
X011541Y000391D01*
X011309Y000354D01*
X011075Y000322D01*
X010841Y000296D01*
X010606Y000276D01*
X010371Y000262D01*
X010136Y000253D01*
X009900Y000250D01*
X009664Y000253D01*
X009429Y000262D01*
X009194Y000276D01*
X008959Y000296D01*
X008725Y000322D01*
X008491Y000354D01*
X008259Y000391D01*
X008027Y000434D01*
X007797Y000483D01*
X007567Y000538D01*
X007340Y000598D01*
X007113Y000663D01*
X006889Y000735D01*
X006666Y000811D01*
X006445Y000893D01*
X006226Y000981D01*
X006010Y001074D01*
X005795Y001172D01*
X005584Y001275D01*
X005375Y001384D01*
X005168Y001497D01*
X004965Y001616D01*
X004764Y001739D01*
X004567Y001868D01*
X004372Y002001D01*
X004181Y002139D01*
X003994Y002282D01*
X003810Y002429D01*
X003630Y002581D01*
X003453Y002737D01*
X003280Y002897D01*
X003112Y003062D01*
X002947Y003230D01*
X002787Y003403D01*
X002631Y003580D01*
X002479Y003760D01*
X002332Y003944D01*
X002189Y004131D01*
X002051Y004322D01*
X001918Y004517D01*
X001789Y004714D01*
X001666Y004915D01*
X001547Y005118D01*
X001434Y005325D01*
X001325Y005534D01*
X001222Y005745D01*
X001124Y005960D01*
X001031Y006176D01*
X000943Y006395D01*
X000861Y006616D01*
X000785Y006839D01*
X000713Y007063D01*
X000648Y007290D01*
X000588Y007517D01*
X000533Y007747D01*
X000484Y007977D01*
X000441Y008209D01*
X000404Y008441D01*
X000372Y008675D01*
X000346Y008909D01*
X000326Y009144D01*
X000312Y009379D01*
X000303Y009614D01*
X000300Y009850D01*
D13*
X003215Y012236D02*
X002685Y012766D01*
X005584Y015665D01*
X006114Y015135D01*
X005867Y014888D01*
X006291Y014463D01*
X006538Y014711D01*
X010003Y011246D01*
X007104Y008347D01*
X003639Y011812D01*
X003887Y012059D01*
X003462Y012483D01*
X003215Y012236D01*
X004379Y013261D02*
X004381Y013314D01*
X004387Y013367D01*
X004397Y013419D01*
X004411Y013470D01*
X004428Y013520D01*
X004449Y013569D01*
X004474Y013616D01*
X004502Y013661D01*
X004534Y013704D01*
X004569Y013744D01*
X004606Y013781D01*
X004646Y013816D01*
X004689Y013848D01*
X004734Y013876D01*
X004781Y013901D01*
X004830Y013922D01*
X004880Y013939D01*
X004931Y013953D01*
X004983Y013963D01*
X005036Y013969D01*
X005089Y013971D01*
X005142Y013969D01*
X005195Y013963D01*
X005247Y013953D01*
X005298Y013939D01*
X005348Y013922D01*
X005397Y013901D01*
X005444Y013876D01*
X005489Y013848D01*
X005532Y013816D01*
X005572Y013781D01*
X005609Y013744D01*
X005644Y013704D01*
X005676Y013661D01*
X005704Y013616D01*
X005729Y013569D01*
X005750Y013520D01*
X005767Y013470D01*
X005781Y013419D01*
X005791Y013367D01*
X005797Y013314D01*
X005799Y013261D01*
X005797Y013208D01*
X005791Y013155D01*
X005781Y013103D01*
X005767Y013052D01*
X005750Y013002D01*
X005729Y012953D01*
X005704Y012906D01*
X005676Y012861D01*
X005644Y012818D01*
X005609Y012778D01*
X005572Y012741D01*
X005532Y012706D01*
X005489Y012674D01*
X005444Y012646D01*
X005397Y012621D01*
X005348Y012600D01*
X005298Y012583D01*
X005247Y012569D01*
X005195Y012559D01*
X005142Y012553D01*
X005089Y012551D01*
X005036Y012553D01*
X004983Y012559D01*
X004931Y012569D01*
X004880Y012583D01*
X004830Y012600D01*
X004781Y012621D01*
X004734Y012646D01*
X004689Y012674D01*
X004646Y012706D01*
X004606Y012741D01*
X004569Y012778D01*
X004534Y012818D01*
X004502Y012861D01*
X004474Y012906D01*
X004449Y012953D01*
X004428Y013002D01*
X004411Y013052D01*
X004397Y013103D01*
X004387Y013155D01*
X004381Y013208D01*
X004379Y013261D01*
X004375Y010328D02*
X004729Y010328D01*
X005083Y009975D01*
X005083Y009621D01*
X005436Y009621D01*
X005790Y009267D01*
X005790Y008914D01*
X005436Y008560D01*
X005083Y008560D01*
X004729Y008914D01*
X004729Y009267D01*
X004375Y009267D01*
X004022Y009621D01*
X004022Y009975D01*
X004375Y010328D01*
X005083Y009621D02*
X004729Y009267D01*
X005436Y008560D02*
X005436Y008207D01*
X005790Y007853D01*
X006143Y007853D01*
X006143Y007500D01*
X006497Y007146D01*
X006850Y007146D01*
X006850Y006793D01*
X007204Y006439D01*
X007557Y006439D01*
X007557Y006085D01*
X007911Y005732D01*
X008265Y005732D01*
X008618Y006085D01*
X008618Y006439D01*
X008265Y006793D01*
X007911Y006793D01*
X007557Y006439D01*
X007911Y006793D02*
X007911Y007146D01*
X007557Y007500D01*
X007204Y007500D01*
X006850Y007146D01*
X007204Y007500D02*
X007204Y007853D01*
X006850Y008207D01*
X006497Y008207D01*
X006143Y007853D01*
X006497Y008207D02*
X006497Y008560D01*
X006143Y008914D01*
X005790Y008914D01*
X009792Y011941D02*
X009579Y012368D01*
X010006Y012368D02*
X009792Y011941D01*
X010223Y012048D02*
X010223Y012475D01*
X010330Y012582D01*
X010544Y012582D01*
X010650Y012475D01*
X010223Y012048D01*
X010330Y011941D01*
X010544Y011941D01*
X010650Y012048D01*
X010650Y012475D01*
X010868Y012048D02*
X010975Y012048D01*
X010975Y011941D01*
X010868Y011941D01*
X010868Y012048D01*
X011190Y011941D02*
X011617Y011941D01*
X011404Y011941D02*
X011404Y012582D01*
X011190Y012368D01*
X011090Y013440D02*
X010590Y013440D01*
X010340Y013690D01*
X010090Y013440D01*
X009590Y013440D01*
X009340Y013690D01*
X009090Y013440D01*
X008590Y013440D01*
X008340Y013690D01*
X008340Y014190D01*
X008590Y014440D01*
X009090Y014440D01*
X009340Y014190D01*
X009590Y014440D01*
X010090Y014440D01*
X010340Y014190D01*
X010590Y014440D01*
X011090Y014440D01*
X011340Y014190D01*
X011340Y013690D01*
X011090Y013440D01*
X010340Y013690D02*
X010340Y014190D01*
X009340Y014190D02*
X009340Y013690D01*
X012380Y010650D02*
X012630Y010900D01*
X013130Y010900D01*
X013380Y010650D01*
X013380Y010150D01*
X013130Y009900D01*
X012630Y009900D01*
X012380Y010150D01*
X012380Y010650D01*
X013840Y009087D02*
X013840Y008734D01*
X014194Y008380D01*
X014547Y008380D01*
X014901Y008734D01*
X014901Y009087D01*
X014547Y009441D01*
X014194Y009441D01*
X013840Y009087D01*
X013840Y008734D02*
X013487Y008734D01*
X013133Y008380D01*
X013133Y008027D01*
X013487Y007673D01*
X013487Y007320D01*
X013133Y006966D01*
X012780Y006966D01*
X012780Y006613D01*
X012426Y006259D01*
X012073Y006259D01*
X011719Y006613D01*
X011719Y006966D01*
X012073Y007320D01*
X012426Y007320D01*
X012426Y007673D01*
X012780Y008027D01*
X013133Y008027D01*
X013487Y007673D02*
X013840Y007673D01*
X014194Y008027D01*
X014194Y008380D01*
X012780Y006966D02*
X012426Y007320D01*
X011324Y006040D02*
X011324Y005687D01*
X010970Y005333D01*
X010617Y005333D01*
X010617Y004980D01*
X010263Y004626D01*
X009910Y004626D01*
X009556Y004980D01*
X009556Y005333D01*
X009910Y005687D01*
X010263Y005687D01*
X010263Y006040D01*
X010617Y006394D01*
X010970Y006394D01*
X011324Y006040D01*
X010617Y005333D02*
X010263Y005687D01*
D14*
X006497Y006102D02*
X006379Y006220D01*
X006379Y006338D01*
X006615Y006574D01*
X006733Y006574D01*
X006850Y006456D01*
X006850Y006338D01*
X006615Y006102D01*
X006497Y006102D01*
X006165Y006434D02*
X006165Y006670D01*
X006224Y006611D02*
X006047Y006788D01*
X005929Y006670D02*
X006283Y007024D01*
X006460Y006847D01*
X006460Y006729D01*
X006342Y006611D01*
X006224Y006611D01*
X005833Y006884D02*
X005715Y006884D01*
X005597Y007002D01*
X005597Y007120D01*
X005833Y007355D01*
X005951Y007355D01*
X006069Y007237D01*
X006069Y007120D01*
X005750Y007557D02*
X005632Y007675D01*
X005691Y007616D02*
X005337Y007262D01*
X005278Y007321D02*
X005396Y007203D01*
X005123Y007476D02*
X005477Y007830D01*
X005241Y007830D01*
X005241Y008066D01*
X004887Y007712D01*
X006801Y010139D02*
X006919Y010139D01*
X007037Y010257D01*
X007037Y010374D01*
X006801Y010610D01*
X006683Y010610D01*
X006565Y010492D01*
X006565Y010374D01*
X006801Y010139D01*
X006860Y010316D02*
X007096Y010316D01*
X007073Y010647D02*
X007309Y010883D01*
X007073Y011001D02*
X007073Y010647D01*
X007427Y010647D02*
X007073Y011001D01*
X007346Y011156D02*
X007346Y011274D01*
X007464Y011392D01*
X007582Y011392D01*
X007582Y010920D01*
X007700Y010920D01*
X007818Y011038D01*
X007818Y011156D01*
X007582Y011392D01*
X007796Y011487D02*
X007796Y011723D01*
X008150Y011370D01*
X008032Y011252D02*
X008268Y011487D01*
X007582Y010920D02*
X007346Y011156D01*
X008520Y014730D02*
X008520Y015064D01*
X008687Y015230D01*
X008854Y015064D01*
X008854Y014730D01*
X009072Y014813D02*
X009156Y014730D01*
X009323Y014730D01*
X009406Y014813D01*
X009625Y014813D02*
X009708Y014730D01*
X009875Y014730D01*
X009959Y014813D01*
X010177Y014730D02*
X010511Y014730D01*
X010730Y014730D02*
X011064Y014730D01*
X010730Y014730D02*
X010730Y015230D01*
X010511Y015230D02*
X010177Y015230D01*
X010177Y014730D01*
X010177Y014980D02*
X010344Y014980D01*
X009959Y015147D02*
X009875Y015230D01*
X009708Y015230D01*
X009625Y015147D01*
X009625Y014813D01*
X009406Y015147D02*
X009323Y015230D01*
X009156Y015230D01*
X009072Y015147D01*
X009072Y014813D01*
X008854Y014980D02*
X008520Y014980D01*
X012158Y011407D02*
X012335Y011583D01*
X012453Y011583D01*
X012571Y011466D01*
X012571Y011348D01*
X012394Y011171D01*
X012512Y011053D02*
X012158Y011407D01*
X012667Y011679D02*
X012667Y011915D01*
X012903Y011915D01*
X013139Y011679D01*
X013293Y011834D02*
X013470Y012011D01*
X013470Y012129D01*
X013234Y012365D01*
X013116Y012365D01*
X012939Y012188D01*
X013293Y011834D01*
X012962Y011856D02*
X012726Y011620D01*
X012667Y011679D02*
X012903Y011443D01*
X012416Y010839D02*
X012180Y010603D01*
X011908Y010566D02*
X011908Y010448D01*
X011790Y010330D01*
X011672Y010330D01*
X011436Y010566D01*
X011436Y010684D01*
X011554Y010802D01*
X011672Y010802D01*
X011908Y010566D01*
X011222Y010470D02*
X010986Y010235D01*
X011104Y010353D02*
X011458Y009999D01*
X010593Y007495D02*
X010947Y007141D01*
X010357Y007259D01*
X010711Y006905D01*
X010569Y006763D02*
X010451Y006645D01*
X010510Y006704D02*
X010156Y007057D01*
X010097Y006998D02*
X010215Y007116D01*
X010355Y006431D02*
X010119Y006195D01*
X009905Y006099D02*
X009669Y006099D01*
X009728Y006158D02*
X009551Y005981D01*
X009669Y005863D02*
X009315Y006217D01*
X009492Y006394D01*
X009610Y006394D01*
X009728Y006276D01*
X009728Y006158D01*
X009515Y005708D02*
X009279Y005708D01*
X009279Y005473D01*
X008925Y005826D01*
X008829Y005613D02*
X008711Y005613D01*
X008534Y005436D01*
X008888Y005082D01*
X008770Y005200D02*
X008947Y005377D01*
X008947Y005495D01*
X008829Y005613D01*
X009161Y006062D02*
X009515Y005708D01*
X012852Y006438D02*
X013088Y006674D01*
X012970Y006556D02*
X013323Y006202D01*
X013537Y006534D02*
X013655Y006534D01*
X013773Y006652D01*
X013773Y006770D01*
X013537Y007006D01*
X013419Y007006D01*
X013301Y006888D01*
X013301Y006770D01*
X013537Y006534D01*
X013928Y006925D02*
X014046Y006925D01*
X014164Y007043D01*
X014164Y007161D01*
X013869Y007455D01*
X014083Y007551D02*
X014083Y007669D01*
X014200Y007787D01*
X014318Y007787D01*
X014414Y008001D02*
X014768Y007647D01*
X014554Y007551D02*
X014554Y007433D01*
X014436Y007315D01*
X014318Y007315D01*
X014083Y007551D01*
X013633Y007220D02*
X013928Y006925D01*
X014591Y007824D02*
X014827Y008060D01*
X014650Y008237D02*
X015004Y007883D01*
D15*
X009650Y011246D02*
X007351Y013544D01*
X004806Y010999D01*
X007104Y008700D01*
X009650Y011246D01*
D16*
X006416Y012779D02*
X006289Y012906D01*
X006204Y012906D01*
X006204Y012821D01*
X006331Y012694D01*
X006246Y012609D02*
X006076Y012779D01*
X006119Y012821D01*
X006204Y012821D01*
X006028Y012645D02*
X006156Y012518D01*
X006071Y012433D02*
X005943Y012561D01*
X005943Y012645D01*
X006028Y012645D01*
X005943Y012561D02*
X005859Y012561D01*
X005816Y012518D01*
X005986Y012348D01*
X005853Y012300D02*
X005853Y012215D01*
X005768Y012130D01*
X005683Y012130D01*
X005598Y012215D02*
X005641Y012343D01*
X005683Y012385D01*
X005768Y012385D01*
X005853Y012300D01*
X005598Y012215D02*
X005471Y012343D01*
X005641Y012512D01*
X005594Y012042D02*
X005552Y011999D01*
X005594Y011957D01*
X005637Y011999D01*
X005594Y012042D01*
X005637Y011999D02*
X005637Y011829D01*
X005291Y011654D02*
X005249Y011696D01*
X005249Y012036D01*
X005206Y012078D01*
X005037Y011909D01*
X004861Y011733D02*
X004861Y011563D01*
X004771Y011473D02*
X004940Y011303D01*
X005031Y011393D02*
X005201Y011563D01*
X005116Y011478D02*
X004861Y011733D01*
X004771Y011473D02*
X004601Y011473D01*
X004601Y011303D01*
X004771Y011133D01*
X004643Y011260D02*
X004813Y011430D01*
X007827Y016860D02*
X007947Y016860D01*
X008007Y016920D01*
X008135Y017040D02*
X008375Y017040D01*
X008503Y016920D02*
X008744Y017160D01*
X008744Y016920D01*
X008684Y016860D01*
X008563Y016860D01*
X008503Y016920D01*
X008503Y017160D01*
X008563Y017220D01*
X008684Y017220D01*
X008744Y017160D01*
X008872Y017100D02*
X008992Y017220D01*
X008992Y016860D01*
X008872Y016860D02*
X009112Y016860D01*
X008315Y016860D02*
X008315Y017220D01*
X008135Y017040D01*
X008007Y017160D02*
X007947Y017220D01*
X007827Y017220D01*
X007767Y017160D01*
X007767Y016920D01*
X007827Y016860D01*
X010340Y016920D02*
X010400Y016860D01*
X010520Y016860D01*
X010580Y016920D01*
X010708Y017040D02*
X010949Y017040D01*
X011077Y016920D02*
X011317Y017160D01*
X011317Y016920D01*
X011257Y016860D01*
X011137Y016860D01*
X011077Y016920D01*
X011077Y017160D01*
X011137Y017220D01*
X011257Y017220D01*
X011317Y017160D01*
X011445Y017160D02*
X011505Y017220D01*
X011625Y017220D01*
X011685Y017160D01*
X011685Y017100D01*
X011445Y016860D01*
X011685Y016860D01*
X010888Y016860D02*
X010888Y017220D01*
X010708Y017040D01*
X010580Y017160D02*
X010520Y017220D01*
X010400Y017220D01*
X010340Y017160D01*
X010340Y016920D01*
D17*
G36*
X010321Y009654D02*
X010110Y009443D01*
X009933Y009620D01*
X010144Y009831D01*
X010321Y009654D01*
G37*
G36*
X009614Y008947D02*
X009403Y008736D01*
X009226Y008913D01*
X009437Y009124D01*
X009614Y008947D01*
G37*
G36*
X008907Y008240D02*
X008696Y008029D01*
X008519Y008206D01*
X008730Y008417D01*
X008907Y008240D01*
G37*
D18*
G36*
X008800Y008488D02*
X008447Y008135D01*
X007670Y008912D01*
X008023Y009265D01*
X008800Y008488D01*
G37*
G36*
X009507Y009196D02*
X009154Y008843D01*
X008377Y009620D01*
X008730Y009973D01*
X009507Y009196D01*
G37*
G36*
X010215Y009903D02*
X009862Y009550D01*
X009085Y010327D01*
X009438Y010680D01*
X010215Y009903D01*
G37*
M02*
