G75*
%MOIN*%
%OFA0B0*%
%FSLAX24Y24*%
%IPPOS*%
%LPD*%
%AMOC8*
5,1,8,0,0,1.08239X$1,22.5*
%
%ADD10C,0.0000*%
%ADD11R,0.0433X0.0394*%
D10*
X000100Y000100D02*
X000100Y019785D01*
X019785Y019785D01*
X019785Y000100D01*
X000100Y000100D01*
X004439Y013261D02*
X004441Y013311D01*
X004447Y013361D01*
X004457Y013411D01*
X004470Y013459D01*
X004487Y013507D01*
X004508Y013553D01*
X004532Y013597D01*
X004560Y013639D01*
X004591Y013679D01*
X004625Y013716D01*
X004662Y013751D01*
X004701Y013782D01*
X004742Y013811D01*
X004786Y013836D01*
X004832Y013858D01*
X004879Y013876D01*
X004927Y013890D01*
X004976Y013901D01*
X005026Y013908D01*
X005076Y013911D01*
X005127Y013910D01*
X005177Y013905D01*
X005227Y013896D01*
X005275Y013884D01*
X005323Y013867D01*
X005369Y013847D01*
X005414Y013824D01*
X005457Y013797D01*
X005497Y013767D01*
X005535Y013734D01*
X005570Y013698D01*
X005603Y013659D01*
X005632Y013618D01*
X005658Y013575D01*
X005681Y013530D01*
X005700Y013483D01*
X005715Y013435D01*
X005727Y013386D01*
X005735Y013336D01*
X005739Y013286D01*
X005739Y013236D01*
X005735Y013186D01*
X005727Y013136D01*
X005715Y013087D01*
X005700Y013039D01*
X005681Y012992D01*
X005658Y012947D01*
X005632Y012904D01*
X005603Y012863D01*
X005570Y012824D01*
X005535Y012788D01*
X005497Y012755D01*
X005457Y012725D01*
X005414Y012698D01*
X005369Y012675D01*
X005323Y012655D01*
X005275Y012638D01*
X005227Y012626D01*
X005177Y012617D01*
X005127Y012612D01*
X005076Y012611D01*
X005026Y012614D01*
X004976Y012621D01*
X004927Y012632D01*
X004879Y012646D01*
X004832Y012664D01*
X004786Y012686D01*
X004742Y012711D01*
X004701Y012740D01*
X004662Y012771D01*
X004625Y012806D01*
X004591Y012843D01*
X004560Y012883D01*
X004532Y012925D01*
X004508Y012969D01*
X004487Y013015D01*
X004470Y013063D01*
X004457Y013111D01*
X004447Y013161D01*
X004441Y013211D01*
X004439Y013261D01*
D11*
X008095Y016380D03*
X008765Y016380D03*
X010675Y016370D03*
X011345Y016370D03*
M02*
