G75*
%MOIN*%
%OFA0B0*%
%FSLAX24Y24*%
%IPPOS*%
%LPD*%
%AMOC8*
5,1,8,0,0,1.08239X$1,22.5*
%
%ADD10C,0.0000*%
%ADD11C,0.0060*%
%ADD12C,0.0120*%
%ADD13C,0.0160*%
%ADD14C,0.0050*%
%ADD15C,0.0020*%
%ADD16C,0.0070*%
%ADD17C,0.0040*%
%ADD18R,0.0300X0.0250*%
%ADD19R,0.0500X0.1100*%
D10*
X000100Y000100D02*
X000100Y019785D01*
X019785Y019785D01*
X019785Y000100D01*
X000100Y000100D01*
X003751Y014156D02*
X003753Y014206D01*
X003759Y014256D01*
X003769Y014306D01*
X003782Y014354D01*
X003799Y014402D01*
X003820Y014448D01*
X003844Y014492D01*
X003872Y014534D01*
X003903Y014574D01*
X003937Y014611D01*
X003974Y014646D01*
X004013Y014677D01*
X004054Y014706D01*
X004098Y014731D01*
X004144Y014753D01*
X004191Y014771D01*
X004239Y014785D01*
X004288Y014796D01*
X004338Y014803D01*
X004388Y014806D01*
X004439Y014805D01*
X004489Y014800D01*
X004539Y014791D01*
X004587Y014779D01*
X004635Y014762D01*
X004681Y014742D01*
X004726Y014719D01*
X004769Y014692D01*
X004809Y014662D01*
X004847Y014629D01*
X004882Y014593D01*
X004915Y014554D01*
X004944Y014513D01*
X004970Y014470D01*
X004993Y014425D01*
X005012Y014378D01*
X005027Y014330D01*
X005039Y014281D01*
X005047Y014231D01*
X005051Y014181D01*
X005051Y014131D01*
X005047Y014081D01*
X005039Y014031D01*
X005027Y013982D01*
X005012Y013934D01*
X004993Y013887D01*
X004970Y013842D01*
X004944Y013799D01*
X004915Y013758D01*
X004882Y013719D01*
X004847Y013683D01*
X004809Y013650D01*
X004769Y013620D01*
X004726Y013593D01*
X004681Y013570D01*
X004635Y013550D01*
X004587Y013533D01*
X004539Y013521D01*
X004489Y013512D01*
X004439Y013507D01*
X004388Y013506D01*
X004338Y013509D01*
X004288Y013516D01*
X004239Y013527D01*
X004191Y013541D01*
X004144Y013559D01*
X004098Y013581D01*
X004054Y013606D01*
X004013Y013635D01*
X003974Y013666D01*
X003937Y013701D01*
X003903Y013738D01*
X003872Y013778D01*
X003844Y013820D01*
X003820Y013864D01*
X003799Y013910D01*
X003782Y013958D01*
X003769Y014006D01*
X003759Y014056D01*
X003753Y014106D01*
X003751Y014156D01*
D11*
X003691Y014156D02*
X003693Y014209D01*
X003699Y014262D01*
X003709Y014314D01*
X003723Y014365D01*
X003740Y014415D01*
X003761Y014464D01*
X003786Y014511D01*
X003814Y014556D01*
X003846Y014599D01*
X003881Y014639D01*
X003918Y014676D01*
X003958Y014711D01*
X004001Y014743D01*
X004046Y014771D01*
X004093Y014796D01*
X004142Y014817D01*
X004192Y014834D01*
X004243Y014848D01*
X004295Y014858D01*
X004348Y014864D01*
X004401Y014866D01*
X004454Y014864D01*
X004507Y014858D01*
X004559Y014848D01*
X004610Y014834D01*
X004660Y014817D01*
X004709Y014796D01*
X004756Y014771D01*
X004801Y014743D01*
X004844Y014711D01*
X004884Y014676D01*
X004921Y014639D01*
X004956Y014599D01*
X004988Y014556D01*
X005016Y014511D01*
X005041Y014464D01*
X005062Y014415D01*
X005079Y014365D01*
X005093Y014314D01*
X005103Y014262D01*
X005109Y014209D01*
X005111Y014156D01*
X005109Y014103D01*
X005103Y014050D01*
X005093Y013998D01*
X005079Y013947D01*
X005062Y013897D01*
X005041Y013848D01*
X005016Y013801D01*
X004988Y013756D01*
X004956Y013713D01*
X004921Y013673D01*
X004884Y013636D01*
X004844Y013601D01*
X004801Y013569D01*
X004756Y013541D01*
X004709Y013516D01*
X004660Y013495D01*
X004610Y013478D01*
X004559Y013464D01*
X004507Y013454D01*
X004454Y013448D01*
X004401Y013446D01*
X004348Y013448D01*
X004295Y013454D01*
X004243Y013464D01*
X004192Y013478D01*
X004142Y013495D01*
X004093Y013516D01*
X004046Y013541D01*
X004001Y013569D01*
X003958Y013601D01*
X003918Y013636D01*
X003881Y013673D01*
X003846Y013713D01*
X003814Y013756D01*
X003786Y013801D01*
X003761Y013848D01*
X003740Y013897D01*
X003723Y013947D01*
X003709Y013998D01*
X003699Y014050D01*
X003693Y014103D01*
X003691Y014156D01*
X002774Y013378D02*
X002527Y013131D01*
X001996Y013661D01*
X004896Y016560D01*
X005426Y016030D01*
X005178Y015782D01*
X005603Y015358D01*
X005850Y015606D01*
X009315Y012141D01*
X006416Y009242D01*
X002951Y012707D01*
X003199Y012954D01*
X002774Y013378D01*
X004367Y010583D02*
X004721Y010583D01*
X005074Y010229D01*
X005074Y009876D01*
X005428Y009876D01*
X005782Y009522D01*
X005782Y009169D01*
X006135Y009169D01*
X006489Y008815D01*
X006489Y008462D01*
X006842Y008462D01*
X007196Y008108D01*
X007196Y007755D01*
X007549Y007755D01*
X007903Y007401D01*
X007903Y007047D01*
X008256Y007047D01*
X008610Y006694D01*
X008610Y006340D01*
X008256Y005987D01*
X007903Y005987D01*
X007549Y006340D01*
X007549Y006694D01*
X007196Y006694D01*
X006842Y007047D01*
X006842Y007401D01*
X007196Y007755D01*
X006842Y007401D02*
X006489Y007401D01*
X006135Y007755D01*
X006135Y008108D01*
X005782Y008108D01*
X005428Y008462D01*
X005428Y008815D01*
X005074Y008815D01*
X004721Y009169D01*
X004721Y009522D01*
X004367Y009522D01*
X004014Y009876D01*
X004014Y010229D01*
X004367Y010583D01*
X005074Y009876D02*
X004721Y009522D01*
X005428Y008815D02*
X005782Y009169D01*
X006489Y008462D02*
X006135Y008108D01*
X007549Y006694D02*
X007903Y007047D01*
X009648Y005188D02*
X009648Y004835D01*
X010002Y004481D01*
X010355Y004481D01*
X010709Y004835D01*
X010709Y005188D01*
X011062Y005188D01*
X011416Y005542D01*
X011416Y005895D01*
X011062Y006249D01*
X010709Y006249D01*
X010355Y005895D01*
X010355Y005542D01*
X010709Y005188D01*
X010355Y005542D02*
X010002Y005542D01*
X009648Y005188D01*
X010041Y004291D02*
X010343Y003989D01*
X010343Y004291D02*
X010041Y003989D01*
X011491Y005419D02*
X011793Y005721D01*
X012244Y006464D02*
X012598Y006464D01*
X012952Y006817D01*
X012952Y007171D01*
X013305Y007171D01*
X013659Y007525D01*
X013659Y007878D01*
X013305Y008232D01*
X012952Y008232D01*
X012598Y007878D01*
X012598Y007525D01*
X012952Y007171D01*
X012598Y007525D02*
X012244Y007525D01*
X011891Y007171D01*
X011891Y006817D01*
X012244Y006464D01*
X013659Y007878D02*
X014012Y007878D01*
X014366Y008232D01*
X014366Y008585D01*
X014719Y008585D01*
X015073Y008939D01*
X015073Y009292D01*
X014719Y009646D01*
X014366Y009646D01*
X014012Y009292D01*
X014012Y008939D01*
X014366Y008585D01*
X014012Y008939D02*
X013659Y008939D01*
X013305Y008585D01*
X013305Y008232D01*
X012322Y011085D02*
X011822Y011085D01*
X011572Y011335D01*
X011572Y011835D01*
X011822Y012085D01*
X012322Y012085D01*
X012572Y011835D01*
X012572Y011335D01*
X012322Y011085D01*
X011212Y013655D02*
X010712Y013655D01*
X010462Y013905D01*
X010212Y013655D01*
X009712Y013655D01*
X009462Y013905D01*
X009212Y013655D01*
X008712Y013655D01*
X008462Y013905D01*
X008462Y014405D01*
X008712Y014655D01*
X009212Y014655D01*
X009462Y014405D01*
X009712Y014655D01*
X010212Y014655D01*
X010462Y014405D01*
X010712Y014655D01*
X011212Y014655D01*
X011462Y014405D01*
X011462Y013905D01*
X011212Y013655D01*
X010462Y013905D02*
X010462Y014405D01*
X009462Y014405D02*
X009462Y013905D01*
D12*
X014222Y014229D02*
X015199Y015206D01*
X015524Y014880D02*
X014873Y015532D01*
X015850Y014555D02*
X014873Y013578D01*
X015524Y012927D01*
X016013Y012764D02*
X016013Y012439D01*
X016338Y012113D01*
X016664Y012113D01*
X016827Y012276D01*
X016827Y012602D01*
X016501Y012927D01*
X016501Y013253D01*
X016664Y013415D01*
X016989Y013415D01*
X017315Y013090D01*
X017315Y012764D01*
X016501Y013904D02*
X015850Y014555D01*
X015362Y014067D02*
X015687Y013741D01*
D13*
X016672Y011575D02*
X017952Y010245D01*
X018312Y011915D01*
X016702Y011585D01*
X000382Y010045D02*
X000385Y010281D01*
X000394Y010516D01*
X000408Y010751D01*
X000428Y010986D01*
X000454Y011220D01*
X000486Y011454D01*
X000523Y011686D01*
X000566Y011918D01*
X000615Y012148D01*
X000670Y012378D01*
X000730Y012605D01*
X000795Y012832D01*
X000867Y013056D01*
X000943Y013279D01*
X001025Y013500D01*
X001113Y013719D01*
X001206Y013935D01*
X001304Y014150D01*
X001407Y014361D01*
X001516Y014570D01*
X001629Y014777D01*
X001748Y014980D01*
X001871Y015181D01*
X002000Y015378D01*
X002133Y015573D01*
X002271Y015764D01*
X002414Y015951D01*
X002561Y016135D01*
X002713Y016315D01*
X002869Y016492D01*
X003029Y016665D01*
X003194Y016833D01*
X003362Y016998D01*
X003535Y017158D01*
X003712Y017314D01*
X003892Y017466D01*
X004076Y017613D01*
X004263Y017756D01*
X004454Y017894D01*
X004649Y018027D01*
X004846Y018156D01*
X005047Y018279D01*
X005250Y018398D01*
X005457Y018511D01*
X005666Y018620D01*
X005877Y018723D01*
X006092Y018821D01*
X006308Y018914D01*
X006527Y019002D01*
X006748Y019084D01*
X006971Y019160D01*
X007195Y019232D01*
X007422Y019297D01*
X007649Y019357D01*
X007879Y019412D01*
X008109Y019461D01*
X008341Y019504D01*
X008573Y019541D01*
X008807Y019573D01*
X009041Y019599D01*
X009276Y019619D01*
X009511Y019633D01*
X009746Y019642D01*
X009982Y019645D01*
X010218Y019642D01*
X010453Y019633D01*
X010688Y019619D01*
X010923Y019599D01*
X011157Y019573D01*
X011391Y019541D01*
X011623Y019504D01*
X011855Y019461D01*
X012085Y019412D01*
X012315Y019357D01*
X012542Y019297D01*
X012769Y019232D01*
X012993Y019160D01*
X013216Y019084D01*
X013437Y019002D01*
X013656Y018914D01*
X013872Y018821D01*
X014087Y018723D01*
X014298Y018620D01*
X014507Y018511D01*
X014714Y018398D01*
X014917Y018279D01*
X015118Y018156D01*
X015315Y018027D01*
X015510Y017894D01*
X015701Y017756D01*
X015888Y017613D01*
X016072Y017466D01*
X016252Y017314D01*
X016429Y017158D01*
X016602Y016998D01*
X016770Y016833D01*
X016935Y016665D01*
X017095Y016492D01*
X017251Y016315D01*
X017403Y016135D01*
X017550Y015951D01*
X017693Y015764D01*
X017831Y015573D01*
X017964Y015378D01*
X018093Y015181D01*
X018216Y014980D01*
X018335Y014777D01*
X018448Y014570D01*
X018557Y014361D01*
X018660Y014150D01*
X018758Y013935D01*
X018851Y013719D01*
X018939Y013500D01*
X019021Y013279D01*
X019097Y013056D01*
X019169Y012832D01*
X019234Y012605D01*
X019294Y012378D01*
X019349Y012148D01*
X019398Y011918D01*
X019441Y011686D01*
X019478Y011454D01*
X019510Y011220D01*
X019536Y010986D01*
X019556Y010751D01*
X019570Y010516D01*
X019579Y010281D01*
X019582Y010045D01*
X019579Y009809D01*
X019570Y009574D01*
X019556Y009339D01*
X019536Y009104D01*
X019510Y008870D01*
X019478Y008636D01*
X019441Y008404D01*
X019398Y008172D01*
X019349Y007942D01*
X019294Y007712D01*
X019234Y007485D01*
X019169Y007258D01*
X019097Y007034D01*
X019021Y006811D01*
X018939Y006590D01*
X018851Y006371D01*
X018758Y006155D01*
X018660Y005940D01*
X018557Y005729D01*
X018448Y005520D01*
X018335Y005313D01*
X018216Y005110D01*
X018093Y004909D01*
X017964Y004712D01*
X017831Y004517D01*
X017693Y004326D01*
X017550Y004139D01*
X017403Y003955D01*
X017251Y003775D01*
X017095Y003598D01*
X016935Y003425D01*
X016770Y003257D01*
X016602Y003092D01*
X016429Y002932D01*
X016252Y002776D01*
X016072Y002624D01*
X015888Y002477D01*
X015701Y002334D01*
X015510Y002196D01*
X015315Y002063D01*
X015118Y001934D01*
X014917Y001811D01*
X014714Y001692D01*
X014507Y001579D01*
X014298Y001470D01*
X014087Y001367D01*
X013872Y001269D01*
X013656Y001176D01*
X013437Y001088D01*
X013216Y001006D01*
X012993Y000930D01*
X012769Y000858D01*
X012542Y000793D01*
X012315Y000733D01*
X012085Y000678D01*
X011855Y000629D01*
X011623Y000586D01*
X011391Y000549D01*
X011157Y000517D01*
X010923Y000491D01*
X010688Y000471D01*
X010453Y000457D01*
X010218Y000448D01*
X009982Y000445D01*
X009746Y000448D01*
X009511Y000457D01*
X009276Y000471D01*
X009041Y000491D01*
X008807Y000517D01*
X008573Y000549D01*
X008341Y000586D01*
X008109Y000629D01*
X007879Y000678D01*
X007649Y000733D01*
X007422Y000793D01*
X007195Y000858D01*
X006971Y000930D01*
X006748Y001006D01*
X006527Y001088D01*
X006308Y001176D01*
X006092Y001269D01*
X005877Y001367D01*
X005666Y001470D01*
X005457Y001579D01*
X005250Y001692D01*
X005047Y001811D01*
X004846Y001934D01*
X004649Y002063D01*
X004454Y002196D01*
X004263Y002334D01*
X004076Y002477D01*
X003892Y002624D01*
X003712Y002776D01*
X003535Y002932D01*
X003362Y003092D01*
X003194Y003257D01*
X003029Y003425D01*
X002869Y003598D01*
X002713Y003775D01*
X002561Y003955D01*
X002414Y004139D01*
X002271Y004326D01*
X002133Y004517D01*
X002000Y004712D01*
X001871Y004909D01*
X001748Y005110D01*
X001629Y005313D01*
X001516Y005520D01*
X001407Y005729D01*
X001304Y005940D01*
X001206Y006155D01*
X001113Y006371D01*
X001025Y006590D01*
X000943Y006811D01*
X000867Y007034D01*
X000795Y007258D01*
X000730Y007485D01*
X000670Y007712D01*
X000615Y007942D01*
X000566Y008172D01*
X000523Y008404D01*
X000486Y008636D01*
X000454Y008870D01*
X000428Y009104D01*
X000408Y009339D01*
X000394Y009574D01*
X000385Y009809D01*
X000382Y010045D01*
D14*
X006108Y006799D02*
X006426Y007117D01*
X006426Y006905D01*
X006639Y006905D01*
X006320Y006587D01*
X006433Y006473D02*
X006540Y006367D01*
X006487Y006420D02*
X006805Y006739D01*
X006752Y006792D02*
X006858Y006686D01*
X006916Y006522D02*
X006704Y006309D01*
X006704Y006203D01*
X006810Y006097D01*
X006916Y006097D01*
X007082Y006037D02*
X007241Y005878D01*
X007348Y005878D01*
X007454Y005984D01*
X007454Y006090D01*
X007294Y006249D01*
X006976Y005931D01*
X007188Y005931D02*
X007188Y005718D01*
X007355Y005658D02*
X007355Y005552D01*
X007461Y005446D01*
X007567Y005446D01*
X007779Y005658D01*
X007779Y005764D01*
X007673Y005871D01*
X007567Y005871D01*
X007355Y005658D01*
X007128Y006309D02*
X007128Y006416D01*
X007022Y006522D01*
X006916Y006522D01*
X008976Y005500D02*
X009135Y005659D01*
X009241Y005659D01*
X009348Y005553D01*
X009348Y005446D01*
X009188Y005287D01*
X009294Y005181D02*
X008976Y005500D01*
X009302Y005825D02*
X009620Y005507D01*
X009620Y005719D01*
X009832Y005719D01*
X009514Y006037D01*
X009627Y006151D02*
X009786Y006310D01*
X009892Y006310D01*
X009999Y006204D01*
X009999Y006098D01*
X009839Y005938D01*
X009946Y005832D02*
X009627Y006151D01*
X009946Y006044D02*
X010158Y006044D01*
X010324Y006105D02*
X010536Y006317D01*
X010597Y006483D02*
X010703Y006589D01*
X010650Y006536D02*
X010331Y006855D01*
X010278Y006802D02*
X010384Y006908D01*
X010495Y007019D02*
X011026Y006913D01*
X010708Y007231D01*
X010495Y007019D02*
X010814Y006700D01*
X011219Y007482D02*
X011431Y007695D01*
X011325Y007589D02*
X011644Y007270D01*
X011810Y007543D02*
X011916Y007543D01*
X012022Y007649D01*
X012022Y007755D01*
X011810Y007967D01*
X011704Y007967D01*
X011598Y007861D01*
X011598Y007755D01*
X011810Y007543D01*
X012135Y007868D02*
X012242Y007868D01*
X012348Y007974D01*
X012348Y008080D01*
X012082Y008346D01*
X012249Y008406D02*
X012461Y008194D01*
X012567Y008194D01*
X012673Y008300D01*
X012673Y008406D01*
X012840Y008466D02*
X012521Y008785D01*
X012461Y008618D02*
X012355Y008618D01*
X012249Y008512D01*
X012249Y008406D01*
X011870Y008133D02*
X012135Y007868D01*
X012680Y008625D02*
X012893Y008838D01*
X012733Y008997D02*
X013052Y008678D01*
X012788Y012255D02*
X012488Y012255D01*
X012328Y012405D02*
X012328Y012705D01*
X012252Y012780D01*
X012102Y012780D01*
X012027Y012705D01*
X012027Y012405D01*
X012102Y012330D01*
X012252Y012330D01*
X012328Y012405D01*
X011867Y012780D02*
X011567Y012780D01*
X011717Y012780D02*
X011717Y012330D01*
X011357Y012960D02*
X011056Y012960D01*
X011056Y013410D01*
X010896Y013410D02*
X010596Y013410D01*
X010596Y012960D01*
X010896Y012960D01*
X010746Y013185D02*
X010596Y013185D01*
X010436Y013035D02*
X010361Y012960D01*
X010211Y012960D01*
X010136Y013035D01*
X010136Y013335D01*
X010211Y013410D01*
X010361Y013410D01*
X010436Y013335D01*
X009976Y013335D02*
X009901Y013410D01*
X009750Y013410D01*
X009675Y013335D01*
X009675Y013035D01*
X009750Y012960D01*
X009901Y012960D01*
X009976Y013035D01*
X009515Y012960D02*
X009515Y013260D01*
X009365Y013410D01*
X009215Y013260D01*
X009215Y012960D01*
X009215Y013185D02*
X009515Y013185D01*
X012948Y012780D02*
X012948Y012330D01*
X012948Y012480D02*
X013173Y012480D01*
X013248Y012555D01*
X013248Y012705D01*
X013173Y012780D01*
X012948Y012780D01*
X013408Y012630D02*
X013408Y012330D01*
X013408Y012555D02*
X013709Y012555D01*
X013709Y012630D02*
X013709Y012330D01*
X013869Y012330D02*
X014094Y012330D01*
X014169Y012405D01*
X014169Y012705D01*
X014094Y012780D01*
X013869Y012780D01*
X013869Y012330D01*
X013709Y012630D02*
X013559Y012780D01*
X013408Y012630D01*
D15*
X008961Y012141D02*
X006663Y014439D01*
X004118Y011893D01*
X006416Y009595D01*
X008961Y012141D01*
D16*
X006666Y013148D02*
X006369Y012851D01*
X006518Y012999D02*
X006072Y013445D01*
X006072Y013148D01*
X005839Y013064D02*
X005839Y012469D01*
X005987Y012469D01*
X006136Y012618D01*
X006136Y012766D01*
X005839Y013064D01*
X005690Y013064D01*
X005542Y012915D01*
X005542Y012766D01*
X005839Y012469D01*
X005680Y012162D02*
X005234Y012608D01*
X005234Y012162D01*
X005532Y012459D01*
X005225Y011855D02*
X005225Y011706D01*
X005076Y011558D01*
X004927Y011558D01*
X004630Y011855D01*
X004630Y012003D01*
X004779Y012152D01*
X004927Y012152D01*
X005225Y011855D01*
X005299Y011781D02*
X005002Y011781D01*
D17*
X004428Y012373D02*
X004173Y012628D01*
X004173Y012458D01*
X004082Y012367D02*
X004252Y012198D01*
X004343Y012288D02*
X004513Y012458D01*
X004603Y012549D02*
X004561Y012591D01*
X004561Y012931D01*
X004518Y012973D01*
X004349Y012803D01*
X004082Y012367D02*
X003913Y012367D01*
X003913Y012198D01*
X004082Y012028D01*
X003955Y012155D02*
X004125Y012325D01*
X004949Y012724D02*
X004949Y012894D01*
X004906Y012852D01*
X004864Y012894D01*
X004906Y012936D01*
X004949Y012894D01*
X004995Y013025D02*
X005080Y013025D01*
X005165Y013110D01*
X005165Y013195D01*
X005080Y013280D01*
X004995Y013280D01*
X004952Y013237D01*
X004910Y013110D01*
X004783Y013237D01*
X004952Y013407D01*
X005128Y013413D02*
X005170Y013455D01*
X005255Y013455D01*
X005255Y013540D01*
X005340Y013540D01*
X005468Y013413D01*
X005383Y013328D02*
X005255Y013455D01*
X005128Y013413D02*
X005298Y013243D01*
X005558Y013504D02*
X005388Y013673D01*
X005431Y013716D01*
X005516Y013716D01*
X005516Y013801D01*
X005601Y013801D01*
X005728Y013673D01*
X005643Y013588D02*
X005516Y013716D01*
X008159Y016845D02*
X008312Y016845D01*
X008389Y016922D01*
X008542Y017075D02*
X008849Y017075D01*
X009003Y016922D02*
X009079Y016845D01*
X009233Y016845D01*
X009310Y016922D01*
X009310Y017229D01*
X009003Y016922D01*
X009003Y017229D01*
X009079Y017305D01*
X009233Y017305D01*
X009310Y017229D01*
X009463Y017229D02*
X009540Y017305D01*
X009693Y017305D01*
X009770Y017229D01*
X009770Y017152D01*
X009463Y016845D01*
X009770Y016845D01*
X010312Y016942D02*
X010312Y017249D01*
X010389Y017325D01*
X010542Y017325D01*
X010619Y017249D01*
X010772Y017095D02*
X011079Y017095D01*
X011233Y016942D02*
X011309Y016865D01*
X011463Y016865D01*
X011540Y016942D01*
X011540Y017249D01*
X011233Y016942D01*
X011233Y017249D01*
X011309Y017325D01*
X011463Y017325D01*
X011540Y017249D01*
X011693Y017172D02*
X011847Y017325D01*
X011847Y016865D01*
X012000Y016865D02*
X011693Y016865D01*
X011002Y016865D02*
X011002Y017325D01*
X010772Y017095D01*
X010619Y016942D02*
X010542Y016865D01*
X010389Y016865D01*
X010312Y016942D01*
X008772Y016845D02*
X008772Y017305D01*
X008542Y017075D01*
X008389Y017229D02*
X008312Y017305D01*
X008159Y017305D01*
X008082Y017229D01*
X008082Y016922D01*
X008159Y016845D01*
D18*
G36*
X009633Y010549D02*
X009422Y010338D01*
X009245Y010515D01*
X009456Y010726D01*
X009633Y010549D01*
G37*
G36*
X008926Y009842D02*
X008715Y009631D01*
X008538Y009808D01*
X008749Y010019D01*
X008926Y009842D01*
G37*
G36*
X008219Y009135D02*
X008008Y008924D01*
X007831Y009101D01*
X008042Y009312D01*
X008219Y009135D01*
G37*
D19*
G36*
X008112Y009383D02*
X007759Y009030D01*
X006982Y009807D01*
X007335Y010160D01*
X008112Y009383D01*
G37*
G36*
X008819Y010090D02*
X008466Y009737D01*
X007689Y010514D01*
X008042Y010867D01*
X008819Y010090D01*
G37*
G36*
X009526Y010798D02*
X009173Y010445D01*
X008396Y011222D01*
X008749Y011575D01*
X009526Y010798D01*
G37*
M02*
