%
M48
M72
T01C0.0236
T02C0.0400
T03C0.0440
T04C0.1300
%
T01
X18102Y7305
X13342Y18115
X10142Y8455
X15262Y3925
T02
X8080Y6517
X7373Y7224
X6665Y7931
X5958Y8638
X5251Y9346
X4544Y10053
X12421Y6994
X13128Y7701
X13835Y8408
X14543Y9116
X10962Y14155
X9962Y14155
X8962Y14155
X10178Y5011
X10885Y5718
X12072Y11585
T03
X8573Y8570
X9280Y9277
X9987Y9984
T04
X4401Y14156
M30
