G75*
%MOIN*%
%OFA0B0*%
%FSLAX24Y24*%
%IPPOS*%
%LPD*%
%AMOC8*
5,1,8,0,0,1.08239X$1,22.5*
%
%ADD10C,0.0000*%
%ADD11C,0.0160*%
%ADD12C,0.0600*%
%ADD13OC8,0.0600*%
%ADD14C,0.0660*%
%ADD15R,0.1299X0.1890*%
%ADD16C,0.0396*%
D10*
X000100Y000100D02*
X000100Y019785D01*
X019785Y019785D01*
X019785Y000100D01*
X000100Y000100D01*
X003751Y014156D02*
X003753Y014206D01*
X003759Y014256D01*
X003769Y014306D01*
X003782Y014354D01*
X003799Y014402D01*
X003820Y014448D01*
X003844Y014492D01*
X003872Y014534D01*
X003903Y014574D01*
X003937Y014611D01*
X003974Y014646D01*
X004013Y014677D01*
X004054Y014706D01*
X004098Y014731D01*
X004144Y014753D01*
X004191Y014771D01*
X004239Y014785D01*
X004288Y014796D01*
X004338Y014803D01*
X004388Y014806D01*
X004439Y014805D01*
X004489Y014800D01*
X004539Y014791D01*
X004587Y014779D01*
X004635Y014762D01*
X004681Y014742D01*
X004726Y014719D01*
X004769Y014692D01*
X004809Y014662D01*
X004847Y014629D01*
X004882Y014593D01*
X004915Y014554D01*
X004944Y014513D01*
X004970Y014470D01*
X004993Y014425D01*
X005012Y014378D01*
X005027Y014330D01*
X005039Y014281D01*
X005047Y014231D01*
X005051Y014181D01*
X005051Y014131D01*
X005047Y014081D01*
X005039Y014031D01*
X005027Y013982D01*
X005012Y013934D01*
X004993Y013887D01*
X004970Y013842D01*
X004944Y013799D01*
X004915Y013758D01*
X004882Y013719D01*
X004847Y013683D01*
X004809Y013650D01*
X004769Y013620D01*
X004726Y013593D01*
X004681Y013570D01*
X004635Y013550D01*
X004587Y013533D01*
X004539Y013521D01*
X004489Y013512D01*
X004439Y013507D01*
X004388Y013506D01*
X004338Y013509D01*
X004288Y013516D01*
X004239Y013527D01*
X004191Y013541D01*
X004144Y013559D01*
X004098Y013581D01*
X004054Y013606D01*
X004013Y013635D01*
X003974Y013666D01*
X003937Y013701D01*
X003903Y013738D01*
X003872Y013778D01*
X003844Y013820D01*
X003820Y013864D01*
X003799Y013910D01*
X003782Y013958D01*
X003769Y014006D01*
X003759Y014056D01*
X003753Y014106D01*
X003751Y014156D01*
D11*
X007342Y014075D02*
X007342Y011436D01*
X005251Y009346D01*
X004544Y010053D02*
X002808Y008317D01*
X002808Y005845D01*
X005676Y006485D02*
X005832Y006485D01*
X006782Y005535D01*
X007097Y005535D01*
X008080Y006517D01*
X007373Y007224D02*
X007613Y007465D01*
X008802Y007465D01*
X009667Y008330D01*
X009547Y008330D01*
X008512Y009365D01*
X008512Y012705D01*
X009962Y014155D01*
X010962Y014155D02*
X010962Y009009D01*
X011682Y008289D01*
X011682Y007615D01*
X010202Y007615D01*
X009562Y006975D01*
X009562Y005628D01*
X010178Y005011D01*
X009655Y005535D01*
X007097Y005535D01*
X006768Y007931D02*
X006665Y007931D01*
X006768Y007931D02*
X007732Y008895D01*
X007732Y012925D01*
X008962Y014155D01*
X007342Y014075D02*
X009072Y015805D01*
X009194Y015805D01*
X010939Y018115D02*
X010769Y018285D01*
X010939Y018115D02*
X013342Y018115D01*
X000382Y010045D02*
X000385Y010281D01*
X000394Y010516D01*
X000408Y010751D01*
X000428Y010986D01*
X000454Y011220D01*
X000486Y011454D01*
X000523Y011686D01*
X000566Y011918D01*
X000615Y012148D01*
X000670Y012378D01*
X000730Y012605D01*
X000795Y012832D01*
X000867Y013056D01*
X000943Y013279D01*
X001025Y013500D01*
X001113Y013719D01*
X001206Y013935D01*
X001304Y014150D01*
X001407Y014361D01*
X001516Y014570D01*
X001629Y014777D01*
X001748Y014980D01*
X001871Y015181D01*
X002000Y015378D01*
X002133Y015573D01*
X002271Y015764D01*
X002414Y015951D01*
X002561Y016135D01*
X002713Y016315D01*
X002869Y016492D01*
X003029Y016665D01*
X003194Y016833D01*
X003362Y016998D01*
X003535Y017158D01*
X003712Y017314D01*
X003892Y017466D01*
X004076Y017613D01*
X004263Y017756D01*
X004454Y017894D01*
X004649Y018027D01*
X004846Y018156D01*
X005047Y018279D01*
X005250Y018398D01*
X005457Y018511D01*
X005666Y018620D01*
X005877Y018723D01*
X006092Y018821D01*
X006308Y018914D01*
X006527Y019002D01*
X006748Y019084D01*
X006971Y019160D01*
X007195Y019232D01*
X007422Y019297D01*
X007649Y019357D01*
X007879Y019412D01*
X008109Y019461D01*
X008341Y019504D01*
X008573Y019541D01*
X008807Y019573D01*
X009041Y019599D01*
X009276Y019619D01*
X009511Y019633D01*
X009746Y019642D01*
X009982Y019645D01*
X010218Y019642D01*
X010453Y019633D01*
X010688Y019619D01*
X010923Y019599D01*
X011157Y019573D01*
X011391Y019541D01*
X011623Y019504D01*
X011855Y019461D01*
X012085Y019412D01*
X012315Y019357D01*
X012542Y019297D01*
X012769Y019232D01*
X012993Y019160D01*
X013216Y019084D01*
X013437Y019002D01*
X013656Y018914D01*
X013872Y018821D01*
X014087Y018723D01*
X014298Y018620D01*
X014507Y018511D01*
X014714Y018398D01*
X014917Y018279D01*
X015118Y018156D01*
X015315Y018027D01*
X015510Y017894D01*
X015701Y017756D01*
X015888Y017613D01*
X016072Y017466D01*
X016252Y017314D01*
X016429Y017158D01*
X016602Y016998D01*
X016770Y016833D01*
X016935Y016665D01*
X017095Y016492D01*
X017251Y016315D01*
X017403Y016135D01*
X017550Y015951D01*
X017693Y015764D01*
X017831Y015573D01*
X017964Y015378D01*
X018093Y015181D01*
X018216Y014980D01*
X018335Y014777D01*
X018448Y014570D01*
X018557Y014361D01*
X018660Y014150D01*
X018758Y013935D01*
X018851Y013719D01*
X018939Y013500D01*
X019021Y013279D01*
X019097Y013056D01*
X019169Y012832D01*
X019234Y012605D01*
X019294Y012378D01*
X019349Y012148D01*
X019398Y011918D01*
X019441Y011686D01*
X019478Y011454D01*
X019510Y011220D01*
X019536Y010986D01*
X019556Y010751D01*
X019570Y010516D01*
X019579Y010281D01*
X019582Y010045D01*
X019579Y009809D01*
X019570Y009574D01*
X019556Y009339D01*
X019536Y009104D01*
X019510Y008870D01*
X019478Y008636D01*
X019441Y008404D01*
X019398Y008172D01*
X019349Y007942D01*
X019294Y007712D01*
X019234Y007485D01*
X019169Y007258D01*
X019097Y007034D01*
X019021Y006811D01*
X018939Y006590D01*
X018851Y006371D01*
X018758Y006155D01*
X018660Y005940D01*
X018557Y005729D01*
X018448Y005520D01*
X018335Y005313D01*
X018216Y005110D01*
X018093Y004909D01*
X017964Y004712D01*
X017831Y004517D01*
X017693Y004326D01*
X017550Y004139D01*
X017403Y003955D01*
X017251Y003775D01*
X017095Y003598D01*
X016935Y003425D01*
X016770Y003257D01*
X016602Y003092D01*
X016429Y002932D01*
X016252Y002776D01*
X016072Y002624D01*
X015888Y002477D01*
X015701Y002334D01*
X015510Y002196D01*
X015315Y002063D01*
X015118Y001934D01*
X014917Y001811D01*
X014714Y001692D01*
X014507Y001579D01*
X014298Y001470D01*
X014087Y001367D01*
X013872Y001269D01*
X013656Y001176D01*
X013437Y001088D01*
X013216Y001006D01*
X012993Y000930D01*
X012769Y000858D01*
X012542Y000793D01*
X012315Y000733D01*
X012085Y000678D01*
X011855Y000629D01*
X011623Y000586D01*
X011391Y000549D01*
X011157Y000517D01*
X010923Y000491D01*
X010688Y000471D01*
X010453Y000457D01*
X010218Y000448D01*
X009982Y000445D01*
X009746Y000448D01*
X009511Y000457D01*
X009276Y000471D01*
X009041Y000491D01*
X008807Y000517D01*
X008573Y000549D01*
X008341Y000586D01*
X008109Y000629D01*
X007879Y000678D01*
X007649Y000733D01*
X007422Y000793D01*
X007195Y000858D01*
X006971Y000930D01*
X006748Y001006D01*
X006527Y001088D01*
X006308Y001176D01*
X006092Y001269D01*
X005877Y001367D01*
X005666Y001470D01*
X005457Y001579D01*
X005250Y001692D01*
X005047Y001811D01*
X004846Y001934D01*
X004649Y002063D01*
X004454Y002196D01*
X004263Y002334D01*
X004076Y002477D01*
X003892Y002624D01*
X003712Y002776D01*
X003535Y002932D01*
X003362Y003092D01*
X003194Y003257D01*
X003029Y003425D01*
X002869Y003598D01*
X002713Y003775D01*
X002561Y003955D01*
X002414Y004139D01*
X002271Y004326D01*
X002133Y004517D01*
X002000Y004712D01*
X001871Y004909D01*
X001748Y005110D01*
X001629Y005313D01*
X001516Y005520D01*
X001407Y005729D01*
X001304Y005940D01*
X001206Y006155D01*
X001113Y006371D01*
X001025Y006590D01*
X000943Y006811D01*
X000867Y007034D01*
X000795Y007258D01*
X000730Y007485D01*
X000670Y007712D01*
X000615Y007942D01*
X000566Y008172D01*
X000523Y008404D01*
X000486Y008636D01*
X000454Y008870D01*
X000428Y009104D01*
X000408Y009339D01*
X000394Y009574D01*
X000385Y009809D01*
X000382Y010045D01*
X009667Y008330D02*
X009792Y008455D01*
X010142Y008455D01*
X010962Y009009D02*
X009987Y009984D01*
X011682Y007615D02*
X012303Y006994D01*
X012421Y006994D01*
X015302Y007429D02*
X017978Y007429D01*
X018102Y007305D01*
X015942Y004561D02*
X015898Y004561D01*
X015262Y003925D01*
D12*
X012633Y006782D02*
X012209Y007206D01*
X012916Y007913D02*
X013340Y007489D01*
X014048Y008196D02*
X013623Y008621D01*
X014330Y009328D02*
X014755Y008903D01*
X011098Y005506D02*
X010673Y005931D01*
X009966Y005223D02*
X010390Y004799D01*
X008292Y006729D02*
X007868Y006305D01*
X007160Y007012D02*
X007585Y007436D01*
X006878Y008143D02*
X006453Y007719D01*
X005746Y008426D02*
X006170Y008851D01*
X005463Y009558D02*
X005039Y009133D01*
X004332Y009841D02*
X004756Y010265D01*
X008962Y013855D02*
X008962Y014455D01*
X009962Y014455D02*
X009962Y013855D01*
X010962Y013855D02*
X010962Y014455D01*
D13*
X012072Y011585D03*
D14*
X010220Y009751D02*
X009753Y010218D01*
X009046Y009510D02*
X009513Y009044D01*
X008806Y008337D02*
X008339Y008803D01*
D15*
G36*
X005885Y007612D02*
X006803Y006694D01*
X005467Y005358D01*
X004549Y006276D01*
X005885Y007612D01*
G37*
G36*
X004771Y008726D02*
X005689Y007808D01*
X004353Y006472D01*
X003435Y007390D01*
X004771Y008726D01*
G37*
G36*
X003017Y006972D02*
X003935Y006054D01*
X002599Y004718D01*
X001681Y005636D01*
X003017Y006972D01*
G37*
G36*
X004131Y005858D02*
X005049Y004940D01*
X003713Y003604D01*
X002795Y004522D01*
X004131Y005858D01*
G37*
X009194Y015805D03*
X010769Y015805D03*
X010769Y018285D03*
X009194Y018285D03*
G36*
X014175Y007638D02*
X015093Y008556D01*
X016429Y007220D01*
X015511Y006302D01*
X014175Y007638D01*
G37*
G36*
X013061Y006524D02*
X013979Y007442D01*
X015315Y006106D01*
X014397Y005188D01*
X013061Y006524D01*
G37*
G36*
X014815Y004770D02*
X015733Y005688D01*
X017069Y004352D01*
X016151Y003434D01*
X014815Y004770D01*
G37*
G36*
X015929Y005884D02*
X016847Y006802D01*
X018183Y005466D01*
X017265Y004548D01*
X015929Y005884D01*
G37*
D16*
X015262Y003925D03*
X018102Y007305D03*
X010142Y008455D03*
X013342Y018115D03*
M02*
