G75*
%MOIN*%
%OFA0B0*%
%FSLAX24Y24*%
%IPPOS*%
%LPD*%
%AMOC8*
5,1,8,0,0,1.08239X$1,22.5*
%
%ADD10C,0.0000*%
%ADD11C,0.0040*%
%ADD12R,0.0157X0.0157*%
%ADD13R,0.0157X0.0157*%
D10*
X000100Y000100D02*
X000100Y019785D01*
X019785Y019785D01*
X019785Y000100D01*
X000100Y000100D01*
X003751Y014156D02*
X003753Y014206D01*
X003759Y014256D01*
X003769Y014306D01*
X003782Y014354D01*
X003799Y014402D01*
X003820Y014448D01*
X003844Y014492D01*
X003872Y014534D01*
X003903Y014574D01*
X003937Y014611D01*
X003974Y014646D01*
X004013Y014677D01*
X004054Y014706D01*
X004098Y014731D01*
X004144Y014753D01*
X004191Y014771D01*
X004239Y014785D01*
X004288Y014796D01*
X004338Y014803D01*
X004388Y014806D01*
X004439Y014805D01*
X004489Y014800D01*
X004539Y014791D01*
X004587Y014779D01*
X004635Y014762D01*
X004681Y014742D01*
X004726Y014719D01*
X004769Y014692D01*
X004809Y014662D01*
X004847Y014629D01*
X004882Y014593D01*
X004915Y014554D01*
X004944Y014513D01*
X004970Y014470D01*
X004993Y014425D01*
X005012Y014378D01*
X005027Y014330D01*
X005039Y014281D01*
X005047Y014231D01*
X005051Y014181D01*
X005051Y014131D01*
X005047Y014081D01*
X005039Y014031D01*
X005027Y013982D01*
X005012Y013934D01*
X004993Y013887D01*
X004970Y013842D01*
X004944Y013799D01*
X004915Y013758D01*
X004882Y013719D01*
X004847Y013683D01*
X004809Y013650D01*
X004769Y013620D01*
X004726Y013593D01*
X004681Y013570D01*
X004635Y013550D01*
X004587Y013533D01*
X004539Y013521D01*
X004489Y013512D01*
X004439Y013507D01*
X004388Y013506D01*
X004338Y013509D01*
X004288Y013516D01*
X004239Y013527D01*
X004191Y013541D01*
X004144Y013559D01*
X004098Y013581D01*
X004054Y013606D01*
X004013Y013635D01*
X003974Y013666D01*
X003937Y013701D01*
X003903Y013738D01*
X003872Y013778D01*
X003844Y013820D01*
X003820Y013864D01*
X003799Y013910D01*
X003782Y013958D01*
X003769Y014006D01*
X003759Y014056D01*
X003753Y014106D01*
X003751Y014156D01*
D11*
X009155Y015642D02*
X009232Y015565D01*
X009385Y015565D01*
X009462Y015642D01*
X009462Y015949D01*
X009385Y016025D01*
X009232Y016025D01*
X009155Y015949D01*
X010405Y015949D02*
X010482Y016025D01*
X010635Y016025D01*
X010712Y015949D01*
X010712Y015642D01*
X010635Y015565D01*
X010482Y015565D01*
X010405Y015642D01*
X010405Y018065D02*
X010405Y018372D01*
X010558Y018525D01*
X010712Y018372D01*
X010712Y018065D01*
X010712Y018295D02*
X010405Y018295D01*
X009462Y018142D02*
X009385Y018065D01*
X009232Y018065D01*
X009155Y018142D01*
X009155Y018449D02*
X009232Y018525D01*
X009385Y018525D01*
X009462Y018449D01*
X009462Y018142D01*
X004758Y007742D02*
X004867Y007634D01*
X004867Y007525D01*
X004650Y007308D01*
X004541Y007308D01*
X004433Y007417D01*
X004433Y007525D01*
X004650Y007742D02*
X004758Y007742D01*
X005479Y006804D02*
X005262Y006587D01*
X005425Y006750D02*
X005642Y006533D01*
X005696Y006587D02*
X005696Y006804D01*
X005479Y006804D01*
X005696Y006587D02*
X005479Y006370D01*
X003983Y004982D02*
X003983Y004873D01*
X003766Y004656D01*
X003657Y004656D01*
X003549Y004765D01*
X003549Y004873D01*
X003766Y005090D02*
X003874Y005090D01*
X003983Y004982D01*
X003099Y005757D02*
X002882Y005540D01*
X002773Y005540D01*
X002665Y005649D01*
X002665Y005757D01*
X002882Y005974D02*
X002990Y005974D01*
X003099Y005866D01*
X003099Y005757D01*
X014045Y006403D02*
X014045Y006511D01*
X014153Y006620D01*
X014262Y006620D01*
X014479Y006403D01*
X014479Y006294D01*
X014370Y006186D01*
X014262Y006186D01*
X015200Y007015D02*
X014983Y007232D01*
X014983Y007449D01*
X015200Y007449D01*
X015417Y007232D01*
X015254Y007395D02*
X015037Y007178D01*
X016696Y005627D02*
X016805Y005736D01*
X016913Y005736D01*
X017130Y005519D01*
X017130Y005410D01*
X017022Y005302D01*
X016913Y005302D01*
X016696Y005519D02*
X016696Y005627D01*
X016029Y004852D02*
X016246Y004635D01*
X016246Y004526D01*
X016138Y004418D01*
X016029Y004418D01*
X015812Y004635D02*
X015812Y004743D01*
X015921Y004852D01*
X016029Y004852D01*
D12*
G36*
X015512Y005995D02*
X015622Y006105D01*
X015732Y005995D01*
X015622Y005885D01*
X015512Y005995D01*
G37*
G36*
X004242Y006275D02*
X004352Y006165D01*
X004242Y006055D01*
X004132Y006165D01*
X004242Y006275D01*
G37*
D13*
X009982Y017045D03*
M02*
