G75*
%MOIN*%
%OFA0B0*%
%FSLAX24Y24*%
%IPPOS*%
%LPD*%
%AMOC8*
5,1,8,0,0,1.08239X$1,22.5*
%
%ADD10C,0.0000*%
%ADD11R,0.0276X0.0394*%
D10*
X000100Y000100D02*
X000100Y019785D01*
X019785Y019785D01*
X019785Y000100D01*
X000100Y000100D01*
X003751Y014156D02*
X003753Y014206D01*
X003759Y014256D01*
X003769Y014306D01*
X003782Y014354D01*
X003799Y014402D01*
X003820Y014448D01*
X003844Y014492D01*
X003872Y014534D01*
X003903Y014574D01*
X003937Y014611D01*
X003974Y014646D01*
X004013Y014677D01*
X004054Y014706D01*
X004098Y014731D01*
X004144Y014753D01*
X004191Y014771D01*
X004239Y014785D01*
X004288Y014796D01*
X004338Y014803D01*
X004388Y014806D01*
X004439Y014805D01*
X004489Y014800D01*
X004539Y014791D01*
X004587Y014779D01*
X004635Y014762D01*
X004681Y014742D01*
X004726Y014719D01*
X004769Y014692D01*
X004809Y014662D01*
X004847Y014629D01*
X004882Y014593D01*
X004915Y014554D01*
X004944Y014513D01*
X004970Y014470D01*
X004993Y014425D01*
X005012Y014378D01*
X005027Y014330D01*
X005039Y014281D01*
X005047Y014231D01*
X005051Y014181D01*
X005051Y014131D01*
X005047Y014081D01*
X005039Y014031D01*
X005027Y013982D01*
X005012Y013934D01*
X004993Y013887D01*
X004970Y013842D01*
X004944Y013799D01*
X004915Y013758D01*
X004882Y013719D01*
X004847Y013683D01*
X004809Y013650D01*
X004769Y013620D01*
X004726Y013593D01*
X004681Y013570D01*
X004635Y013550D01*
X004587Y013533D01*
X004539Y013521D01*
X004489Y013512D01*
X004439Y013507D01*
X004388Y013506D01*
X004338Y013509D01*
X004288Y013516D01*
X004239Y013527D01*
X004191Y013541D01*
X004144Y013559D01*
X004098Y013581D01*
X004054Y013606D01*
X004013Y013635D01*
X003974Y013666D01*
X003937Y013701D01*
X003903Y013738D01*
X003872Y013778D01*
X003844Y013820D01*
X003820Y013864D01*
X003799Y013910D01*
X003782Y013958D01*
X003769Y014006D01*
X003759Y014056D01*
X003753Y014106D01*
X003751Y014156D01*
D11*
X009687Y016533D03*
X010277Y016533D03*
X010277Y017557D03*
X009687Y017557D03*
G36*
X004436Y006972D02*
X004631Y006777D01*
X004354Y006500D01*
X004159Y006695D01*
X004436Y006972D01*
G37*
G36*
X004854Y006554D02*
X005049Y006359D01*
X004772Y006082D01*
X004577Y006277D01*
X004854Y006554D01*
G37*
G36*
X004130Y005830D02*
X004325Y005635D01*
X004048Y005358D01*
X003853Y005553D01*
X004130Y005830D01*
G37*
G36*
X003712Y006248D02*
X003907Y006053D01*
X003630Y005776D01*
X003435Y005971D01*
X003712Y006248D01*
G37*
G36*
X014815Y006189D02*
X015010Y006384D01*
X015287Y006107D01*
X015092Y005912D01*
X014815Y006189D01*
G37*
G36*
X015233Y006607D02*
X015428Y006802D01*
X015705Y006525D01*
X015510Y006330D01*
X015233Y006607D01*
G37*
G36*
X015957Y005883D02*
X016152Y006078D01*
X016429Y005801D01*
X016234Y005606D01*
X015957Y005883D01*
G37*
G36*
X015539Y005465D02*
X015734Y005660D01*
X016011Y005383D01*
X015816Y005188D01*
X015539Y005465D01*
G37*
M02*
