G75*
%MOIN*%
%OFA0B0*%
%FSLAX24Y24*%
%IPPOS*%
%LPD*%
%AMOC8*
5,1,8,0,0,1.08239X$1,22.5*
%
%ADD10C,0.0000*%
%ADD11C,0.0060*%
%ADD12C,0.0120*%
%ADD13C,0.0160*%
%ADD14C,0.0050*%
%ADD15C,0.0020*%
%ADD16C,0.0070*%
%ADD17C,0.0040*%
%ADD18R,0.0300X0.0250*%
%ADD19R,0.0500X0.1100*%
D10*
X000100Y000100D02*
X000100Y019785D01*
X019785Y019785D01*
X019785Y000100D01*
X000100Y000100D01*
X003751Y014156D02*
X003753Y014206D01*
X003759Y014256D01*
X003769Y014306D01*
X003782Y014354D01*
X003799Y014402D01*
X003820Y014448D01*
X003844Y014492D01*
X003872Y014534D01*
X003903Y014574D01*
X003937Y014611D01*
X003974Y014646D01*
X004013Y014677D01*
X004054Y014706D01*
X004098Y014731D01*
X004144Y014753D01*
X004191Y014771D01*
X004239Y014785D01*
X004288Y014796D01*
X004338Y014803D01*
X004388Y014806D01*
X004439Y014805D01*
X004489Y014800D01*
X004539Y014791D01*
X004587Y014779D01*
X004635Y014762D01*
X004681Y014742D01*
X004726Y014719D01*
X004769Y014692D01*
X004809Y014662D01*
X004847Y014629D01*
X004882Y014593D01*
X004915Y014554D01*
X004944Y014513D01*
X004970Y014470D01*
X004993Y014425D01*
X005012Y014378D01*
X005027Y014330D01*
X005039Y014281D01*
X005047Y014231D01*
X005051Y014181D01*
X005051Y014131D01*
X005047Y014081D01*
X005039Y014031D01*
X005027Y013982D01*
X005012Y013934D01*
X004993Y013887D01*
X004970Y013842D01*
X004944Y013799D01*
X004915Y013758D01*
X004882Y013719D01*
X004847Y013683D01*
X004809Y013650D01*
X004769Y013620D01*
X004726Y013593D01*
X004681Y013570D01*
X004635Y013550D01*
X004587Y013533D01*
X004539Y013521D01*
X004489Y013512D01*
X004439Y013507D01*
X004388Y013506D01*
X004338Y013509D01*
X004288Y013516D01*
X004239Y013527D01*
X004191Y013541D01*
X004144Y013559D01*
X004098Y013581D01*
X004054Y013606D01*
X004013Y013635D01*
X003974Y013666D01*
X003937Y013701D01*
X003903Y013738D01*
X003872Y013778D01*
X003844Y013820D01*
X003820Y013864D01*
X003799Y013910D01*
X003782Y013958D01*
X003769Y014006D01*
X003759Y014056D01*
X003753Y014106D01*
X003751Y014156D01*
D11*
X003691Y014156D02*
X003693Y014209D01*
X003699Y014262D01*
X003709Y014314D01*
X003723Y014365D01*
X003740Y014415D01*
X003761Y014464D01*
X003786Y014511D01*
X003814Y014556D01*
X003846Y014599D01*
X003881Y014639D01*
X003918Y014676D01*
X003958Y014711D01*
X004001Y014743D01*
X004046Y014771D01*
X004093Y014796D01*
X004142Y014817D01*
X004192Y014834D01*
X004243Y014848D01*
X004295Y014858D01*
X004348Y014864D01*
X004401Y014866D01*
X004454Y014864D01*
X004507Y014858D01*
X004559Y014848D01*
X004610Y014834D01*
X004660Y014817D01*
X004709Y014796D01*
X004756Y014771D01*
X004801Y014743D01*
X004844Y014711D01*
X004884Y014676D01*
X004921Y014639D01*
X004956Y014599D01*
X004988Y014556D01*
X005016Y014511D01*
X005041Y014464D01*
X005062Y014415D01*
X005079Y014365D01*
X005093Y014314D01*
X005103Y014262D01*
X005109Y014209D01*
X005111Y014156D01*
X005109Y014103D01*
X005103Y014050D01*
X005093Y013998D01*
X005079Y013947D01*
X005062Y013897D01*
X005041Y013848D01*
X005016Y013801D01*
X004988Y013756D01*
X004956Y013713D01*
X004921Y013673D01*
X004884Y013636D01*
X004844Y013601D01*
X004801Y013569D01*
X004756Y013541D01*
X004709Y013516D01*
X004660Y013495D01*
X004610Y013478D01*
X004559Y013464D01*
X004507Y013454D01*
X004454Y013448D01*
X004401Y013446D01*
X004348Y013448D01*
X004295Y013454D01*
X004243Y013464D01*
X004192Y013478D01*
X004142Y013495D01*
X004093Y013516D01*
X004046Y013541D01*
X004001Y013569D01*
X003958Y013601D01*
X003918Y013636D01*
X003881Y013673D01*
X003846Y013713D01*
X003814Y013756D01*
X003786Y013801D01*
X003761Y013848D01*
X003740Y013897D01*
X003723Y013947D01*
X003709Y013998D01*
X003699Y014050D01*
X003693Y014103D01*
X003691Y014156D01*
X002774Y013378D02*
X002527Y013131D01*
X001996Y013661D01*
X004896Y016560D01*
X005426Y016030D01*
X005178Y015782D01*
X005603Y015358D01*
X005850Y015606D01*
X009315Y012141D01*
X006416Y009242D01*
X002951Y012707D01*
X003199Y012954D01*
X002774Y013378D01*
X004367Y010583D02*
X004721Y010583D01*
X005074Y010229D01*
X005074Y009876D01*
X005428Y009876D01*
X005782Y009522D01*
X005782Y009169D01*
X006135Y009169D01*
X006489Y008815D01*
X006489Y008462D01*
X006842Y008462D01*
X007196Y008108D01*
X007196Y007755D01*
X007549Y007755D01*
X007903Y007401D01*
X007903Y007047D01*
X008256Y007047D01*
X008610Y006694D01*
X008610Y006340D01*
X008256Y005987D01*
X007903Y005987D01*
X007549Y006340D01*
X007549Y006694D01*
X007196Y006694D01*
X006842Y007047D01*
X006842Y007401D01*
X007196Y007755D01*
X006842Y007401D02*
X006489Y007401D01*
X006135Y007755D01*
X006135Y008108D01*
X005782Y008108D01*
X005428Y008462D01*
X005428Y008815D01*
X005074Y008815D01*
X004721Y009169D01*
X004721Y009522D01*
X004367Y009522D01*
X004014Y009876D01*
X004014Y010229D01*
X004367Y010583D01*
X005074Y009876D02*
X004721Y009522D01*
X005428Y008815D02*
X005782Y009169D01*
X006489Y008462D02*
X006135Y008108D01*
X007549Y006694D02*
X007903Y007047D01*
X009648Y005188D02*
X009648Y004835D01*
X010002Y004481D01*
X010355Y004481D01*
X010709Y004835D01*
X010709Y005188D01*
X011062Y005188D01*
X011416Y005542D01*
X011416Y005895D01*
X011062Y006249D01*
X010709Y006249D01*
X010355Y005895D01*
X010355Y005542D01*
X010709Y005188D01*
X010355Y005542D02*
X010002Y005542D01*
X009648Y005188D01*
X010041Y004291D02*
X010343Y003989D01*
X010343Y004291D02*
X010041Y003989D01*
X011491Y005419D02*
X011793Y005721D01*
X012244Y006464D02*
X012598Y006464D01*
X012952Y006817D01*
X012952Y007171D01*
X013305Y007171D01*
X013659Y007525D01*
X013659Y007878D01*
X013305Y008232D01*
X012952Y008232D01*
X012598Y007878D01*
X012598Y007525D01*
X012952Y007171D01*
X012598Y007525D02*
X012244Y007525D01*
X011891Y007171D01*
X011891Y006817D01*
X012244Y006464D01*
X013659Y007878D02*
X014012Y007878D01*
X014366Y008232D01*
X014366Y008585D01*
X014719Y008585D01*
X015073Y008939D01*
X015073Y009292D01*
X014719Y009646D01*
X014366Y009646D01*
X014012Y009292D01*
X014012Y008939D01*
X014366Y008585D01*
X014012Y008939D02*
X013659Y008939D01*
X013305Y008585D01*
X013305Y008232D01*
X012322Y011085D02*
X011822Y011085D01*
X011572Y011335D01*
X011572Y011835D01*
X011822Y012085D01*
X012322Y012085D01*
X012572Y011835D01*
X012572Y011335D01*
X012322Y011085D01*
X011212Y013655D02*
X010712Y013655D01*
X010462Y013905D01*
X010212Y013655D01*
X009712Y013655D01*
X009462Y013905D01*
X009212Y013655D01*
X008712Y013655D01*
X008462Y013905D01*
X008462Y014405D01*
X008712Y014655D01*
X009212Y014655D01*
X009462Y014405D01*
X009712Y014655D01*
X010212Y014655D01*
X010462Y014405D01*
X010712Y014655D01*
X011212Y014655D01*
X011462Y014405D01*
X011462Y013905D01*
X011212Y013655D01*
X010462Y013905D02*
X010462Y014405D01*
X009462Y014405D02*
X009462Y013905D01*
D12*
X014222Y014229D02*
X015199Y015206D01*
X015524Y014880D02*
X014873Y015532D01*
X015850Y014555D02*
X014873Y013578D01*
X015524Y012927D01*
X016013Y012764D02*
X016013Y012439D01*
X016338Y012113D01*
X016664Y012113D01*
X016827Y012276D01*
X016827Y012602D01*
X016501Y012927D01*
X016501Y013253D01*
X016664Y013415D01*
X016989Y013415D01*
X017315Y013090D01*
X017315Y012764D01*
X016501Y013904D02*
X015850Y014555D01*
X015362Y014067D02*
X015687Y013741D01*
D13*
X016672Y011575D02*
X017952Y010245D01*
X018312Y011915D01*
X016702Y011585D01*
D14*
X014169Y012405D02*
X014169Y012705D01*
X014094Y012780D01*
X013869Y012780D01*
X013869Y012330D01*
X014094Y012330D01*
X014169Y012405D01*
X013709Y012330D02*
X013709Y012630D01*
X013559Y012780D01*
X013408Y012630D01*
X013408Y012330D01*
X013408Y012555D02*
X013709Y012555D01*
X013248Y012555D02*
X013173Y012480D01*
X012948Y012480D01*
X012948Y012330D02*
X012948Y012780D01*
X013173Y012780D01*
X013248Y012705D01*
X013248Y012555D01*
X012788Y012255D02*
X012488Y012255D01*
X012328Y012405D02*
X012328Y012705D01*
X012252Y012780D01*
X012102Y012780D01*
X012027Y012705D01*
X012027Y012405D01*
X012102Y012330D01*
X012252Y012330D01*
X012328Y012405D01*
X011867Y012780D02*
X011567Y012780D01*
X011717Y012780D02*
X011717Y012330D01*
X011357Y012960D02*
X011056Y012960D01*
X011056Y013410D01*
X010896Y013410D02*
X010596Y013410D01*
X010596Y012960D01*
X010896Y012960D01*
X010746Y013185D02*
X010596Y013185D01*
X010436Y013035D02*
X010361Y012960D01*
X010211Y012960D01*
X010136Y013035D01*
X010136Y013335D01*
X010211Y013410D01*
X010361Y013410D01*
X010436Y013335D01*
X009976Y013335D02*
X009901Y013410D01*
X009750Y013410D01*
X009675Y013335D01*
X009675Y013035D01*
X009750Y012960D01*
X009901Y012960D01*
X009976Y013035D01*
X009515Y012960D02*
X009515Y013260D01*
X009365Y013410D01*
X009215Y013260D01*
X009215Y012960D01*
X009215Y013185D02*
X009515Y013185D01*
X012733Y008997D02*
X013052Y008678D01*
X012893Y008838D02*
X012680Y008625D01*
X012673Y008406D02*
X012673Y008300D01*
X012567Y008194D01*
X012461Y008194D01*
X012249Y008406D01*
X012249Y008512D01*
X012355Y008618D01*
X012461Y008618D01*
X012521Y008785D02*
X012840Y008466D01*
X012348Y008080D02*
X012082Y008346D01*
X011870Y008133D02*
X012135Y007868D01*
X012242Y007868D01*
X012348Y007974D01*
X012348Y008080D01*
X012022Y007755D02*
X011810Y007967D01*
X011704Y007967D01*
X011598Y007861D01*
X011598Y007755D01*
X011810Y007543D01*
X011916Y007543D01*
X012022Y007649D01*
X012022Y007755D01*
X011644Y007270D02*
X011325Y007589D01*
X011431Y007695D02*
X011219Y007482D01*
X010708Y007231D02*
X011026Y006913D01*
X010495Y007019D01*
X010814Y006700D01*
X010703Y006589D02*
X010597Y006483D01*
X010650Y006536D02*
X010331Y006855D01*
X010278Y006802D02*
X010384Y006908D01*
X010536Y006317D02*
X010324Y006105D01*
X010158Y006044D02*
X009946Y006044D01*
X009999Y006098D02*
X009839Y005938D01*
X009946Y005832D02*
X009627Y006151D01*
X009786Y006310D01*
X009892Y006310D01*
X009999Y006204D01*
X009999Y006098D01*
X009832Y005719D02*
X009620Y005719D01*
X009620Y005507D01*
X009302Y005825D01*
X009241Y005659D02*
X009135Y005659D01*
X008976Y005500D01*
X009294Y005181D01*
X009188Y005287D02*
X009348Y005446D01*
X009348Y005553D01*
X009241Y005659D01*
X009514Y006037D02*
X009832Y005719D01*
X007779Y005658D02*
X007779Y005764D01*
X007673Y005871D01*
X007567Y005871D01*
X007355Y005658D01*
X007355Y005552D01*
X007461Y005446D01*
X007567Y005446D01*
X007779Y005658D01*
X007454Y005984D02*
X007348Y005878D01*
X007241Y005878D01*
X007082Y006037D01*
X006976Y005931D02*
X007294Y006249D01*
X007454Y006090D01*
X007454Y005984D01*
X007188Y005931D02*
X007188Y005718D01*
X006916Y006097D02*
X006810Y006097D01*
X006704Y006203D01*
X006704Y006309D01*
X006916Y006522D01*
X007022Y006522D01*
X007128Y006416D01*
X007128Y006309D01*
X006858Y006686D02*
X006752Y006792D01*
X006805Y006739D02*
X006487Y006420D01*
X006540Y006367D02*
X006433Y006473D01*
X006320Y006587D02*
X006639Y006905D01*
X006426Y006905D01*
X006426Y007117D01*
X006108Y006799D01*
D15*
X006416Y009595D02*
X004118Y011893D01*
X006663Y014439D01*
X008961Y012141D01*
X006416Y009595D01*
D16*
X005076Y011558D02*
X004927Y011558D01*
X004630Y011855D01*
X004630Y012003D01*
X004779Y012152D01*
X004927Y012152D01*
X005225Y011855D01*
X005225Y011706D01*
X005076Y011558D01*
X005002Y011781D02*
X005299Y011781D01*
X005234Y012162D02*
X005532Y012459D01*
X005680Y012162D02*
X005234Y012608D01*
X005234Y012162D01*
X005542Y012766D02*
X005542Y012915D01*
X005690Y013064D01*
X005839Y013064D01*
X005839Y012469D01*
X005987Y012469D01*
X006136Y012618D01*
X006136Y012766D01*
X005839Y013064D01*
X006072Y013148D02*
X006072Y013445D01*
X006518Y012999D01*
X006369Y012851D02*
X006666Y013148D01*
X005839Y012469D02*
X005542Y012766D01*
D17*
X005165Y013110D02*
X005165Y013195D01*
X005080Y013280D01*
X004995Y013280D01*
X004952Y013237D01*
X004910Y013110D01*
X004783Y013237D01*
X004952Y013407D01*
X005128Y013413D02*
X005170Y013455D01*
X005255Y013455D01*
X005255Y013540D01*
X005340Y013540D01*
X005468Y013413D01*
X005383Y013328D02*
X005255Y013455D01*
X005128Y013413D02*
X005298Y013243D01*
X005165Y013110D02*
X005080Y013025D01*
X004995Y013025D01*
X004906Y012936D02*
X004864Y012894D01*
X004906Y012852D01*
X004949Y012894D01*
X004906Y012936D01*
X004949Y012894D02*
X004949Y012724D01*
X004603Y012549D02*
X004561Y012591D01*
X004561Y012931D01*
X004518Y012973D01*
X004349Y012803D01*
X004173Y012628D02*
X004428Y012373D01*
X004343Y012288D02*
X004513Y012458D01*
X004252Y012198D02*
X004082Y012367D01*
X003913Y012367D01*
X003913Y012198D01*
X004082Y012028D01*
X003955Y012155D02*
X004125Y012325D01*
X004173Y012458D02*
X004173Y012628D01*
X005388Y013673D02*
X005558Y013504D01*
X005643Y013588D02*
X005516Y013716D01*
X005516Y013801D01*
X005601Y013801D01*
X005728Y013673D01*
X005516Y013716D02*
X005431Y013716D01*
X005388Y013673D01*
X008159Y016845D02*
X008312Y016845D01*
X008389Y016922D01*
X008542Y017075D02*
X008849Y017075D01*
X009003Y016922D02*
X009079Y016845D01*
X009233Y016845D01*
X009310Y016922D01*
X009310Y017229D01*
X009003Y016922D01*
X009003Y017229D01*
X009079Y017305D01*
X009233Y017305D01*
X009310Y017229D01*
X009463Y017229D02*
X009540Y017305D01*
X009693Y017305D01*
X009770Y017229D01*
X009770Y017152D01*
X009463Y016845D01*
X009770Y016845D01*
X010312Y016942D02*
X010312Y017249D01*
X010389Y017325D01*
X010542Y017325D01*
X010619Y017249D01*
X010772Y017095D02*
X011079Y017095D01*
X011233Y016942D02*
X011309Y016865D01*
X011463Y016865D01*
X011540Y016942D01*
X011540Y017249D01*
X011233Y016942D01*
X011233Y017249D01*
X011309Y017325D01*
X011463Y017325D01*
X011540Y017249D01*
X011693Y017172D02*
X011847Y017325D01*
X011847Y016865D01*
X012000Y016865D02*
X011693Y016865D01*
X011002Y016865D02*
X011002Y017325D01*
X010772Y017095D01*
X010619Y016942D02*
X010542Y016865D01*
X010389Y016865D01*
X010312Y016942D01*
X008772Y016845D02*
X008772Y017305D01*
X008542Y017075D01*
X008389Y017229D02*
X008312Y017305D01*
X008159Y017305D01*
X008082Y017229D01*
X008082Y016922D01*
X008159Y016845D01*
D18*
G36*
X009633Y010549D02*
X009422Y010338D01*
X009245Y010515D01*
X009456Y010726D01*
X009633Y010549D01*
G37*
G36*
X008926Y009842D02*
X008715Y009631D01*
X008538Y009808D01*
X008749Y010019D01*
X008926Y009842D01*
G37*
G36*
X008219Y009135D02*
X008008Y008924D01*
X007831Y009101D01*
X008042Y009312D01*
X008219Y009135D01*
G37*
D19*
G36*
X008112Y009383D02*
X007759Y009030D01*
X006982Y009807D01*
X007335Y010160D01*
X008112Y009383D01*
G37*
G36*
X008819Y010090D02*
X008466Y009737D01*
X007689Y010514D01*
X008042Y010867D01*
X008819Y010090D01*
G37*
G36*
X009526Y010798D02*
X009173Y010445D01*
X008396Y011222D01*
X008749Y011575D01*
X009526Y010798D01*
G37*
M02*
