G75*
%MOIN*%
%OFA0B0*%
%FSLAX24Y24*%
%IPPOS*%
%LPD*%
%AMOC8*
5,1,8,0,0,1.08239X$1,22.5*
%
%ADD10C,0.0000*%
%ADD11C,0.0600*%
%ADD12OC8,0.0600*%
%ADD13C,0.0660*%
%ADD14R,0.1299X0.1890*%
%ADD15C,0.0160*%
%ADD16C,0.0396*%
D10*
X000100Y000100D02*
X000100Y019785D01*
X019785Y019785D01*
X019785Y000100D01*
X000100Y000100D01*
X003751Y014156D02*
X003753Y014206D01*
X003759Y014256D01*
X003769Y014306D01*
X003782Y014354D01*
X003799Y014402D01*
X003820Y014448D01*
X003844Y014492D01*
X003872Y014534D01*
X003903Y014574D01*
X003937Y014611D01*
X003974Y014646D01*
X004013Y014677D01*
X004054Y014706D01*
X004098Y014731D01*
X004144Y014753D01*
X004191Y014771D01*
X004239Y014785D01*
X004288Y014796D01*
X004338Y014803D01*
X004388Y014806D01*
X004439Y014805D01*
X004489Y014800D01*
X004539Y014791D01*
X004587Y014779D01*
X004635Y014762D01*
X004681Y014742D01*
X004726Y014719D01*
X004769Y014692D01*
X004809Y014662D01*
X004847Y014629D01*
X004882Y014593D01*
X004915Y014554D01*
X004944Y014513D01*
X004970Y014470D01*
X004993Y014425D01*
X005012Y014378D01*
X005027Y014330D01*
X005039Y014281D01*
X005047Y014231D01*
X005051Y014181D01*
X005051Y014131D01*
X005047Y014081D01*
X005039Y014031D01*
X005027Y013982D01*
X005012Y013934D01*
X004993Y013887D01*
X004970Y013842D01*
X004944Y013799D01*
X004915Y013758D01*
X004882Y013719D01*
X004847Y013683D01*
X004809Y013650D01*
X004769Y013620D01*
X004726Y013593D01*
X004681Y013570D01*
X004635Y013550D01*
X004587Y013533D01*
X004539Y013521D01*
X004489Y013512D01*
X004439Y013507D01*
X004388Y013506D01*
X004338Y013509D01*
X004288Y013516D01*
X004239Y013527D01*
X004191Y013541D01*
X004144Y013559D01*
X004098Y013581D01*
X004054Y013606D01*
X004013Y013635D01*
X003974Y013666D01*
X003937Y013701D01*
X003903Y013738D01*
X003872Y013778D01*
X003844Y013820D01*
X003820Y013864D01*
X003799Y013910D01*
X003782Y013958D01*
X003769Y014006D01*
X003759Y014056D01*
X003753Y014106D01*
X003751Y014156D01*
D11*
X004756Y010265D02*
X004332Y009841D01*
X005039Y009133D02*
X005463Y009558D01*
X006170Y008851D02*
X005746Y008426D01*
X006453Y007719D02*
X006878Y008143D01*
X007585Y007436D02*
X007160Y007012D01*
X007868Y006305D02*
X008292Y006729D01*
X009966Y005223D02*
X010390Y004799D01*
X011098Y005506D02*
X010673Y005931D01*
X012209Y007206D02*
X012633Y006782D01*
X013340Y007489D02*
X012916Y007913D01*
X013623Y008621D02*
X014048Y008196D01*
X014755Y008903D02*
X014330Y009328D01*
X010962Y013855D02*
X010962Y014455D01*
X009962Y014455D02*
X009962Y013855D01*
X008962Y013855D02*
X008962Y014455D01*
D12*
X012072Y011585D03*
D13*
X010220Y009751D02*
X009753Y010218D01*
X009046Y009510D02*
X009513Y009044D01*
X008806Y008337D02*
X008339Y008803D01*
D14*
G36*
X005885Y007612D02*
X006803Y006694D01*
X005467Y005358D01*
X004549Y006276D01*
X005885Y007612D01*
G37*
G36*
X004771Y008726D02*
X005689Y007808D01*
X004353Y006472D01*
X003435Y007390D01*
X004771Y008726D01*
G37*
G36*
X003017Y006972D02*
X003935Y006054D01*
X002599Y004718D01*
X001681Y005636D01*
X003017Y006972D01*
G37*
G36*
X004131Y005858D02*
X005049Y004940D01*
X003713Y003604D01*
X002795Y004522D01*
X004131Y005858D01*
G37*
X009194Y015805D03*
X010769Y015805D03*
X010769Y018285D03*
X009194Y018285D03*
G36*
X014175Y007638D02*
X015093Y008556D01*
X016429Y007220D01*
X015511Y006302D01*
X014175Y007638D01*
G37*
G36*
X013061Y006524D02*
X013979Y007442D01*
X015315Y006106D01*
X014397Y005188D01*
X013061Y006524D01*
G37*
G36*
X014815Y004770D02*
X015733Y005688D01*
X017069Y004352D01*
X016151Y003434D01*
X014815Y004770D01*
G37*
G36*
X015929Y005884D02*
X016847Y006802D01*
X018183Y005466D01*
X017265Y004548D01*
X015929Y005884D01*
G37*
D15*
X015898Y004561D02*
X015942Y004561D01*
X015898Y004561D02*
X015262Y003925D01*
X012421Y006994D02*
X012303Y006994D01*
X011682Y007615D01*
X010202Y007615D01*
X009562Y006975D01*
X009562Y005628D01*
X010178Y005011D01*
X009655Y005535D01*
X007097Y005535D01*
X006782Y005535D01*
X005832Y006485D01*
X005676Y006485D01*
X007097Y005535D02*
X008080Y006517D01*
X007373Y007224D02*
X007613Y007465D01*
X008802Y007465D01*
X009667Y008330D01*
X009547Y008330D01*
X008512Y009365D01*
X008512Y012705D01*
X009962Y014155D01*
X010962Y014155D02*
X010962Y009009D01*
X011682Y008289D01*
X011682Y007615D01*
X010962Y009009D02*
X009987Y009984D01*
X010142Y008455D02*
X009792Y008455D01*
X009667Y008330D01*
X007732Y008895D02*
X006768Y007931D01*
X006665Y007931D01*
X007732Y008895D02*
X007732Y012925D01*
X008962Y014155D01*
X007342Y014075D02*
X009072Y015805D01*
X009194Y015805D01*
X007342Y014075D02*
X007342Y011436D01*
X005251Y009346D01*
X004544Y010053D02*
X002808Y008317D01*
X002808Y005845D01*
X015302Y007429D02*
X017978Y007429D01*
X018102Y007305D01*
X013342Y018115D02*
X010939Y018115D01*
X010769Y018285D01*
D16*
X013342Y018115D03*
X010142Y008455D03*
X015262Y003925D03*
X018102Y007305D03*
M02*
